<?xml version="1.0" encoding="UTF-8" standalone="no"?>
<!-- Created with Inkscape (http://www.inkscape.org/) -->

<svg
   xmlns:dc="http://purl.org/dc/elements/1.1/"
   xmlns:cc="http://creativecommons.org/ns#"
   xmlns:rdf="http://www.w3.org/1999/02/22-rdf-syntax-ns#"
   xmlns:svg="http://www.w3.org/2000/svg"
   xmlns="http://www.w3.org/2000/svg"
   xmlns:sodipodi="http://sodipodi.sourceforge.net/DTD/sodipodi-0.dtd"
   xmlns:inkscape="http://www.inkscape.org/namespaces/inkscape"
   width="210mm"
   height="297mm"
   viewBox="0 0 210 297"
   version="1.1"
   id="svg8"
   inkscape:version="0.92.4 (5da689c313, 2019-01-14)"
   sodipodi:docname="Acte7-11.svg"
   inkscape:export-filename="/home/jeremy/Documents/BaronsFreaks/NouvellesAventures/LesNouvellesAventuresDesBaronsFreaks/Artistique/Storyboard/pix/Acte07/Acte7-11.png"
   inkscape:export-xdpi="96"
   inkscape:export-ydpi="96">
  <defs
     id="defs2" />
  <sodipodi:namedview
     id="base"
     pagecolor="#ffffff"
     bordercolor="#666666"
     borderopacity="1.0"
     inkscape:pageopacity="0.0"
     inkscape:pageshadow="2"
     inkscape:zoom="1.4"
     inkscape:cx="117.45381"
     inkscape:cy="581.20222"
     inkscape:document-units="mm"
     inkscape:current-layer="layer1"
     showgrid="false"
     inkscape:window-width="1366"
     inkscape:window-height="704"
     inkscape:window-x="1024"
     inkscape:window-y="27"
     inkscape:window-maximized="1" />
  <metadata
     id="metadata5">
    <rdf:RDF>
      <cc:Work
         rdf:about="">
        <dc:format>image/svg+xml</dc:format>
        <dc:type
           rdf:resource="http://purl.org/dc/dcmitype/StillImage" />
        <dc:title />
      </cc:Work>
    </rdf:RDF>
  </metadata>
  <g
     inkscape:label="Calque 1"
     inkscape:groupmode="layer"
     id="layer1">
    <path
       style="fill:none;stroke:#000000;stroke-width:0.26458332px;stroke-linecap:butt;stroke-linejoin:miter;stroke-opacity:1"
       d="m 86.996229,88.128863 c -0.178178,0.04454 -0.489992,0.311814 -0.534537,0.133636 -0.04455,-0.178181 0.466328,-0.304163 0.534537,-0.133636 0.104632,0.261577 -0.206153,0.526791 -0.267269,0.801809 -0.02899,0.130453 0,0.267269 0,0.400905 0,0.178178 0,0.356359 0,0.534537 0,0.35636 0,0.712719 0,1.069078 0,0.178181 0.01968,0.35745 0,0.534541 -0.02508,0.225745 -0.111032,0.442163 -0.133635,0.668173 -0.02217,0.221618 0,0.44545 0,0.668174 0,0.801809 0,1.603618 0,2.405425 0,2.65799 0.0441,-0.795092 -0.133633,1.870887 -0.02371,0.355571 0.02223,0.713412 0,1.069078 -0.02241,0.358434 -0.111234,0.710644 -0.133636,1.069078 -0.02223,0.355666 0.02093,0.713335 0,1.069082 -0.02368,0.40267 -0.08909,0.80181 -0.133633,1.20271 -0.04455,0.4009 -0.07073,0.80428 -0.133636,1.20271 -0.07085,0.44871 -0.178181,0.8909 -0.267269,1.33635 -0.178181,0.8909 -0.36454,1.7802 -0.53454,2.67269 -0.28411,1.49158 -0.472895,2.95623 -0.935443,4.40995 -0.158085,0.49684 -0.356359,0.97999 -0.53454,1.46998 -0.356359,0.97999 -0.739325,1.95071 -1.069078,2.93997 -0.147066,0.4412 -0.253839,0.89515 -0.400905,1.33635 -0.164875,0.49463 -0.376451,0.97314 -0.534537,1.46998 -0.48726,1.53138 -0.287938,1.33813 -0.801809,2.80633 -0.430332,1.22952 -0.67718,1.58009 -1.202714,2.80633 -0.188987,0.44097 -0.337659,0.89884 -0.534538,1.33635 -0.204372,0.45416 -0.44545,0.8909 -0.668173,1.33635 -0.44545,0.89089 -0.908111,1.77339 -1.336347,2.67269 -0.231408,0.48595 -0.418428,0.99319 -0.668176,1.46998 -0.241041,0.46017 -0.551461,0.88118 -0.801807,1.33635 -0.240009,0.43638 -0.411943,0.90929 -0.668173,1.33635 -0.279752,0.46625 -0.639112,0.88045 -0.935445,1.33635 -0.28311,0.43555 -0.518697,0.90079 -0.80181,1.33634 -0.29633,0.4559 -0.623628,0.8909 -0.935442,1.33635 -0.311814,0.44545 -0.623628,0.8909 -0.935442,1.33635 -1.268508,1.81215 -0.643525,0.87761 -1.870887,2.80633 -0.311815,0.48999 -0.597863,0.99737 -0.935445,1.46998 -0.331568,0.4642 -0.712719,0.8909 -1.069078,1.33635 -0.35636,0.44545 -0.699625,0.90169 -1.069078,1.33634 -0.388128,0.45663 -0.801807,0.8909 -1.202712,1.33635 -0.400904,0.44545 -0.790553,0.90129 -1.202713,1.33635 -0.389927,0.41159 -0.812787,0.79112 -1.202714,1.20271 -0.412158,0.43506 -0.778949,0.91259 -1.202711,1.33635 -0.379289,0.37929 -0.823429,0.68979 -1.202714,1.06908 -0.379286,0.37929 -0.701453,0.81211 -1.069078,1.20271 -0.690803,0.73398 -1.425438,1.42544 -2.138156,2.13816 -0.35636,0.35636 -0.691185,0.73564 -1.069078,1.06908 -0.73251,0.64633 -1.517185,1.12413 -2.271792,1.73725 -2.848123,2.3141 0.766199,-0.40721 -2.271789,1.73725 -0.727837,0.51377 -1.410322,1.08985 -2.138156,1.60362 -4.001056,2.82427 1.341548,-1.01419 -2.271792,1.46998 -0.36707,0.25236 -0.702009,0.54945 -1.069078,0.80181 -0.346292,0.23807 -0.712719,0.44545 -1.069078,0.66817 -0.35636,0.22273 -0.706864,0.45511 -1.069078,0.66818 -1.593536,0.93737 -0.744316,0.3664 -2.138157,1.20271 -0.360349,0.21621 -0.70281,0.46215 -1.069078,0.66817 -1.208034,0.67952 -0.887439,0.35096 -2.00452,1.06908 -0.322331,0.20721 -0.623631,0.44545 -0.935445,0.66817 -0.311814,0.22273 -0.634135,0.43144 -0.935442,0.66818 -0.322929,0.25373 -0.612516,0.54808 -0.935445,0.80181 -0.301308,0.23674 -0.634132,0.43143 -0.935442,0.66817 -1.417921,1.11408 -0.42254,0.50442 -1.870888,1.46998 -0.349657,0.23311 -0.71942,0.43507 -1.069078,0.66818 -0.318833,0.21255 -0.620387,0.45005 -0.935442,0.66817 -0.684445,0.47385 -0.988219,0.66575 -1.737252,1.06908 -0.5262,0.28334 -1.069078,0.53454 -1.603618,0.80181 -0.267269,0.13363 -0.529775,0.27725 -0.801809,0.4009 -0.218379,0.0993 -0.458478,0.15077 -0.668174,0.26727 -0.873252,0.48514 -0.174916,0.33286 -1.069077,0.66818 -1.534626,0.38365 0.356573,-0.15282 -0.935444,0.4009 -0.168813,0.0724 -0.370265,0.0515 -0.534539,0.13363 -0.11269,0.0563 -0.166475,0.19168 -0.267269,0.26727 -0.159369,0.11953 -0.368786,0.15677 -0.534539,0.26727 -0.247699,0.16514 -0.01226,0.13364 -0.26727,0.13364"
       id="path10"
       inkscape:connector-curvature="0"
       inkscape:export-xdpi="96"
       inkscape:export-ydpi="96" />
    <path
       style="fill:none;stroke:#000000;stroke-width:0.26458332px;stroke-linecap:butt;stroke-linejoin:miter;stroke-opacity:1"
       d="m 93.143429,85.990707 c -0.329949,0.150024 -0.600795,0.133635 -0.935443,0.133635 -0.04454,0 -0.102137,-0.0315 -0.133635,0 -0.0315,0.0315 0,0.08909 0,0.133634 0,0.318539 -0.02471,0.009 0.267268,0.53454 0.516949,0.930502 0.315794,0.634563 0.668177,1.603616 0.163954,0.450879 0.370583,0.88547 0.534537,1.336349 0.09628,0.264763 0.166135,0.538859 0.267269,0.801807 0.121783,0.316632 0.286806,0.615963 0.400905,0.935445 0.109072,0.305398 0.164719,0.627792 0.267269,0.935442 0.120356,0.361061 0.308599,0.699849 0.400904,1.069078 0.03674,0.146934 0.259009,2.197439 0.267272,2.271792 0.133625,1.202624 0.274232,2.404763 0.400904,3.608139 0.140563,1.335356 0.273601,2.672356 0.400902,4.009046 2.33e-4,0.002 0.26724,2.93973 0.267272,2.93996 0.06729,0.49346 0.181935,0.97932 0.267269,1.46998 0.09285,0.5339 0.156744,1.0731 0.267268,1.60362 0.112377,0.53941 0.292847,1.06333 0.400905,1.60362 0.229807,1.14904 0.304731,2.32546 0.53454,3.4745 1.16187,5.80936 -0.388307,-2.84773 0.801807,3.34087 0.110646,0.57535 0.152366,1.16273 0.267271,1.73725 0.108056,0.54029 0.277009,1.06674 0.400902,1.60362 0.143415,0.62145 0.240845,1.25351 0.400905,1.87089 0.152053,0.58648 0.382487,1.15076 0.534543,1.73725 0.16006,0.61737 0.26255,1.24829 0.4009,1.87089 0.25785,1.1603 0.54396,2.31419 0.80181,3.4745 0.17665,0.79492 0.58249,2.79353 0.80181,3.60814 1.44536,5.36849 -0.40275,-2.06892 1.06908,3.60814 0.4723,1.82175 0.7186,3.69444 1.33635,5.47902 0.18942,0.54723 0.43727,1.07256 0.66817,1.60362 0.56378,1.29669 0.83129,1.72678 1.33635,3.0736 0.93573,2.49528 0.11285,0.70877 1.06907,2.93996 0.52456,1.22396 0.75105,1.63572 1.33635,2.80633 0.22273,0.44545 0.42817,0.89997 0.66817,1.33635 0.25035,0.45518 0.55147,0.88117 0.80181,1.33635 0.24001,0.43638 0.41865,0.90534 0.66818,1.33634 0.24141,0.41699 0.53454,0.80181 0.80181,1.20272 0.26726,0.4009 0.53454,0.80181 0.80181,1.20271 0.26726,0.40091 0.55055,0.79158 0.8018,1.20271 1.9639,3.21365 -0.65539,-0.73915 1.46998,2.27179 0.55573,0.78728 1.0479,1.61816 1.60362,2.40543 0.25689,0.36392 0.53454,0.71272 0.80181,1.06908 0.26727,0.35636 0.52091,0.72336 0.80181,1.06908 0.2986,0.3675 0.62532,0.71124 0.93544,1.06907 0.8892,1.026 1.7835,2.0476 2.6727,3.0736 0.26897,0.31035 0.53454,0.62363 0.80181,0.93545 0.26727,0.35636 0.51191,0.73087 0.80181,1.06908 0.24598,0.28698 0.53454,0.53454 0.8018,0.8018 0.31182,0.31182 0.61231,0.63539 0.93545,0.93545 0.36511,0.33903 1.32687,1.12273 1.73725,1.46998 0.31351,0.26528 0.61251,0.54808 0.93544,0.80181 0.30131,0.23674 0.63172,0.43454 0.93545,0.66817 0.27576,0.21212 0.52605,0.45605 0.8018,0.66818 0.30373,0.23363 0.63172,0.43453 0.93545,0.66817 1.02689,0.78992 0.59502,0.60206 1.73725,1.33635 0.30209,0.1942 0.62959,0.34632 0.93544,0.53454 0.54714,0.33669 1.0487,0.74537 1.60362,1.06907 0.25811,0.15057 0.53454,0.26727 0.80181,0.40091 0.26727,0.13363 0.53454,0.26727 0.80181,0.4009 0.26727,0.13364 0.53454,0.26727 0.80181,0.40091 0.26727,0.13363 0.52597,0.28597 0.8018,0.4009 0.26006,0.10836 0.53705,0.17099 0.80181,0.26727 2.04545,0.7438 -0.86972,-0.24536 1.46999,0.53454 0.26726,0.0891 0.53454,0.17818 0.8018,0.26727 0.26727,0.0891 0.5285,0.19894 0.80181,0.26727 0.26287,0.0657 0.5404,0.0623 0.80181,0.13364 0.23143,0.0631 0.43841,0.19833 0.66817,0.26726 0.21756,0.0653 0.44645,0.0844 0.66818,0.13364 0.17929,0.0398 0.35636,0.0891 0.53454,0.13363 0.35636,0.0891 0.71588,0.16636 1.06908,0.26727 0.13544,0.0387 0.26277,0.10601 0.4009,0.13364 0.0874,0.0175 0.17991,-0.0175 0.26727,0 0.13813,0.0276 0.26278,0.10601 0.4009,0.13363 0.0874,0.0175 0.18084,-0.0216 0.26727,0 0.61423,0.15356 0.0303,0.13364 0.40091,0.13364 0.0445,0 0.0891,0 0.13363,0 0.0446,0 0.11372,0.0398 0.13364,0 0.0398,-0.0797 0.0147,-0.17939 0,-0.26727 -0.091,-0.54585 -0.15018,-0.56762 -0.40091,-1.06908 -0.17818,-0.35636 -0.35636,-0.71272 -0.53454,-1.06908"
       id="path12"
       inkscape:connector-curvature="0"
       inkscape:export-xdpi="96"
       inkscape:export-ydpi="96" />
    <path
       style="fill:none;stroke:#000000;stroke-width:0.26458332px;stroke-linecap:butt;stroke-linejoin:miter;stroke-opacity:1"
       d="m 68.053502,154.91284 c -0.144968,-0.031 -0.286631,-0.0818 -0.434313,-0.10023 -0.03315,-0.004 -0.06682,0 -0.100225,0 -0.02228,0 -0.04498,-0.004 -0.06682,0 -0.03453,0.007 -0.06682,0.0223 -0.100227,0.0334 -0.06682,0.0223 -0.132731,0.0475 -0.200451,0.0668 -0.04415,0.0126 -0.09143,0.0153 -0.133636,0.0334 -0.03691,0.0158 -0.06682,0.0446 -0.100227,0.0668 -0.03341,0.0223 -0.06682,0.0446 -0.100224,0.0668 -0.06682,0.0445 -0.138761,0.0822 -0.200454,0.13363 -0.07259,0.0605 -0.127859,0.13996 -0.200451,0.20045 -0.08767,0.0731 -0.102245,0.0472 -0.167044,0.13364 -0.01495,0.0199 -0.0158,0.0492 -0.03341,0.0668 -0.01762,0.0176 -0.0461,0.0196 -0.06682,0.0334 -0.04916,0.0328 -0.03341,0.0408 -0.03341,0.10022 0,0.0111 -0.0035,0.0228 0,0.0334 0.009,0.027 0.08395,0.17876 0.100224,0.20045 0.01889,0.0252 0.04714,0.0422 0.06682,0.0668 0.02508,0.0314 0.04111,0.0694 0.06682,0.10023 0.05942,0.0713 0.156919,0.15236 0.233859,0.20045 0.04223,0.0264 0.0914,0.0404 0.133636,0.0668 0.04722,0.0295 0.08496,0.0732 0.133636,0.10022 7.94e-4,5.3e-4 0.331547,0.13251 0.334087,0.13364 0.04551,0.0202 0.08639,0.0511 0.133633,0.0668 0.05387,0.018 0.111612,0.0211 0.167044,0.0334 0.04482,0.01 0.088,0.0283 0.133634,0.0334 0.05534,0.006 0.111363,0 0.167044,0 0.05568,0 0.111702,0.006 0.167045,0 0.04563,-0.005 0.08881,-0.0234 0.133633,-0.0334 0.05543,-0.0123 0.113173,-0.0155 0.167045,-0.0334 0.04725,-0.0158 0.08812,-0.0466 0.133633,-0.0668 0.0548,-0.0244 0.11462,-0.0377 0.167045,-0.0668 0.09643,-0.0536 0.157903,-0.12449 0.233859,-0.20045 0.04455,-0.0446 0.09215,-0.0862 0.133636,-0.13364 0.03667,-0.0419 0.06356,-0.0917 0.100227,-0.13363 0.04148,-0.0474 0.09496,-0.0839 0.133633,-0.13364 7.94e-4,-7.9e-4 0.198827,-0.33164 0.200454,-0.33408 0.03088,-0.0463 0.07318,-0.085 0.100224,-0.13364 0.02913,-0.0524 0.04246,-0.11224 0.06682,-0.16704 0.02021,-0.0455 0.05474,-0.0853 0.06682,-0.13364 0.01079,-0.0432 0,-0.0891 0,-0.13363 0,-0.0446 0,-0.0891 0,-0.13364 0,-0.0937 0.01056,-0.1125 -0.03341,-0.20045 -0.07,-0.14 -0.0525,-0.0716 -0.167042,-0.16704 -0.124968,-0.10414 -0.06901,-0.11209 -0.233863,-0.16705 -0.05387,-0.018 -0.113173,-0.0154 -0.167042,-0.0334 -0.04725,-0.0157 -0.08639,-0.0511 -0.133636,-0.0668 -0.05387,-0.018 -0.111363,-0.0223 -0.167044,-0.0334 -0.05568,-0.0111 -0.110607,-0.0271 -0.167042,-0.0334 -0.04427,-0.005 -0.08909,0 -0.133636,0 -0.05568,0 -0.111792,-0.007 -0.167042,0 -0.03494,0.004 -0.06682,0.0223 -0.100227,0.0334 -0.03341,0.0111 -0.06873,0.0177 -0.100227,0.0334 -0.08429,0.0421 -0.104894,0.0715 -0.167042,0.13363"
       id="path44"
       inkscape:connector-curvature="0"
       inkscape:export-xdpi="96"
       inkscape:export-ydpi="96" />
    <path
       style="fill:none;stroke:#000000;stroke-width:0.26458332px;stroke-linecap:butt;stroke-linejoin:miter;stroke-opacity:1"
       d="m 76.138407,155.1801 c -0.180549,0.10833 -0.121129,0.0543 -0.200454,0.13364 -0.01114,0.0111 -0.02635,0.0193 -0.03341,0.0334 -0.01574,0.0315 -0.02487,0.0661 -0.03341,0.10022 -0.04433,0.17732 -0.03341,0.15373 -0.03341,0.33409 0,0.0668 -0.01196,0.13471 0,0.20045 0.01072,0.059 0.04454,0.11136 0.06682,0.16705 0.02228,0.0557 0.04,0.1134 0.06682,0.16704 0.04269,0.0854 0.13517,0.22607 0.200454,0.30068 0.04148,0.0474 0.08909,0.0891 0.133633,0.13363 0.04454,0.0445 0.08391,0.095 0.133635,0.13364 0.11566,0.09 0.2017,0.11409 0.334087,0.16704 0.219766,0.0879 0.108239,0.0551 0.334087,0.10023 0.167045,0.0334 0.167045,0.0557 0.334087,0 0.04725,-0.0157 0.08909,-0.0445 0.133635,-0.0668 0.04455,-0.0223 0.0914,-0.0404 0.133634,-0.0668 0.07959,-0.0497 0.21242,-0.16073 0.267271,-0.23386 0.02988,-0.0398 0.04454,-0.0891 0.06681,-0.13363 0.02228,-0.0446 0.04454,-0.0891 0.06682,-0.13364 0.02228,-0.0445 0.05474,-0.0853 0.06682,-0.13363 0.01079,-0.0432 0,-0.0891 0,-0.13364 0,-0.0445 0.0055,-0.0894 0,-0.13363 -0.01722,-0.13781 -0.08802,-0.25687 -0.167045,-0.3675 -0.03236,-0.0453 -0.06085,-0.0943 -0.100224,-0.13363 -0.03937,-0.0394 -0.08909,-0.0668 -0.133636,-0.10023 -0.04454,-0.0334 -0.08496,-0.0732 -0.133635,-0.10023 -0.05242,-0.0291 -0.111361,-0.0445 -0.167042,-0.0668 -0.110705,-0.0443 -0.253119,-0.10504 -0.367496,-0.13364 -0.06181,-0.0155 -0.38486,-0.0598 -0.434314,-0.0668"
       id="path46"
       inkscape:connector-curvature="0"
       inkscape:export-xdpi="96"
       inkscape:export-ydpi="96" />
    <path
       style="fill:none;stroke:#000000;stroke-width:0.26458332px;stroke-linecap:butt;stroke-linejoin:miter;stroke-opacity:1"
       d="m 70.69279,155.5476 c -0.03267,-0.19603 -0.07533,-0.17019 0.03341,-0.30068 0.03025,-0.0363 0.0592,-0.0768 0.100224,-0.10022 0.03987,-0.0228 0.08861,-0.0244 0.133635,-0.0334 0.06642,-0.0133 0.132993,-0.0273 0.200454,-0.0334 0.05545,-0.005 0.111361,0 0.167042,0 0.07795,0 0.155909,0 0.23386,0 0.06682,0 0.133832,-0.005 0.200454,0 0.07983,0.006 0.346371,0.0522 0.434313,0.0668 0.06549,0.0109 0.294119,0.0468 0.367496,0.0668 0.06795,0.0185 0.13426,0.0427 0.200451,0.0668 0.11272,0.041 0.222723,0.0891 0.334087,0.13363 0.05568,0.0223 0.112241,0.0425 0.167044,0.0668 0.174636,0.0776 0.102611,0.0676 0.300678,0.13364 0.04356,0.0145 0.09007,0.0189 0.133633,0.0334 0.05689,0.019 0.109604,0.0496 0.167045,0.0668 0.147762,0.0443 0.182705,0.0334 0.334087,0.0334 0.151381,0 0.186324,0.0109 0.334086,-0.0334 0.05744,-0.0172 0.111363,-0.0445 0.167045,-0.0668 0.140861,-0.0564 0.209248,-0.0734 0.334087,-0.16705 0.0378,-0.0283 0.06682,-0.0668 0.100224,-0.10022 0.03341,-0.0334 0.07277,-0.0618 0.100227,-0.10023 0.02895,-0.0405 0.04454,-0.0891 0.06682,-0.13363"
       id="path48"
       inkscape:connector-curvature="0"
       inkscape:export-xdpi="96"
       inkscape:export-ydpi="96" />
    <path
       style="fill:none;stroke:#000000;stroke-width:0.26458332px;stroke-linecap:butt;stroke-linejoin:miter;stroke-opacity:1"
       d="m 67.853046,154.445 c -0.167042,-0.1336 -0.320265,-0.28659 -0.501126,-0.40079 -0.04627,-0.0292 -0.273709,0.0285 -0.300678,0.0334 -0.06665,0.0121 -0.133805,0.0213 -0.200451,0.0334 -0.111736,0.0203 -0.222726,0.0445 -0.334087,0.0668 -0.05568,0.0111 -0.112262,0.0185 -0.167044,0.0334 -0.06795,0.0185 -0.133636,0.0445 -0.200451,0.0668 -0.06682,0.0223 -0.134263,0.0427 -0.200454,0.0668 -0.05636,0.0205 -0.110683,0.0463 -0.167042,0.0668 -0.114345,0.0416 -0.256821,0.0783 -0.367496,0.13364 -0.05808,0.029 -0.108966,0.0712 -0.167044,0.10022 -0.209135,0.10457 -0.109279,0.0364 -0.300678,0.10023 -0.05689,0.019 -0.110152,0.0479 -0.167045,0.0668 -0.03865,0.0129 -0.274198,0.0668 -0.300678,0.0668 -0.04592,0 -0.08881,-0.0235 -0.133633,-0.0334 -0.105156,-0.0234 -0.213368,-0.0254 -0.30068,-0.10023 -0.04228,-0.0362 -0.06399,-0.0914 -0.100224,-0.13363 -0.179914,-0.2099 -0.03536,0.029 -0.167045,-0.26727 -0.02021,-0.0455 -0.05601,-0.085 -0.06682,-0.13364 -0.01206,-0.0543 0.0061,-0.1117 0,-0.16704 -0.0051,-0.0456 -0.03341,-0.0877 -0.03341,-0.13363 0,-0.0568 0.02109,-0.11162 0.03341,-0.16705 0.0299,-0.13453 0.02979,-0.144 0.100227,-0.26727 0.01992,-0.0349 0.03842,-0.0718 0.06682,-0.10022 0.07509,-0.0751 0.109879,-0.064 0.200451,-0.10023 0.02312,-0.009 0.04192,-0.0334 0.06682,-0.0334 0.02246,0 0.140422,0.0469 0.167044,0.0668 0.07484,0.0561 0.125617,0.14432 0.200451,0.20045 0.01992,0.0149 0.04454,0.0223 0.06682,0.0334 0.107887,0.0539 0.04266,0.0274 0.200451,0.0668 0.04454,0.0111 0.08795,0.0288 0.133636,0.0334 0.06648,0.007 0.133636,0 0.200451,0 0.222726,0 0.44545,0 0.668176,0 0.278405,0 0.55681,0 0.835215,0 0.111364,0 0.222727,0 0.334087,0 0.05568,0 0.111638,0.006 0.167045,0 0.117364,-0.0117 0.228894,-0.0476 0.334087,-0.10022 0.191238,-0.0956 0.156913,-0.10501 0.334086,-0.23386 0.06495,-0.0472 0.133636,-0.0891 0.200451,-0.13364 0.06682,-0.0445 0.132062,-0.0915 0.200454,-0.13363 0.152929,-0.0941 0.314793,-0.17316 0.467722,-0.26727 0.06839,-0.0421 0.131086,-0.0932 0.200451,-0.13364 0.136615,-0.0797 0.249161,-0.12565 0.400905,-0.16704 0.113572,-0.031 0.216231,-0.0465 0.334087,-0.0334 0.04563,0.005 0.08909,0.0223 0.133635,0.0334 0.04454,0.0111 0.08948,0.0208 0.133633,0.0334 0.111464,0.0319 0.218282,0.0837 0.334087,0.10023 0.03307,0.005 0.06682,0 0.100227,0 0.05568,0 0.111363,0 0.167045,0 0.05568,0 0.11159,0.005 0.167042,0 0.564298,-0.0513 -0.199276,-0.0181 0.434313,-0.0668 0.06662,-0.005 0.133633,0 0.200451,0 0.178181,0 0.35636,0 0.534541,0 0.05568,0 0.111701,0.006 0.167042,0 0.04564,-0.005 0.08881,-0.0234 0.133635,-0.0334 0.05543,-0.0123 0.111176,-0.0233 0.167042,-0.0334 0.0011,-2e-4 0.400701,-0.0668 0.400905,-0.0668 0.136657,-0.0342 0.266271,-0.0922 0.400905,-0.13363 0.484044,-0.14894 -0.01585,0.003 0.467722,-0.10023 0.635032,-0.13608 -0.195254,-0.007 0.501132,-0.10022 0.07805,-0.0104 0.155114,-0.0334 0.233859,-0.0334 0.01812,0 0.465432,0.0586 0.501132,0.0668 0.224306,0.0518 0.281408,0.11436 0.434311,0.26727 0.06682,0.0668 0.139959,0.12786 0.200453,0.20045 0.02569,0.0308 0.04173,0.0689 0.06682,0.10022 0.04143,0.0518 0.109162,0.1047 0.167042,0.13364 0.0315,0.0157 0.06637,0.0237 0.100227,0.0334 0.04415,0.0126 0.08807,0.0277 0.133633,0.0334 0.0442,0.006 0.08909,0 0.133636,0 0.04454,0 0.08909,0 0.133636,0 0.155905,0 0.311814,0 0.46772,0 0.21296,0 0.113024,-0.0135 0.30068,0.0334 0.04454,0.0111 0.09143,0.0153 0.133633,0.0334 0.180311,0.0773 0.317455,0.33424 0.400905,0.50113 0.02228,0.0446 0.04454,0.0891 0.06682,0.13364 0.02228,0.0445 0.04933,0.087 0.06682,0.13363 0.01611,0.043 0.0208,0.0895 0.03341,0.13364 0.02826,0.0989 0.06882,0.18625 0.133633,0.26727 0.03936,0.0492 0.08909,0.0891 0.133636,0.13363 0.04454,0.0445 0.08444,0.0943 0.133633,0.13364 0.06719,0.0538 0.09765,0.0655 0.167045,0.10022 0.02228,0.0111 0.0469,0.0185 0.06682,0.0334 0.04117,0.0309 0.0911,0.10528 0.133633,0.13363 0.04144,0.0276 0.0922,0.0392 0.133636,0.0668 0.0131,0.009 0.02029,0.0247 0.03341,0.0334 0.02072,0.0138 0.0469,0.0185 0.06682,0.0334 0.113961,0.0855 0.200255,0.33487 0.167042,0.46772 -0.01368,0.0548 -0.148321,0.26948 -0.167042,0.30068 -0.0825,0.1375 -0.101034,0.18137 -0.200454,0.30068 -0.06043,0.0725 -0.0717,0.0481 -0.100224,0.13363 -0.0035,0.0106 0,0.0223 0,0.0334 0,0.0111 -0.01114,0.0334 0,0.0334 0.0249,0 0.04737,-0.0179 0.06681,-0.0334 0.133694,-0.10695 0.099,-0.0941 0.133636,-0.26727"
       id="path50"
       inkscape:connector-curvature="0"
       inkscape:export-xdpi="96"
       inkscape:export-ydpi="96" />
    <path
       style="fill:none;stroke:#000000;stroke-width:0.26458332px;stroke-linecap:butt;stroke-linejoin:miter;stroke-opacity:1"
       d="m 71.294145,151.43833 c -0.05568,0 -0.11136,0 -0.167042,0 -0.01114,0 -0.02344,0.005 -0.03341,0 -0.03591,-0.018 -0.06755,-0.0435 -0.100227,-0.0668 -0.09607,-0.0686 -0.193778,-0.13938 -0.267268,-0.23387 -0.03987,-0.0513 -0.06913,-0.11004 -0.100227,-0.16704 -0.03577,-0.0656 -0.07341,-0.13073 -0.100227,-0.20045 -0.01976,-0.0514 -0.129016,-0.46189 -0.133633,-0.50113 -0.03207,-0.27262 0.01111,-0.33676 0.06682,-0.60136 0.06094,-0.28946 0.05564,-0.36423 0.167042,-0.63476 0.03793,-0.0921 0.08909,-0.17818 0.133636,-0.26727 0.04454,-0.0891 0.08676,-0.17939 0.133633,-0.26727 0.0845,-0.15845 0.182139,-0.30962 0.267271,-0.46772 0.03542,-0.0658 0.06445,-0.13487 0.100224,-0.20046 0.03109,-0.057 0.07385,-0.1077 0.100227,-0.16704 0.01865,-0.042 0.01728,-0.0906 0.03341,-0.13364 0.01749,-0.0466 0.04454,-0.0891 0.06682,-0.13363 0.01114,-0.0557 0.01545,-0.11317 0.03341,-0.16704 0.01574,-0.0472 0.05601,-0.085 0.06682,-0.13364 0.01209,-0.0543 0,-0.11136 0,-0.16704 0,-0.0668 0,-0.13364 0,-0.20045 0,-0.078 -0.0056,-0.15611 0,-0.23387 0.01392,-0.19486 0.05219,-0.30896 0.100227,-0.50112 0.04454,-0.17819 0.08181,-0.35835 0.133636,-0.53454 0.109206,-0.37131 0.07421,-0.22869 0.23386,-0.56795 0.0467,-0.0992 0.08458,-0.20258 0.133635,-0.30068 0.28765,-0.5753 -0.03217,0.11477 0.300678,-0.46772 0.04208,-0.0736 0.06469,-0.15686 0.100227,-0.23386 0.03131,-0.0678 0.07149,-0.1315 0.100224,-0.20045 0.04203,-0.10086 0.105519,-0.33591 0.133636,-0.43432 0.02228,-0.0779 0.03771,-0.15819 0.06682,-0.23386 0.04402,-0.11444 0.157816,-0.30796 0.23386,-0.4009 0.04987,-0.0609 0.111363,-0.11137 0.167044,-0.16705"
       id="path52"
       inkscape:connector-curvature="0"
       inkscape:export-xdpi="96"
       inkscape:export-ydpi="96" />
    <path
       style="fill:none;stroke:#000000;stroke-width:0.26458332px;stroke-linecap:butt;stroke-linejoin:miter;stroke-opacity:1"
       d="m 74.167293,149.93494 c -0.0378,-0.0864 0.01259,-0.17907 0,-0.26727 -0.008,-0.0562 -0.02109,-0.11161 -0.03341,-0.16704 -0.0099,-0.0448 -0.02834,-0.088 -0.03341,-0.13364 -0.0061,-0.0553 0,-0.11136 0,-0.16704 0,-0.0557 0,-0.11136 0,-0.16704 0,-0.0557 0,-0.11137 0,-0.16705 0,-0.0668 -0.01098,-0.13454 0,-0.20045 0.01159,-0.0695 0.04454,-0.13363 0.06682,-0.20045 0.02228,-0.0668 0.04454,-0.13364 0.06682,-0.20045 0.02228,-0.0668 0.0461,-0.13314 0.06682,-0.20046 0.02384,-0.0775 0.03771,-0.15819 0.06682,-0.23386 0.02154,-0.056 0.178917,-0.34491 0.200451,-0.4009 0.0291,-0.0757 0.03771,-0.15819 0.06682,-0.23386 0.02682,-0.0697 0.07826,-0.12905 0.100227,-0.20045 0.02315,-0.0753 0.01797,-0.15665 0.03341,-0.23387 0.01802,-0.09 0.04454,-0.17817 0.06681,-0.26727 0.02228,-0.0891 0.04454,-0.17817 0.06682,-0.26726 0.02228,-0.0891 0.0499,-0.17702 0.06682,-0.26727 0.01654,-0.0882 0.02228,-0.17818 0.03341,-0.26727 0.01114,-0.0891 0.02781,-0.17766 0.03341,-0.26727 0.0056,-0.0889 -0.0059,-0.17838 0,-0.26727 0.0052,-0.0786 0.0278,-0.15532 0.03341,-0.23386 0.01159,-0.16214 -0.0037,-0.34253 -0.03341,-0.50113 -0.01693,-0.0903 -0.04455,-0.17818 -0.06682,-0.26727 -0.06392,-0.25566 -0.11702,-0.51811 -0.200451,-0.7684 -0.08716,-0.2615 -0.218461,-0.50531 -0.300681,-0.7684 -0.02739,-0.0876 -0.03942,-0.17962 -0.06681,-0.26727 -0.02838,-0.0908 -0.07844,-0.17465 -0.100227,-0.26727 -0.04155,-0.17658 -0.04813,-0.46151 0,-0.63477 0.07935,-0.28564 0.213014,-0.33783 0.434314,-0.53454"
       id="path54"
       inkscape:connector-curvature="0"
       inkscape:export-xdpi="96"
       inkscape:export-ydpi="96" />
    <path
       style="fill:none;stroke:#000000;stroke-width:0.26458332px;stroke-linecap:butt;stroke-linejoin:miter;stroke-opacity:1"
       d="m 77.57498,150.56971 c 0.01114,-0.0445 0.04455,-0.0891 0.03341,-0.13364 -0.01352,-0.054 -0.06748,-0.0886 -0.100226,-0.13363 -0.05635,-0.0775 -0.117756,-0.15172 -0.167045,-0.23387 -0.05124,-0.0854 -0.08909,-0.17817 -0.133633,-0.26726 -0.04455,-0.0891 -0.100486,-0.17335 -0.133636,-0.26727 -0.07132,-0.20209 -0.07815,-0.42509 -0.100227,-0.63477 -0.01056,-0.10029 -0.03341,-0.19983 -0.03341,-0.30068 0,-0.10084 0.02286,-0.20039 0.03341,-0.30068 0.0026,-0.0244 0.05788,-0.59231 0.06682,-0.63476 0.02394,-0.11377 0.06682,-0.22272 0.100227,-0.33409 0.156747,-0.52249 0.02942,-0.14921 0.23386,-0.63476 0.04654,-0.11054 0.08492,-0.22449 0.133636,-0.33409 0.04045,-0.091 0.09122,-0.17714 0.133633,-0.26727 0.0467,-0.0992 0.08693,-0.20144 0.133635,-0.30068 0.04241,-0.0901 0.08909,-0.17818 0.133636,-0.26727 0.04455,-0.0891 0.08676,-0.17938 0.133633,-0.26727 0.12704,-0.2382 0.144246,-0.21679 0.233863,-0.46772 0.110016,-0.30805 0.04587,-0.15352 0.06682,-0.46772 0.006,-0.0896 0.02228,-0.17818 0.03341,-0.26727 0.02228,-0.17818 0.04584,-0.3562 0.06682,-0.53454 0.01177,-0.10015 0.02286,-0.20039 0.03341,-0.30068 0.01172,-0.1113 0.015,-0.22369 0.03341,-0.33408 0.01812,-0.10878 0.123269,-0.4804 0.167044,-0.56795 0.05387,-0.10774 0.136129,-0.19884 0.200451,-0.30068 0.524854,-0.83102 -0.114993,0.13908 0.400905,-0.63477 0.06682,-0.10022 0.1265,-0.20559 0.200451,-0.30067 0.158131,-0.20331 0.387345,-0.42075 0.567949,-0.60136"
       id="path56"
       inkscape:connector-curvature="0"
       inkscape:export-xdpi="96"
       inkscape:export-ydpi="96" />
    <path
       style="fill:none;stroke:#000000;stroke-width:0.26458332px;stroke-linecap:butt;stroke-linejoin:miter;stroke-opacity:1"
       d="m 90.437326,155.48078 c -0.16746,0.10841 -0.139824,0.1056 -0.200454,0.26727 -0.02106,0.0562 -0.05505,0.10824 -0.06682,0.16705 -0.02543,0.12718 0.01587,0.31543 0.06682,0.43431 0.01961,0.0458 0.04455,0.0891 0.06682,0.13363 0.02228,0.0446 0.03787,0.0931 0.06682,0.13364 0.02746,0.0385 0.06682,0.0668 0.100227,0.10023 0.09111,0.0911 0.119573,0.12902 0.23386,0.20045 0.04223,0.0264 0.0914,0.0404 0.133636,0.0668 0.04722,0.0295 0.08642,0.0707 0.133633,0.10023 0.186028,0.11627 0.07488,0.0281 0.267271,0.10023 0.04663,0.0175 0.087,0.0493 0.133633,0.0668 0.04299,0.0161 0.08881,0.0234 0.133636,0.0334 0.05543,0.0123 0.110606,0.0271 0.167042,0.0334 0.04427,0.005 0.08909,0 0.133636,0 0.04454,0 0.08909,0 0.133636,0 0.05568,0 0.111701,0.006 0.167042,0 0.116969,-0.013 0.163049,-0.0481 0.267268,-0.10023 0.04455,-0.0223 0.0914,-0.0404 0.133636,-0.0668 0.03944,-0.0247 0.283832,-0.21702 0.300678,-0.23386 0.05042,-0.0504 0.08909,-0.11137 0.133636,-0.16705 0.04454,-0.0557 0.09169,-0.10937 0.133633,-0.16704 0.05973,-0.0821 0.181202,-0.27095 0.233862,-0.3675 0.03577,-0.0656 0.06445,-0.13486 0.100227,-0.20045 0.08321,-0.15255 0.206264,-0.30504 0.267269,-0.46772 0.01611,-0.043 0.0208,-0.0895 0.03341,-0.13364 0.01252,-0.0438 0.05107,-0.11404 0.03341,-0.16704 -0.005,-0.0149 -0.02228,-0.0223 -0.03341,-0.0334 -0.02228,-0.0223 -0.04222,-0.0471 -0.06682,-0.0668 -0.119901,-0.0959 -0.263043,-0.13919 -0.400905,-0.20046 -0.04551,-0.0202 -0.08812,-0.0466 -0.133635,-0.0668 -0.0548,-0.0244 -0.112242,-0.0425 -0.167042,-0.0668 -0.04551,-0.0202 -0.08812,-0.0466 -0.133636,-0.0668 -0.0548,-0.0243 -0.112242,-0.0425 -0.167042,-0.0668 -0.127161,-0.0565 -0.12637,-0.062 -0.233863,-0.13363 -0.03541,-0.0236 -0.14324,-0.086 -0.167042,-0.13364 -0.03352,-0.067 0.008,-0.062 0.03341,-0.10022 0.01381,-0.0207 0.0127,-0.053 0.03341,-0.0668 0.01852,-0.0123 0.04454,0 0.06682,0 0.02228,0 0.04455,0 0.06682,0"
       id="path58"
       inkscape:connector-curvature="0"
       inkscape:export-xdpi="96"
       inkscape:export-ydpi="96" />
    <path
       style="fill:none;stroke:#000000;stroke-width:0.26458332px;stroke-linecap:butt;stroke-linejoin:miter;stroke-opacity:1"
       d="m 98.822906,155.34715 c 0.07333,0.0838 0.193937,0.11664 0.267271,0.20045 0.04894,0.0559 0.130172,0.22694 0.167042,0.30068 0.201917,0.40383 -0.05525,-0.0967 0.133636,0.23386 0.03494,0.0611 0.07937,0.1796 0.133633,0.23386 0.134927,0.13492 0.108844,0.0808 0.267272,0.13363 0.05689,0.019 0.109185,0.051 0.167042,0.0668 0.162778,0.0444 0.234888,0.0334 0.400908,0.0334 0.0779,0 0.15613,0.006 0.23386,0 0.15989,-0.0123 0.27958,-0.056 0.43431,-0.10023 0.078,-0.0223 0.15591,-0.0445 0.23386,-0.0668 0.078,-0.0223 0.16025,-0.0328 0.23386,-0.0668 0.0729,-0.0336 0.1327,-0.0905 0.20045,-0.13364 0.2789,-0.17747 0.0607,-0.0151 0.33409,-0.23385 0.0557,-0.0445 0.11662,-0.0832 0.16704,-0.13364 0.0394,-0.0394 0.0668,-0.0891 0.10023,-0.13363 0.0977,-0.13021 0.11156,-0.11274 0.13363,-0.26728 0.005,-0.0331 0.005,-0.0671 0,-0.10022 -0.0194,-0.13621 -0.0391,-0.15929 -0.13363,-0.26727 -0.0415,-0.0474 -0.0844,-0.0943 -0.13363,-0.13363 -0.0627,-0.0502 -0.13364,-0.0891 -0.20046,-0.13364 -0.0668,-0.0446 -0.12974,-0.0956 -0.20045,-0.13364 -0.1053,-0.0567 -0.39679,-0.16132 -0.50113,-0.20045"
       id="path60"
       inkscape:connector-curvature="0"
       inkscape:export-xdpi="96"
       inkscape:export-ydpi="96" />
    <path
       style="fill:none;stroke:#000000;stroke-width:0.26458332px;stroke-linecap:butt;stroke-linejoin:miter;stroke-opacity:1"
       d="m 94.947498,155.84828 c 0.06682,-0.0223 0.130265,-0.061 0.200454,-0.0668 0.0675,-0.006 0.133392,0.0238 0.200451,0.0334 0.08888,0.0127 0.177686,0.0274 0.267268,0.0334 0.07778,0.005 0.155909,0 0.233863,0 0.07795,0.0111 0.155316,0.0278 0.23386,0.0334 0.07776,0.006 0.155908,0 0.23386,0 0.08909,0 0.178181,0 0.267271,0 0.08909,0 0.178179,0 0.267269,0 0.100227,0 0.200607,0.006 0.300678,0 0.100687,-0.006 0.199991,-0.0278 0.300678,-0.0334 0.100073,-0.006 0.200453,0 0.300678,0 0.100226,0 0.200453,0 0.30068,0 0.189315,0 0.378632,0 0.567947,0 0.207208,0 0.301762,0.0126 0.501131,-0.0334 0.101378,-0.0234 0.267859,-0.0938 0.367496,-0.13363"
       id="path62"
       inkscape:connector-curvature="0"
       inkscape:export-xdpi="96"
       inkscape:export-ydpi="96" />
    <path
       style="fill:none;stroke:#000000;stroke-width:0.26458332px;stroke-linecap:butt;stroke-linejoin:miter;stroke-opacity:1"
       d="m 90.437326,155.48078 c -0.823873,-0.0716 -0.511302,-0.0668 -0.935445,-0.0668 -0.05568,0 -0.111638,0.006 -0.167042,0 -0.03783,-0.004 -0.252846,-0.0509 -0.300678,-0.0668 -0.05689,-0.019 -0.111363,-0.0445 -0.167045,-0.0668 -0.088,-0.0352 -0.217445,-0.0816 -0.300677,-0.13363 -0.04722,-0.0295 -0.08642,-0.0707 -0.133636,-0.10023 -0.04223,-0.0264 -0.09311,-0.0379 -0.133633,-0.0668 -0.03845,-0.0275 -0.06682,-0.0668 -0.100227,-0.10022 -0.04454,-0.0446 -0.09264,-0.0858 -0.133636,-0.13364 -0.02614,-0.0305 -0.04111,-0.0694 -0.06682,-0.10023 -0.03025,-0.0363 -0.07679,-0.0592 -0.100227,-0.10022 -0.02278,-0.0399 -0.0208,-0.0895 -0.03341,-0.13364 -0.01934,-0.0677 -0.04066,-0.13505 -0.06682,-0.20045 -0.03564,-0.0891 -0.04466,-0.0562 -0.06682,-0.16704 -0.01072,-0.0535 0.01071,-0.1135 0,-0.16704 -0.0049,-0.0244 -0.02737,-0.0427 -0.03341,-0.0668 -0.0054,-0.0216 0.0054,-0.0452 0,-0.0668 -0.006,-0.0242 -0.02228,-0.0445 -0.03341,-0.0668 -0.01114,-0.0223 -0.0196,-0.0461 -0.03341,-0.0668 -0.0087,-0.0131 -0.02468,-0.0203 -0.03341,-0.0334 -0.01381,-0.0207 -0.0158,-0.0492 -0.03341,-0.0668 -0.01762,-0.0176 -0.0461,-0.0196 -0.06682,-0.0334 -0.02883,-0.0192 -0.07413,-0.0741 -0.100227,-0.10022 -0.02609,-0.0261 -0.08101,-0.0714 -0.100224,-0.10023 -0.06384,-0.0958 -0.02914,-0.13186 0,-0.23386 0.07055,-0.24693 -0.01603,-0.0304 0.100224,-0.23386 0.179398,-0.31395 -0.06109,0.0521 0.167045,-0.26727 0.05058,-0.0708 0.06487,-0.11547 0.133633,-0.16704 0.05119,-0.0384 0.05336,-0.0334 0.100226,-0.0334 0.01114,0 0.02283,-0.004 0.03341,0 0.02363,0.008 0.04266,0.0274 0.06682,0.0334 0.02114,0.005 0.246444,0.003 0.267269,0 0.05635,-0.007 0.110543,-0.0278 0.167045,-0.0334 0.0554,-0.006 0.11136,0 0.167042,0 0.182221,0 0.248594,-0.009 0.434313,0.0334 0.06863,0.0158 0.132123,0.0497 0.200451,0.0668 0.06572,0.0164 0.135102,0.0156 0.200454,0.0334 0.05786,0.0158 0.109601,0.0496 0.167042,0.0668 0.05439,0.0163 0.111363,0.0223 0.167045,0.0334 0.05568,0.0111 0.111175,0.0232 0.167042,0.0334 0.06665,0.0121 0.133807,0.0213 0.200453,0.0334 0.05587,0.0102 0.110541,0.0278 0.167042,0.0334 0.05541,0.006 0.111363,0 0.167045,0 0.279196,0 0.134305,0.009 0.434314,-0.0334 0.244879,-0.035 0.489812,-0.0675 0.734991,-0.10022 7.94e-4,-1.1e-4 0.467598,-0.0668 0.46772,-0.0668 0.06662,-0.005 0.133635,0 0.200453,0 0.06682,0 0.133633,0 0.200451,0 0.21159,0 0.423178,0 0.634767,0 0.05568,0 0.111361,0 0.167043,0 0.05568,0 0.111638,0.006 0.167044,0 0.0565,-0.006 0.111361,-0.0223 0.167042,-0.0334 0.179152,-0.0358 0.18382,-0.0296 0.367496,-0.10022 0.07916,-0.0305 0.15399,-0.0717 0.23386,-0.10023 0.07635,-0.0273 0.155908,-0.0445 0.233862,-0.0668 0.07795,-0.0223 0.155906,-0.0445 0.23386,-0.0668 0.160798,-0.0459 0.269359,-0.0865 0.434314,-0.10023 0.06659,-0.006 0.133636,0 0.200451,0 0.06682,0 0.133911,-0.006 0.200453,0 0.182309,0.0166 0.145699,0.0313 0.300678,0.10023 0.526434,0.23396 -0.133659,-0.0626 0.300678,0.10022 0.04663,0.0175 0.087,0.0493 0.133636,0.0668 0.04299,0.0161 0.08909,0.0223 0.133633,0.0334 0.0744,0.0186 0.229989,0.0598 0.30068,0.0668 0.110808,0.0111 0.223277,-0.0111 0.334087,0 0.0565,0.006 0.111612,0.0211 0.167042,0.0334 0.125849,0.028 0.122251,0.0296 0.233863,0.0668 0.03341,0.0111 0.06873,0.0177 0.100224,0.0334 0.03591,0.018 0.06431,0.0489 0.100227,0.0668 0.0315,0.0157 0.06682,0.0223 0.100226,0.0334 0.03341,0.0111 0.06682,0.0223 0.100225,0.0334 0.03341,0.0111 0.06549,0.0276 0.100226,0.0334 0.03295,0.006 0.06682,0 0.100227,0 0.200996,0 0.06831,0.0108 0.267269,-0.0334 0.0046,-0.001 0.333571,-0.0666 0.334087,-0.0668 0.06029,-0.0241 0.108963,-0.0712 0.167044,-0.10023 0.05364,-0.0268 0.112448,-0.042 0.167043,-0.0668 0.465835,-0.21174 -0.03889,-0.004 0.367495,-0.16704 0.05568,-0.0223 0.109604,-0.0496 0.167045,-0.0668 0.106037,-0.0318 0.223618,-0.0457 0.334087,-0.0334 0.153265,0.017 0.112326,0.0308 0.233859,0.10023 0.04324,0.0247 0.0914,0.0404 0.133638,0.0668 0.0472,0.0295 0.0883,0.0679 0.13363,0.10022 0.0327,0.0233 0.0694,0.0411 0.10023,0.0668 0.11083,0.0924 0.076,0.10483 0.20045,0.16704 0.1489,0.0744 0.30647,0.10139 0.46772,0.13364 0.0557,0.0111 0.11054,0.0278 0.16704,0.0334 0.0554,0.006 0.11164,-0.006 0.16705,0 0.0565,0.006 0.11054,0.0278 0.16704,0.0334 0.0554,0.006 0.11136,0 0.16704,0 0.0557,0.0111 0.11061,0.0271 0.16705,0.0334 0.0443,0.005 0.0891,0 0.13363,0 0.0446,0 0.0891,0 0.13364,0 0.0445,0 0.0891,0 0.13363,0 0.0334,0 0.0672,0.005 0.10023,0 0.1133,-0.0162 0.22599,-0.0642 0.33409,-0.10022 0.0334,-0.0111 0.0655,-0.0276 0.10022,-0.0334 0.0329,-0.005 0.0668,0 0.10023,0 0.0892,0 0.0659,-0.007 0.16704,0.0334 0.0231,0.009 0.0492,0.0158 0.0668,0.0334 0.0648,0.0648 0.073,0.11893 0.10022,0.20045 0.043,0.12887 0.0852,0.26545 0.10023,0.4009 0.005,0.0443 0,0.0891 0,0.13364 0,0.11136 0,0.22272 0,0.33409 0,0.0132 0.007,0.15277 0,0.16704 -0.0202,0.0404 -0.14721,0.12041 -0.16704,0.13363 -0.10311,0.0687 -0.11471,0.067 -0.20046,0.16705 -0.0362,0.0423 -0.0609,0.0943 -0.10022,0.13363 -0.0394,0.0394 -0.0914,0.064 -0.13364,0.10023 -0.0359,0.0307 -0.0624,0.0719 -0.10022,0.10022 -0.052,0.039 -0.11302,0.0642 -0.16705,0.10023 -0.26021,0.17348 -0.006,0.0365 -0.26727,0.16704 -0.0445,0.0223 -0.0891,0.0446 -0.13363,0.0668 -0.0445,0.0223 -0.0853,0.0547 -0.13363,0.0668 -0.0432,0.0108 -0.0894,-0.005 -0.13364,0 -0.0564,0.006 -0.11161,0.0211 -0.16704,0.0334 -0.0448,0.01 -0.0888,0.0234 -0.13364,0.0334 -0.24319,0.054 -0.48938,0.0927 -0.73499,0.13363 -0.0668,0.0111 -0.13363,0.0223 -0.20045,0.0334 -0.0668,0.0111 -0.13474,0.017 -0.20045,0.0334 -0.0683,0.0171 -0.13213,0.0497 -0.20045,0.0668 -0.0657,0.0164 -0.13364,0.0223 -0.200456,0.0334 -0.255376,0.0426 -0.132713,0.0334 -0.367496,0.0334 -0.05568,0 -0.111702,0.006 -0.167042,0 -0.358077,-0.0398 0.01606,-0.0127 -0.200454,-0.0668 -0.02162,-0.005 -0.04569,0.007 -0.06682,0 -0.01495,-0.005 -0.01931,-0.0264 -0.03341,-0.0334 -0.0099,-0.005 -0.02283,0.004 -0.03341,0 -0.02363,-0.008 -0.04192,-0.0334 -0.06682,-0.0334 -0.03522,0 -0.06549,0.0276 -0.100227,0.0334 -0.03295,0.005 -0.06715,-0.005 -0.100226,0 -0.04545,0.006 -0.08881,0.0234 -0.133633,0.0334 -0.110864,0.0246 -0.222351,0.0465 -0.334087,0.0668 -0.229172,0.0417 -0.190304,0.0293 -0.434314,0.0668 -0.06695,0.0103 -0.132712,0.0334 -0.200453,0.0334 -0.07874,0 -0.155316,-0.0278 -0.23386,-0.0334 -0.07776,-0.006 -0.156104,0.006 -0.23386,0 -0.03596,-0.003 -0.38412,-0.0552 -0.434314,-0.0668 -0.08745,-0.0202 -0.342974,-0.0985 -0.434313,-0.13363 -0.07916,-0.0305 -0.154702,-0.0698 -0.23386,-0.10023 -0.06574,-0.0253 -0.133636,-0.0445 -0.200454,-0.0668 -0.120166,-0.0401 -0.313679,-0.10778 -0.434311,-0.13363 -0.077,-0.0165 -0.155908,-0.0223 -0.233862,-0.0334 -0.158586,-0.0226 -0.306028,-0.055 -0.46772,-0.0334 -0.09103,0.0122 -0.177012,0.0499 -0.267272,0.0668 -0.08824,0.0165 -0.180517,0.0103 -0.267268,0.0334 -0.08195,0.0219 -0.153991,0.0717 -0.23386,0.10022 -0.07635,0.0273 -0.155909,0.0445 -0.233863,0.0668 -0.07795,0.0223 -0.155906,0.0446 -0.23386,0.0668 -0.07795,0.0223 -0.154588,0.0498 -0.23386,0.0668 -0.077,0.0165 -0.156032,0.0214 -0.233862,0.0334 -0.06695,0.0103 -0.132945,0.0278 -0.200451,0.0334 -0.06659,0.006 -0.133636,0 -0.200454,0 -0.06681,0 -0.133863,0.006 -0.200451,0 -0.06751,-0.006 -0.132913,-0.0282 -0.200451,-0.0334 -0.07772,-0.006 -0.156107,0.006 -0.233862,0 -0.07854,-0.006 -0.155724,-0.0237 -0.23386,-0.0334 -0.100066,-0.0125 -0.200454,-0.0223 -0.300678,-0.0334 -0.854784,-0.095 0.251875,0.0168 -0.601358,-0.0334 -0.08963,-0.005 -0.178099,-0.0229 -0.267269,-0.0334 -0.100153,-0.0118 -0.200525,-0.0216 -0.300678,-0.0334 -0.212312,-0.025 -0.329581,-0.0319 -0.53454,-0.10022 -0.134634,-0.0449 -0.352629,-0.15418 -0.46772,-0.23386 -0.193953,-0.13428 -0.367713,-0.33431 -0.53454,-0.50114"
       id="path64"
       inkscape:connector-curvature="0"
       inkscape:export-xdpi="96"
       inkscape:export-ydpi="96" />
    <path
       style="fill:none;stroke:#000000;stroke-width:0.26458332px;stroke-linecap:butt;stroke-linejoin:miter;stroke-opacity:1"
       d="m 92.007514,152.47414 c 0.03341,-0.13368 0.110805,-0.26366 0.100246,-0.40104 -0.0035,-0.0458 -0.09048,-0.0177 -0.133634,-0.0334 -0.07971,-0.029 -0.155908,-0.0668 -0.233862,-0.10023 -0.07795,-0.0334 -0.155906,-0.0668 -0.23386,-0.10023 -0.07795,-0.0334 -0.159187,-0.06 -0.233863,-0.10022 -0.178337,-0.096 -0.262204,-0.18278 -0.400902,-0.33409 -0.115985,-0.12653 -0.235931,-0.27244 -0.30068,-0.43431 -0.202819,-0.50705 0.03072,-0.93782 0.30068,-1.36976 0.05441,-0.0871 0.13702,-0.15313 0.200451,-0.23386 0.05918,-0.0753 0.102312,-0.16324 0.167045,-0.23386 0.05877,-0.0641 0.141944,-0.10269 0.200451,-0.16704 0.05402,-0.0594 0.09052,-0.1327 0.133636,-0.20045 0.08658,-0.13607 0.200451,-0.29756 0.200451,-0.46773 0,-0.17866 -0.144407,-0.42879 -0.23386,-0.56794 -0.08224,-0.12794 -0.318445,-0.43559 -0.400905,-0.53454 -0.08585,-0.10302 -0.186811,-0.1934 -0.267269,-0.30068 -0.0876,-0.1168 -0.405048,-0.64827 -0.467722,-0.7684 -0.192749,-0.36944 -0.30897,-0.7648 -0.400905,-1.16931 -0.06925,-0.30471 -0.122655,-0.62142 -0.100226,-0.93544 0.0048,-0.0676 0.02228,-0.13363 0.03341,-0.20045 0.01114,-0.0668 0.02013,-0.13403 0.03341,-0.20045 0.009,-0.045 0.02772,-0.0881 0.03341,-0.13364 0.0055,-0.0442 -0.0063,-0.0895 0,-0.13363 0.005,-0.0349 0.02762,-0.0655 0.03341,-0.10023 0.0055,-0.0329 0,-0.0668 0,-0.10022 0,-0.0446 0,-0.0891 0,-0.13364"
       id="path66"
       inkscape:connector-curvature="0"
       inkscape:export-xdpi="96"
       inkscape:export-ydpi="96" />
    <path
       style="fill:none;stroke:#000000;stroke-width:0.26458332px;stroke-linecap:butt;stroke-linejoin:miter;stroke-opacity:1"
       d="m 94.613411,151.23788 c -0.03764,-0.15671 -0.164671,-0.26253 -0.23386,-0.40091 -0.09799,-0.19598 -0.199887,-0.58663 -0.233862,-0.8018 -0.01746,-0.11055 -0.02328,-0.22263 -0.03341,-0.33409 -0.01215,-0.13355 -0.03703,-0.26685 -0.03341,-0.40091 0.01394,-0.51608 0.04574,-0.83504 0.167042,-1.30293 0.03801,-0.14663 0.07738,-0.29368 0.133635,-0.43432 0.06763,-0.16906 0.334352,-0.65519 0.434314,-0.80181 0.08034,-0.11783 0.178898,-0.22215 0.267269,-0.33408 0.17817,-0.22568 0.247229,-0.33045 0.434313,-0.53454 0.09578,-0.10449 0.207341,-0.19401 0.300678,-0.30068 0.03667,-0.0419 0.06786,-0.0883 0.100227,-0.13363 0.02334,-0.0327 0.051,-0.0633 0.06681,-0.10023 0.0181,-0.0422 0.0208,-0.0895 0.03341,-0.13363 0.0097,-0.0339 0.02843,-0.0654 0.03341,-0.10023 0.01431,-0.10014 -0.0095,-0.20504 -0.03341,-0.30068 -0.01966,-0.0786 -0.03671,-0.15858 -0.06682,-0.23386 -0.07398,-0.18496 -0.1984,-0.34761 -0.267269,-0.53454 -0.04389,-0.11914 -0.06326,-0.24602 -0.100226,-0.36749 -0.04101,-0.13477 -0.08909,-0.26727 -0.133634,-0.40091 -0.107473,-0.32242 -0.187584,-0.48779 -0.200453,-0.83522 -0.0095,-0.25575 0.04909,-0.65778 0.133636,-0.90203 0.118057,-0.34105 0.245292,-0.50478 0.434313,-0.80181"
       id="path68"
       inkscape:connector-curvature="0"
       inkscape:export-xdpi="96"
       inkscape:export-ydpi="96" />
    <path
       style="fill:none;stroke:#000000;stroke-width:0.26458332px;stroke-linecap:butt;stroke-linejoin:miter;stroke-opacity:1"
       d="m 99.424264,149.4004 c -0.09233,-0.0624 -0.150159,-0.16211 -0.233863,-0.23386 -0.160361,-0.13745 -0.184859,-0.11868 -0.300677,-0.30068 -0.04011,-0.063 -0.06682,-0.13363 -0.100225,-0.20045 -0.07154,-0.14307 -0.146431,-0.28305 -0.200453,-0.43431 -0.02727,-0.0763 -0.04118,-0.15695 -0.06682,-0.23386 -0.03009,-0.0903 -0.07184,-0.17646 -0.100224,-0.26727 -0.07869,-0.2518 -0.0705,-0.30043 -0.100227,-0.56795 -0.01114,-0.10023 -0.02782,-0.19999 -0.03341,-0.30068 -0.0056,-0.10007 0,-0.20045 0,-0.30068 0,-0.11136 -0.0056,-0.22286 0,-0.33408 0.0056,-0.11178 0.02753,-0.22233 0.03341,-0.33409 0.0087,-0.16514 -0.0087,-0.46963 0,-0.63477 0.0053,-0.1007 0.02286,-0.20039 0.03341,-0.30068 0.01172,-0.1113 0.01595,-0.22353 0.03341,-0.33408 0.01601,-0.10142 0.04454,-0.20045 0.06682,-0.30068 0.02228,-0.10022 0.03934,-0.20175 0.06682,-0.30068 0.02828,-0.10179 0.07042,-0.19932 0.100227,-0.30068 0.0259,-0.0881 0.03942,-0.17961 0.06682,-0.26726 0.02838,-0.0908 0.07014,-0.17701 0.100226,-0.26728 0.05127,-0.15382 0.08595,-0.31274 0.133633,-0.46772 0.02072,-0.0673 0.05098,-0.13182 0.06682,-0.20045 0.0177,-0.0767 0.02143,-0.15603 0.03341,-0.23386 0.01029,-0.0669 0.02821,-0.13291 0.03341,-0.20045 0.02125,-0.27623 -0.02704,-0.448 -0.133636,-0.73499 -0.08504,-0.22896 -0.221281,-0.4372 -0.300677,-0.66818 -0.04404,-0.12812 -0.04455,-0.26727 -0.06682,-0.4009"
       id="path70"
       inkscape:connector-curvature="0"
       inkscape:export-xdpi="96"
       inkscape:export-ydpi="96" />
    <path
       style="fill:none;stroke:#000000;stroke-width:0.26458332px;stroke-linecap:butt;stroke-linejoin:miter;stroke-opacity:1"
       d="m 88.666665,152.27355 c -0.133619,0.0334 -0.153246,0.0498 -0.300677,0.0334 -0.04564,-0.005 -0.088,-0.0283 -0.133636,-0.0334 -0.05534,-0.006 -0.111363,0 -0.167045,0 -0.11136,-0.0111 -0.223406,-0.0168 -0.334086,-0.0334 -0.112311,-0.0169 -0.222351,-0.0465 -0.334087,-0.0668 -0.133292,-0.0242 -0.269166,-0.0352 -0.400905,-0.0668 -0.147285,-0.0353 -0.291176,-0.0841 -0.434311,-0.13364 -0.495683,-0.17158 -0.775821,-0.30551 -1.236122,-0.66817 -0.124325,-0.098 -0.211516,-0.23673 -0.300678,-0.3675 -0.07861,-0.11529 -0.151458,-0.23684 -0.200454,-0.36749 -0.10872,-0.28993 -0.123666,-0.56388 -0.100224,-0.86863 0.02371,-0.30828 0.09472,-0.62376 0.23386,-0.90203 0.07183,-0.14366 0.171804,-0.27175 0.267269,-0.40091 0.196567,-0.26594 0.371393,-0.46751 0.634767,-0.66817 0.115493,-0.088 0.241427,-0.16182 0.367496,-0.23387 0.1081,-0.0618 0.217254,-0.12399 0.334086,-0.16704 0.176528,-0.065 0.350047,-0.081 0.534538,-0.0668 0.167465,0.0129 0.335132,0.0397 0.367496,0.23386 0.0055,0.033 0.01241,0.0692 0,0.10023 -0.0117,0.0293 -0.03981,0.0506 -0.06682,0.0668 -0.0302,0.0181 -0.06501,0.0334 -0.100224,0.0334 -0.159147,0 -0.373999,-0.15995 -0.434314,-0.30068 -0.07422,-0.17318 -0.08969,-0.4928 -0.06682,-0.66817 0.01781,-0.13659 0.06442,-0.2679 0.100227,-0.40091 0.158829,-0.58994 0.08551,-0.37148 0.367496,-0.93544 0.07795,-0.15591 0.140986,-0.32022 0.23386,-0.46772 0.184565,-0.29314 0.446939,-0.56931 0.701582,-0.80181 0.255574,-0.23335 0.504267,-0.42554 0.801809,-0.60136 0.237752,-0.14049 0.401897,-0.20462 0.668174,-0.26727 0.07665,-0.018 0.155114,-0.0334 0.23386,-0.0334 0.01942,0 0.309014,0.0376 0.367495,0.0668 0.03804,0.019 0.08941,0.0904 0.100227,0.13364 0.01109,0.0443 -0.0037,0.11509 -0.03341,0.10022 -0.02228,-0.0111 -0.03341,-0.0419 -0.03341,-0.0668 0,-0.20735 0.305649,-0.43297 0.434314,-0.53455 0.118885,-0.0939 0.237611,-0.18933 0.367495,-0.26726 0.481346,-0.28881 1.033002,-0.45485 1.57021,-0.60136 0.177191,-0.0483 0.354221,-0.0987 0.534538,-0.13364 0.507756,-0.0983 1.091464,-0.13914 1.570209,0.10023 0.175212,0.0876 0.226737,0.11829 0.267269,0.30068 0.03163,0.14233 -0.02318,0.17742 -0.100227,0.30068 -0.03868,0.0619 -0.07421,0.12247 -0.133633,0.16704 -0.01992,0.0149 -0.04921,0.051 -0.06682,0.0334 -0.01762,-0.0176 0.01397,-0.0513 0.03341,-0.0668 0.149609,-0.11969 0.306345,-0.2308 0.46772,-0.33408 0.155535,-0.0995 0.698632,-0.36838 0.835218,-0.43432 0.166005,-0.0801 0.330348,-0.16448 0.501131,-0.23386 0.366604,-0.14893 0.756158,-0.259 1.135894,-0.3675 0.200038,-0.0571 0.398547,-0.12068 0.601358,-0.16704 0.187407,-0.0428 0.37801,-0.0705 0.567947,-0.10022 0.430987,-0.0674 0.494776,-0.0945 0.902036,-0.0334 0.09082,0.0136 0.185131,0.0257 0.267267,0.0668 0.13997,0.07 0.18195,0.22876 0.20045,0.3675 0.0226,0.16943 -0.002,0.37635 -0.0668,0.53454 -0.0436,0.10602 -0.10725,0.20285 -0.16704,0.30068 -0.06281,0.10278 -0.129215,0.20354 -0.200449,0.30068 -0.110315,0.15042 -0.195683,0.20045 -0.267271,0.36749 -0.0088,0.0205 -0.01992,0.0569 0,0.0668 0.03984,0.0199 0.08924,0.004 0.133636,0 0.346384,-0.0289 0.268491,-0.0448 0.668174,-0.13364 0.39771,-0.0884 0.62671,-0.1287 1.03567,-0.16704 0.43114,-0.0404 0.61394,-0.0603 1.03566,0.0334 0.13751,0.0306 0.27613,0.0683 0.40091,0.13363 0.30517,0.15985 0.62126,0.55486 0.66817,0.90204 0.0388,0.28714 0.0479,0.57923 0.0334,0.86862 -0.008,0.15925 -0.0668,0.31182 -0.10022,0.46773 -0.0334,0.1559 -0.0564,0.31441 -0.10023,0.46772 -0.0455,0.15918 -0.10761,0.3132 -0.16704,0.46772 -0.0824,0.21435 -0.23387,0.55795 -0.33409,0.7684 -0.29998,0.62995 -0.0285,0.0582 -0.33409,0.60135 -0.0488,0.0868 -0.0891,0.17819 -0.13363,0.26728 -0.0624,0.12478 -0.13364,0.22331 -0.13364,0.36749 0,0.10163 0.0457,0.15748 0.10023,0.23386 0.0324,0.0453 0.0583,0.097 0.10022,0.13364 0.0489,0.0428 0.11385,0.063 0.16705,0.10022 0.14415,0.10091 0.1803,0.14689 0.30068,0.26727 0.0995,0.0995 0.21458,0.19712 0.26727,0.33409 0.0508,0.13204 0.0381,0.41383 0,0.53454 -0.0732,0.23179 -0.31848,0.57217 -0.46772,0.73499 -0.21228,0.23158 -0.66892,0.61015 -0.93545,0.7684 -0.36621,0.21744 -0.73851,0.32747 -1.13589,0.46772"
       id="path72"
       inkscape:connector-curvature="0"
       inkscape:export-xdpi="96"
       inkscape:export-ydpi="96" />
    <path
       style="fill:none;stroke:#000000;stroke-width:0.26458332px;stroke-linecap:butt;stroke-linejoin:miter;stroke-opacity:1"
       d="m 76.472493,152.30696 c 0.158875,0.053 0.299921,0.10567 0.46772,0.13363 0.110398,0.0184 0.222674,0.0228 0.33409,0.0334 0.122449,0.0117 0.244607,0.0281 0.367493,0.0334 0.341884,0.0149 0.46152,-0.004 0.801809,-0.0334 0.432361,-0.0376 0.306329,-0.0186 0.734991,-0.10022 0.263239,-0.0502 0.388628,-0.0657 0.634765,-0.16705 0.31791,-0.1309 0.528849,-0.29309 0.734991,-0.56795 0.07228,-0.0964 0.146584,-0.19294 0.200454,-0.30067 0.106005,-0.21202 0.193693,-0.57688 0.23386,-0.80181 0.02963,-0.1659 0.03911,-0.3349 0.06682,-0.50113 0.02801,-0.16804 0.07128,-0.33326 0.100227,-0.50113 0.02676,-0.15521 0.03814,-0.31287 0.06682,-0.46773 0.04893,-0.26421 0.140097,-0.53234 0.167042,-0.8018 0.01,-0.0997 0.0067,-0.20068 0,-0.30068 -0.0045,-0.0676 -0.01199,-0.13619 -0.03341,-0.20045 -0.02564,-0.077 -0.08196,-0.13364 -0.167042,-0.13364 -0.03522,0 -0.06725,0.021 -0.100227,0.0334 -0.05615,0.0211 -0.114395,0.0381 -0.167044,0.0668 -0.0705,0.0384 -0.133633,0.0891 -0.200451,0.13363 -0.07796,0.0446 -0.154811,0.0911 -0.23386,0.13364 -0.06578,0.0354 -0.1289,0.0788 -0.200454,0.10022 -0.04267,0.0128 -0.08909,0 -0.133633,0 -0.118282,0 -0.117888,0.0236 -0.200454,-0.10022 -0.126285,-0.18943 -0.107897,-0.23609 -0.133635,-0.46773 -0.02614,-0.23538 -0.04879,-0.50069 -0.06682,-0.73499 -0.01198,-0.15584 -0.0113,-0.31298 -0.03341,-0.46772 -0.02545,-0.1781 -0.192024,-0.8535 -0.233862,-1.00226 -0.147497,-0.52444 -0.194635,-0.50908 -0.267269,-1.03567 -0.05808,-0.42105 -0.04609,-0.47112 0.03341,-0.86862 0.01802,-0.0901 0.04758,-0.17748 0.06682,-0.26727 0.01418,-0.0662 0.01699,-0.13474 0.03341,-0.20046 0.006,-0.0241 0.03341,-0.0419 0.03341,-0.0668 0,-0.0157 -0.01847,-0.0384 -0.03341,-0.0334 -0.02988,0.01 -0.04454,0.0445 -0.06682,0.0668 -0.09,0.09 -0.230402,0.23847 -0.334087,0.30068 -0.09405,0.0564 -0.200453,0.0891 -0.300678,0.13364 -0.312076,0.1387 -0.331335,0.17731 -0.701582,0.20045 -0.17086,0.0107 -0.3229,-0.1781 -0.400905,-0.30068 -0.04011,-0.063 -0.06316,-0.13559 -0.100226,-0.20045 -0.05212,-0.0912 -0.107524,-0.1807 -0.167042,-0.26727 -0.06309,-0.0918 -0.135253,-0.17699 -0.200454,-0.26727 -0.07959,-0.1102 -0.155906,-0.22272 -0.23386,-0.33409 -0.07795,-0.11136 -0.175419,-0.21135 -0.233862,-0.33408 -0.05459,-0.11464 -0.07533,-0.24299 -0.100225,-0.3675 -0.04467,-0.22334 -0.05926,-0.33067 0.03341,-0.53454 0.03688,-0.0811 0.100828,-0.16704 0.200451,-0.16704 0.01114,0 0.0021,0.0225 0,0.0334 -0.009,0.045 -0.01442,0.0918 -0.03341,0.13363 -0.134382,0.29565 -0.381031,0.56989 -0.601355,0.80181 -0.119319,0.1256 -0.23441,0.25659 -0.367496,0.3675 -0.09808,0.0817 -0.800534,0.54698 -0.902036,0.60135 -0.296622,0.15891 -0.58271,0.24095 -0.902033,0.33409 -0.121894,0.0356 -0.2418,0.0823 -0.367496,0.10023 -0.268023,0.0383 -0.41778,-0.008 -0.668173,-0.10023 -0.145127,-0.0535 -0.476938,-0.21285 -0.601359,-0.30068 -0.09671,-0.0683 -0.178178,-0.15591 -0.267268,-0.23386 -0.252693,-0.22111 -0.25249,-0.17989 -0.400905,-0.43431 -0.03764,-0.0645 -0.07876,-0.1289 -0.100224,-0.20045 -0.01281,-0.0427 -0.0087,-0.09 0,-0.13364 0.0031,-0.0154 0.01812,-0.0372 0.03341,-0.0334 0.03896,0.01 0.07183,0.0384 0.100227,0.0668 0.125489,0.12549 0.13593,0.21421 0.167045,0.4009 0.01839,0.1104 0.0431,0.22259 0.03341,0.33409 -0.01286,0.14802 -0.05025,0.29439 -0.100226,0.43431 -0.155491,0.43537 -0.328615,0.65621 -0.601356,1.03567 -0.441833,0.61473 -0.332197,0.45733 -0.835218,1.00226 -0.111638,0.12094 -0.514242,0.57331 -0.668173,0.70159 -0.09254,0.0771 -0.195692,0.14139 -0.300678,0.20045 -0.211995,0.11925 -0.352637,0.15085 -0.56795,0.0334 -0.182316,-0.0995 -0.257524,-0.17876 -0.400904,-0.33409 -0.126365,-0.1369 -0.265393,-0.28912 -0.334087,-0.46772 -0.02479,-0.0645 -0.10229,-0.46516 0.133636,-0.33409 0.189217,0.10512 0.233061,0.30443 0.267269,0.50113 0.02487,0.14305 0.03878,0.28922 0.03341,0.43431 -0.0099,0.2663 -0.125331,0.76188 -0.200451,1.00227 -0.144439,0.46219 -0.23694,0.59936 -0.434314,1.03567 -0.13562,0.29979 -0.253754,0.60773 -0.400904,0.90203 -0.03359,0.0672 -0.305404,0.45175 -0.367496,0.53454 -0.108461,0.14461 -0.160306,0.22382 -0.334087,0.26727 -0.0108,0.003 -0.02553,0.008 -0.03341,0 -0.01762,-0.0176 -0.01847,-0.0469 -0.03341,-0.0668 -0.01889,-0.0252 -0.04792,-0.0416 -0.06682,-0.0668 -0.01495,-0.0199 -0.01847,-0.0469 -0.03341,-0.0668 -0.02434,-0.0325 -0.100224,-0.0797 -0.100224,-0.13364 0,-0.0157 0.02397,0.0208 0.03341,0.0334 0.02408,0.0321 0.04454,0.0668 0.06681,0.10023 0.111364,0.16704 0.226883,0.33139 0.334087,0.50113 0.143071,0.22652 0.277053,0.46419 0.400905,0.70158 0.124875,0.23934 0.25777,0.53718 0.400904,0.7684 0.07155,0.11558 0.150405,0.22678 0.233863,0.33409 0.07268,0.0934 0.159909,0.17483 0.23386,0.26726 0.05984,0.0748 0.102309,0.16325 0.167042,0.23387 0.159403,0.17389 0.194995,0.1705 0.400905,0.23386 0.07749,0.0238 0.153027,0.0606 0.233862,0.0668 0.09206,0.007 0.360762,-0.0792 0.434311,-0.10023"
       id="path74"
       inkscape:connector-curvature="0"
       inkscape:export-xdpi="96"
       inkscape:export-ydpi="96" />
    <path
       style="fill:none;stroke:#000000;stroke-width:0.26458332px;stroke-linecap:butt;stroke-linejoin:miter;stroke-opacity:1"
       d="m 86.862596,130.89199 c 0.79225,-0.3169 0.428292,-0.26727 1.069078,-0.26727 0.138248,0 0.184703,-0.0315 0.267269,0.13363 0.02035,0.0407 0,0.34072 0,0.40091 0,0.10663 0.02673,0.588 0,0.66817 -0.0315,0.0945 -0.102137,0.17278 -0.133636,0.26727 -0.01408,0.0423 0.01992,0.0938 0,0.13363 -0.02817,0.0564 -0.07729,0.10547 -0.133633,0.13364 -0.03984,0.0199 -0.08909,0 -0.133636,0 -0.118787,0 -0.212225,0.0315 -0.267268,-0.13364 -0.05464,-0.16391 -0.02437,-0.3219 0.133635,-0.4009 0.03984,-0.0199 0.08909,0 0.133633,0 0.138248,0 0.184703,-0.0315 0.267269,0.13364 0.05683,0.11366 -0.107153,0.36118 -0.133633,0.4009 -0.03494,0.0524 -0.105463,0.0773 -0.133636,0.13363 -0.01992,0.0399 0.01992,0.0938 0,0.13364 -0.02817,0.0563 -0.113712,0.0739 -0.133633,0.13363 -0.02817,0.0845 0.02817,0.18276 0,0.26727 -0.01992,0.0598 -0.105463,0.0773 -0.133635,0.13364 -0.01992,0.0398 0.01992,0.0938 0,0.13363 -0.02817,0.0563 -0.105463,0.0773 -0.133636,0.13364 -0.08909,0.17818 0.133636,0.13363 -0.133633,0.13363 -0.400905,0 -0.801809,0 -1.202714,0 -0.133636,0 -0.269087,-0.022 -0.400905,0 -0.138946,0.0231 -0.261456,0.11372 -0.400904,0.13364 -0.09985,0.0143 -1.370127,0.0143 -1.469983,0 -0.408353,-0.0583 -0.448929,-0.19926 -0.801806,-0.40091 -0.244563,-0.13975 -0.718392,-0.31748 -0.935445,-0.53454 -0.113568,-0.11357 -0.187585,-0.26145 -0.267269,-0.4009 -0.286322,-0.50106 -0.474279,-1.01661 -0.400905,-1.60362 0.02278,-0.18224 0.08909,-0.35636 0.133636,-0.53454 0.04454,-0.17818 0.06128,-0.36572 0.133633,-0.53454 0.08976,-0.20943 0.485936,-0.69767 0.668173,-0.80181 0.248034,-0.14173 0.796529,-0.1677 1.069078,-0.13363 0.560703,0.0701 0.696413,0.2181 1.202714,0.53454 0.136197,0.0851 0.27549,0.16694 0.400905,0.26727 0.09838,0.0787 0.191675,0.16648 0.267269,0.26727 0.05976,0.0797 0.222726,0.22272 0.133635,0.26727 -0.08909,0.0445 -0.07838,-0.1844 -0.133635,-0.26727 -0.123545,-0.18532 -0.292741,-0.33984 -0.400905,-0.53454 -0.116496,-0.20969 -0.178178,-0.44545 -0.267269,-0.66817 -0.08909,-0.22273 -0.178178,-0.44545 -0.267269,-0.66818 -0.08909,-0.22272 -0.204152,-0.43674 -0.267268,-0.66817 -0.0713,-0.26141 -0.06792,-0.53894 -0.133636,-0.80181 -0.136657,-0.54663 -0.397881,-1.05699 -0.534541,-1.60362 -0.06571,-0.26286 -0.109103,-0.53196 -0.133633,-0.80181 -0.02016,-0.22181 -0.04832,-0.45075 0,-0.66817 0.05652,-0.25432 0.384591,-0.71052 0.534538,-0.93544 0.08909,-0.13364 0.153702,-0.28734 0.267272,-0.40091 0.07043,-0.0704 0.18439,-0.0784 0.267268,-0.13363 0.332407,-0.22161 0.01535,-0.0307 0.133634,-0.26727 0.05635,-0.11269 0.227427,-0.14774 0.267271,-0.26727 0.02817,-0.0845 -0.02162,-0.18084 0,-0.26727 0.02416,-0.0966 0.09664,-0.17479 0.133633,-0.26727 0.183351,-0.45838 0.266785,-0.90794 0.53454,-1.33635 0.184621,-0.29539 0.659165,-0.87568 0.935443,-1.06908 0.2448,-0.17136 0.53454,-0.26727 0.801809,-0.4009 0.267269,-0.13363 0.518327,-0.30641 0.801809,-0.4009 0.257051,-0.0857 0.535223,-0.0852 0.801809,-0.13364 0.623528,-0.11337 1.117719,-0.26551 1.737252,0 0.519597,0.22268 0.829297,0.72315 1.069078,1.20271 0.04454,0.0891 0.109477,0.17064 0.133633,0.26727 0.03029,0.12115 0,0.51294 0,0.66818 0,0.0891 -0.02817,0.18275 0,0.26727 0.01992,0.0598 0.08909,0.0891 0.133636,0.13363 0.04454,0.0446 0.08122,0.0987 0.133636,0.13364 0.08288,0.0553 0.178178,0.0891 0.267268,0.13363 0.178179,0.0891 0.35636,0.17818 0.534538,0.26727 0.646938,0.32347 -0.140861,-0.10565 0.53454,0.4009 0.233532,0.17516 0.398667,0.13252 0.668174,0.26727 0.143653,0.0718 0.277521,0.16445 0.400904,0.26727 0.145185,0.12099 0.267269,0.26727 0.400905,0.40091 0.485661,0.48566 0.373227,0.33543 0.801809,0.93544 0.09335,0.13069 0.223145,0.24648 0.267269,0.40091 0.04895,0.17132 0,0.35635 0,0.53454 0,0.13363 0,0.26726 0,0.4009 0,0.0891 0.02162,0.18084 0,0.26727 -0.04832,0.19326 -0.204274,0.34555 -0.267269,0.53454 -0.01408,0.0423 0.01992,0.0938 0,0.13363 -0.05433,0.10866 -0.211984,0.11057 -0.133635,0.26727 0.08518,0.17036 0.265265,0.15876 0.400904,0.26727 0.147574,0.11806 0.267269,0.26727 0.400905,0.4009 0.133633,0.13364 0.291057,0.24712 0.400904,0.40091 0.191982,0.26878 0.364088,0.73775 0.400902,1.06908 0.02461,0.22136 -0.02461,0.44681 0,0.66817 0.02029,0.18254 0.133636,0.35088 0.133636,0.53454 0,0.14086 -0.08909,0.26727 -0.133636,0.40091 -0.04454,0.13363 -0.08909,0.26726 -0.133633,0.4009 -0.04454,0.13363 -0.06116,0.28011 -0.133636,0.4009 -0.06482,0.10804 -0.178178,0.17818 -0.267268,0.26727 -0.08909,0.0891 -0.166476,0.19168 -0.267269,0.26727 -0.07968,0.0598 -0.174789,0.0966 -0.267272,0.13364 -0.474948,0.18998 -0.380193,0.13363 -0.935442,0.13363 -0.133636,0 -0.268613,0.0189 -0.400905,0 -0.181816,-0.026 -0.352721,-0.10766 -0.534537,-0.13363 -0.132292,-0.0189 -0.267272,0 -0.400905,0 -0.133636,0 -0.267271,0 -0.400905,0 -0.178181,0 -0.356359,0 -0.53454,0 -0.133633,0 -0.269086,-0.022 -0.400905,0 -0.138945,0.0232 -0.265459,0.0949 -0.400901,0.13363 -0.176599,0.0505 -0.365726,0.0613 -0.534541,0.13364 -0.147621,0.0633 -0.25328,0.204 -0.400904,0.26727 -0.168813,0.0723 -0.365726,0.0613 -0.534538,0.13363 -0.147624,0.0633 -0.257252,0.19544 -0.400905,0.26727 -0.251984,0.12599 -0.540231,0.16264 -0.801809,0.26727 -0.184962,0.074 -0.341275,0.21895 -0.534538,0.26727 -0.0514,0.0129 -0.909121,0.009 -0.935445,0 -0.279532,-0.0932 -0.528023,-0.29139 -0.801809,-0.4009 -0.130786,-0.0523 -0.267269,-0.0891 -0.400904,-0.13364 -0.133633,-0.0891 -0.257249,-0.19544 -0.400902,-0.26727 -0.125992,-0.063 -0.270116,-0.0813 -0.400905,-0.13363 -0.09248,-0.037 -0.178181,-0.0891 -0.267271,-0.13364"
       id="path76"
       inkscape:connector-curvature="0"
       inkscape:export-xdpi="96"
       inkscape:export-ydpi="96" />
    <path
       style="fill:none;stroke:#000000;stroke-width:0.26458332px;stroke-linecap:butt;stroke-linejoin:miter;stroke-opacity:1"
       d="m 84.991709,139.71188 c -0.05506,0.9623 -0.549825,0.14128 -0.801809,0.26727 -0.05635,0.0282 -0.07186,0.12128 -0.133633,0.13364 -0.174721,0.0349 -0.357246,0.0177 -0.534541,0 -0.771215,-0.0771 -0.865505,-0.15487 -1.603616,-0.40091 -0.990798,-0.33027 -0.549825,-0.14128 -1.336349,-0.53454 -0.178178,-0.0891 -0.365607,-0.16169 -0.534538,-0.26727 -0.457152,-0.28572 -0.571002,-0.43737 -0.935445,-0.80181 -0.133633,-0.13363 -0.267269,-0.26727 -0.400904,-0.4009 -0.08909,-0.0891 -0.191672,-0.16648 -0.267269,-0.26727 -0.05976,-0.0797 -0.07838,-0.18439 -0.133633,-0.26727 -0.03495,-0.0524 -0.133636,-0.0706 -0.133636,-0.13363 0,-0.063 0.08909,-0.0891 0.133636,-0.13364 0.04454,-0.0445 0.07064,-0.13363 0.133633,-0.13363 0.221607,0 0.468513,0.1874 0.668173,0.26727 0.130789,0.0523 0.274913,0.0706 0.400905,0.13363 0.05635,0.0282 0.08122,0.0987 0.133636,0.13364 0.09623,0.0642 0.339505,0.19503 0.400904,0.13363 0.0315,-0.0315 -0.01408,-0.0914 0,-0.13363 0.0315,-0.0945 0.114099,-0.1696 0.133633,-0.26727 0.05242,-0.26208 -0.04394,-0.53818 0,-0.80181 0.02315,-0.13895 0.08909,-0.26727 0.133636,-0.40091 0.118787,-0.35636 0.180726,-0.60518 0.400905,-0.93544 0.06989,-0.10483 0.178178,-0.17818 0.267269,-0.26727 0.133635,-0.13363 0.243657,-0.29607 0.400904,-0.40091 0.117205,-0.0781 0.270116,-0.0813 0.400905,-0.13363 0.09248,-0.037 0.167664,-0.13363 0.267269,-0.13363 0.335864,0 0.795382,0.24885 1.069078,0.4009 0.662781,0.36821 0.628777,0.37136 1.202713,0.80181 0.178179,0.13363 0.37705,0.24341 0.534538,0.4009 0.11357,0.11357 0.166939,0.27549 0.267272,0.40091 0.0787,0.0984 0.178178,0.17818 0.267268,0.26727 0.08909,0.0891 0.154578,0.21092 0.267269,0.26727 0.07968,0.0398 0.178181,0 0.267269,0 0.08909,0 0.182753,0.0282 0.267272,0 0.05976,-0.0199 0.08909,-0.0891 0.133633,-0.13364 0.522039,-0.52204 0.05395,0.0257 0.400904,-0.66817 0.07183,-0.14366 0.178181,-0.26727 0.267269,-0.40091 0.08909,-0.13363 0.178181,-0.26727 0.267272,-0.4009 0.08909,-0.13363 0.178178,-0.26727 0.267269,-0.4009 0.08909,-0.13364 0.153701,-0.28734 0.267268,-0.40091 0.235773,-0.23577 0.874734,-0.53454 1.202714,-0.53454 0.140862,0 0.265459,0.0949 0.400905,0.13364 0.176596,0.0505 0.375073,0.0425 0.534538,0.13363 0.164089,0.0938 0.257413,0.27791 0.400904,0.4009 0.169106,0.14495 0.37705,0.24342 0.53454,0.40091 0.113568,0.11357 0.178179,0.26727 0.267269,0.4009 0.08909,0.13364 0.195443,0.25726 0.267269,0.40091 0.125992,0.25198 0.122322,0.56023 0.267269,0.80181 0.06482,0.10803 0.191675,0.16647 0.267272,0.26727 0.05976,0.0797 0.07838,0.18439 0.133633,0.26727 0.06989,0.10483 0.210925,0.15458 0.267268,0.26727 0.01992,0.0398 0,0.0891 0,0.13363 0,0.0445 0,0.0891 0,0.13364 0,0.0445 0.02471,0.0966 0,0.13363 -0.278886,0.41833 -0.804447,0.55289 -1.202711,0.80181 -0.18887,0.11804 -0.356359,0.26727 -0.53454,0.4009 -0.178178,0.13364 -0.356359,0.26727 -0.534538,0.40091 -0.742331,0.55674 -0.343553,0.28631 -1.202714,0.80181 -0.222723,0.13363 -0.435856,0.28474 -0.668173,0.4009 -0.214556,0.10728 -0.44545,0.17818 -0.668173,0.26727 -2.787251,1.1149 1.373843,-0.50249 -1.336347,0.4009 -0.18899,0.063 -0.345551,0.20428 -0.534541,0.26727 -0.505735,0.16858 -0.705527,0.13364 -1.202713,0.13364 -0.178179,0 -0.357736,0.0221 -0.534538,0 -0.259178,-0.0324 -0.970423,-0.22669 -1.202714,-0.40091 -0.100793,-0.0756 -0.178178,-0.17818 -0.267269,-0.26726 -0.410974,-0.41098 -0.400904,-0.3495 -0.400904,-0.93545 0,-0.0891 -0.02817,-0.18275 0,-0.26727 0.01992,-0.0598 0.08909,-0.0891 0.133635,-0.13363 0.04455,-0.0445 0.07729,-0.10546 0.133633,-0.13364 0.131088,-0.0655 0.194832,0.0612 0.267272,0.13364 0.217546,0.21754 0.305914,0.24957 0.400905,0.53454 0.0883,0.2649 0.267268,1.13896 0.267268,1.33634 0,0.35914 -0.111233,0.71065 -0.133635,1.06908 -0.02223,0.35567 0,0.71272 0,1.06908"
       id="path78"
       inkscape:connector-curvature="0"
       inkscape:export-xdpi="96"
       inkscape:export-ydpi="96" />
    <path
       style="fill:none;stroke:#000000;stroke-width:0.26458332px;stroke-linecap:butt;stroke-linejoin:miter;stroke-opacity:1"
       d="m 102.43155,100.45238 c 0.38114,0.38114 1.14474,1.23383 1.70089,1.5119 0.23232,0.11616 0.51275,0.0978 0.75596,0.18899 0.26379,0.0989 0.48868,0.28889 0.75595,0.37798 0.30473,0.10158 0.62996,0.12599 0.94494,0.18899 0.62996,0.12599 1.25781,0.26305 1.88988,0.37797 0.37701,0.0686 0.76424,0.0882 1.13393,0.18899 0.32729,0.0893 0.62,0.2805 0.94494,0.37798 0.61534,0.1846 1.26274,0.23861 1.88988,0.37798 0.25355,0.0563 0.49882,0.15225 0.75595,0.18898 0.18709,0.0267 0.38055,-0.0311 0.56697,0 0.38452,-0.0656 0.61228,0.31145 0.94494,0.37798 1.07477,0 0.12442,-0.0845 0.94494,0.18899 0.0598,0.0199 0.12599,0 0.18898,0 0.126,0 0.25199,0 0.37798,0 0.063,0 0.18899,-0.063 0.18899,0 0,0.0891 -0.12599,0.12599 -0.18899,0.18898 -0.063,0.063 -0.1093,0.14915 -0.18899,0.18899 -0.17818,0.0891 -0.38878,0.0999 -0.56696,0.18899 -0.20316,0.10158 -0.37798,0.25199 -0.56697,0.37798 -0.18898,0.12599 -0.42507,0.20061 -0.56696,0.37797 -0.12445,0.15556 -0.0999,0.38879 -0.18899,0.56697 -0.10158,0.20315 -0.25198,0.37797 -0.37797,0.56696 -0.126,0.18899 -0.23257,0.39248 -0.37798,0.56697 -0.1711,0.20532 -0.41162,0.34947 -0.56696,0.56696 -0.16376,0.22925 -0.21423,0.5267 -0.37798,0.75595 -0.15535,0.21749 -0.41162,0.34948 -0.56697,0.56697 -0.16375,0.22925 -0.22866,0.51705 -0.37797,0.75595 -0.16694,0.2671 -0.414,0.48061 -0.56697,0.75595 -0.16475,0.29655 -0.21322,0.64839 -0.37797,0.94494 -0.15297,0.27534 -0.40003,0.48885 -0.56697,0.75595 -0.14931,0.23891 -0.25198,0.50397 -0.37797,0.75596 -0.12599,0.25198 -0.25199,0.50397 -0.37798,0.75595 -0.12599,0.25198 -0.27905,0.49216 -0.37797,0.75595 -0.0912,0.2432 -0.0978,0.51275 -0.18899,0.75596 -0.0989,0.26378 -0.25199,0.50396 -0.37798,0.75595 -0.12599,0.25198 -0.24307,0.50862 -0.37798,0.75595 -0.2432,0.44587 -0.51274,0.87704 -0.75595,1.32292 -0.5383,0.98689 -1.00912,2.01825 -1.5119,3.0238 -0.12599,0.25199 -0.25199,0.50397 -0.37798,0.75596 -0.12599,0.25198 -0.27905,0.49216 -0.37797,0.75595 -0.0912,0.2432 -0.0978,0.51275 -0.18899,0.75595 -0.0989,0.26379 -0.26356,0.49851 -0.37798,0.75595 -1.12044,2.8011 0.30343,-0.68271 -0.75595,1.7009 -0.13778,0.31 -0.21323,0.64839 -0.37798,0.94494 -0.15297,0.27534 -0.41399,0.48061 -0.56696,0.75595 -0.61617,1.10911 -0.13978,0.78077 -0.75595,1.88988 -0.15297,0.27534 -0.40003,0.48885 -0.56697,0.75595 -0.29863,0.47781 -0.4764,1.02269 -0.75595,1.51191 -0.11269,0.19721 -0.25198,0.37797 -0.37798,0.56696 -0.12599,0.18899 -0.236084,0.3896 -0.377974,0.56697 -0.63678,0.79597 -0.17244,-0.0331 -0.56697,0.75595 -0.12599,0.25198 -0.28888,0.48868 -0.37797,0.75595 -0.0199,0.0598 0.0282,0.13264 0,0.18899 -0.0399,0.0797 -0.14915,0.10931 -0.18899,0.18899 -0.0653,0.13054 0.0663,0.8786 0,0.94494 -1.8e-4,1.8e-4 -0.56611,-2.7e-4 -0.56697,0 -0.0845,0.0282 -0.1093,0.14914 -0.18898,0.18899 -0.22161,0.1108 -0.22431,-0.11216 -0.37798,-0.18899 -0.0841,-0.042 -0.66951,0.0288 -0.75595,0 -0.0845,-0.0282 -0.10931,-0.14915 -0.18899,-0.18899 -0.0564,-0.0282 -0.13264,0.0282 -0.18899,0 -0.0797,-0.0398 -0.10447,-0.16082 -0.18899,-0.18899 -0.11952,-0.0398 -0.25845,0.0399 -0.37797,0 -0.0845,-0.0282 -0.10931,-0.14914 -0.18899,-0.18898 -0.0564,-0.0282 -0.13264,0.0282 -0.18899,0 -0.20316,-0.10158 -0.35607,-0.29363 -0.56696,-0.37798 -0.11699,-0.0468 -0.25845,0.0398 -0.37798,0 -0.0845,-0.0282 -0.12599,-0.12599 -0.18899,-0.18899 -0.12599,-0.063 -0.24132,-0.15482 -0.37797,-0.18899 -0.12223,-0.0306 -0.25845,0.0398 -0.37798,0 -0.0845,-0.0282 -0.1093,-0.14914 -0.18899,-0.18899 -0.0563,-0.0282 -0.12599,0 -0.18899,0 -0.12599,-0.063 -0.26077,-0.11085 -0.37797,-0.18898 -0.0741,-0.0494 -0.10447,-0.16082 -0.18899,-0.18899 -0.11953,-0.0398 -0.25845,0.0398 -0.37798,0 -0.0745,-0.0248 -0.65712,-0.65713 -0.75595,-0.75596 -0.063,-0.063 -0.18899,-0.0999 -0.18899,-0.18898 0,-0.0891 0.14915,-0.10931 0.18899,-0.18899 0.0282,-0.0564 -0.0282,-0.13264 0,-0.18899 0.0398,-0.0797 0.13957,-0.11486 0.18899,-0.18899 0.0781,-0.1172 0.11085,-0.26077 0.18899,-0.37797 0.0494,-0.0741 0.13957,-0.11486 0.18898,-0.18899 0.0781,-0.11721 0.126,-0.25199 0.18899,-0.37798 0.126,-0.12599 0.27107,-0.23543 0.37798,-0.37797 0.0845,-0.1127 0.11651,-0.25719 0.18899,-0.37798 0.11686,-0.19477 0.26111,-0.3722 0.37797,-0.56696 0.3533,-0.58883 0.01,-0.24836 0.56697,-0.94495 0.22262,-0.27827 0.57261,-0.45037 0.75595,-0.75595 0.10249,-0.17082 0.0865,-0.39614 0.18899,-0.56696 0.0917,-0.15279 0.27107,-0.23543 0.37797,-0.37798 0.16904,-0.22538 0.22171,-0.52154 0.37798,-0.75595 0.11469,-0.17204 0.48321,-0.39946 0.56696,-0.56696 0.0282,-0.0563 0,-0.126 0,-0.18899 0,-0.063 0.0445,-0.14445 0,-0.18899 -0.0445,-0.0445 -0.12922,0.0199 -0.18898,0 -0.13364,-0.0445 -0.23985,-0.16136 -0.37798,-0.18899 -0.30886,-0.0618 -0.62996,0 -0.94494,0 -0.18899,0 -0.37798,0 -0.56696,0 -0.126,0 -0.25575,-0.0306 -0.37798,0 -0.13666,0.0342 -0.25198,0.12599 -0.37798,0.18899 -1.07074,0.53537 0.28173,-0.0704 -0.75595,0.18899 -0.58502,0.14626 -0.21806,0.24423 -0.75595,0.56696 -0.17082,0.1025 -0.382,0.11501 -0.56697,0.18899 -0.13078,0.0523 -0.25198,0.12599 -0.37797,0.18899 -0.18899,0.063 -0.382,0.115 -0.56697,0.18899 -0.44065,0.17626 -0.40768,0.28843 -0.94494,0.37797 -0.18641,0.0311 -0.38164,-0.0371 -0.56696,0 -0.13813,0.0276 -0.25198,0.12599 -0.37798,0.18899 -0.33597,0.16799 -0.55572,0.30013 -0.94494,0.37798 -0.29919,0.0598 -0.85101,-0.0707 -1.13393,0 -0.13665,0.0342 -0.24132,0.15482 -0.37797,0.18898 -0.12223,0.0306 -0.25575,-0.0305 -0.37798,0 -0.13666,0.0342 -0.24132,0.15483 -0.37797,0.18899 -0.12223,0.0306 -0.25444,-0.0247 -0.37798,0 -0.19534,0.0391 -0.37162,0.14992 -0.56697,0.18899 -0.12354,0.0247 -0.25574,-0.0306 -0.37797,0 -0.13666,0.0342 -0.24132,0.15483 -0.37798,0.18899 -0.24446,0.0611 -0.51149,-0.0611 -0.75595,0 -0.13666,0.0342 -0.24132,0.15482 -0.37798,0.18899 -0.12223,0.0306 -0.25574,-0.0306 -0.37797,0 -0.27332,0.0683 -0.48264,0.30965 -0.75595,0.37797 -0.47339,0.11835 -0.28257,-0.11834 -0.75596,0 -0.13665,0.0342 -0.24131,0.15483 -0.37797,0.18899 -0.24446,0.0611 -0.5169,-0.0797 -0.75596,0 -0.0845,0.0282 -0.10447,0.16082 -0.18898,0.18899 -0.23906,0.0797 -0.51149,-0.0611 -0.75596,0 -0.13665,0.0342 -0.24434,0.14444 -0.37797,0.18899 -0.0598,0.0199 -0.12599,0 -0.18899,0 -0.37798,0 -0.75595,0 -1.13393,0 -0.12599,0 -0.25575,-0.0306 -0.37797,0 -0.13666,0.0342 -0.23985,0.16136 -0.37798,0.18899 -0.67174,0.13434 -0.42483,-0.0156 -0.94494,-0.18899 -0.17929,-0.0598 -0.38362,0.0458 -0.56697,0 -0.13665,-0.0342 -0.24434,-0.14445 -0.37797,-0.18899 -0.1584,-0.0528 -0.63071,0.0626 -0.75595,0 -0.0797,-0.0398 -0.10447,-0.16082 -0.18899,-0.18899 -0.0864,-0.0288 -0.67186,0.0421 -0.75595,0 -0.0797,-0.0398 -0.10448,-0.16081 -0.18899,-0.18899 -0.11953,-0.0398 -0.25845,0.0398 -0.37798,0 -0.0845,-0.0282 -0.1093,-0.14914 -0.18899,-0.18899 -0.0563,-0.0282 -0.13264,0.0282 -0.18899,0 -0.0502,-0.0251 -0.54187,-0.51678 -0.56696,-0.56696 -0.0282,-0.0563 0,-0.12599 0,-0.18899 0,-0.063 0,-0.12599 0,-0.18899 0,-0.25198 0,-0.50396 0,-0.75595 0,-0.12599 0,-0.25198 0,-0.37797 0,-0.063 0.0199,-0.12923 0,-0.18899 -0.0445,-0.13364 -0.15482,-0.24132 -0.18899,-0.37798 -0.0306,-0.12223 0,-0.25198 0,-0.37797 0,-0.18899 0,-0.37798 0,-0.56697 0,-0.12599 0,-0.25198 0,-0.37798 0,-0.12599 -0.0306,-0.25574 0,-0.37797 0.0342,-0.13666 0.15483,-0.24132 0.18899,-0.37798 0.0458,-0.18334 -0.0598,-0.38767 0,-0.56696 0.0445,-0.13364 0.14444,-0.24434 0.18899,-0.37798 0.0199,-0.0598 -0.0282,-0.13264 0,-0.18898 0.0398,-0.0797 0.14914,-0.10931 0.18899,-0.18899 0.0282,-0.0564 -0.0446,-0.14445 0,-0.18899 0.0445,-0.0446 0.12922,0.0199 0.18898,0 0.13364,-0.0446 0.24435,-0.14444 0.37798,-0.18899 0.0598,-0.0199 0.13264,0.0282 0.18899,0 0.0797,-0.0398 0.1093,-0.14915 0.18899,-0.18899 0.1115,-0.0558 0.43697,0.0433 0.56696,0 0.13364,-0.0445 0.24434,-0.14444 0.37798,-0.18899 0.20082,-0.0669 0.55513,0.0669 0.75595,0 0.13363,-0.0445 0.24132,-0.15482 0.37798,-0.18898 0.32813,-0.082 0.8058,0.082 1.13392,0 0.13666,-0.0342 0.24132,-0.15483 0.37798,-0.18899 0.14866,-0.0372 0.93739,0 1.13393,0 0.69296,0 1.38591,0 2.07887,0 0.50397,0 1.00793,0 1.5119,0 0.126,0 0.25199,0 0.37798,0 0.12599,0 0.25575,0.0306 0.37798,0 0.13665,-0.0342 0.24131,-0.15482 0.37797,-0.18899 0.12223,-0.0306 0.25199,0 0.37798,0 0.12599,0 0.25198,0 0.37797,0 0.37798,0 0.75596,0 1.13393,0 0.56697,0 1.13393,0 1.7009,0 0.18898,0 0.37797,0 0.56696,0 0.12599,0 0.25443,0.0247 0.37798,0 0.19534,-0.0391 0.37162,-0.14992 0.56696,-0.18899 0.12355,-0.0247 0.25199,0 0.37798,0 0.37797,0 0.75595,0 1.13392,0 0.126,0 0.25444,0.0247 0.37798,0 0.39069,-0.0781 0.74324,-0.29984 1.13393,-0.37798 0.12355,-0.0247 0.25443,0.0247 0.37798,0 0.19534,-0.0391 0.37797,-0.12599 0.56696,-0.18898 0.37798,-0.12599 0.764,-0.23001 1.13393,-0.37798 0.70717,-0.28287 0.0575,-0.12326 0.94494,-0.56696 0.17818,-0.0891 0.38878,-0.0999 0.56696,-0.18899 0.20316,-0.10158 0.36381,-0.2764 0.56697,-0.37798 0.35636,-0.17818 0.77757,-0.19979 1.13393,-0.37797 0.20315,-0.10158 0.37219,-0.26112 0.56696,-0.37798 0.12079,-0.0725 0.25719,-0.11651 0.37798,-0.18899 0.38953,-0.23372 0.74439,-0.52223 1.13393,-0.75595 0.44814,-0.26889 0.91019,-0.41202 1.32291,-0.75595 0.34221,-0.28517 0.62996,-0.62996 0.94494,-0.94494 0.21564,-0.21564 0.7685,-0.70969 0.944944,-0.94494 0.0845,-0.11269 0.10447,-0.26529 0.18899,-0.37798 0.10691,-0.14254 0.27914,-0.22972 0.37798,-0.37798 0.0349,-0.0524 -0.0199,-0.12922 0,-0.18898 0.0445,-0.13364 0.12599,-0.25199 0.18899,-0.37798 0.063,-0.12599 0.11085,-0.26077 0.18898,-0.37798 0.0494,-0.0741 0.126,-0.12599 0.18899,-0.18899 0.063,-0.12599 0.11085,-0.26077 0.18899,-0.37797 0.0494,-0.0741 0.16081,-0.10447 0.18899,-0.18899 0.0797,-0.23905 -0.0611,-0.51149 0,-0.75595 0.0342,-0.13666 0.15482,-0.24132 0.18899,-0.37798 0.0306,-0.12223 -0.0399,-0.25845 0,-0.37797 0.0282,-0.0845 0.12599,-0.126 0.18898,-0.18899 0.063,-0.12599 0.15483,-0.24132 0.18899,-0.37798 0.0306,-0.12223 -0.0306,-0.25574 0,-0.37797 0.0342,-0.13666 0.12599,-0.25199 0.18899,-0.37798 0.16799,-0.33598 0.30013,-0.55572 0.37798,-0.94494 0.0247,-0.12355 0,-0.25198 0,-0.37798 0,-0.25198 0,-0.50396 0,-0.75595 0,-0.12599 -0.0306,-0.25574 0,-0.37797 0.0342,-0.13666 0.18898,-0.23712 0.18898,-0.37798 0,-0.14086 -0.15482,-0.24132 -0.18898,-0.37798 -0.0372,-0.14866 0,-0.93739 0,-1.13393 0,-0.81894 0,-1.63789 0,-2.45684 0,-0.95771 -0.0563,0.22538 0.18898,-0.75595 0.0306,-0.12223 -0.0398,-0.25845 0,-0.37798 0.0282,-0.0845 0.126,-0.12599 0.18899,-0.18899 0.063,-0.12599 0.15483,-0.24132 0.18899,-0.37798 0.0306,-0.12222 -0.0306,-0.25574 0,-0.37797 0.0763,-0.30511 0.18587,-0.37485 0.37798,-0.56697 0.10714,-0.10714 0.6032,-0.71971 0.75595,-0.56696 0.16794,0.16794 -0.29428,0.55976 -0.56697,0.37798 -0.1172,-0.0781 -0.12599,-0.25199 -0.18898,-0.37798"
       id="path164"
       inkscape:connector-curvature="0" />
    <path
       style="fill:#000080;stroke:#000000;stroke-width:0.26458332px;stroke-linecap:butt;stroke-linejoin:miter;stroke-opacity:1"
       d="m 29.293156,140.70684 c -0.325258,-0.27983 -0.782313,-0.33255 -1.133931,-0.56696 -0.148254,-0.0988 -0.218606,-0.29829 -0.377975,-0.37798 -0.178179,-0.0891 -0.377976,-0.12599 -0.566965,-0.18899 -0.188987,-0.12599 -0.363808,-0.27639 -0.566963,-0.37797 -0.178181,-0.0891 -0.388785,-0.0999 -0.566965,-0.18899 -0.07968,-0.0398 -0.278078,-0.18899 -0.188988,-0.18899 0.217615,0 1.074004,0.72266 1.133929,0.75595 0.296553,0.16476 0.641511,0.22627 0.944941,0.37798 0.574842,0.28742 2.37137,1.38004 2.83482,1.70089 0.33165,0.22961 0.61872,0.5187 0.944941,0.75596 1.107532,0.80547 1.160325,0.70642 2.267857,1.5119 0.326221,0.23725 0.61872,0.5187 0.944941,0.75595 0.367384,0.26719 0.770512,0.48339 1.133927,0.75596 0.393613,0.2952 0.740318,0.64973 1.13393,0.94494 0.363416,0.27256 0.755952,0.50396 1.133928,0.75595 0.755951,0.50397 1.501354,1.02413 2.267857,1.5119 0.309899,0.19721 0.63504,0.36976 0.944941,0.56697 0.383249,0.24388 0.750676,0.51206 1.133928,0.75595 0.619799,0.39442 1.278612,0.72642 1.889881,1.13393 1.472002,0.98133 0.03536,0.20667 1.511904,0.94494 0.251986,0.12599 0.511346,0.2382 0.755954,0.37797 0.197207,0.1127 0.363807,0.2764 0.566962,0.37798 0.178181,0.0891 0.382003,0.115 0.566965,0.18899 0.261578,0.10463 0.503968,0.25198 0.755952,0.37798 0.125992,0.063 0.241318,0.15482 0.377978,0.18898 0.02204,0.006 0.926558,0.006 0.944938,0 0.08452,-0.0282 0.125992,-0.12599 0.18899,-0.18898"
       id="path178"
       inkscape:connector-curvature="0" />
    <path
       style="fill:#0000ff;stroke:#000000;stroke-width:0.26458332px;stroke-linecap:butt;stroke-linejoin:miter;stroke-opacity:1"
       d="m 38.742559,138.62798 c -0.499491,-0.14272 -1.012413,-0.23527 -1.511904,-0.37798 -0.191547,-0.0547 -0.370464,-0.15624 -0.566965,-0.18899 -1.930773,-0.3218 1.64754,0.73817 -1.700892,-0.37798 -0.377976,-0.12599 -0.755954,-0.25198 -1.13393,-0.37797 -0.188987,-0.063 -0.370464,-0.15624 -0.566963,-0.18899 -0.186417,-0.0311 -0.380547,0.0311 -0.566965,0 -0.1965,-0.0328 -0.370464,-0.15624 -0.566965,-0.18899 -0.186417,-0.0311 -0.380547,0.0311 -0.566965,0 -0.196498,-0.0327 -0.377975,-0.12599 -0.566962,-0.18899 -0.251984,-0.063 -0.498824,-0.15225 -0.755954,-0.18899 -0.187087,-0.0267 -0.379876,0.0267 -0.566963,0 -0.48066,0.0316 -0.868907,-0.31311 -1.322916,-0.37797 -0.436542,-0.0624 -0.886378,0.0624 -1.322917,0 -0.25713,-0.0367 -0.498824,-0.15226 -0.755953,-0.18899 -0.187089,-0.0267 -0.377976,0 -0.566964,0 -0.566965,0 -1.133929,0 -1.700893,0 -0.31498,0 -0.629961,0 -0.944941,0 -0.063,0 -0.125992,0 -0.188988,0 -0.063,0 -0.132642,-0.0282 -0.188988,0 -0.07968,0.0398 -0.149146,0.1093 -0.188988,0.18899 -0.02817,0.0563 0,0.12599 0,0.18899 0,0.12599 -0.03056,0.25574 0,0.37797 0.08332,0.33329 0.445023,0.66041 0.566964,0.94494 0.102317,0.23874 0.07283,0.52364 0.188988,0.75596 0.140864,0.28172 0.413997,0.48061 0.566965,0.75595 0.164751,0.29655 0.226261,0.64151 0.377976,0.94494 1.717544,3.43509 -0.670859,-1.83151 1.133929,2.07887 0.201048,0.4356 0.339508,0.9005 0.566964,1.32291 1.539078,2.85829 0.04235,-0.54939 1.322916,2.26786 0.14038,0.30884 0.226263,0.64151 0.377975,0.94494 0.164275,0.32855 0.372282,0.63345 0.566965,0.94494 0.120383,0.19261 0.2764,0.36381 0.377976,0.56697 0.08909,0.17818 0.115004,0.382 0.188989,0.56696 0.10463,0.26158 0.288886,0.48868 0.377976,0.75595 0.01992,0.0598 -0.04454,0.14445 0,0.18899 0.04455,0.0446 0.160817,0.0564 0.18899,0 0.05634,-0.11269 -0.05635,-0.26528 0,-0.37797 0.07968,-0.15937 0.271068,-0.23544 0.377975,-0.37798 0.08452,-0.11269 0.125992,-0.25198 0.188987,-0.37798"
       id="path180"
       inkscape:connector-curvature="0" />
    <path
       style="fill:#0000ff;stroke:#000000;stroke-width:0.26458332px;stroke-linecap:butt;stroke-linejoin:miter;stroke-opacity:1"
       d="m 122.2753,157.71577 c 0.25198,-0.18899 0.47422,-0.4261 0.75595,-0.56696 0.35636,-0.17818 0.76206,-0.23495 1.13393,-0.37798 0.44778,-0.17222 0.88731,-0.36591 1.32291,-0.56696 0.3837,-0.17709 0.74922,-0.3921 1.13393,-0.56697 0.30884,-0.14038 0.63179,-0.24749 0.94494,-0.37797 0.44286,-0.18453 0.87513,-0.39474 1.32292,-0.56697 0.37186,-0.14302 0.76615,-0.22474 1.13393,-0.37797 0.39008,-0.16254 0.7395,-0.41527 1.13393,-0.56697 0.42805,-0.16463 0.88458,-0.2431 1.32291,-0.37797 0.38081,-0.11718 0.75313,-0.26081 1.13393,-0.37798 0.43834,-0.13487 0.8971,-0.20765 1.32292,-0.37798 0.52315,-0.20926 0.99569,-0.53011 1.5119,-0.75595 0.49311,-0.21573 1.01217,-0.36707 1.51191,-0.56696 0.44545,-0.17818 0.8711,-0.40561 1.32291,-0.56697 0.4319,-0.15425 0.89487,-0.21334 1.32292,-0.37797 0.39442,-0.15171 0.74385,-0.40443 1.13393,-0.56697 0.36777,-0.15324 0.75595,-0.25198 1.13393,-0.37797 0.37797,-0.126 0.75595,-0.25199 1.13393,-0.37798 0.37797,-0.12599 0.75949,-0.24182 1.13393,-0.37798 0.31882,-0.11593 0.6231,-0.27069 0.94494,-0.37797 0.49282,-0.16428 1.0255,-0.19558 1.5119,-0.37798 0.26379,-0.0989 0.50397,-0.25198 0.75595,-0.37798 0.50397,-0.25198 1.02269,-0.4764 1.51191,-0.75595 0.60034,-0.34305 0.46758,-0.43369 1.13393,-0.56696 0.0738,-0.0148 0.56696,0.0995 0.56696,-0.18899 0,-0.40525 -0.54031,-0.58344 -0.75595,-0.75595 -0.20871,-0.16696 -0.37798,-0.37798 -0.56697,-0.56697"
       id="path182"
       inkscape:connector-curvature="0" />
    <path
       style="fill:#0000ff;stroke:#000000;stroke-width:0.26458332px;stroke-linecap:butt;stroke-linejoin:miter;stroke-opacity:1"
       d="m 142.49702,147.32143 c -0.54932,-0.54608 -0.83291,-1.30188 -1.32291,-1.88988 -0.17111,-0.20533 -0.40001,-0.35827 -0.56697,-0.56697 -0.088,-0.11 -0.0894,-0.27837 -0.18899,-0.37798 -0.0445,-0.0445 -0.13264,0.0282 -0.18899,0 -0.0797,-0.0398 -0.12599,-0.12599 -0.18898,-0.18898 -0.063,-0.063 -0.126,-0.12599 -0.18899,-0.18899 -0.39436,-0.39436 -0.37798,-0.22301 -0.37798,-0.75595 0,-0.063 -0.0563,-0.16082 0,-0.18899 0.11269,-0.0564 0.25443,0.0247 0.37798,0 2.17599,-0.4352 -0.98861,-0.0121 1.13393,-0.18899 0.56848,-0.0474 1.13189,-0.14835 1.70089,-0.18899 0.31418,-0.0224 0.63126,0.0285 0.94494,0 0.38162,-0.0347 0.75187,-0.1596 1.13393,-0.18898 0.43967,-0.0338 0.88324,0.0338 1.32292,0 0.38206,-0.0294 0.75595,-0.126 1.13392,-0.18899 0.37798,-0.063 0.75596,-0.126 1.13393,-0.18899 0.37798,-0.063 0.75207,-0.15717 1.13393,-0.18899 0.37667,-0.0314 0.75595,0 1.13393,0 0.31498,0 0.62996,0 0.94494,0 0.56696,0 1.13393,0 1.70089,0 0.18899,0 0.38055,-0.0311 0.56697,0 0.1965,0.0327 0.37046,0.15624 0.56696,0.18899 0.37283,0.0621 0.76329,-0.0741 1.13393,0 0.0801,0.016 1.04282,0.50622 1.13393,0.56696 0.0494,0.0329 0.74963,0.73698 0.75595,0.75595 0.0398,0.11953 0,0.25199 0,0.37798 0,0.12599 0.0306,0.25575 0,0.37798 -0.0207,0.0827 -0.51117,1.05954 -0.56696,1.13393 -0.10691,0.14254 -0.26667,0.23884 -0.37798,0.37797 -0.80587,1.00734 0.0499,0.12659 -0.75595,1.13393 -0.11131,0.13913 -0.25198,0.25198 -0.37798,0.37798 -0.18899,0.18898 -0.36164,0.39586 -0.56696,0.56696 -0.17449,0.14541 -0.38768,0.23853 -0.56697,0.37798 -0.38837,0.30206 -0.74973,0.63758 -1.13392,0.94494 -0.24596,0.19676 -0.51681,0.36198 -0.75596,0.56696 -0.33821,0.2899 -0.5971,0.66667 -0.94494,0.94494 -0.17736,0.14189 -0.3896,0.23609 -0.56696,0.37798 -0.13914,0.11131 -0.23543,0.27107 -0.37798,0.37797 -1.07469,0.80602 0.40132,-0.59031 -0.75595,0.56697 -0.063,0.063 -0.26867,0.22883 -0.18899,0.18899 0.20316,-0.10158 0.3722,-0.26112 0.56697,-0.37798 0.4168,-0.25008 0.56696,-0.16607 0.56696,-0.75595"
       id="path184"
       inkscape:connector-curvature="0" />
  </g>
</svg>
