<?xml version="1.0" encoding="UTF-8" standalone="no"?>
<!-- Created with Inkscape (http://www.inkscape.org/) -->

<svg
   xmlns:dc="http://purl.org/dc/elements/1.1/"
   xmlns:cc="http://creativecommons.org/ns#"
   xmlns:rdf="http://www.w3.org/1999/02/22-rdf-syntax-ns#"
   xmlns:svg="http://www.w3.org/2000/svg"
   xmlns="http://www.w3.org/2000/svg"
   xmlns:sodipodi="http://sodipodi.sourceforge.net/DTD/sodipodi-0.dtd"
   xmlns:inkscape="http://www.inkscape.org/namespaces/inkscape"
   width="210mm"
   height="297mm"
   viewBox="0 0 210 297"
   version="1.1"
   id="svg8"
   inkscape:version="0.92.3 (2405546, 2018-03-11)"
   sodipodi:docname="Acte07-21.svg">
  <defs
     id="defs2" />
  <sodipodi:namedview
     id="base"
     pagecolor="#ffffff"
     bordercolor="#666666"
     borderopacity="1.0"
     inkscape:pageopacity="0.0"
     inkscape:pageshadow="2"
     inkscape:zoom="0.49497475"
     inkscape:cx="133.25325"
     inkscape:cy="244.0655"
     inkscape:document-units="mm"
     inkscape:current-layer="layer1"
     showgrid="false"
     inkscape:window-width="1920"
     inkscape:window-height="1031"
     inkscape:window-x="0"
     inkscape:window-y="25"
     inkscape:window-maximized="1" />
  <metadata
     id="metadata5">
    <rdf:RDF>
      <cc:Work
         rdf:about="">
        <dc:format>image/svg+xml</dc:format>
        <dc:type
           rdf:resource="http://purl.org/dc/dcmitype/StillImage" />
        <dc:title></dc:title>
      </cc:Work>
    </rdf:RDF>
  </metadata>
  <g
     inkscape:label="Calque 1"
     inkscape:groupmode="layer"
     id="layer1">
    <path
       style="fill:none;stroke:#000000;stroke-width:0.26458332px;stroke-linecap:butt;stroke-linejoin:miter;stroke-opacity:1"
       d="m 40.357697,223.50088 c -1.077206,-1.26773 -1.491192,-1.82917 -1.870885,-3.47451 -0.141652,-0.61383 -0.143724,-1.25316 -0.267271,-1.87088 -0.144076,-0.72039 -0.413761,-1.4135 -0.534538,-2.13816 -0.147193,-0.88316 -0.182382,-1.78139 -0.267269,-2.67269 -0.16347,-1.71643 -0.404598,-4.45797 -0.53454,-6.1472 -0.246018,-3.19823 -0.329766,-4.74174 -0.534538,-8.01809 -0.09015,-1.44235 -0.49989,-7.83979 -0.53454,-9.08716 -0.04453,-1.603 0.04219,-3.20779 0,-4.81086 -0.04693,-1.7834 -0.207836,-3.56235 -0.267269,-5.34539 -0.118758,-3.56272 -0.135334,-7.12851 -0.267269,-10.69078 -0.135353,-3.65452 -0.416634,-7.30292 -0.53454,-10.95805 -0.06032,-1.86991 0.04562,-3.74233 0,-5.61266 -0.0435,-1.78349 -0.221541,-3.56195 -0.267269,-5.34539 -0.04339,-1.69215 0.04453,-3.386 0,-5.07812 -0.08918,-3.38892 -0.442949,-6.76738 -0.53454,-10.15624 -0.04333,-1.60303 0,-3.20724 0,-4.81085 0,-1.51453 0,-3.02906 0,-4.54358 0,-1.33635 0.04605,-2.67349 0,-4.00905 -0.04309,-1.24969 -0.222639,-2.49213 -0.267269,-3.74177 -0.04452,-1.24646 0.04616,-2.49537 0,-3.74177 -0.04299,-1.1608 -0.218911,-2.31392 -0.267269,-3.47451 -0.0408,-0.97914 0.04661,-1.96108 0,-2.93996 -0.04259,-0.89433 -0.22256,-1.77847 -0.267269,-2.6727 -0.04449,-0.88978 0,-1.78179 0,-2.672693 0,-1.336347 0,-2.672694 0,-4.009041 0,-1.069078 0,-2.138156 0,-3.207234 0,-0.356359 0,-0.712719 0,-1.069078 0,-0.267272 -0.04394,-0.538176 0,-0.801809 0.04631,-0.277895 0.212016,-0.525553 0.267269,-0.80181 0.01905,-0.09529 -0.05955,-0.949978 0,-1.069078 0.226679,-0.453358 0.376859,-0.182279 0.801809,-0.267268 0.552511,-0.110504 1.051105,-0.424038 1.603616,-0.534541 0.617728,-0.123544 1.249497,-0.163703 1.870887,-0.267269 1.631146,-0.271856 1.113081,-0.230057 2.939966,-0.53454 0.534537,-0.08909 1.075581,-0.145415 1.603615,-0.267269 2.320997,-0.535614 1.531954,-0.604623 4.009044,-1.069078 0.705963,-0.132368 1.430821,-0.142446 2.138156,-0.267269 0.808871,-0.142742 1.601676,-0.365328 2.405425,-0.53454 0.889053,-0.187169 1.788861,-0.324101 2.672696,-0.534538 0.988158,-0.235275 1.947368,-0.586028 2.939965,-0.801809 1.059088,-0.230235 2.142911,-0.329861 3.207235,-0.534538 8.550216,-1.832189 -1.053587,0.13557 7.483546,-1.336349 2.685994,-0.463103 5.327237,-1.169609 8.018087,-1.603616 1.418201,-0.228743 2.855991,-0.319339 4.276312,-0.53454 1.520573,-0.230389 3.022018,-0.578049 4.543581,-0.801807 0.702971,-0.103381 8.786907,-1.021786 9.354433,-1.069078 1.600542,-0.133379 3.210309,-0.133892 4.81085,-0.267271 3.215826,-0.267986 6.406526,-0.793491 9.621706,-1.069078 1.5116,-0.129567 3.02905,-0.178179 4.54358,-0.267269 1.51453,-0.08909 3.02709,-0.222668 4.54358,-0.267269 1.51388,-0.04453 3.02906,0 4.54359,0 1.42543,0 2.85087,0 4.27631,0 2.67269,0 5.34539,0 8.01808,0 1.24726,0 2.49537,-0.04616 3.74178,0 1.16079,0.04299 2.31392,0.218911 3.4745,0.267269 1.95828,0.08159 3.92217,-0.09323 5.87993,0 0.89433,0.04259 1.77873,0.217604 2.67269,0.267269 0.71163,0.03953 1.42544,0 2.13816,0 1.33635,0 2.6727,0 4.00904,0 0.97999,0 1.95998,0 2.93997,0 0.44545,0 0.89311,0.04433 1.33634,0 0.45202,-0.0452 0.88486,-0.217104 1.33635,-0.267269 0.35418,-0.03935 0.71272,0 1.06908,0 0.35636,0 0.71272,0 1.06908,0 0.26727,0 0.53454,0 0.80181,0 0.17818,0 0.36168,0.04321 0.53454,0 0.19326,-0.04832 0.34127,-0.218954 0.53454,-0.267269 0.23861,-0.05965 1.02697,0 1.33634,0 0.0891,0 0.17818,0 0.26727,0 0.0891,0 0.20428,-0.063 0.26727,0 0.063,0.06299 0,0.178178 0,0.267269 0,0.442568 -0.0603,1.50885 0,1.870887 0.0463,0.277892 0.17818,0.534538 0.26727,0.801809 0.0891,0.356359 0.21532,0.705443 0.26727,1.069078 0.78108,5.467535 -0.008,0.426318 0.26727,4.276312 0.0512,0.716439 0.22247,1.421289 0.26727,2.138156 0.0445,0.71133 0,1.425438 0,2.138157 0,0.890897 0.0445,1.782908 0,2.672693 -0.0447,0.894226 -0.22661,1.778278 -0.26727,2.672697 -0.0485,1.067975 0.0445,2.139082 0,3.207234 -0.0447,1.071853 -0.22439,2.135307 -0.26727,3.207237 -0.0463,1.15724 0.0429,2.31713 0,3.4745 -0.19788,5.34269 -0.25079,2.1571 -0.80181,7.48355 -0.13781,1.3322 -0.134,2.67637 -0.26727,4.00904 -0.13414,1.34148 -0.35635,2.6727 -0.53454,4.00904 -0.72439,5.43298 -0.36731,2.67128 -1.06907,8.28536 -0.35636,2.85087 -0.72336,5.70044 -1.06908,8.55262 -0.1835,1.5139 -0.30609,3.03582 -0.53454,4.54358 -0.21726,1.43392 -0.58455,2.8424 -0.80181,4.27632 -0.22845,1.50776 -0.31266,3.03483 -0.53454,4.54358 -0.22376,1.52156 -0.53454,3.02905 -0.80181,4.54358 -0.48917,2.77199 -1.11444,6.31518 -1.60361,9.08717 -0.53454,3.02905 -1.05339,6.06091 -1.60362,9.08716 -5.3e-4,0.003 -1.60352,8.55199 -1.60362,8.55262 -0.44353,2.83862 -0.61159,5.71622 -1.06908,8.55263 -0.217,1.34542 -0.5848,2.66362 -0.80181,4.00904 -0.22874,1.4182 -0.3507,2.85159 -0.53453,4.27631 -0.17253,1.33709 -0.40039,2.66756 -0.53454,4.00905 -0.66796,10.01937 0.22023,-1.78825 -0.80181,7.75081 -0.13321,1.24332 -0.1749,2.49476 -0.26727,3.74178 -0.0858,1.15841 -0.17464,2.31661 -0.26727,3.4745 -0.0855,1.06937 -0.13421,2.14273 -0.26727,3.20724 -0.13443,1.07545 -0.40011,2.13177 -0.53454,3.20723 -0.13306,1.0645 -0.17433,2.13848 -0.26727,3.20723 -0.0852,0.98033 -0.17397,1.96037 -0.26727,2.93997 -0.0849,0.89131 -0.13445,1.78726 -0.26727,2.67269 -0.13477,0.89849 -0.39976,1.77421 -0.53454,2.6727 -0.13281,0.88543 -0.12763,1.78831 -0.26727,2.67269 -0.1281,0.81132 -0.39179,1.59656 -0.53454,2.40543 -0.60597,3.43385 -0.0404,0.83219 -0.26726,4.00904 -0.0449,0.62836 -0.17148,1.24825 -0.26727,1.87089 -0.0824,0.53561 -0.22227,1.06358 -0.26727,1.60362 -0.0444,0.53269 0,1.06907 0,1.60361 0,1.51453 0,3.02906 0,4.54359 0,0.53453 0,1.06907 0,1.60361 0,0.44545 0.0403,0.89273 0,1.33635 -0.0491,0.53969 -0.21821,1.06393 -0.26727,1.60362 -0.0726,0.79851 0.0995,1.60981 0,2.40542 -0.0456,0.36449 -0.21532,0.70544 -0.26727,1.06908 -0.0378,0.26458 0.0439,0.53818 0,0.80181 -0.0463,0.27789 -0.19894,0.52849 -0.26727,0.80181 -8e-4,0.003 0.0642,0.75553 -0.26727,0.53454 -0.55372,-0.36915 -0.6677,-1.33446 -0.80181,-1.87089"
       id="path10"
       inkscape:connector-curvature="0"
       inkscape:export-xdpi="96"
       inkscape:export-ydpi="96" />
    <path
       style="fill:none;stroke:#000000;stroke-width:0.26458332px;stroke-linecap:butt;stroke-linejoin:miter;stroke-opacity:1"
       d="m 38.486812,217.35368 c 0.241139,1.38551 -0.399859,2.66223 -0.53454,4.00904 -0.04432,0.44324 0,0.8909 0,1.33635 0,0.44545 0,0.8909 0,1.33635 0,0.35636 0,0.71271 0,1.06907 0,0.44545 -0.04919,0.89363 0,1.33635 0.04057,0.36508 0.226706,0.704 0.267269,1.06908 0.04919,0.44272 -0.04919,0.89362 0,1.33635 0.04057,0.36508 0.187587,0.71049 0.267271,1.06908 0.09854,0.44345 0.217104,0.88485 0.267269,1.33634 0.03935,0.35418 -0.03935,0.7149 0,1.06908 0.05016,0.45149 0.226142,0.88394 0.267269,1.33635 0.04839,0.53234 -0.04839,1.07127 0,1.60362 0.04113,0.4524 0.226142,0.88394 0.267269,1.33634 0,4.24714 -0.104831,-0.78104 0.267271,2.93997 0.09751,0.97512 -0.08872,1.964 0,2.93996 0.04113,0.45241 0.226142,0.88395 0.267269,1.33635 0.09679,1.06469 -0.09679,2.14255 0,3.20724 0.04113,0.4524 0.222068,0.88433 0.267269,1.33634 0.08865,0.88648 -0.08865,1.78622 0,2.6727 0.0452,0.45202 0.178181,0.8909 0.267269,1.33635 0,0.53454 -0.04839,1.07127 0,1.60361 0.04113,0.45241 0.226142,0.88395 0.267272,1.33635 0.04839,0.53235 0,1.06908 0,1.60362 0,1.60362 0,3.20723 0,4.81085 0,0.8909 0,1.7818 0,2.67269 0,0.26727 0.04394,0.53817 0,0.8018 -0.295445,1.77266 -0.267272,0.23982 -0.267272,1.06908"
       id="path12"
       inkscape:connector-curvature="0"
       inkscape:export-xdpi="96"
       inkscape:export-ydpi="96" />
    <path
       style="fill:none;stroke:#000000;stroke-width:0.26458332px;stroke-linecap:butt;stroke-linejoin:miter;stroke-opacity:1"
       d="m 107.97689,77.571718 c -0.71272,0.178178 -1.73065,-0.07673 -2.13816,0.534538 -0.35977,0.539655 0.40734,1.234898 0.53454,1.870887 0.51313,2.565628 0.57208,3.887504 0.80181,6.414468 0.0891,0.979988 0.2263,1.95679 0.26727,2.939966 0.0482,1.157163 -0.0445,2.317191 0,3.474503 0.0446,1.160732 0.22581,2.313654 0.26727,3.474503 0.0954,2.670992 -0.0862,5.346777 0,8.018087 0.046,1.42748 0.22528,2.84871 0.26727,4.27631 0.0471,1.60293 0,3.20724 0,4.81085 0,1.69271 0,3.38542 0,5.07812 0,1.87089 0.0445,3.74231 0,5.61266 -0.30615,12.85829 -0.23925,-1.79541 -0.53454,11.49259 -0.0455,2.04856 0.0445,4.09862 0,6.1472 -0.0892,4.10104 -0.44539,8.19337 -0.53454,12.2944 -0.0445,2.04858 0.0445,4.09862 0,6.1472 -0.0446,2.05052 -0.17818,4.09813 -0.26727,6.1472 -0.17818,4.09813 -0.35241,8.19644 -0.53454,12.2944 -0.17423,3.92013 -0.36031,7.83973 -0.53454,11.75986 -0.0911,2.04897 -0.13084,4.10074 -0.26727,6.1472 -0.13091,1.9637 -0.40066,3.91642 -0.53454,5.87992 -0.13346,1.95746 -0.17611,3.92005 -0.26726,5.87993 -0.087,1.87099 -0.17602,3.74188 -0.26728,5.61266 -0.0869,1.78191 -0.22376,3.5619 -0.26727,5.34539 -0.0456,1.87034 0.0456,3.74233 0,5.61267 -0.56451,11.29029 -0.0654,-0.47519 -0.26726,10.42351 -0.20859,11.26351 -0.0735,6.91855 -1.06908,17.37251 -0.26318,2.76341 -0.45735,5.52965 -0.80181,8.28536 -0.11314,0.90515 -0.30119,2.27385 -0.53454,3.20723 -0.0683,0.27332 -0.0982,0.57642 -0.26727,0.80182 -0.11953,0.15936 -0.35636,0.17817 -0.53454,0.26725"
       id="path14"
       inkscape:connector-curvature="0"
       inkscape:export-xdpi="96"
       inkscape:export-ydpi="96" />
    <path
       style="fill:none;stroke:#000000;stroke-width:0.26458332px;stroke-linecap:butt;stroke-linejoin:miter;stroke-opacity:1"
       d="m 167.84526,168.44335 c -0.17818,0.35636 -0.49054,0.6731 -0.53454,1.06908 -0.0503,0.45262 0.77748,3.06934 0.80181,3.20724 0.1556,0.88172 0.26727,1.77735 0.26727,2.67269 0,0.71827 -0.22246,1.42129 -0.26727,2.13816 -0.0445,0.71133 0,1.42544 0,2.13816 0,0.8018 0,1.60361 0,2.40542 0,0.80181 -0.0471,1.605 0,2.40543 0.0422,0.71702 0.22509,1.42113 0.26727,2.13815 0.0471,0.80043 0,1.60362 0,2.40543 0,0.80181 0,1.60362 0,2.40542 0,0.71272 0,1.42544 0,2.13816 0,0.71272 0.0445,1.42683 0,2.13816 -0.16074,2.57179 -0.29523,1.74341 -0.80181,4.27631 -0.12354,0.61773 -0.17148,1.24825 -0.26727,1.87089 -0.1648,1.07122 -0.32198,2.14445 -0.53454,3.20723 -0.0891,0.35636 -0.17818,0.71272 -0.26727,1.06908 0,0.26727 0.0439,0.53817 0,0.80181 -0.0463,0.27789 -0.21201,0.52555 -0.26727,0.8018 -0.0349,0.17472 0.0564,0.36551 0,0.53454 -0.0398,0.11953 -0.21092,0.15458 -0.26727,0.26727 -0.0398,0.0797 0,0.17818 0,0.26727 0,0.0891 -0.0398,0.18759 0,0.26727 0.0564,0.11269 0.21093,0.15458 0.26727,0.26727 0.0399,0.0797 -0.063,0.20428 0,0.26727 0.14087,0.14087 0.36879,0.15677 0.53454,0.26727 0.10483,0.0699 0.14775,0.22743 0.26727,0.26727 0.11528,0.0384 1.76638,0 1.87089,0 0.62363,0 1.25107,0.0689 1.87089,0 2.68481,-0.29831 -0.0865,-0.28234 2.93996,-0.53454 0.53269,-0.0444 1.07092,0.0444 1.60362,0 0.54004,-0.045 1.06908,-0.17818 1.60362,-0.26727 0.53453,-0.0891 1.06907,-0.17818 1.60361,-0.26727 0.53454,-0.0891 1.0808,-0.12468 1.60362,-0.26727 0.46286,-0.12623 0.87682,-0.39668 1.33635,-0.53454 0.43511,-0.13053 0.89289,-0.16872 1.33634,-0.26726 0.35858,-0.0797 0.71589,-0.16636 1.06908,-0.26728 0.27089,-0.0774 0.52555,-0.21201 0.80181,-0.26726 0.17472,-0.035 0.3655,0.0563 0.53454,0 0.26079,-0.0869 0.19041,-0.43934 0.53454,-0.26727 0.17385,0.0869 0.37787,0.31334 0.26727,0.53453 -0.0563,0.1127 -0.14774,0.22743 -0.26727,0.26728 -0.68439,0.22812 -0.89248,-0.35795 -1.33635,-0.80181"
       id="path16"
       inkscape:connector-curvature="0"
       inkscape:export-xdpi="96"
       inkscape:export-ydpi="96" />
    <path
       style="fill:none;stroke:#000000;stroke-width:0.26458332px;stroke-linecap:butt;stroke-linejoin:miter;stroke-opacity:1"
       d="m 167.84526,168.44335 c 0.8909,-0.62363 1.67314,-1.4425 2.6727,-1.87088 0.28657,-0.12282 2.35795,0.79231 2.40542,0.80181 0.4368,0.0874 0.89311,-0.0443 1.33635,0 0.45202,0.0452 0.88394,0.22614 1.33635,0.26727 0.53234,0.0484 1.07092,-0.0444 1.60362,0 0.54004,0.045 1.06392,0.2182 1.60361,0.26727 0.44362,0.0403 0.8909,0 1.33635,0 0.53454,0 1.07127,0.0484 1.60362,0 0.4524,-0.0411 0.88433,-0.22207 1.33634,-0.26727 0.44324,-0.0443 0.8909,0 1.33635,0 1.06908,0 2.13816,0 3.20724,0 0.26727,0 0.54251,-0.0648 0.8018,0 0.12224,0.0306 0.17818,0.17818 0.26727,0.26727 0.27169,0.27168 0.42667,0.37032 0.53454,0.8018 0.0432,0.17286 0,0.35636 0,0.53454 0,0.17818 0.0432,0.36168 0,0.53454 -0.0483,0.19327 -0.2282,0.3392 -0.26727,0.53454 -0.0524,0.26208 0.0439,0.53818 0,0.80181 -0.0463,0.27789 -0.17818,0.53454 -0.26727,0.80181 -0.0891,0.26727 -0.17818,0.53454 -0.26727,0.80181 -0.0891,0.26727 -0.22742,0.52291 -0.26727,0.80181 -0.0504,0.35277 0,0.71271 0,1.06907 0,0.35636 0,0.71272 0,1.06908 0,3.1521 -0.0864,-1.04514 0.26727,2.13816 0.0492,0.44272 -0.0403,0.89273 0,1.33635 0.0491,0.53968 0.22227,1.06357 0.26727,1.60361 0.0444,0.53269 0,1.06908 0,1.60362 0,0.62363 0,1.24726 0,1.87089 0,0.62362 0.0415,1.24864 0,1.87088 -0.0478,0.71668 -0.22246,1.42129 -0.26727,2.13816 -0.0444,0.71133 0.0445,1.42683 0,2.13816 -0.0448,0.71686 -0.17817,1.42543 -0.26727,2.13815 -0.0891,0.71272 -0.14244,1.43082 -0.26726,2.13816 -0.26723,1.51426 -0.71697,3.04711 -1.06908,4.54358 -0.48013,2.04056 -0.79163,4.19843 -1.60362,6.1472 -0.22986,0.55166 -0.55451,1.05955 -0.80181,1.60362 -0.18591,0.409 -0.73239,1.98456 -1.06908,2.40542 -0.24108,0.30135 -1.04976,0.3819 -1.33634,0.26727 -0.23397,-0.0936 -0.71272,-0.35636 -0.53454,-0.53454 0.82136,-0.82136 1.95997,-1.24725 2.93996,-1.87088"
       id="path18"
       inkscape:connector-curvature="0"
       inkscape:export-xdpi="96"
       inkscape:export-ydpi="96" />
    <path
       style="fill:none;stroke:#000000;stroke-width:0.26458332px;stroke-linecap:butt;stroke-linejoin:miter;stroke-opacity:1"
       d="m 172.92338,175.65963 c -0.0891,0.35636 -0.26727,0.70175 -0.26727,1.06908 0,0.0356 0.52578,2.06804 0.53454,2.13816 0.0442,0.3536 0,0.71272 0,1.06907 0,0.62363 0,1.24726 0,1.87089 0,0.154 -0.0487,1.23893 0,1.33635 0.0564,0.11269 0.22743,0.14774 0.26727,0.26727 0.15298,0.45894 -0.23417,0.55109 0.26727,0.80181 0.34413,0.17206 0.27376,-0.18034 0.53454,-0.26727 1.77284,0 -0.37798,0.12599 0.80181,-0.26727 0.16903,-0.0563 0.36168,0.0432 0.53454,0 0.19326,-0.0483 0.35636,-0.17818 0.53454,-0.26727 0.35636,-0.17818 0.6911,-0.40855 1.06908,-0.53454 0.0845,-0.0282 0.18275,0.0282 0.26726,0 0.18899,-0.063 0.34556,-0.20427 0.53454,-0.26727 0.0845,-0.0282 0.18759,0.0398 0.26727,0 0.11269,-0.0563 0.15458,-0.21092 0.26727,-0.26727 0.014,-0.007 0.78783,-0.007 0.80181,0 0.11269,0.0563 0.15458,0.21093 0.26727,0.26727 0.0797,0.0398 0.18758,-0.0398 0.26727,0 0.11269,0.0563 0.15458,0.21092 0.26727,0.26727 0.15937,0.0797 0.37517,-0.0797 0.53454,0 0.11269,0.0564 0.15458,0.21092 0.26727,0.26727 0.0797,0.0398 0.17818,0 0.26727,0 0.0891,0 0.18758,0.0398 0.26727,0 0.33026,-0.16513 0.26727,-0.25804 0.26727,-0.53454 0,-0.0891 0.0398,-0.18759 0,-0.26727 -0.0564,-0.11269 -0.21093,-0.15458 -0.26727,-0.26727 -0.0399,-0.0797 0,-0.17818 0,-0.26727 0,-0.21849 -0.0452,-1.73542 0,-1.87089 0.0398,-0.11952 0.22743,-0.14774 0.26727,-0.26726 0.0563,-0.16904 0,-0.35636 0,-0.53454 0,-0.0891 -0.0398,-0.18759 0,-0.26727 0.0563,-0.11269 0.21092,-0.15458 0.26727,-0.26727 0.0398,-0.0797 -0.0399,-0.18759 0,-0.26727 0.0563,-0.11269 0.21092,-0.15458 0.26727,-0.26727 0.0797,-0.15937 -0.0797,-0.37517 0,-0.53454 0.0563,-0.11269 0.21092,-0.15458 0.26727,-0.26727 0.0398,-0.0797 0,-0.17818 0,-0.26727 0,-0.26727 0.0845,-0.54825 0,-0.80181 -0.0399,-0.11953 -0.17819,-0.17818 -0.26727,-0.26727 -0.0891,-0.0891 -0.17818,-0.17818 -0.26727,-0.26727 -0.3244,-0.3244 -0.59218,-0.68258 -1.06908,-0.80181 -0.17286,-0.0432 -0.36168,0.0432 -0.53454,0 -1.51427,-0.75713 0.39842,0.0996 -1.06908,-0.26727 -0.19326,-0.0483 -0.3392,-0.2282 -0.53454,-0.26726 -0.28223,-0.0564 -1.48436,0 -1.87088,0 -0.17818,0 -0.36168,0.0432 -0.53454,0 -0.19327,-0.0483 -0.34128,-0.21896 -0.53454,-0.26728 -0.17286,-0.0432 -0.35636,0 -0.53454,0 -0.53454,0 -1.06908,0 -1.60362,0"
       id="path20"
       inkscape:connector-curvature="0"
       inkscape:export-xdpi="96"
       inkscape:export-ydpi="96" />
    <path
       style="fill:none;stroke:#000000;stroke-width:0.26458332px;stroke-linecap:butt;stroke-linejoin:miter;stroke-opacity:1"
       d="m 169.71615,193.29942 c -0.16465,1.00866 0.39662,1.97453 0.53454,2.93997 0.0378,0.26458 -0.0524,0.53973 0,0.8018 0.0391,0.19535 0.21895,0.34128 0.26727,0.53454 0.0432,0.17286 -0.0432,0.36168 0,0.53454 0.0483,0.19327 0.21895,0.34128 0.26727,0.53454 0.0432,0.17286 0,0.35636 0,0.53454 0,0.17818 0,0.35636 0,0.53454 0,1.04407 -0.0797,0.0282 0.26727,1.06908 0.0563,0.16903 0,0.35636 0,0.53454 0,0.26345 0,0.79799 0,0.53454 0,-0.35493 -0.0595,-1.63287 0,-1.87089 0.0305,-0.12223 0.21092,-0.15458 0.26726,-0.26727 0.0399,-0.0797 -0.0398,-0.18758 0,-0.26727 0.0564,-0.11269 0.17819,-0.17818 0.26727,-0.26727 0.0891,-0.0891 0.16244,-0.19738 0.26727,-0.26727 0.16576,-0.1105 0.36879,-0.15677 0.53454,-0.26727 0.43651,-0.291 0.10972,-0.39612 0.80181,-0.53454 0.26208,-0.0524 0.53973,0.0524 0.80181,0 0.19534,-0.0391 0.34958,-0.19328 0.53454,-0.26727 0.26158,-0.10463 0.52555,-0.21202 0.80181,-0.26727 0.17472,-0.0349 0.35636,0 0.53454,0 0.26727,0 0.53454,0 0.8018,0 0.17819,0 0.36168,0.0432 0.53455,0 0.19326,-0.0483 0.34127,-0.21895 0.53453,-0.26727 0.17286,-0.0432 0.35636,0 0.53454,0 0.62363,0 1.24726,0 1.87089,0 0.2765,0 0.36941,-0.063 0.53454,0.26727 0.0398,0.0797 0.0891,0.26727 0,0.26727 -0.0891,0 0.063,-0.20427 0,-0.26727 -0.063,-0.063 -0.21785,0.0741 -0.26727,0 -0.15627,-0.23441 -0.17818,-0.53454 -0.26727,-0.80181 -0.0891,-0.26726 -0.21202,-0.52555 -0.26727,-0.8018 -0.0349,-0.17472 0.0432,-0.36168 0,-0.53454 -0.0483,-0.19327 -0.21895,-0.34128 -0.26727,-0.53454 -0.0432,-0.17286 0.0432,-0.36168 0,-0.53454 -0.0483,-0.19327 -0.21895,-0.34128 -0.26727,-0.53454 -0.0432,-0.17286 0.0564,-0.3655 0,-0.53454 -0.33026,-0.9908 -0.26727,0.32579 -0.26727,-0.53454 0,-0.26458 0,-1.0637 0,-0.53454 0,1.03143 0.0988,0.36611 -0.53454,-0.26727 -0.14086,-0.14086 -0.34127,-0.21895 -0.53454,-0.26727 -0.6772,-0.1693 -0.43839,0.1096 -1.06907,0.26727 -0.34572,0.0864 -0.71964,-0.0699 -1.06908,0 -0.55252,0.11051 -1.06185,0.37975 -1.60362,0.53454 -0.3532,0.10091 -0.71589,0.16636 -1.06908,0.26727 -0.54177,0.1548 -1.06908,0.35636 -1.60362,0.53454 -0.26727,0.0891 -0.52008,0.26727 -0.8018,0.26727 -2.82749,0 1.13818,-1.00302 -2.6727,0.26727"
       id="path22"
       inkscape:connector-curvature="0"
       inkscape:export-xdpi="96"
       inkscape:export-ydpi="96" />
    <path
       style="fill:none;stroke:#000000;stroke-width:0.26458332px;stroke-linecap:butt;stroke-linejoin:miter;stroke-opacity:1"
       d="m 82.853553,59.13012 c 1.288346,3.00614 0.452181,0.78083 1.069078,2.939965 0.154792,0.541774 0.441907,1.047829 0.534538,1.603616 0.04394,0.263633 -0.0378,0.537226 0,0.801809 0.05195,0.363635 0.267271,0.701752 0.267271,1.069078 0,0.367326 -0.178181,0.712719 -0.267271,1.069078 -0.135626,0.542507 -0.30448,1.334087 -0.534538,1.870887 -0.156946,0.366207 -0.394645,0.696024 -0.534541,1.069078 -0.128976,0.34394 -0.12257,0.731452 -0.267268,1.069078 -0.126535,0.295246 -0.390885,0.514504 -0.534538,0.80181 -0.104376,0.208748 -0.301006,1.102815 -0.53454,1.336347 -0.03119,0.03119 -1.134057,0.469561 -0.80181,0.801809 0.063,0.06299 0.18084,0.02162 0.267272,0 0.273314,-0.06833 0.530921,-0.189873 0.801806,-0.267272 0.353195,-0.100912 0.715886,-0.166357 1.069078,-0.267269 2.684,-0.766855 -1.471223,0.30099 1.870888,-0.534537 0.356359,-0.08909 0.704588,-0.221711 1.069078,-0.267272 0.353607,-0.0442 0.714899,0.03935 1.069078,0 0.451493,-0.05017 0.883944,-0.226139 1.336349,-0.267269 4.24714,0 -0.78105,0.104834 2.939963,-0.267269 0.886479,-0.08865 1.785456,0.08066 2.672696,0 0.539687,-0.04906 1.063578,-0.222265 1.603616,-0.267268 0.532694,-0.04439 1.069901,0.02965 1.603619,0 1.071131,-0.05951 2.135933,-0.210887 3.207233,-0.267272 0.62277,-0.03278 1.24884,0.04443 1.87089,0 0.62836,-0.04488 1.24252,-0.222385 1.87089,-0.267269 0.62204,-0.04443 1.24884,0.04443 1.87088,0 1.25672,-0.08976 2.48506,-0.444772 3.74177,-0.534537 0.62205,-0.04443 1.24726,0 1.87089,0 0.62363,-0.08909 1.24278,-0.218956 1.87089,-0.267272 1.15135,-0.08856 2.32315,0.08857 3.4745,0 0.54032,-0.04156 1.06358,-0.222266 1.60362,-0.267269 0.53269,-0.04439 1.06908,0 1.60362,0 0.97998,0 1.95997,0 2.93996,0 0.44545,0 0.89311,0.04432 1.33635,0 0.45201,-0.0452 0.88433,-0.222067 1.33635,-0.267269 0.44323,-0.04432 0.89089,0 1.33634,0 0.35636,0 0.71272,0 1.06908,0 1.75101,0 -0.15532,0.08452 1.60362,-0.267268 0.17472,-0.03495 0.35636,0 0.53454,0 0.44545,0 0.8909,0 1.33635,0 0.0891,0 0.20427,0.06299 0.26726,0 0.20402,-0.204013 -0.22552,-0.471917 -0.26726,-0.534541 -0.11051,-0.165753 -0.17819,-0.356359 -0.26728,-0.534538 -0.29408,-0.588174 -0.69206,-1.212421 -0.8018,-1.870887 -0.0439,-0.263633 0.0378,-0.537226 0,-0.801809 -0.052,-0.363635 -0.22671,-0.703998 -0.26727,-1.069078 -0.0492,-0.442725 0,-0.890897 0,-1.336347 0,-1.391105 -0.0699,-0.888219 0.26727,-2.405427 0.0797,-0.35858 0.10299,-0.74053 0.26727,-1.069079 0.18526,-0.370519 1.20242,-1.603422 1.60361,-1.870884 0.23442,-0.156274 0.53454,-0.178181 0.80181,-0.267272 0.43464,-0.144878 0.94309,-0.272364 1.33635,-0.534537 0.10483,-0.06989 0.15458,-0.210924 0.26727,-0.267269 0.0548,-0.02741 0.76412,-0.03769 0.80181,0 0.23201,0.232016 -0.2257,0.457327 -0.53454,0.534538 -0.17286,0.04321 -0.35982,0.03494 -0.53454,0 -0.27626,-0.05525 -0.52392,-0.220954 -0.80181,-0.267269 -0.26363,-0.04394 -0.53454,0 -0.80181,0 -0.26727,0 -0.5366,-0.03315 -0.80181,0 -0.45076,0.05635 -0.88433,0.222067 -1.33634,0.267269 -0.44324,0.04433 -0.8909,0 -1.33635,0 -0.97999,0 -1.95998,0 -2.93997,0 -0.53454,0 -1.07092,-0.04439 -1.60361,0 -0.54004,0.045 -1.06393,0.218207 -1.60362,0.267268 -0.44362,0.04033 -0.89273,-0.04033 -1.33635,0 -0.53969,0.04906 -1.06393,0.218208 -1.60362,0.267272 -0.44361,0.04033 -0.8931,-0.04433 -1.33634,0 -0.45202,0.0452 -0.88433,0.222067 -1.33635,0.267269 -0.44324,0.04432 -0.89311,-0.04432 -1.33635,0 -0.45202,0.0452 -0.88433,0.222067 -1.33635,0.267269 -0.44323,0.04433 -0.8909,0 -1.33634,0 -0.8909,0 -1.7818,0 -2.6727,0 -0.44545,0 -0.8909,0 -1.33635,0 -0.44545,0 -0.89362,0.04919 -1.33634,0 -0.36508,-0.04056 -0.70459,-0.221708 -1.06908,-0.267269 -0.35361,-0.0442 -0.71272,0 -1.06908,0 -0.62363,0 -1.24726,0 -1.87089,0 -0.26726,0 -0.53454,0 -0.80181,0 -0.26726,0 -0.53817,-0.04394 -0.8018,0 -0.2779,0.04631 -0.52392,0.220953 -0.80181,0.267269 -2.515969,0.419327 1.30852,-0.641133 -1.87089,0.267268 -0.27089,0.0774 -0.522913,0.227428 -0.801807,0.267272 -0.352777,0.0504 -0.715471,-0.0442 -1.069078,0 -0.36449,0.04556 -0.705443,0.21532 -1.069078,0.267269 -0.264584,0.0378 -0.538176,-0.04394 -0.80181,0 -0.277894,0.04631 -0.523914,0.220953 -0.801809,0.267269 -0.439388,0.07323 -0.890897,0 -1.336347,0 -0.178178,0 -0.36168,-0.04321 -0.534537,0 -0.193265,0.04832 -0.345552,0.204274 -0.534541,0.267268 -0.240543,0.08018 -0.561266,-0.08018 -0.801809,0 -0.188987,0.063 -0.345551,0.204275 -0.534538,0.267272 -0.284003,0.09467 -0.785074,-0.09467 -1.069078,0 -0.119528,0.03984 -0.15458,0.210923 -0.267269,0.267269 -0.213817,0.106907 -0.587994,-0.106908 -0.801809,0 -0.112691,0.05635 -0.147743,0.227428 -0.267269,0.267269 -0.253555,0.08452 -0.53454,0 -0.801809,0 -0.44545,0 -0.890899,0 -1.336349,0 -1.692707,0 -3.385413,0 -5.078119,0"
       id="path36"
       inkscape:connector-curvature="0"
       inkscape:export-xdpi="96"
       inkscape:export-ydpi="96" />
    <path
       style="fill:none;stroke:#000000;stroke-width:0.06214317px;stroke-linecap:butt;stroke-linejoin:miter;stroke-opacity:1"
       d="m 98.502687,60.830667 c -0.211734,0.28555 -0.456274,0.57426 -0.502192,0.94161 -0.01038,0.083 0.01038,0.16804 0,0.2511 -0.0107,0.0856 -0.05325,0.16535 -0.06277,0.25109 -0.03078,0.27703 6e-6,0.3139 0.06277,0.56497 0.06866,0.27463 0.04243,0.24688 0.188322,0.50219 0.02592,0.0454 0.176106,0.28575 0.251096,0.31387 0.0084,0.003 0.4615,0.0973 0.564967,0.0628 0.07157,-0.0239 0.125548,-0.0837 0.188322,-0.12555 0.06277,-0.0418 0.125548,-0.0837 0.188323,-0.12555 0.06277,-0.0418 0.134974,-0.0722 0.188321,-0.12555 0.07398,-0.074 0.132872,-0.16237 0.188323,-0.25109 0.201696,-0.32271 0.07478,-0.18649 0.188322,-0.56497 0.118589,-0.39531 0.147549,-0.22006 0.188319,-0.62774 0.0104,-0.1041 0,-0.20925 0,-0.31387 0,-0.10462 0,-0.20925 0,-0.31387 0,-0.10462 0.0254,-0.21237 0,-0.31387 -0.0183,-0.0732 -0.0918,-0.12084 -0.12555,-0.18832 -0.02958,-0.0592 -0.02143,-0.13665 -0.06276,-0.18832 -0.01207,-0.0151 -0.254291,-0.17641 -0.31387,-0.18833 -0.06155,-0.0123 -0.125549,0 -0.188322,0 -0.0837,0 -0.169897,-0.0203 -0.251097,0 -0.205261,0.0513 -0.5728,0.36879 -0.690515,0.43942 -0.160485,0.0963 -0.344296,0.15062 -0.502192,0.2511 -0.0749,0.0477 -0.125549,0.12555 -0.188323,0.18832 -0.04185,0.0419 -0.09004,0.0782 -0.125548,0.12555 -0.228024,0.30403 0.06645,-0.004 -0.125548,0.18832"
       id="path50"
       inkscape:connector-curvature="0"
       inkscape:export-xdpi="96"
       inkscape:export-ydpi="96" />
    <path
       style="fill:none;stroke:#000000;stroke-width:0.06214317px;stroke-linecap:butt;stroke-linejoin:miter;stroke-opacity:1"
       d="m 100.8881,59.889057 c -0.0759,0.27415 -0.43283,0.33373 -0.56497,0.56497 -0.0981,0.17173 -0.0628,0.50081 -0.0628,0.69051 0,0.47402 -0.0172,0.17069 0.0628,0.69052 0.0225,0.14624 0.0318,0.29474 0.0628,0.43941 0.0319,0.14896 0.0863,0.29223 0.12555,0.43942 0.0445,0.16673 0.0837,0.3348 0.12555,0.5022 0.0628,0.18832 0.13519,0.3737 0.18832,0.56496 0.31387,1.12994 -0.0849,10e-6 0.31387,1.12994 0.11901,0.33717 0.26358,0.66517 0.37665,1.00438 0.0482,0.14452 0.0837,0.29295 0.12555,0.43942 0.0837,0.29295 0.18258,0.58197 0.25109,0.87884 0.0286,0.12402 0.0434,0.25084 0.0628,0.37664 0.0475,0.30876 0.0908,0.50779 0.0628,0.81606 -0.01,0.10626 -0.0418,0.20925 -0.0628,0.31388 -0.0209,0.10462 -0.0396,0.20971 -0.0628,0.31387 -0.0187,0.0842 -0.0418,0.16739 -0.0628,0.25109 -0.048,0.19209 -0.0438,0.29492 -0.18832,0.43942 -0.0534,0.0533 -0.13036,0.0772 -0.18832,0.12555 -0.0682,0.0568 -0.11125,0.14428 -0.18832,0.18832 -0.0749,0.0428 -0.16688,0.0441 -0.2511,0.0628 -0.10416,0.0231 -0.20925,0.0418 -0.31387,0.0628 -0.10462,0.0209 -0.20771,0.0522 -0.31387,0.0628 -0.426662,0.0427 -0.20506,-0.064 -0.627742,0.0628 -0.107931,0.0324 -0.20697,0.0899 -0.31387,0.12555 -0.08185,0.0273 -0.170316,0.0325 -0.251097,0.0628 -0.936159,0.35106 0.400141,-0.0695 -0.502192,0.18832 -0.106831,0.0305 -0.198802,0.0915 -0.313871,0.0628 -0.11899,-0.0298 -0.167718,-0.10495 -0.251097,-0.18833"
       id="path52"
       inkscape:connector-curvature="0"
       inkscape:export-xdpi="96"
       inkscape:export-ydpi="96" />
    <path
       style="fill:none;stroke:#000000;stroke-width:0.06214317px;stroke-linecap:butt;stroke-linejoin:miter;stroke-opacity:1"
       d="m 104.65455,59.763507 c -0.52259,-0.13064 -0.006,0.0284 -0.43942,-0.18832 -0.28853,-0.14426 -0.10928,0.0163 -0.2511,-0.12555 -0.0209,-0.0209 -0.0495,-0.0363 -0.0628,-0.0628 -0.0284,-0.0567 0.0541,-0.1622 0.0628,-0.18832 0.0209,-0.0628 -0.0444,-0.0898 0.0628,-0.12555 0.0397,-0.0132 0.085,0.0101 0.12555,0 0.0454,-0.0113 0.0797,-0.0536 0.12555,-0.0628 0.0615,-0.0123 0.12555,0 0.18832,0 0.0628,0 0.12555,0 0.18832,0 0.0837,0 0.16805,-0.0104 0.2511,0 0.17741,0.0222 0.41001,0.11945 0.56497,0.18833 0.0855,0.038 0.18004,0.0646 0.25109,0.12554 0.0794,0.0681 0.12555,0.1674 0.18832,0.2511 0.0628,0.0837 0.14154,0.15752 0.18833,0.2511 0.0592,0.11836 0.0837,0.25109 0.12555,0.37664 0.0418,0.12555 0.10379,0.24611 0.12554,0.37665 0.0206,0.12383 0,0.25109 0,0.37664 0,0.42071 0.0182,0.50992 -0.0628,0.94161 -0.0318,0.1696 -0.0937,0.3326 -0.12554,0.50219 -0.0311,0.16581 -0.0335,0.33606 -0.0628,0.5022 -0.0234,0.13262 -0.2036,0.91516 -0.2511,1.06716 -0.0533,0.17064 -0.13179,0.33258 -0.18832,0.50219 -0.34353,1.03058 0.0682,-0.14739 -0.18833,0.87884 -0.28207,1.12829 -0.0163,-0.4648 -0.12554,0.62774 -0.0319,0.31853 -0.0999,0.2679 -0.0628,0.56496 0.0158,0.12612 0.0838,0.31434 0.12554,0.43942 0.0209,0.0628 0.0231,0.13539 0.0628,0.18832 0.0281,0.0374 0.0866,0.0368 0.12555,0.0628 0.0246,0.0164 0.0341,0.0556 0.0628,0.0628 0.15674,0.0392 0.19059,-0.001 0.31387,-0.0628 0.0418,-0.0209 0.0925,-0.0297 0.12555,-0.0628 0.16353,-0.16353 0.19814,-0.41589 0.2511,-0.62774 0.0209,-0.0837 0.0532,-0.16535 0.0628,-0.25109 0.0115,-0.10399 0,-0.20925 0,-0.31387 0,-0.10463 0.0104,-0.20977 0,-0.31387 -0.0198,-0.19771 -0.0919,-0.45419 -0.18832,-0.62775 -0.10806,-0.1945 -0.2855,-0.34827 -0.43942,-0.50219 -0.24189,-0.24188 -0.46674,-0.49948 -0.75329,-0.69051 -0.39249,-0.26166 -0.20599,-0.11444 -0.56497,-0.31387 -0.10666,-0.0593 -0.20474,-0.13376 -0.31387,-0.18833 -0.10079,-0.0504 -0.21908,-0.0646 -0.31387,-0.12554 -0.23899,-0.15364 -0.60435,-0.44857 -0.81606,-0.69052 -0.16643,-0.1902 -0.2454,-0.34623 -0.37665,-0.56497 -0.0628,-0.10462 -0.14301,-0.20058 -0.18832,-0.31386 -3.8e-4,-9.4e-4 -0.12363,-0.61913 -0.12555,-0.62775 -0.0187,-0.0842 -0.0521,-0.16549 -0.0628,-0.25109 -0.0104,-0.0831 0,-0.1674 0,-0.2511 0,-0.0837 -0.0118,-0.16824 0,-0.25109 0.009,-0.0655 0.0418,-0.12555 0.0628,-0.18833 0.0209,-0.0628 0.0418,-0.12555 0.0628,-0.18832 0.0253,-0.076 0.0701,-0.23998 0.12555,-0.31387 0.0355,-0.0473 0.0837,-0.0837 0.12555,-0.12555 0.0209,-0.0209 0.0382,-0.0464 0.0628,-0.0628 0.0389,-0.026 0.0837,-0.0418 0.12555,-0.0628 0.0418,-0.0209 0.0802,-0.0514 0.12554,-0.0628 0.0406,-0.0101 0.0849,0.0101 0.12555,0 0.0454,-0.0113 0.0797,-0.0536 0.12555,-0.0628 0.0615,-0.0123 0.12555,0 0.18832,0 0.0628,0 0.12555,0 0.18833,0 0.16739,0 0.33479,0 0.50219,0"
       id="path54"
       inkscape:connector-curvature="0"
       inkscape:export-xdpi="96"
       inkscape:export-ydpi="96" />
    <path
       style="fill:none;stroke:#000000;stroke-width:0.26458332px;stroke-linecap:butt;stroke-linejoin:miter;stroke-opacity:1"
       d="m -3.4745038,263.85858 c 0.8018087,-0.53454 1.5196879,-1.22402 2.4054257,-1.60362 0.57914423,-0.24821 2.4774018,0.22872 2.9399648,0.26727 0.5326926,0.0444 1.0690781,0 1.6036171,0 1.069078,0 2.1390829,-0.0445 3.2072344,0 1.0718535,0.0447 2.1376103,0.18499 3.2072342,0.26727 1.2467526,0.0959 2.4984536,0.13405 3.7417736,0.26727 1.25275,0.13422 2.494515,0.35636 3.741773,0.53454 1.11564,0.15937 6.7311,0.97348 7.750816,1.06907 1.510523,0.14163 3.032308,0.13393 4.543582,0.26728 1.51907,0.13404 3.021094,0.44754 4.543583,0.53454 1.601005,0.0915 3.207234,0 4.81085,0 3.563594,0 7.127187,0 10.690781,0 5.969021,0 11.938039,0 17.907058,0 2.138156,0 4.276312,0 6.414471,0 2.138156,0 4.276756,-0.0436 6.414468,0 2.228561,0.0455 4.453154,0.2227 6.681737,0.26725 4.453602,0.0891 8.909875,-0.0891 13.363475,0 2.22858,0.0446 4.45318,0.2218 6.68174,0.26728 2.13771,0.0436 4.27631,0 6.41447,0 2.13815,0 4.27631,0 6.41447,0 2.13815,0 4.27677,0.0445 6.41446,0 2.13955,-0.0446 4.27491,-0.2236 6.41447,-0.26728 2.22679,-0.0454 4.45494,0.0446 6.68174,0 2.22858,-0.0445 4.45442,-0.17991 6.68174,-0.26725 2.31627,-0.0908 4.63481,-0.13378 6.94901,-0.26729 27.24115,-1.57159 -13.93906,0.52174 14.16528,-1.06907 0.43697,-0.0247 13.89237,-0.52938 14.16529,-0.53453 2.31592,-0.0437 4.63267,0 6.949,0 2.31634,0 4.63268,0 6.94901,0 6.17723,0 7.84119,-0.0962 13.89802,0.26727 2.4463,0.14677 10.24194,0.84889 12.82894,1.06908 2.13783,0.18193 4.28094,0.30755 6.41446,0.53454 0.77142,0.0821 11.12345,1.4565 12.02713,1.60361 1.87978,0.30602 3.73665,0.74078 5.61266,1.06907 3.2894,0.57566 6.5976,1.03939 9.88897,1.60362 1.51582,0.25987 3.01683,0.61674 4.54359,0.80182 1.41784,0.17184 2.85125,0.17227 4.27632,0.26725 1.24766,0.0832 2.49502,0.17137 3.74176,0.26729 1.06963,0.0823 2.13545,0.22066 3.20723,0.26725 2.67311,0.11623 3.02667,-0.009 5.61266,-0.26725"
       id="path58"
       inkscape:connector-curvature="0"
       inkscape:export-xdpi="96"
       inkscape:export-ydpi="96" />
    <path
       style="fill:none;stroke:#000000;stroke-width:0.32894391px;stroke-linecap:butt;stroke-linejoin:miter;stroke-opacity:1"
       d="m 212.3237,131.04003 c -0.44304,0.66457 -1.02194,1.25643 -1.32914,1.99369 -0.25913,0.62191 -0.22152,1.32914 -0.33228,1.99371 -0.42333,2.53997 -0.33228,1.31997 -0.33228,3.65512 0,0.5538 -0.0551,1.11036 0,1.66141 0.0562,0.56198 0.22152,1.10761 0.33228,1.66142 0.11077,0.55381 0.17,1.12047 0.33228,1.66142 0.1714,0.57131 0.44305,1.10762 0.66457,1.66142 0.22153,0.5538 0.39782,1.12792 0.66457,1.66141 0.28883,0.57767 0.7296,1.07346 0.99685,1.66142 0.28988,0.63773 0.42517,1.33537 0.66457,1.99371 0.20383,0.56055 0.44305,1.10761 0.66457,1.66142 0.22152,0.5538 0.37489,1.14001 0.66457,1.66141 0.26895,0.48412 0.70333,0.85951 0.99684,1.32913 0.84571,1.35313 0.75974,2.20743 2.32599,2.99056 0.31327,0.15664 0.66457,0.22152 0.99685,0.33228 0.83876,0.27959 1.09563,0.48196 1.9937,0.33229 0.91714,-0.15286 1.22826,-0.48657 1.9937,-0.99685 0.33228,-0.22153 0.685,-0.4151 0.99685,-0.66457 0.24463,-0.1957 0.44305,-0.44305 0.66457,-0.66457 0.33228,-0.33229 0.72372,-0.61447 0.99685,-0.99685 0.006,-0.007 1.31244,-2.62823 1.32914,-2.65826 0.31364,-0.56458 0.6832,-1.09686 0.99685,-1.66143 0.24056,-0.433 0.424,-0.89613 0.66456,-1.32913 0.31366,-0.56458 0.70803,-1.08376 0.99685,-1.66142 0.26675,-0.53349 0.45045,-1.10471 0.66457,-1.66141 0.33971,-0.88327 0.76733,-1.74019 0.99685,-2.65827 0.10742,-0.42982 -0.0549,-0.88951 0,-1.32914 0.0567,-0.45315 0.27564,-0.87598 0.33228,-1.32914 0.055,-0.43961 0,-0.88609 0,-1.32912 0,-0.44305 0.055,-0.88952 0,-1.32914 -0.0567,-0.45316 -0.22152,-0.88609 -0.33228,-1.32913 -0.11078,-0.44305 -0.22152,-0.8861 -0.33229,-1.32914 -0.16861,-0.67448 -0.37854,-1.65861 -0.66456,-2.32599 -0.5059,-1.18043 -0.66171,-1.32485 -1.32913,-2.32598 -0.22152,-0.33228 -0.38219,-0.71447 -0.66457,-0.99685 -0.28239,-0.28239 -0.66456,-0.44304 -0.99685,-0.66457 -0.33228,-0.22152 -0.66457,-0.44304 -0.99685,-0.66457 -0.82633,-0.55088 -1.36237,-0.96777 -2.32599,-1.32913 -0.4276,-0.16036 -0.88609,-0.22152 -1.32914,-0.33229 -0.7855,-0.19637 -2.23123,-0.58018 -2.99054,-0.66456 -0.44034,-0.049 -0.88609,0 -1.32914,0 -0.44304,0 -0.88951,-0.055 -1.32913,0 -0.45316,0.0567 -0.87704,0.26771 -1.32914,0.33228 -1.42927,0.20418 -0.70782,-0.36121 -2.32598,0.33228 -0.36707,0.15733 -0.66457,0.44305 -0.99685,0.66457 -0.74017,0.49345 -1.12031,0.65275 -1.66142,1.32914 -0.24947,0.31184 -0.40891,0.69005 -0.66457,0.99685 -0.30083,0.361 -0.7637,0.58884 -0.99685,0.99685 -0.22657,0.39651 -0.15239,0.90938 -0.33229,1.32913 -0.1573,0.36707 -0.50724,0.62979 -0.66455,0.99685 -0.1799,0.41976 -0.22152,0.88609 -0.3323,1.32914 -0.11077,0.44304 -0.22151,0.88609 -0.33227,1.32913"
       id="path122"
       inkscape:connector-curvature="0"
       inkscape:export-xdpi="96"
       inkscape:export-ydpi="96" />
    <path
       style="fill:none;stroke:#000000;stroke-width:0.32894391px;stroke-linecap:butt;stroke-linejoin:miter;stroke-opacity:1"
       d="m 226.27961,155.62901 c -1.55066,0.77533 -3.42607,1.10008 -4.65197,2.32599 -0.54824,0.54823 0,1.55065 0,2.32597 0,0.66458 0.0602,1.33187 0,1.99371 -0.0511,0.56246 -0.27608,1.09944 -0.33228,1.66142 -0.0551,0.55106 0,1.10761 0,1.66142 0,0.5538 -0.0551,1.11036 0,1.66141 0.46262,4.62616 0.33228,-1.62515 0.33228,3.65512 0,0.66457 0,1.32914 0,1.99371 0,0.66456 0.051,1.33108 0,1.99369 -0.06,0.7809 -0.27222,1.5451 -0.33228,2.32599 -0.051,0.66261 0.0552,1.33143 0,1.9937 -0.0753,0.90382 -0.4934,2.71366 -0.66457,3.65512 -0.12047,0.66286 -0.21176,1.33084 -0.33228,1.9937 -0.10108,0.55566 -0.27609,1.09945 -0.33229,1.66142 -0.0551,0.55105 0,1.10762 0,1.66141 -0.22152,0.99685 -0.50929,1.98126 -0.66456,2.99056 -0.0674,0.4379 0.0627,0.89054 0,1.32913 -0.0495,0.34673 -0.2747,0.65136 -0.33229,0.99686 -0.0546,0.32775 0,0.66456 0,0.99685 -0.11077,0.33228 -0.26359,0.65339 -0.33228,0.99684 -0.0434,0.21722 0.07,0.45442 0,0.66457 -0.0495,0.1486 -0.26223,0.19218 -0.33229,0.33228 -0.0142,0.0284 -0.0142,1.30082 0,1.32914 0.0701,0.1401 0.19219,0.26222 0.33229,0.33228 0.0991,0.0495 0.25396,-0.0783 0.33228,0 0.0783,0.0783 -0.0495,0.23321 0,0.33229 0.07,0.1401 0.26223,0.19218 0.33229,0.33228 0.13291,0.26583 -0.13292,0.73102 0,0.99685 0.0701,0.1401 0.28275,0.18368 0.33228,0.33229 0.0701,0.21014 -0.0537,0.44966 0,0.66456 0.0601,0.24028 0.27221,0.42429 0.33228,0.66457 0.0537,0.2149 0,0.44305 0,0.66456 0,0.22153 0,0.44304 0,0.66458 0,0.99684 0,1.99369 0,2.99054 0,2.76904 0,5.53806 0,8.3071 0,1.55065 0,3.1013 0,4.65196 0,0.87719 0,0.45195 0,1.32914 0,0.22152 0,0.44304 0,0.66457 0,0.11077 -0.0495,0.2332 0,0.33228 0.07,0.1401 0.26223,0.19218 0.33229,0.33228 0.0341,0.0681 0.0469,0.94999 0,0.99686 -0.0783,0.0783 -0.22721,0.0351 -0.33229,0 -1.20619,-0.40207 -1.94878,-1.7123 -2.65827,-2.65828"
       id="path124"
       inkscape:connector-curvature="0"
       inkscape:export-xdpi="96"
       inkscape:export-ydpi="96" />
    <path
       style="fill:none;stroke:#000000;stroke-width:0.32894391px;stroke-linecap:butt;stroke-linejoin:miter;stroke-opacity:1"
       d="m 220.63079,210.12351 c -0.73844,1.47688 -1.47745,2.77094 -1.9937,4.31969 -0.28883,0.86648 -0.40212,1.78342 -0.66457,2.65826 -0.2013,0.67097 -0.49467,1.31411 -0.66457,1.9937 -0.1634,0.65362 -0.16887,1.34009 -0.33228,1.99371 -0.16989,0.6796 -0.50705,1.31112 -0.66457,1.99369 -0.8348,3.61747 0.29307,1.11453 -0.99684,4.98426 -0.26675,0.80025 -0.73011,1.52574 -0.99685,2.32599 -0.28884,0.86649 -0.44305,1.77217 -0.66457,2.65826 -0.33229,0.99686 -0.64714,1.99969 -0.99685,2.99056 -1.46749,4.15789 -0.51152,1.24226 -2.32599,5.64882 -0.72064,1.75013 -1.29077,3.55922 -1.99371,5.31653 -0.62655,1.5664 -1.32912,3.10132 -1.99369,4.65197 -0.33228,0.77533 -0.64336,1.56009 -0.99685,2.32599 -0.31136,0.67462 -0.71108,1.30785 -0.99686,1.9937 -2.06474,4.9554 0.79846,-0.77264 -1.66142,3.6551 -0.62017,1.11634 -0.56957,1.37657 -1.32912,2.326 -0.19571,0.24464 -0.44305,0.44306 -0.66457,0.66457 -0.11077,0.11078 -0.19218,0.26223 -0.33228,0.3323 -0.0991,0.0495 -0.22153,0 -0.33229,0 -0.11077,0 -0.22152,0 -0.33228,0"
       id="path126"
       inkscape:connector-curvature="0"
       inkscape:export-xdpi="96"
       inkscape:export-ydpi="96" />
    <path
       style="fill:none;stroke:#000000;stroke-width:0.32894391px;stroke-linecap:butt;stroke-linejoin:miter;stroke-opacity:1"
       d="m 220.63079,210.12351 c -0.22152,-0.22153 -0.5655,-0.96177 -0.66457,-0.66456 -0.17859,0.53578 0.22153,1.1076 0.33229,1.66141 0.11077,0.5538 0.16999,1.12047 0.33228,1.66142 0.67288,2.2429 0.5437,1.02696 1.32914,2.99056 0.52033,1.30081 0.79027,2.69414 1.32912,3.98739 0.28578,0.68586 0.70417,1.31076 0.99686,1.99371 2.01927,4.71164 -0.0232,0.66215 1.9937,4.98425 0.41894,0.89774 0.93205,1.75065 1.32914,2.65827 1.19593,2.73357 0.88619,2.76931 1.9937,5.64882 2.6863,6.52388 1.61098,3.74215 3.32283,8.30709 0.33228,0.88609 0.71459,1.755 0.99685,2.65826 0.54487,1.74358 0.85846,3.5515 1.32914,5.31655 0.20776,0.77912 0.50643,1.53528 0.66456,2.32597 0.17513,0.87565 0.15716,1.78263 0.33229,2.65828 0.15813,0.79069 0.48324,1.54027 0.66456,2.32597 0.30299,1.31296 0.40031,2.66611 0.66457,3.98741 0.0895,0.44782 0.27564,0.87597 0.33228,1.32913 0,3.4745 -0.19814,-0.12796 0.33228,1.9937 0.27374,1.09495 -0.35019,0.31437 0.33229,0.99687"
       id="path128"
       inkscape:connector-curvature="0"
       inkscape:export-xdpi="96"
       inkscape:export-ydpi="96" />
    <path
       style="fill:none;stroke:#000000;stroke-width:0.32894391px;stroke-linecap:butt;stroke-linejoin:miter;stroke-opacity:1"
       d="m 199.36464,178.22429 23.92441,-16.2819 c 0.88609,0.66457 1.79338,1.30179 2.65828,1.99371 0.88973,0.71178 3.16154,2.64574 3.98741,3.65512 0.50576,0.61817 0.8499,1.35474 1.32913,1.9937 0.51904,0.69206 1.1076,1.32913 1.66141,1.9937 1.54303,1.85163 2.99017,3.5884 4.98426,4.98425 0.52909,0.37038 1.12404,0.63861 1.66141,0.99685 0.4608,0.3072 0.8785,0.67496 1.32914,0.99685 0.32497,0.23213 0.69005,0.40891 0.99685,0.66457 0.361,0.30083 0.66457,0.66457 0.99685,0.99686 0.3489,0.34889 0.53165,0.53165 0.99685,0.99685 0.11078,0.11077 0.26223,0.19218 0.33229,0.33228 0.0495,0.0991 0,0.22152 0,0.33229 0,0.22152 0.0991,0.46643 0,0.66456 -0.35207,0.70411 -1.909,1.53654 -2.65827,1.66141 -0.32776,0.0546 -0.66457,0 -0.99686,0"
       id="path130"
       inkscape:connector-curvature="0"
       inkscape:export-xdpi="96"
       inkscape:export-ydpi="96" />
    <path
       style="fill:none;stroke:#000000;stroke-width:0.32894391px;stroke-linecap:butt;stroke-linejoin:miter;stroke-opacity:1"
       d="m 199.36464,178.22429 1.99371,15.61733"
       id="path132"
       inkscape:connector-curvature="0"
       inkscape:export-xdpi="96"
       inkscape:export-ydpi="96" />
    <path
       style="fill:none;stroke:#000000;stroke-width:0.32894391px;stroke-linecap:butt;stroke-linejoin:miter;stroke-opacity:1"
       d="m 240.5678,184.20539 c 0.55381,-0.33228 1.27391,-1.51352 1.66142,-0.99685 0.48382,0.64509 -0.3751,1.57339 -0.66456,2.32599 -0.26673,0.69349 -0.74293,1.29542 -0.99686,1.9937 -0.193,0.53077 -0.17,1.12046 -0.33228,1.66141 -0.34279,1.14264 -0.9519,2.19112 -1.32914,3.32284 -0.28882,0.86649 -0.44304,1.77219 -0.66457,2.65828 -0.11077,0.44303 -0.15238,0.90937 -0.33228,1.32912 -1.12028,1.68043 -0.30899,0.27406 -0.99685,1.99371 -9.8e-4,0.002 -0.41101,0.99685 -0.66456,0.99685 -0.40234,0 -0.7439,-0.41162 -0.99685,-0.66457"
       id="path134"
       inkscape:connector-curvature="0"
       inkscape:export-xdpi="96"
       inkscape:export-ydpi="96" />
    <path
       style="fill:none;stroke:#000000;stroke-width:0.32894391px;stroke-linecap:butt;stroke-linejoin:miter;stroke-opacity:1"
       d="m 196.0418,184.53768 v 1.32913"
       id="path136"
       inkscape:connector-curvature="0"
       inkscape:export-xdpi="96"
       inkscape:export-ydpi="96" />
    <path
       style="fill:none;stroke:#000000;stroke-width:0.32894391px;stroke-linecap:butt;stroke-linejoin:miter;stroke-opacity:1"
       d="m 196.0418,184.53768 3.65513,78.41893"
       id="path138"
       inkscape:connector-curvature="0"
       inkscape:export-xdpi="96"
       inkscape:export-ydpi="96" />
    <path
       style="fill:none;stroke:#000000;stroke-width:0.32894391px;stroke-linecap:butt;stroke-linejoin:miter;stroke-opacity:1"
       d="m 240.5678,184.20539 c 0.15566,0.50588 1.53587,4.47454 1.66142,5.9811 0.0644,0.77266 -0.0594,1.55295 0,2.32599 0.0517,0.67176 0.23701,1.32674 0.33229,1.99371 0.12628,0.884 0.22152,1.77217 0.33228,2.65826 0.54434,4.3547 0.16881,1.10795 0.66456,6.31339 0.17167,1.80241 0.59131,5.62541 0.66457,7.31023 0.053,1.21722 -0.053,2.4379 0,3.65513 0.0579,1.33248 0.27436,2.65492 0.33228,3.9874 0.053,1.21722 -0.0553,2.438 0,3.65512 0.0556,1.22213 0.2741,2.43311 0.33228,3.65512 0.0527,1.10635 0,2.21522 0,3.32284 0,2.10445 0,4.20892 0,6.31338 0,3.21207 0,6.42415 0,9.63622 0,0.99685 0,1.9937 0,2.99056 0,0.99685 0.1165,2.00053 0,2.99055 -0.10667,0.9071 -0.42922,1.77574 -0.66456,2.65826 -0.17247,0.64676 -1.00427,3.60499 -1.32913,4.3197 -0.48051,1.05712 -1.70542,2.89283 -2.65827,3.6551 -0.79341,0.63473 -0.82671,-0.005 -1.66142,0.99686 -0.31711,0.38052 -0.44305,0.88608 -0.66457,1.32913"
       id="path140"
       inkscape:connector-curvature="0"
       inkscape:export-xdpi="96"
       inkscape:export-ydpi="96" />
    <path
       style="fill:none;stroke:#000000;stroke-width:0.32894391px;stroke-linecap:butt;stroke-linejoin:miter;stroke-opacity:1"
       d="m 196.0418,184.53768 c 0.33229,-0.44305 0.99686,-0.77533 0.99686,-1.32914 0,-0.39936 -0.66457,-0.44305 -0.99686,-0.66457 -0.33228,-0.22152 -0.685,-0.41508 -0.99685,-0.66455 -0.24462,-0.19572 -0.38435,-0.52447 -0.66455,-0.66458 -0.19814,-0.0991 -0.44305,0 -0.66457,0 -0.22153,0 -0.44966,-0.0537 -0.66457,0 -0.24028,0.06 -0.44305,0.22153 -0.66457,0.33228 -0.22152,0.11077 -0.46643,0.18369 -0.66457,0.3323 -0.81087,0.60815 -0.67883,0.70732 -0.99685,1.6614 -0.11077,0.33229 -0.22152,0.66457 -0.33228,0.99686 -0.59307,1.77919 -0.26551,0.20189 0,2.32599 0.0549,0.43961 -0.10742,0.89931 0,1.32912 0.29158,1.16631 0.86752,1.53211 1.66142,2.32599 0.33228,0.33228 0.63585,0.69602 0.99685,0.99685 0.60146,0.50122 1.01267,0.67248 1.66142,0.99685"
       id="path142"
       inkscape:connector-curvature="0"
       inkscape:export-xdpi="96"
       inkscape:export-ydpi="96" />
    <path
       style="fill:none;stroke:#000000;stroke-width:0.32894391px;stroke-linecap:butt;stroke-linejoin:miter;stroke-opacity:1"
       d="m 196.0418,185.86681 c 1.66142,1.32913 3.57072,2.39717 4.98427,3.9874 0.44759,0.50355 0.21175,1.33084 0.33228,1.99371 0.10108,0.55565 0.22151,1.10761 0.33227,1.66142 0.11078,0.5538 0.27609,1.09944 0.33229,1.66142 0.0551,0.55104 0,1.1076 0,1.6614 0,0.66457 0,1.32914 0,1.99371 0,0.55381 0,1.10761 0,1.66142 0,0.55381 0.0551,1.11036 0,1.66141 -0.0562,0.56197 -0.26991,1.1001 -0.33229,1.66142 -0.049,0.44033 0.0627,0.89054 0,1.32914 -0.0495,0.34674 -0.26358,0.65339 -0.33227,0.99685 -0.30409,1.5204 0.43903,-0.21351 -0.33228,1.32913"
       id="path144"
       inkscape:connector-curvature="0"
       inkscape:export-xdpi="96"
       inkscape:export-ydpi="96" />
    <path
       style="fill:none;stroke:#000000;stroke-width:0.32894391px;stroke-linecap:butt;stroke-linejoin:miter;stroke-opacity:1"
       d="m 194.3804,211.12036 c 3.91884,0 -1.29938,-0.10742 2.65826,0.33228 0.55042,0.0612 1.10761,0 1.66142,0 0.44304,0 0.89212,0.0729 1.32913,0 0.2443,-0.0408 0.42429,-0.27221 0.66457,-0.33228 0.21491,-0.0537 0.44303,0 0.66457,0 0.22151,-0.11078 0.42961,-0.25396 0.66456,-0.33229 0.10505,-0.0351 0.44304,0 0.33228,0 -0.55381,0 -1.11317,-0.0783 -1.66141,0 -2.89046,0.41293 0.0409,0.19118 -2.32599,0.66457 -0.21722,0.0434 -0.44966,-0.0537 -0.66457,0 -0.24027,0.06 -0.4296,0.25397 -0.66456,0.33229 -0.10506,0.0351 -0.23321,-0.0495 -0.33229,0 -0.1401,0.0701 -0.22152,0.22152 -0.33228,0.33228 -0.11078,0.11077 -0.22153,0.22152 -0.33229,0.33228"
       id="path146"
       inkscape:connector-curvature="0"
       inkscape:export-xdpi="96"
       inkscape:export-ydpi="96" />
    <path
       style="fill:none;stroke:#000000;stroke-width:0.32894391px;stroke-linecap:butt;stroke-linejoin:miter;stroke-opacity:1"
       d="m 247.21347,212.11721 c -1.57066,-0.5617 -2.73034,-0.35318 -4.31968,0 -0.4458,0.0991 -0.90937,0.15239 -1.32913,0.33228 -0.39155,0.16781 -2.15579,1.53985 -2.32599,1.66143 -0.64994,0.46424 -1.32914,0.88609 -1.99371,1.32913 -0.33228,0.22152 -0.6544,0.4591 -0.99684,0.66457 -0.21238,0.12742 -0.48944,0.15715 -0.66457,0.33227 -0.17513,0.17514 -0.1949,0.4585 -0.33228,0.66457 -0.0869,0.13034 -0.44305,0.22152 -0.33228,0.33228 0.15663,0.15665 0.44734,0.0435 0.66456,0 0.81891,-0.16377 1.34027,-0.4741 1.9937,-0.99685 0.24463,-0.1957 0.39593,-0.50338 0.66456,-0.66455 0.32442,-0.19466 1.32521,-0.32836 1.66143,-0.66457 0.17512,-0.17514 0.1949,-0.4585 0.33228,-0.66457 0.0869,-0.13033 0.33228,-0.17565 0.33228,-0.33228 0,-0.11078 -0.22152,0 -0.33228,0 -0.55381,0 -1.11515,-0.091 -1.66142,0 -0.34549,0.0576 -0.65339,0.26359 -0.99685,0.33228 -0.72268,0.14453 -1.73172,-0.26839 -2.32598,-0.66457 -0.13034,-0.0869 -0.22152,-0.22152 -0.33228,-0.33228"
       id="path148"
       inkscape:connector-curvature="0"
       inkscape:export-xdpi="96"
       inkscape:export-ydpi="96" />
    <path
       style="fill:none;stroke:#000000;stroke-width:0.32894391px;stroke-linecap:butt;stroke-linejoin:miter;stroke-opacity:1"
       d="m 240.5678,184.20539 c 7.94832,4.2158 -3.32284,3.93525 -3.32284,6.31339 0,0.35026 0.29361,0.64874 0.33229,0.99685 0.0734,0.6605 0,1.32914 0,1.99371 0.22152,0.77533 0.50642,1.53529 0.66456,2.32597 0.28572,1.42855 0.44847,2.87898 0.66457,4.3197 0.11612,0.77453 0.27649,1.54476 0.33229,2.32597 0.0552,0.77337 -0.0516,1.55238 0,2.32599 0.0594,0.89102 0.33228,1.76528 0.33228,2.65827 0,0.67374 -0.27634,1.32229 -0.33228,1.99371 -0.24604,2.95246 0.33025,1.00394 -0.33229,3.32283 -0.0962,0.33678 0.0132,0.93926 -0.33228,0.99685 -1.20675,0.20112 -2.43674,-0.22152 -3.65511,-0.33228"
       id="path150"
       inkscape:connector-curvature="0"
       inkscape:export-xdpi="96"
       inkscape:export-ydpi="96" />
    <path
       style="fill:none;stroke:#000000;stroke-width:0.32894391px;stroke-linecap:butt;stroke-linejoin:miter;stroke-opacity:1"
       d="m 194.71268,192.51248 c 4.88833,0.81472 2.68015,0.33776 6.64567,1.32914"
       id="path152"
       inkscape:connector-curvature="0"
       inkscape:export-xdpi="96"
       inkscape:export-ydpi="96" />
    <path
       style="fill:none;stroke:#000000;stroke-width:0.32894391px;stroke-linecap:butt;stroke-linejoin:miter;stroke-opacity:1"
       d="m 204.01661,200.81957 c -0.44305,0.55381 -0.98471,1.04145 -1.32914,1.66141 -0.22178,0.39922 -0.23321,0.88333 -0.33228,1.32914 -0.41916,1.88627 -0.33228,1.26106 -0.33228,2.99056 0,0.33228 -0.0546,0.66908 0,0.99685 0.0576,0.34549 0.33228,0.64659 0.33228,0.99684 0,0.35026 -0.2747,0.65136 -0.33228,0.99685 -0.0546,0.32777 0,0.66457 0,0.99685 0,0.22153 0.0991,0.46643 0,0.66457 -0.14333,0.28665 -0.45946,-0.12718 -0.66456,-0.33228"
       id="path154"
       inkscape:connector-curvature="0"
       inkscape:export-xdpi="96"
       inkscape:export-ydpi="96" />
    <path
       style="fill:none;stroke:#000000;stroke-width:0.32894391px;stroke-linecap:butt;stroke-linejoin:miter;stroke-opacity:1"
       d="m 212.3237,131.04003 c 0.77533,-1.55066 1.73351,-3.02267 2.32599,-4.65198 0.16059,-0.44163 -0.69104,0.64007 -0.99685,0.99685 -0.36042,0.42048 -0.64232,0.9037 -0.99685,1.32914 -0.20057,0.24067 -0.44305,0.44305 -0.66457,0.66457 -0.77533,0.77533 -1.55066,1.55066 -2.32599,2.32599 -0.22152,0.22152 -0.44305,0.44303 -0.66456,0.66457 -0.22153,0.22151 -0.41395,0.47658 -0.66458,0.66455 -0.19812,0.14861 -0.45848,0.19491 -0.66455,0.33229 -0.0778,0.052 -0.41094,0.58592 -0.66457,0.33228 -0.55381,-0.55381 -0.33229,-0.77533 0,-1.32912 0.20546,-0.34246 0.41508,-0.68501 0.66457,-0.99686 0.1957,-0.24463 0.35207,-0.64225 0.66455,-0.66456 1.33036,-0.095 2.65827,0.22152 3.98741,0.33228"
       id="path156"
       inkscape:connector-curvature="0"
       inkscape:export-xdpi="96"
       inkscape:export-ydpi="96" />
    <path
       style="fill:none;stroke:#000000;stroke-width:0.32894391px;stroke-linecap:butt;stroke-linejoin:miter;stroke-opacity:1"
       d="m 219.63394,127.05262 c -0.66457,0.55381 -1.31086,1.13032 -1.9937,1.66142 -0.31523,0.24518 -0.69006,0.40891 -0.99686,0.66457 -0.361,0.30083 -0.66457,0.66457 -0.99684,0.99685 -0.44304,0.44305 -0.88609,0.88609 -1.32913,1.32914 -0.22153,0.22152 -0.41394,0.47659 -0.66457,0.66457 -0.19814,0.14859 -0.46643,0.18367 -0.66457,0.33227 -0.50125,0.37595 -0.82788,0.9532 -1.32914,1.32913 -0.19813,0.14861 -0.44304,0.22153 -0.66457,0.33229 -0.22152,0.11077 -0.42428,0.27221 -0.66456,0.33228 -0.21491,0.0537 -0.45441,0.07 -0.66457,0 -0.26113,-0.087 -0.99684,-1.1024 -0.99684,-1.32913 0,-0.24767 0.12333,-0.53159 0.33228,-0.66457 1.04475,-0.66483 2.21522,-1.1076 3.32283,-1.66141"
       id="path158"
       inkscape:connector-curvature="0"
       inkscape:export-xdpi="96"
       inkscape:export-ydpi="96" />
    <path
       style="fill:none;stroke:#000000;stroke-width:0.32894391px;stroke-linecap:butt;stroke-linejoin:miter;stroke-opacity:1"
       d="m 219.63394,127.05262 c 0.88609,-0.11077 1.77743,-0.47909 2.65827,-0.33228 0.30901,0.0515 -0.41994,0.46886 -0.66457,0.66456 -2.61612,2.09291 0.8576,-0.94486 -2.32598,1.32914 -0.64611,0.46151 -1.04608,1.16914 -1.66142,1.66142 -0.31185,0.24947 -0.68501,0.41509 -0.99686,0.66457 -0.24462,0.1957 -0.41394,0.47659 -0.66457,0.66457 -0.19812,0.14859 -0.45848,0.19489 -0.66455,0.33227 -0.33475,0.22318 -0.57133,0.75782 -0.66457,0.66457 -0.42558,-0.42557 0.64433,-1.63105 0.66457,-1.66141 0.22151,-0.33228 0.40889,-0.69007 0.66455,-0.99685 0.30085,-0.36101 0.66457,-0.66457 0.99686,-0.99686 0.22152,-0.22152 0.41395,-0.4766 0.66457,-0.66456 1.62721,-1.22042 2.38786,-1.6235 4.31969,-2.32599 0.42918,-0.15607 0.87597,-0.27563 1.32912,-0.33227 0.43963,-0.055 0.89212,0.0728 1.32914,0 0.44005,-0.0734 1.21213,-0.89859 1.66142,0 0.18117,0.36233 -0.1779,0.43297 -0.33228,0.66455 -0.13738,0.20608 -0.18368,0.46643 -0.33229,0.66457 -0.18797,0.25063 -0.44304,0.44305 -0.66457,0.66457 -0.44304,0.44304 -0.83986,0.93772 -1.32913,1.32913 -0.31185,0.24948 -0.68501,0.41509 -0.99686,0.66457 -0.48925,0.3914 -0.83986,0.93773 -1.32912,1.32914 -0.3885,0.60301 -1.14475,0.60934 -1.66142,0.99684 -0.36266,0.272 -1.36049,1.64576 -1.9937,1.32914 -0.14011,-0.07 -0.22153,-0.22153 -0.33229,-0.33229 -0.11077,-0.11077 -0.33228,-0.17563 -0.33228,-0.33228 0,-0.14572 0.88478,-1.75089 0.99685,-1.99369 0.56084,-1.21516 1.10761,-2.43675 1.66142,-3.65513"
       id="path160"
       inkscape:connector-curvature="0"
       inkscape:export-xdpi="96"
       inkscape:export-ydpi="96" />
    <path
       style="fill:none;stroke:#000000;stroke-width:0.32894391px;stroke-linecap:butt;stroke-linejoin:miter;stroke-opacity:1"
       d="m 228.27332,128.04947 c -0.44305,0.33229 -0.8861,0.66457 -1.32914,0.99685 -0.22152,0.22153 -0.4239,0.46401 -0.66457,0.66457 -0.42544,0.35454 -0.87848,0.67496 -1.32914,0.99686 -0.32496,0.23211 -0.69005,0.4089 -0.99685,0.66456 -0.361,0.30083 -0.66457,0.66456 -0.99684,0.99686 -0.22153,0.22151 -0.4766,0.41394 -0.66457,0.66455 -0.1486,0.19814 -0.15716,0.48945 -0.33228,0.66457 -0.17514,0.17514 -0.44305,0.22152 -0.66457,0.33228 -0.22152,0.11078 -0.42961,0.25398 -0.66457,0.33229 -0.10505,0.0351 -0.22152,0 -0.33228,0 -0.29536,0 -0.5277,0.0783 -0.66457,-0.33229 -0.16139,-0.48413 0.18511,-1.29349 0.33228,-1.6614 0.092,-0.22997 0.15716,-0.48945 0.33229,-0.66457 0.28238,-0.28239 0.6544,-0.45911 0.99685,-0.66457 0.76572,-0.45944 1.50787,-0.97122 2.32598,-1.32914 0.96267,-0.42116 2.001,-0.64343 2.99055,-0.99685 1.80815,-0.64577 1.6871,-1.18082 3.65512,0 0.13432,0.0806 -0.2454,0.20195 -0.33227,0.33228 -1.77219,2.65828 1.21836,-1.21837 -0.99686,0.99686 -0.17513,0.17512 -0.18369,0.46643 -0.33228,0.66457 -0.18797,0.25061 -0.46887,0.41993 -0.66457,0.66456 -0.24948,0.31185 -0.38219,0.71446 -0.66457,0.99686 -0.78484,0.78482 -1.41382,0.67758 -2.32599,1.32912 -2.27929,1.62808 0.40608,0.49054 -2.32599,1.66142 -2.87421,1.23182 0.4778,-0.40504 -1.6614,0.66457 -0.22153,0.11077 -0.68104,0.5794 -0.66457,0.33228 0.11997,-1.79906 0.66457,-3.54435 0.99685,-5.31653"
       id="path162"
       inkscape:connector-curvature="0"
       inkscape:export-xdpi="96"
       inkscape:export-ydpi="96" />
    <path
       style="fill:none;stroke:#000000;stroke-width:0.32894391px;stroke-linecap:butt;stroke-linejoin:miter;stroke-opacity:1"
       d="m 214.98196,138.01798 c 0.88609,0.11078 1.7653,0.33229 2.65828,0.33229 0.35026,0 0.67165,-0.2022 0.99685,-0.33229 2.60191,-1.04077 2.26877,-4.90065 2.65827,-6.97795"
       id="path164"
       inkscape:connector-curvature="0"
       inkscape:export-xdpi="96"
       inkscape:export-ydpi="96" />
    <path
       style="fill:none;stroke:#000000;stroke-width:0.32894391px;stroke-linecap:butt;stroke-linejoin:miter;stroke-opacity:1"
       d="m 221.62764,139.34711 c 2.75198,0.78628 1.51963,0.66458 3.65512,0.66458 0.44304,0 0.89212,0.0729 1.32913,0 0.2443,-0.0407 0.44305,-0.22154 0.66457,-0.3323 0.88698,-0.44348 0.88565,-0.44215 1.32914,-1.32912"
       id="path166"
       inkscape:connector-curvature="0"
       inkscape:export-xdpi="96"
       inkscape:export-ydpi="96" />
    <path
       style="fill:none;stroke:#000000;stroke-width:0.32894391px;stroke-linecap:butt;stroke-linejoin:miter;stroke-opacity:1"
       d="m 215.31426,146.65736 c 0.99684,-0.11077 1.98951,-0.26972 2.99054,-0.3323 0.77383,-0.0484 1.55066,0 2.32599,0 0.99685,0 1.99369,0 2.99055,0 0.33228,0 0.66457,0 0.99685,0 0.44305,0 0.89054,-0.0627 1.32914,0 0.34674,0.0496 0.66456,0.22153 0.99685,0.3323 0.33228,0.11077 0.66457,0.22151 0.99685,0.33227 1.21278,0.40427 1.12641,0.25914 1.66142,1.32914 0.44061,0.88123 0.33229,0.70952 0.33229,1.66142 0,0.11077 0.0495,0.23322 0,0.33228 -0.0441,0.0883 -0.90864,0.95274 -0.99686,0.99685 -0.0991,0.0495 -0.2272,0.0351 -0.33228,0 -0.22152,-0.11077 -0.44305,-0.22152 -0.66457,-0.33228 -0.11077,0 -0.2272,0.0351 -0.33228,0 -0.23497,-0.0783 -0.59653,-0.57043 -0.66457,-0.33228 -0.46046,1.61162 -0.44305,3.32283 -0.66457,4.98425"
       id="path168"
       inkscape:connector-curvature="0"
       inkscape:export-xdpi="96"
       inkscape:export-ydpi="96" />
  </g>
</svg>
