<?xml version="1.0" encoding="UTF-8" standalone="no"?>
<!-- Created with Inkscape (http://www.inkscape.org/) -->

<svg
   xmlns:dc="http://purl.org/dc/elements/1.1/"
   xmlns:cc="http://creativecommons.org/ns#"
   xmlns:rdf="http://www.w3.org/1999/02/22-rdf-syntax-ns#"
   xmlns:svg="http://www.w3.org/2000/svg"
   xmlns="http://www.w3.org/2000/svg"
   xmlns:sodipodi="http://sodipodi.sourceforge.net/DTD/sodipodi-0.dtd"
   xmlns:inkscape="http://www.inkscape.org/namespaces/inkscape"
   width="210mm"
   height="297mm"
   viewBox="0 0 210 297"
   version="1.1"
   id="svg8"
   inkscape:version="0.92.4 (5da689c313, 2019-01-14)"
   sodipodi:docname="Gen-08.svg">
  <defs
     id="defs2" />
  <sodipodi:namedview
     id="base"
     pagecolor="#ffffff"
     bordercolor="#666666"
     borderopacity="1.0"
     inkscape:pageopacity="0.0"
     inkscape:pageshadow="2"
     inkscape:zoom="0.49497475"
     inkscape:cx="69.537347"
     inkscape:cy="356.77981"
     inkscape:document-units="mm"
     inkscape:current-layer="layer1"
     showgrid="false"
     inkscape:window-width="1920"
     inkscape:window-height="1031"
     inkscape:window-x="0"
     inkscape:window-y="25"
     inkscape:window-maximized="1"
     showguides="true"
     inkscape:guide-bbox="true" />
  <metadata
     id="metadata5">
    <rdf:RDF>
      <cc:Work
         rdf:about="">
        <dc:format>image/svg+xml</dc:format>
        <dc:type
           rdf:resource="http://purl.org/dc/dcmitype/StillImage" />
        <dc:title></dc:title>
      </cc:Work>
    </rdf:RDF>
  </metadata>
  <g
     inkscape:label="Calque 1"
     inkscape:groupmode="layer"
     id="layer1">
    <path
       style="fill:none;stroke:#000000;stroke-width:0.32894394px;stroke-linecap:butt;stroke-linejoin:miter;stroke-opacity:1"
       d="m 168.47554,148.95149 c -0.44304,0.66457 -1.02194,1.25643 -1.32914,1.99369 -0.25913,0.62191 -0.22152,1.32914 -0.33228,1.99371 -0.42333,2.53997 -0.33229,1.31997 -0.33229,3.65512 0,0.5538 -0.0551,1.11036 0,1.66141 0.0562,0.56198 0.22153,1.10761 0.33229,1.66142 0.11077,0.55381 0.17,1.12047 0.33228,1.66142 0.1714,0.57131 0.44305,1.10762 0.66457,1.66142 0.22153,0.5538 0.39782,1.12792 0.66457,1.66141 0.28884,0.57767 0.7296,1.07346 0.99685,1.66142 0.28988,0.63773 0.42517,1.33537 0.66457,1.99371 0.20383,0.56055 0.44305,1.10761 0.66457,1.66142 0.22152,0.5538 0.37489,1.14001 0.66458,1.66141 0.26895,0.48412 0.70332,0.85951 0.99683,1.32913 0.84571,1.35313 0.75974,2.20743 2.32599,2.99056 0.31327,0.15664 0.66457,0.22152 0.99685,0.33228 0.83876,0.27959 1.09563,0.48196 1.9937,0.33229 0.91714,-0.15286 1.22826,-0.48657 1.9937,-0.99685 0.33228,-0.22153 0.685,-0.4151 0.99685,-0.66457 0.24463,-0.1957 0.44305,-0.44305 0.66457,-0.66457 0.33228,-0.33229 0.72372,-0.61447 0.99685,-0.99685 0.006,-0.007 1.31244,-2.62823 1.32914,-2.65826 0.31364,-0.56458 0.6832,-1.09686 0.99685,-1.66143 0.24056,-0.433 0.424,-0.89613 0.66456,-1.32913 0.31366,-0.56458 0.70803,-1.08376 0.99685,-1.66142 0.26675,-0.53349 0.45045,-1.10471 0.66457,-1.66141 0.33971,-0.88327 0.76733,-1.74019 0.99685,-2.65827 0.10742,-0.42982 -0.0549,-0.88951 0,-1.32914 0.0567,-0.45315 0.27564,-0.87598 0.33228,-1.32914 0.055,-0.43961 0,-0.88609 0,-1.32912 0,-0.44305 0.055,-0.88952 0,-1.32914 -0.0567,-0.45316 -0.22152,-0.88609 -0.33228,-1.32913 -0.11078,-0.44305 -0.22152,-0.8861 -0.33229,-1.32914 -0.16861,-0.67448 -0.37854,-1.65861 -0.66456,-2.32599 -0.5059,-1.18043 -0.66171,-1.32485 -1.32913,-2.32598 -0.22152,-0.33228 -0.38219,-0.71447 -0.66457,-0.99685 -0.28239,-0.28239 -0.66456,-0.44304 -0.99685,-0.66457 -0.33228,-0.22152 -0.66457,-0.44304 -0.99685,-0.66457 -0.82633,-0.55088 -1.36237,-0.96777 -2.32599,-1.32913 -0.4276,-0.16036 -0.88609,-0.22152 -1.32914,-0.33229 -0.7855,-0.19637 -2.23123,-0.58018 -2.99054,-0.66456 -0.44034,-0.049 -0.88609,0 -1.32914,0 -0.44304,0 -0.88951,-0.055 -1.32913,0 -0.45316,0.0567 -0.87704,0.26771 -1.32914,0.33228 -1.42927,0.20418 -0.70782,-0.36121 -2.32598,0.33228 -0.36707,0.15733 -0.66457,0.44305 -0.99685,0.66457 -0.74017,0.49345 -1.12031,0.65275 -1.66142,1.32914 -0.24947,0.31184 -0.40891,0.69005 -0.66457,0.99685 -0.30083,0.361 -0.7637,0.58884 -0.99685,0.99685 -0.22657,0.39651 -0.15239,0.90938 -0.3323,1.32913 -0.1573,0.36707 -0.50723,0.62979 -0.66454,0.99685 -0.1799,0.41976 -0.22152,0.88609 -0.3323,1.32914 -0.11077,0.44304 -0.22151,0.88609 -0.33227,1.32913"
       id="path122-3-2"
       inkscape:connector-curvature="0"
       inkscape:export-xdpi="96"
       inkscape:export-ydpi="96" />
    <path
       style="fill:none;stroke:#000000;stroke-width:0.32894394px;stroke-linecap:butt;stroke-linejoin:miter;stroke-opacity:1"
       d="m 168.47554,148.95149 c 0.77533,-1.55066 1.73351,-3.02267 2.32599,-4.65198 0.16059,-0.44163 -0.69104,0.64007 -0.99685,0.99685 -0.36041,0.42048 -0.64232,0.9037 -0.99685,1.32914 -0.20057,0.24067 -0.44305,0.44305 -0.66457,0.66457 -0.77533,0.77533 -1.55066,1.55066 -2.32599,2.32599 -0.22152,0.22152 -0.44305,0.44303 -0.66456,0.66457 -0.22153,0.22151 -0.41395,0.47658 -0.66458,0.66455 -0.19812,0.14861 -0.45849,0.19491 -0.66455,0.33229 -0.0778,0.052 -0.41094,0.58592 -0.66457,0.33228 -0.55381,-0.55381 -0.33229,-0.77533 0,-1.32912 0.20546,-0.34246 0.41508,-0.68501 0.66457,-0.99686 0.1957,-0.24463 0.35207,-0.64225 0.66455,-0.66456 1.33035,-0.095 2.65827,0.22152 3.98741,0.33228"
       id="path156-5-0"
       inkscape:connector-curvature="0"
       inkscape:export-xdpi="96"
       inkscape:export-ydpi="96" />
    <path
       style="fill:none;stroke:#000000;stroke-width:0.32894394px;stroke-linecap:butt;stroke-linejoin:miter;stroke-opacity:1"
       d="m 175.78578,144.96408 c -0.66457,0.55381 -1.31086,1.13032 -1.9937,1.66142 -0.31523,0.24518 -0.69006,0.40891 -0.99686,0.66457 -0.361,0.30083 -0.66457,0.66457 -0.99684,0.99685 -0.44304,0.44305 -0.88609,0.88609 -1.32912,1.32914 -0.22154,0.22152 -0.41395,0.47659 -0.66458,0.66457 -0.19814,0.14859 -0.46644,0.18367 -0.66457,0.33227 -0.50125,0.37595 -0.82788,0.9532 -1.32914,1.32913 -0.19813,0.14861 -0.44304,0.22153 -0.66457,0.33229 -0.22152,0.11077 -0.42428,0.27221 -0.66457,0.33228 -0.2149,0.0537 -0.4544,0.07 -0.66456,0 -0.26113,-0.087 -0.99684,-1.1024 -0.99684,-1.32913 0,-0.24767 0.12333,-0.53159 0.33228,-0.66457 1.04475,-0.66483 2.21522,-1.1076 3.32283,-1.66141"
       id="path158-6-23"
       inkscape:connector-curvature="0"
       inkscape:export-xdpi="96"
       inkscape:export-ydpi="96" />
    <path
       style="fill:none;stroke:#000000;stroke-width:0.32894394px;stroke-linecap:butt;stroke-linejoin:miter;stroke-opacity:1"
       d="m 175.78578,144.96408 c 0.88609,-0.11077 1.77743,-0.47909 2.65827,-0.33228 0.30901,0.0515 -0.41994,0.46886 -0.66457,0.66456 -2.61612,2.09291 0.8576,-0.94486 -2.32598,1.32914 -0.64611,0.46151 -1.04608,1.16914 -1.66142,1.66142 -0.31185,0.24947 -0.68501,0.41509 -0.99686,0.66457 -0.24462,0.1957 -0.41394,0.47659 -0.66457,0.66457 -0.19812,0.14859 -0.45848,0.19489 -0.66454,0.33227 -0.33476,0.22318 -0.57134,0.75782 -0.66458,0.66457 -0.42558,-0.42557 0.64433,-1.63105 0.66458,-1.66141 0.2215,-0.33228 0.40889,-0.69007 0.66454,-0.99685 0.30086,-0.36101 0.66457,-0.66457 0.99686,-0.99686 0.22152,-0.22152 0.41395,-0.4766 0.66457,-0.66456 1.62721,-1.22042 2.38786,-1.6235 4.31969,-2.32599 0.42918,-0.15607 0.87597,-0.27563 1.32912,-0.33227 0.43963,-0.055 0.89212,0.0728 1.32914,0 0.44005,-0.0734 1.21213,-0.89859 1.66142,0 0.18117,0.36233 -0.1779,0.43297 -0.33228,0.66455 -0.13738,0.20608 -0.18368,0.46643 -0.33229,0.66457 -0.18797,0.25063 -0.44304,0.44305 -0.66457,0.66457 -0.44304,0.44304 -0.83986,0.93772 -1.32913,1.32913 -0.31185,0.24948 -0.68501,0.41509 -0.99686,0.66457 -0.48925,0.3914 -0.83986,0.93773 -1.32912,1.32914 -0.3885,0.60301 -1.14475,0.60934 -1.66142,0.99684 -0.36266,0.272 -1.36049,1.64576 -1.9937,1.32914 -0.14011,-0.07 -0.22153,-0.22153 -0.33229,-0.33229 -0.11077,-0.11077 -0.33228,-0.17563 -0.33228,-0.33228 0,-0.14572 0.88478,-1.75089 0.99685,-1.99369 0.56084,-1.21516 1.10761,-2.43675 1.66142,-3.65513"
       id="path160-2-7"
       inkscape:connector-curvature="0"
       inkscape:export-xdpi="96"
       inkscape:export-ydpi="96" />
    <path
       style="fill:none;stroke:#000000;stroke-width:0.32894394px;stroke-linecap:butt;stroke-linejoin:miter;stroke-opacity:1"
       d="m 184.42516,145.96093 c -0.44305,0.33229 -0.8861,0.66457 -1.32914,0.99685 -0.22152,0.22153 -0.4239,0.46401 -0.66457,0.66457 -0.42544,0.35454 -0.87848,0.67496 -1.32914,0.99686 -0.32496,0.23211 -0.69005,0.4089 -0.99685,0.66456 -0.361,0.30083 -0.66457,0.66456 -0.99684,0.99686 -0.22153,0.22151 -0.4766,0.41394 -0.66457,0.66455 -0.1486,0.19814 -0.15716,0.48945 -0.33228,0.66457 -0.17514,0.17514 -0.44305,0.22152 -0.66457,0.33228 -0.22152,0.11078 -0.42961,0.25398 -0.66457,0.33229 -0.10505,0.0351 -0.22152,0 -0.33228,0 -0.29536,0 -0.5277,0.0783 -0.66457,-0.33229 -0.16139,-0.48413 0.18511,-1.29349 0.33228,-1.6614 0.092,-0.22997 0.15716,-0.48945 0.33229,-0.66457 0.28238,-0.28239 0.6544,-0.45911 0.99685,-0.66457 0.76572,-0.45944 1.50787,-0.97122 2.32598,-1.32914 0.96267,-0.42116 2.001,-0.64343 2.99055,-0.99685 1.80815,-0.64577 1.6871,-1.18082 3.65512,0 0.13432,0.0806 -0.2454,0.20195 -0.33227,0.33228 -1.77219,2.65828 1.21836,-1.21837 -0.99686,0.99686 -0.17513,0.17512 -0.18369,0.46643 -0.33228,0.66457 -0.18797,0.25061 -0.46887,0.41993 -0.66457,0.66456 -0.24948,0.31185 -0.38219,0.71446 -0.66457,0.99686 -0.78484,0.78482 -1.41382,0.67758 -2.32599,1.32912 -2.27929,1.62808 0.40608,0.49054 -2.32599,1.66142 -2.87421,1.23182 0.4778,-0.40504 -1.6614,0.66457 -0.22153,0.11077 -0.68104,0.5794 -0.66457,0.33228 0.11997,-1.79906 0.66457,-3.54435 0.99685,-5.31653"
       id="path162-9-5"
       inkscape:connector-curvature="0"
       inkscape:export-xdpi="96"
       inkscape:export-ydpi="96" />
    <path
       style="fill:none;stroke:#000000;stroke-width:0.32894394px;stroke-linecap:butt;stroke-linejoin:miter;stroke-opacity:1"
       d="m 171.13381,155.92944 c 0.88608,0.11078 1.76529,0.33229 2.65827,0.33229 0.35026,0 0.67165,-0.2022 0.99685,-0.33229 2.60191,-1.04077 2.26877,-4.90065 2.65827,-6.97795"
       id="path164-1-9"
       inkscape:connector-curvature="0"
       inkscape:export-xdpi="96"
       inkscape:export-ydpi="96" />
    <path
       style="fill:none;stroke:#000000;stroke-width:0.32894394px;stroke-linecap:butt;stroke-linejoin:miter;stroke-opacity:1"
       d="m 177.77948,157.25857 c 2.75198,0.78628 1.51963,0.66458 3.65512,0.66458 0.44304,0 0.89212,0.0729 1.32913,0 0.2443,-0.0407 0.44305,-0.22154 0.66457,-0.3323 0.88698,-0.44348 0.88565,-0.44215 1.32914,-1.32912"
       id="path166-2-2"
       inkscape:connector-curvature="0"
       inkscape:export-xdpi="96"
       inkscape:export-ydpi="96" />
    <path
       style="fill:none;stroke:#000000;stroke-width:0.32894394px;stroke-linecap:butt;stroke-linejoin:miter;stroke-opacity:1"
       d="m 171.46611,164.56882 c 0.99683,-0.11077 1.9895,-0.26972 2.99053,-0.3323 0.77383,-0.0484 1.55066,0 2.32599,0 0.99685,0 1.99369,0 2.99055,0 0.33228,0 0.66457,0 0.99685,0 0.44305,0 0.89054,-0.0627 1.32914,0 0.34674,0.0496 0.66456,0.22153 0.99685,0.3323 0.33228,0.11077 0.66457,0.22151 0.99685,0.33227 1.21278,0.40427 1.12641,0.25914 1.66142,1.32914 0.44061,0.88123 0.33229,0.70952 0.33229,1.66142 0,0.11077 0.0495,0.23322 0,0.33228 -0.0441,0.0883 -0.90864,0.95274 -0.99686,0.99685 -0.0991,0.0495 -0.2272,0.0351 -0.33228,0 -0.22152,-0.11077 -0.44305,-0.22152 -0.66457,-0.33228 -0.11077,0 -0.2272,0.0351 -0.33228,0 -0.23497,-0.0783 -0.59653,-0.57043 -0.66457,-0.33228 -0.46046,1.61162 -0.44305,3.32283 -0.66457,4.98425"
       id="path168-7-2"
       inkscape:connector-curvature="0"
       inkscape:export-xdpi="96"
       inkscape:export-ydpi="96" />
    <path
       style="fill:none;stroke:#000000;stroke-width:0.38618821px;stroke-linecap:butt;stroke-linejoin:miter;stroke-opacity:1"
       d="m 173.39392,179.79203 c -0.33471,0.0631 -0.67095,0.11965 -1.00416,0.18944 -1.47302,0.30877 -0.27203,0.0268 -1.205,0.37888 -0.19656,0.0741 -0.40596,0.11525 -0.60252,0.18945 -0.13901,0.0525 -0.26267,0.13694 -0.40167,0.18944 -0.19654,0.0741 -0.40593,0.11525 -0.60249,0.18943 -0.41049,0.15489 -0.80943,0.38176 -1.20501,0.56833 -0.1339,0.0631 -0.25645,0.1552 -0.40167,0.18944 -0.42423,0.10008 -0.42404,-0.16833 -0.80334,0.18944 -0.0473,0.0447 -0.0557,0.15441 0,0.18944 0.50307,0.31635 0.66589,0.12588 1.20501,0.18945 0.67745,0.0798 1.32844,0.32058 2.00834,0.37888 0.40002,0.0343 0.80453,-0.0291 1.20501,0 1.78948,0.12985 1.13651,0.23653 3.01251,0.56832 0.53048,0.0938 1.0762,0.0956 1.60668,0.18945 0.54257,0.096 1.06303,0.28838 1.60667,0.37888 0.59698,0.0994 1.20955,0.0954 1.8075,0.18944 0.6088,0.0957 1.1987,0.28318 1.80751,0.37888 1.62676,0.25575 3.95002,0.27599 5.42252,0.37888 1.20911,0.0845 2.40445,0.31545 3.615,0.37888 1.13632,0.0595 2.27865,-0.0714 3.4142,0 0.47231,0.0296 0.93386,0.1552 1.40584,0.18945 0.40047,0.0291 0.80333,0 1.20501,0 1.33889,0 2.67776,0 4.01666,0"
       id="path1130-9-8"
       inkscape:connector-curvature="0"
       inkscape:export-xdpi="96"
       inkscape:export-ydpi="96" />
    <path
       style="fill:none;stroke:#000000;stroke-width:0.26458332px;stroke-linecap:butt;stroke-linejoin:miter;stroke-opacity:1"
       d="m 171.46611,164.56882 c 0.6945,9.48577 0.65546,5.96045 0.65546,10.55628 0,0.35635 0,0.71271 0,1.06907 0,0.35636 -0.0864,0.72336 0,1.06908 0.0966,0.38653 0.35636,0.71272 0.53454,1.06908 0.35636,0.71272 0.71272,1.42544 1.06908,2.13816 0.17818,0.35636 0.4564,0.67839 0.53454,1.06907 0.10483,0.52416 -0.0879,1.07636 0,1.60362 0.0926,0.55579 0.35636,1.06908 0.53454,1.60362 0.35503,1.06509 0.93484,2.66786 1.06908,3.74177 0.0884,0.70722 -0.0884,1.43094 0,2.13816 0.0911,0.72898 0.44341,1.40917 0.53454,2.13815 0.0884,0.70722 -0.0884,1.43095 0,2.13816 0.0911,0.72898 0.44341,1.40917 0.53454,2.13816 0.0884,0.70721 0,1.42543 0,2.13815 0,0.8909 0,1.7818 0,2.6727 0,0.71272 0,1.42543 0,2.13815 0,0.8909 0.0887,1.78622 0,2.6727 0.0306,1.67793 -0.88767,3.17816 -1.06908,4.81085 -0.0984,0.88545 0.0984,1.78725 0,2.6727 -0.0811,0.73016 -0.37517,1.42099 -0.53454,2.13815 -0.5545,2.49527 -0.98327,5.00216 -1.60362,7.48355 -1.4477,5.79082 0.18367,-1.46931 -0.53454,4.27631 -0.0911,0.72898 -0.43064,1.41089 -0.53454,2.13816 -0.0756,0.52916 0.10484,1.07945 0,1.60361 -0.15627,0.78137 -0.87581,1.36511 -1.06907,2.13816 -0.0864,0.34572 0.11269,0.731 0,1.06908 -0.0797,0.23905 -0.42185,0.30916 -0.53454,0.53454 -0.0548,0.10964 -0.0754,1.52823 0,1.60361 0.39326,0.39327 0.9647,-0.43016 1.06907,-0.53454 1.49053,-1.49052 1.60362,-1.57749 1.60362,-3.74177 -3.7345,-0.62241 -2.12341,-0.53454 -4.81085,-0.53454 -0.53454,0 -1.07946,-0.10483 -1.60362,0 -0.52726,0.10546 -2.53776,1.46869 -2.67269,1.60362 -0.45427,0.45427 -0.6578,1.11009 -1.06908,1.60362 -0.9679,1.16148 -2.2233,2.05931 -3.20723,3.20723 -1.15958,1.35284 -2.11332,2.86985 -3.20724,4.27632 -0.70045,0.90057 -1.38018,1.81997 -2.13816,2.67269 -4.69199,5.27849 0.46908,-1.29036 -4.27631,4.81085 -1.09392,1.40647 -2.13815,2.85088 -3.20723,4.27631 -0.53454,0.71272 -1.13145,1.38268 -1.60362,2.13816 -1.35639,2.71277 -0.62707,1.47514 -2.13816,3.74177 -0.22993,0.34491 -1.43925,2.01522 -1.60362,2.6727 -0.12964,0.51858 0.16904,1.09651 0,1.60362 -0.12599,0.37797 -0.53453,0.67065 -0.53453,1.06907 0,0.17818 0.37517,-0.0797 0.53453,0 0.22539,0.1127 0.35636,0.35636 0.53454,0.53454"
       id="path1918"
       inkscape:connector-curvature="0"
       inkscape:export-xdpi="96"
       inkscape:export-ydpi="96" />
    <path
       style="fill:none;stroke:#000000;stroke-width:0.26458332px;stroke-linecap:butt;stroke-linejoin:miter;stroke-opacity:1"
       d="m 173.72519,232.85531 c 0.99702,0.33234 4.2967,1.26425 5.34539,2.13816 0.49354,0.41127 0.6578,1.11008 1.06908,1.60361 0.48395,0.58074 1.16423,0.98848 1.60362,1.60362 0.68099,0.9534 1.75717,3.85839 2.13816,4.81085 0.71271,1.7818 1.48233,3.54188 2.13815,5.34539 0.38511,1.05906 0.63565,2.16702 1.06908,3.20724 0.45972,1.10332 1.17454,2.09164 1.60362,3.20723 0.46565,1.21071 0.71271,2.49452 1.06907,3.74178 0.35636,1.24725 0.71272,2.49451 1.06908,3.74177 0.71272,2.49452 1.42544,4.98903 2.13816,7.48355 0.35636,1.24725 0.7774,2.47782 1.06908,3.74177 0.2437,1.05607 0.27167,2.15577 0.53454,3.20723 0.27331,1.09326 0.79576,2.11398 1.06907,3.20724 0.26287,1.05146 0.24937,2.1616 0.53454,3.20723 0.90969,3.33554 1.16729,1.75657 1.60362,4.81085 0.40041,2.80286 -0.5375,0.52862 0.53454,2.6727"
       id="path1920"
       inkscape:connector-curvature="0"
       inkscape:export-xdpi="96"
       inkscape:export-ydpi="96" />
    <path
       style="fill:none;stroke:#000000;stroke-width:0.26458332px;stroke-linecap:butt;stroke-linejoin:miter;stroke-opacity:1"
       d="m 173.39393,179.79203 c -0.6023,0.93887 -0.95676,2.09446 -1.80689,2.81661 -0.69393,0.58946 -3.47541,0.64896 -4.27632,0.53454 -0.55779,-0.0797 -1.12046,-0.24464 -1.60361,-0.53454 -0.8643,-0.51858 -1.27386,-1.61958 -2.13816,-2.13815 -0.48316,-0.2899 -1.09965,-0.28256 -1.60362,-0.53454 -0.57461,-0.28731 -1.029,-0.78177 -1.60361,-1.06908 -1.00794,-0.50397 -2.16093,-0.65056 -3.20724,-1.06908 -0.36992,-0.14797 -0.67839,-0.4564 -1.06908,-0.53454 -0.52415,-0.10483 -1.06907,0 -1.60361,0"
       id="path1922"
       inkscape:connector-curvature="0"
       inkscape:export-xdpi="96"
       inkscape:export-ydpi="96" />
    <rect
       style="fill:none;fill-opacity:0.44444448;stroke:#000000;stroke-width:0.34899998;stroke-miterlimit:4;stroke-dasharray:none;stroke-opacity:1"
       id="rect1992"
       width="265.13135"
       height="196.71037"
       x="-43.832203"
       y="61.802814"
       inkscape:export-xdpi="96"
       inkscape:export-ydpi="96" />
    <path
       style="fill:none;stroke:#000000;stroke-width:0.26458332px;stroke-linecap:butt;stroke-linejoin:miter;stroke-opacity:1"
       d="m 7.4835466,219.49184 c 0,-5.22786 -0.2160746,-0.30718 0.534539,-4.81086 0.4723284,-2.83397 0.5396058,-5.72877 1.0690781,-8.55262 0.2707767,-1.44414 0.7325489,-2.84606 1.0690783,-4.27631 0.376251,-1.59907 0.62941,-3.22805 1.069078,-4.81085 0.452415,-1.6287 1.094596,-3.19896 1.603617,-4.81086 1.12036,-3.5478 2.185134,-7.11343 3.207234,-10.69078 0.558113,-1.95339 1.012105,-3.93639 1.603618,-5.87993 0.656224,-2.15616 1.425437,-4.27631 2.138156,-6.41447 1.425437,-4.27631 2.74949,-8.58776 4.276312,-12.82893 1.681238,-4.67011 3.563594,-9.26535 5.345391,-13.89802 0.890897,-2.31633 1.781796,-4.63267 2.672693,-6.94901 2.101713,-5.46445 3.161057,-8.66941 5.879931,-13.89801 3.297918,-6.34215 3.928007,-6.27733 7.483546,-12.2944 1.135783,-1.92209 2.032104,-3.98164 3.207235,-5.87993 1.323628,-2.13817 5.753401,-8.178929 7.483546,-10.15624 1.161529,-1.327462 2.541534,-2.449206 3.741774,-3.741772 1.117801,-1.203788 2.000147,-2.62754 3.207235,-3.741774 1.269873,-1.172192 4.676044,-3.310523 6.414468,-4.276313 0.696566,-0.386982 1.425437,-0.712718 2.138156,-1.069078 0.356359,-0.178181 0.682551,-0.437906 1.069078,-0.53454 0.34572,-0.08643 0.75034,-0.159366 1.069078,0 0.450763,0.225383 0.675545,0.754253 1.069078,1.069078 0.501658,0.401328 1.19234,0.575546 1.603618,1.069078 1.164781,1.397738 1.266952,3.127529 1.603616,4.810853"
       id="path2013"
       inkscape:connector-curvature="0"
       inkscape:export-xdpi="96"
       inkscape:export-ydpi="96" />
    <path
       style="fill:none;stroke:#000000;stroke-width:0.26458332px;stroke-linecap:butt;stroke-linejoin:miter;stroke-opacity:1"
       d="m 58.799295,225.9063 c -0.356359,-0.71272 -0.817094,-1.3822 -1.069078,-2.13815 -0.112691,-0.33807 -0.0442,-0.71547 0,-1.06908 0.134432,-1.07546 0.400106,-2.13178 0.534538,-3.20723 0.222107,-1.77686 0.356359,-3.5636 0.53454,-5.3454 0.35636,-1.95997 0.799918,-3.90608 1.069078,-5.87993 0.265912,-1.95001 0.268629,-3.92991 0.534538,-5.87992 0.538708,-3.95051 1.761493,-9.03226 2.672697,-12.82894 1.021569,-4.25654 2.423951,-9.79813 3.741771,-13.89802 0.810567,-2.52176 1.781797,-4.98903 2.672697,-7.48354 1.54495,-4.32586 3.966654,-11.40176 5.87993,-15.50164 0.0024,-0.005 8.541631,-16.01492 8.552625,-16.03617 1.281308,-2.47719 2.387338,-5.04556 3.741772,-7.48354 1.32085,-2.37753 2.850874,-4.63268 4.276312,-6.94901 1.425437,-2.31634 2.850875,-4.63267 4.276312,-6.94901 4.753053,-7.72371 3.345931,-6.13083 9.087163,-12.82894 6.2967,-7.346149 2.97395,-3.389432 9.6217,-9.621698 1.28683,-1.206397 2.40253,-2.59385 3.74178,-3.741774 0.37695,-0.323096 6.16354,-4.418116 6.949,-4.810853 0.6571,-0.328546 1.44121,-0.30222 2.13816,-0.534537 0.46545,-0.155149 1.49565,-1.016421 2.13816,-0.534541 1.65795,1.243465 1.02988,1.72121 0.53454,3.207237"
       id="path2015"
       inkscape:connector-curvature="0"
       inkscape:export-xdpi="96"
       inkscape:export-ydpi="96" />
    <path
       style="fill:none;stroke:#000000;stroke-width:0.26458332px;stroke-linecap:butt;stroke-linejoin:miter;stroke-opacity:1"
       d="m 56.126599,103.49686 c 1.790337,0.28311 3.161641,1.53844 4.810852,2.13816 1.219071,0.44329 2.520175,0.63279 3.741772,1.06908 1.277922,0.4564 2.475246,1.11649 3.741775,1.60361 6.5508,2.51954 -0.131183,-0.18156 6.414468,1.60362 0.925716,0.25247 1.762408,0.76565 2.672697,1.06908 1.393907,0.46463 2.850874,0.71272 4.276312,1.06908 1.35164,0.33791 2.463678,0.55784 3.741772,1.06908 0.369927,0.14797 0.682553,0.4379 1.069078,0.53453 0.34572,0.0864 0.731006,-0.11269 1.069078,0 0.239053,0.0797 0.647231,0.30916 0.53454,0.53454 -0.178181,0.35636 -0.712719,0.35636 -1.069078,0.53454"
       id="path2017"
       inkscape:connector-curvature="0"
       inkscape:export-xdpi="96"
       inkscape:export-ydpi="96" />
    <path
       style="fill:none;stroke:#000000;stroke-width:0.26458332px;stroke-linecap:butt;stroke-linejoin:miter;stroke-opacity:1"
       d="m 40.624969,126.48204 c 2.510869,1.50652 2.617382,1.76336 5.34539,2.6727 1.303626,0.43454 3.539865,0.78663 4.81085,1.06907 6.794034,1.50979 -3.250086,-0.54311 4.810852,1.06908 0.890897,0.17818 1.802469,0.27347 2.672694,0.53454 0.919062,0.27572 1.762408,0.76565 2.672696,1.06908 0.696953,0.23232 1.45028,0.27659 2.138157,0.53454 0.746109,0.27979 1.382204,0.81709 2.138156,1.06908 0.861917,0.2873 1.822,0.21553 2.672693,0.53454 0.601533,0.22557 1.069078,0.71272 1.603619,1.06907 0.712719,0.17818 1.441201,0.30222 2.138156,0.53454 1.552646,0.51755 0.745855,0.55939 2.138156,1.60362 0.318738,0.23905 0.737571,0.31353 1.069078,0.53454 0.406921,0.27128 1.069078,1.17085 1.069078,1.60362 0,0.25198 -0.356359,0.35636 -0.534538,0.53453 -0.932963,0.93296 -0.295486,0.45486 -2.138156,1.06908"
       id="path2019"
       inkscape:connector-curvature="0"
       inkscape:export-xdpi="96"
       inkscape:export-ydpi="96" />
    <path
       style="fill:none;stroke:#000000;stroke-width:0.26458332px;stroke-linecap:butt;stroke-linejoin:miter;stroke-opacity:1"
       d="m 22.45064,163.36524 c 0.341652,-0.29775 3.386797,1.96066 3.741773,2.13815 0.858227,0.42911 1.781797,0.71272 2.672694,1.06908 0.8909,0.35636 1.753637,0.79336 2.672697,1.06908 0.870225,0.26107 1.785789,0.33745 2.672694,0.53454 0.717161,0.15937 1.42544,0.35636 2.138158,0.53454 1.263621,0.3159 3.58934,0.93335 4.81085,1.06907 0.708361,0.0787 1.430941,-0.0884 2.138156,0 0.72898,0.0911 1.425438,0.35636 2.138156,0.53454 0.712719,0.17818 1.425438,0.35636 2.138157,0.53454 0.712718,0.17818 1.410887,0.43065 2.138156,0.53454 0.529166,0.0756 1.076351,-0.0879 1.603618,0 0.555786,0.0926 1.051105,0.42404 1.603616,0.53454 0.34944,0.0699 0.72336,-0.0864 1.069078,0 0.386527,0.0966 0.691102,0.40855 1.069078,0.53454 0.169037,0.0563 0.408548,-0.12599 0.53454,0 0.454271,0.45427 -0.614807,1.14935 -1.069078,1.60362"
       id="path2021"
       inkscape:connector-curvature="0"
       inkscape:export-xdpi="96"
       inkscape:export-ydpi="96" />
    <path
       style="fill:none;stroke:#000000;stroke-width:0.26458332px;stroke-linecap:butt;stroke-linejoin:miter;stroke-opacity:1"
       d="m 13.363476,195.97212 c 2.128546,-0.73034 3.663738,-0.53454 5.87993,-0.53454 1.247257,0 2.498189,-0.0957 3.741773,0 1.080632,0.0831 2.12786,0.43641 3.207234,0.53454 0.887241,0.0807 1.786218,-0.0887 2.672694,0 1.465628,0.14656 3.349837,0.74441 4.810853,1.06908 0.886907,0.19708 1.810776,0.24723 2.672696,0.53453 0.755952,0.25199 1.425438,0.71272 2.138156,1.06908 1.425438,0.71272 2.892603,1.34747 4.276313,2.13816 0.557789,0.31874 1.029004,0.78177 1.603615,1.06908 2.634734,1.31736 0.654042,-0.43894 3.207235,1.60361 0.393533,0.31483 0.675544,0.75425 1.069078,1.06908 0.501657,0.40133 1.149347,0.61481 1.603618,1.06908 0.566563,1.13313 0.303829,0.88938 1.069078,1.60362 2.488597,2.32269 4.989031,4.63267 7.483546,6.949"
       id="path2023"
       inkscape:connector-curvature="0"
       inkscape:export-xdpi="96"
       inkscape:export-ydpi="96" />
    <path
       style="fill:none;stroke:#000000;stroke-width:0.26458332px;stroke-linecap:butt;stroke-linejoin:miter;stroke-opacity:1"
       d="m 92.475255,216.81914 c 0,1.06908 -0.09679,2.14255 0,3.20723 0.08226,0.90481 0.35636,1.7818 0.534538,2.6727 0.178181,1.06908 0.444534,2.12715 0.53454,3.20723 0.08878,1.06539 0,2.13816 0,3.20724 0,1.24726 0,2.49451 0,3.74177 0,1.24726 0.08886,2.49769 0,3.74177 -0.07066,0.98929 -0.858303,5.78975 -1.069078,6.94901 -0.162525,0.89389 -0.356359,1.7818 -0.53454,2.6727 -0.178178,0.8909 -0.215527,1.822 -0.534538,2.67269 -0.40459,1.0789 -1.355373,1.88992 -2.138156,2.6727 -0.178181,0.17818 -0.295487,0.45485 -0.53454,0.53454 -0.880499,0.2935 -1.406626,-0.16878 -2.138156,-0.53454"
       id="path2025"
       inkscape:connector-curvature="0"
       inkscape:export-xdpi="96"
       inkscape:export-ydpi="96" />
    <path
       style="fill:none;stroke:#000000;stroke-width:0.26458332px;stroke-linecap:butt;stroke-linejoin:miter;stroke-opacity:1"
       d="m 92.475253,216.81914 c 0.890899,-1.95998 1.232447,-4.27965 2.672696,-5.87993 0.491458,-0.54606 1.441204,0.30222 2.138156,0.53454 0.910288,0.30343 1.741818,0.83636 2.672697,1.06908 1.222308,0.30557 2.498998,0.32741 3.741768,0.53454 3.05124,0.50854 2.55228,0.81184 5.87993,0.53453 1.08009,-0.09 2.12661,-0.45141 3.20724,-0.53453 1.24358,-0.0957 2.49768,0.0889 3.74177,0 1.25672,-0.0898 2.49452,-0.35636 3.74177,-0.53454 1.24726,-0.17818 2.51412,-0.25124 3.74178,-0.53454 1.09805,-0.2534 2.10918,-0.81569 3.20723,-1.06908 1.22766,-0.2833 2.50982,-0.27055 3.74177,-0.53454 4.22524,-0.90541 3.0325,-1.07001 6.94901,-2.13816 0.87653,-0.23905 1.80247,-0.27347 2.6727,-0.53453 0.91906,-0.27572 1.76241,-0.76565 2.67269,-1.06908 0.69696,-0.23232 1.44121,-0.30222 2.13816,-0.53454 0.37798,-0.12599 0.68255,-0.43791 1.06908,-0.53454 0.34572,-0.0864 0.71272,0 1.06908,0 1.2438,0 2.35667,0.0235 2.67269,1.60362 0.10483,0.52415 0,1.06907 0,1.60361 0,0.71272 0,1.42544 0,2.13816 0,1.7818 0.14797,3.56975 0,5.34539 -0.09,1.08008 -0.44453,2.12715 -0.53454,3.20724 -0.0888,1.06538 0.0888,2.14184 0,3.20723 -0.09,1.08008 -0.36973,2.13601 -0.53454,3.20723 -1.37563,8.9416 0.26428,-1.05109 -1.06907,6.94901 -0.5665,3.39895 -1.04648,6.8812 -2.13816,10.15624 -0.18213,0.5464 -1.1489,3.28706 -1.60362,3.74178 -0.12599,0.12599 -0.35636,0 -0.53454,0 -0.17818,0 -0.35636,0 -0.53454,0 -0.62095,0 -2.18811,0.12114 -2.67269,0 -0.38653,-0.0966 -0.68255,-0.43791 -1.06908,-0.53454 -0.34572,-0.0864 -0.72336,0.0864 -1.06908,0 -0.38652,-0.0966 -0.67839,-0.4564 -1.06908,-0.53454 -0.52415,-0.10483 -1.06907,0 -1.60361,0 -0.71272,0 -1.4298,0.0787 -2.13816,0 -0.90298,-0.10033 -1.76971,-0.43421 -2.6727,-0.53454 -0.70835,-0.0787 -1.42979,0.0787 -2.13815,0 -0.90298,-0.10033 -1.76866,-0.44414 -2.67269,-0.53454 -0.88648,-0.0887 -1.78546,0.0807 -2.6727,0 -1.07937,-0.0981 -2.12715,-0.44453 -3.20724,-0.53454 -1.06538,-0.0888 -2.13815,0 -3.20723,0 -2.31633,0 -4.63267,0 -6.94901,0 -5.34539,0 -10.690779,0 -16.036169,0 -6.138106,0 0.443444,-0.21607 -4.81085,0.53454 -0.529167,0.0756 -1.076351,-0.0879 -1.603618,0 -3.883377,0.64723 0.18787,0.53454 -2.672694,0.53454 -0.178181,0 -0.577755,-0.17286 -0.53454,0 0.546629,2.18652 1.425437,4.27631 2.138156,6.41447"
       id="path2027"
       inkscape:connector-curvature="0"
       inkscape:export-xdpi="96"
       inkscape:export-ydpi="96" />
    <path
       style="fill:none;stroke:#000000;stroke-width:0.26458332px;stroke-linecap:butt;stroke-linejoin:miter;stroke-opacity:1"
       d="m 99.958802,139.31098 c 0.178178,0.71272 0.430648,1.41088 0.534538,2.13815 0.0756,0.52917 0,1.06908 0,1.60362 0,0.53454 0,1.06908 0,1.60362 0,0.53454 0,1.06908 0,1.60361 0,1.15718 -0.15937,1.0973 0.53454,2.13816 0.71634,1.07451 0.38181,0.12727 1.60362,0.53454 0.23905,0.0797 0.30915,0.42185 0.53454,0.53454 0.28343,0.14172 2.30904,-0.12121 2.67269,0 0.54499,0.18166 0.85078,1.31255 1.06908,1.60362 0.30238,0.40317 0.71272,0.71272 1.06908,1.06908 0.8909,0.89089 1.78179,1.78179 2.67269,2.67269 0.53454,0.53454 1.02966,1.11165 1.60362,1.60362 0.67642,0.57979 1.50819,0.97365 2.13816,1.60362 0.62996,0.62996 1.02382,1.46173 1.60361,2.13815 0.49197,0.57396 1.06908,1.06908 1.60362,1.60362 0.53454,0.53454 0.98847,1.16423 1.60362,1.60362 0.64842,0.46315 1.4463,0.67373 2.13815,1.06907 1.11558,0.63748 2.05801,1.56355 3.20724,2.13816 0.50396,0.25198 1.08046,0.32528 1.60362,0.53454 1.24635,0.49854 1.15311,0.81581 2.67269,1.06908 0.45296,0.0755 5.0484,0.0424 5.34539,0 0.55779,-0.0797 1.05111,-0.42404 1.60362,-0.53454 0.34944,-0.0699 0.71964,0.0699 1.06908,0 1.10502,-0.22101 2.09565,-0.88382 3.20723,-1.06908 0.87878,-0.14646 1.7818,0 2.6727,0 0.35636,0 0.71271,0 1.06907,0 0.35636,0 0.72336,-0.0864 1.06908,0 0.77305,0.19326 1.3822,0.81709 2.13816,1.06908 1.59121,0.53054 -1.09677,-1.26572 1.60361,0.53454 0.41933,0.27955 0.64975,0.78952 1.06908,1.06907 0.76418,0.50946 2.21986,0.69795 2.6727,1.60362 0.21381,0.42763 -0.21382,1.17599 0,1.60362 0.55794,1.11588 1.58021,-0.0468 2.13815,1.06908 0.0797,0.15937 0,0.35636 0,0.53454 0,0.17817 0,0.35636 0,0.53453 0,0.55589 -0.10511,2.78676 0,3.20724 0.38758,1.55032 0.41704,0.62555 1.06908,1.60362 0.22101,0.3315 0.35636,0.71272 0.53454,1.06907 0.17818,0.35636 0.43794,0.68256 0.53454,1.06908 0.0864,0.34572 0,0.71272 0,1.06908 0,0.35636 0.0864,0.72336 0,1.06908 -0.20002,0.80008 -1.3162,2.09786 -1.60362,2.67269 -0.25198,0.50397 -0.28255,1.09965 -0.53454,1.60362 -0.2873,0.57461 -0.75034,1.04583 -1.06907,1.60362 -0.79069,1.38371 -1.42544,2.85087 -2.13816,4.27631 -0.35636,0.71272 -0.78929,1.39205 -1.06908,2.13816 -0.25795,0.68787 -0.33271,1.43177 -0.53454,2.13815 -0.15479,0.54178 -0.44194,1.04783 -0.53454,1.60362 -0.2207,1.32419 0.17368,2.47875 0.53454,3.74177 0.15479,0.54178 0.25499,1.11441 0.53454,1.60362 0.44201,0.77352 1.06908,1.42544 1.60362,2.13816 -1.60362,-0.53454 -3.27607,-0.89526 -4.81085,-1.60362 -0.8089,-0.37334 -1.42544,-1.06908 -2.13816,-1.60361 -0.71272,-0.53454 -1.42543,-1.06908 -2.13815,-1.60362 -0.35636,-0.35636 -0.67555,-0.75425 -1.06908,-1.06908 -0.50166,-0.40133 -1.10196,-0.66775 -1.60362,-1.06908 -0.39353,-0.31482 -0.63693,-0.80979 -1.06908,-1.06908 -0.48315,-0.28989 -1.08046,-0.32527 -1.60361,-0.53454 -0.73985,-0.29594 -1.39831,-0.77313 -2.13816,-1.06907 -0.52315,-0.20926 -1.06908,-0.35636 -1.60362,-0.53454 -0.53454,-0.17818 -1.04783,-0.44191 -1.60361,-0.53454 -2.50827,-0.41805 -0.85141,0.70419 -3.74178,-0.53454 -0.59049,-0.25307 -1.01312,-0.81601 -1.60361,-1.06908 -0.67526,-0.28939 -1.43177,-0.33271 -2.13816,-0.53454 -0.54178,-0.15479 -1.06908,-0.35636 -1.60362,-0.53454 -0.53454,-0.17818 -1.0511,-0.42403 -1.60362,-0.53454 -1.6301,-0.32602 -0.73483,0.62818 -2.67269,-0.53454 -0.64822,-0.38893 -1.06908,-1.06907 -1.60362,-1.60361"
       id="path2029"
       inkscape:connector-curvature="0"
       inkscape:export-xdpi="96"
       inkscape:export-ydpi="96" />
    <path
       style="fill:none;stroke:#000000;stroke-width:0.26458332px;stroke-linecap:butt;stroke-linejoin:miter;stroke-opacity:1"
       d="m 92.475253,216.81914 c 2.316337,-1.24726 5.088757,-1.88152 6.949008,-3.74177 0.563454,-0.56346 -1.475142,-0.62707 -2.138156,-1.06908 -0.94929,-0.63286 -1.738027,-1.48389 -2.672694,-2.13816 -2.967683,-2.07738 -2.041236,-1.09006 -4.810852,-2.67269 -1.115581,-0.63748 -2.105464,-1.4771 -3.207234,-2.13816 -0.341644,-0.20499 -0.75034,-0.29549 -1.069078,-0.53454 -0.403175,-0.30238 -0.665904,-0.7667 -1.069078,-1.06908 -0.318739,-0.23905 -0.78735,-0.25281 -1.069079,-0.53454 -0.281725,-0.28172 -0.313533,-0.73757 -0.534537,-1.06907 -0.139777,-0.20967 -0.35636,-0.35636 -0.534541,-0.53454 -0.356359,-0.35636 -0.665903,-0.7667 -1.069078,-1.06908 -0.318738,-0.23905 -0.737571,-0.31354 -1.069078,-0.53454 -0.209663,-0.13977 -0.324874,-0.39476 -0.534537,-0.53454 -0.663014,-0.44201 -1.475142,-0.62707 -2.138156,-1.06908 -0.209664,-0.13977 -0.295487,-0.45485 -0.534541,-0.53454 -1.981594,-0.66053 -0.350028,0.71905 -1.603616,-0.53453"
       id="path2031"
       inkscape:connector-curvature="0"
       inkscape:export-xdpi="96"
       inkscape:export-ydpi="96" />
    <path
       style="fill:none;stroke:#000000;stroke-width:0.26458332px;stroke-linecap:butt;stroke-linejoin:miter;stroke-opacity:1"
       d="m 75.370004,197.0412 c 1.147786,13.19952 0.262337,8.26068 1.603618,14.96709 0.178181,0.8909 0.434208,1.76971 0.534541,2.67269 0.0787,0.70836 -0.0884,1.43094 0,2.13816 0.182245,1.45796 0.906819,2.81599 1.069078,4.27631 0.09838,0.88545 0,1.7818 0,2.6727 0,0.71272 0.100793,1.4326 0,2.13815 -0.07968,0.5578 -0.35636,1.06908 -0.534541,1.60362 -0.356359,1.06908 -0.650555,2.16093 -1.069078,3.20724 -0.295939,0.73984 -0.712719,1.42543 -1.069078,2.13815 -0.178178,0.35636 -0.408546,0.6911 -0.534538,1.06908 -0.05635,0.16903 0.07968,0.37517 0,0.53454 -0.660532,1.32106 -0.53454,0.31946 -0.53454,0"
       id="path2033"
       inkscape:connector-curvature="0"
       inkscape:export-xdpi="96"
       inkscape:export-ydpi="96" />
    <path
       style="fill:none;stroke:#000000;stroke-width:0.26458332px;stroke-linecap:butt;stroke-linejoin:miter;stroke-opacity:1"
       d="m 74.835466,234.45893 c 1.069078,1.78179 1.940309,3.69838 3.207234,5.34539 0.54319,0.70615 1.425438,1.06908 2.138156,1.60362 0.243383,0.18253 3.133839,2.41215 3.741775,2.67269 0.675254,0.2894 1.431769,0.33271 2.138156,0.53454 0.541774,0.15479 1.061842,0.37975 1.603616,0.53454 1.412774,0.40365 2.863537,0.66543 4.276312,1.06908 1.083548,0.30958 2.138156,0.71271 3.207234,1.06907 0.53454,0.17819 1.051108,0.42404 1.603618,0.53454 0.698879,0.13978 1.446718,-0.17286 2.138157,0 0.546629,0.13666 1.205196,0.93297 1.603616,0.53454 0.12599,-0.12599 0,-0.35636 0,-0.53454 0,-0.17818 0,-0.35635 0,-0.53454"
       id="path2035"
       inkscape:connector-curvature="0"
       inkscape:export-xdpi="96"
       inkscape:export-ydpi="96" />
    <path
       style="fill:none;stroke:#000000;stroke-width:0.26458332px;stroke-linecap:butt;stroke-linejoin:miter;stroke-opacity:1"
       d="m 75.370004,197.0412 c 1.781799,-1.60362 3.350831,-3.48115 5.345393,-4.81086 1.116303,-0.7442 4.829106,-0.53453 5.879928,-0.53453 7.115201,0 -2.292091,0.14646 5.87993,-0.53454 1.065385,-0.0888 2.14185,0.0888 3.207234,0 3.205922,-0.26716 2.896799,-0.67133 5.879931,-1.06908 1.77497,-0.23667 3.57041,-0.29788 5.34539,-0.53454 0.90057,-0.12008 1.76788,-0.45228 2.67269,-0.53454 1.06469,-0.0968 2.14255,0.0968 3.20724,0 0.90481,-0.0823 1.76866,-0.44414 2.67269,-0.53454 1.59566,-0.15957 3.21962,0.1989 4.81085,0 0.72898,-0.0911 1.40918,-0.44342 2.13816,-0.53454 0.70722,-0.0884 1.42544,0 2.13816,0 0.8909,0 1.78179,0 2.67269,0 2.31634,0 4.63267,0 6.94901,0"
       id="path2037"
       inkscape:connector-curvature="0"
       inkscape:export-xdpi="96"
       inkscape:export-ydpi="96" />
    <flowRoot
       xml:space="preserve"
       id="flowRoot2039"
       style="font-style:normal;font-weight:normal;font-size:40px;line-height:1.25;font-family:sans-serif;letter-spacing:0px;word-spacing:0px;fill:#000000;fill-opacity:1;stroke:none"
       transform="matrix(0.26458333,0,0,0.26458333,5.3453905,-3.7417734)"
       inkscape:export-xdpi="96"
       inkscape:export-ydpi="96"><flowRegion
         id="flowRegion2041"><rect
           id="rect2043"
           width="179.80716"
           height="68.690384"
           x="349.51279"
           y="819.47394" /></flowRegion><flowPara
         id="flowPara2045">soudure</flowPara></flowRoot>  </g>
</svg>
