<?xml version="1.0" encoding="UTF-8" standalone="no"?>
<!-- Created with Inkscape (http://www.inkscape.org/) -->

<svg
   xmlns:dc="http://purl.org/dc/elements/1.1/"
   xmlns:cc="http://creativecommons.org/ns#"
   xmlns:rdf="http://www.w3.org/1999/02/22-rdf-syntax-ns#"
   xmlns:svg="http://www.w3.org/2000/svg"
   xmlns="http://www.w3.org/2000/svg"
   xmlns:sodipodi="http://sodipodi.sourceforge.net/DTD/sodipodi-0.dtd"
   xmlns:inkscape="http://www.inkscape.org/namespaces/inkscape"
   width="210mm"
   height="297mm"
   viewBox="0 0 210 297"
   version="1.1"
   id="svg8"
   inkscape:version="0.92.4 (5da689c313, 2019-01-14)"
   sodipodi:docname="Gen-02.svg">
  <defs
     id="defs2" />
  <sodipodi:namedview
     id="base"
     pagecolor="#ffffff"
     bordercolor="#666666"
     borderopacity="1.0"
     inkscape:pageopacity="0.0"
     inkscape:pageshadow="2"
     inkscape:zoom="0.7"
     inkscape:cx="824.63946"
     inkscape:cy="751.43726"
     inkscape:document-units="mm"
     inkscape:current-layer="layer1"
     showgrid="false"
     inkscape:window-width="1920"
     inkscape:window-height="1031"
     inkscape:window-x="0"
     inkscape:window-y="25"
     inkscape:window-maximized="1" />
  <metadata
     id="metadata5">
    <rdf:RDF>
      <cc:Work
         rdf:about="">
        <dc:format>image/svg+xml</dc:format>
        <dc:type
           rdf:resource="http://purl.org/dc/dcmitype/StillImage" />
        <dc:title></dc:title>
      </cc:Work>
    </rdf:RDF>
  </metadata>
  <g
     inkscape:label="Calque 1"
     inkscape:groupmode="layer"
     id="layer1">
    <rect
       style="fill:#001400;fill-opacity:0.44444448;stroke:#000000;stroke-width:2.752;stroke-miterlimit:0;stroke-dasharray:none;stroke-opacity:0.44609669"
       id="rect815"
       width="93.738091"
       height="59.720234"
       x="22.678572"
       y="58.875"
       inkscape:export-xdpi="96"
       inkscape:export-ydpi="96" />
    <path
       style="fill:none;stroke:#000000;stroke-width:0.26458332px;stroke-linecap:butt;stroke-linejoin:miter;stroke-opacity:1"
       d="m 33.493884,129.82918 c -0.693907,-1.38782 -0.534538,-0.67066 -0.534538,-2.13816 0,-0.26727 -0.06482,-0.54252 0,-0.80181 0.03056,-0.12223 0.210924,-0.15458 0.267269,-0.26727 0.07969,-0.15937 -0.178181,-0.53454 0,-0.53454 0.08909,0 0.08909,0.26727 0,0.26727 -1.966309,0 1.322917,-0.88642 -1.336347,0 -0.267271,0.0891 -0.53454,0.17818 -0.801809,0.26727 -0.267269,0.0891 -0.560229,0.12232 -0.801809,0.26727 -0.216075,0.12965 -0.337772,0.37713 -0.534538,0.53454 -0.25083,0.20066 -0.574675,0.3074 -0.801809,0.53454 -0.227137,0.22714 -0.328901,0.55504 -0.53454,0.80181 -0.483947,0.58074 -1.11165,1.02965 -1.603616,1.60361 -0.289896,0.33822 -0.53454,0.71272 -0.801809,1.06908 -0.801809,1.06908 -1.603616,2.13816 -2.405425,3.20724 -0.534541,0.71272 -1.085795,1.4132 -1.603619,2.13815 -0.186703,0.26139 -0.390884,0.51451 -0.534537,0.80181 -0.125992,0.25199 -0.122322,0.56023 -0.267269,0.80181 -0.129646,0.21608 -0.38335,0.33295 -0.53454,0.53454 -0.119526,0.15937 -0.156769,0.36879 -0.267269,0.53454 -0.139777,0.20966 -0.35636,0.35636 -0.534541,0.53454 -0.178178,0.17818 -0.356359,0.35636 -0.534537,0.53454 -0.08909,0.0891 -0.141277,0.26727 -0.267272,0.26727 -0.330263,0 -0.267269,-0.37481 -0.267269,-0.53454"
       id="path817"
       inkscape:connector-curvature="0"
       inkscape:export-xdpi="96"
       inkscape:export-ydpi="96" />
    <path
       style="fill:none;stroke:#000000;stroke-width:0.26458332px;stroke-linecap:butt;stroke-linejoin:miter;stroke-opacity:1"
       d="m 33.493884,129.82918 c -0.08909,-1.15817 -0.267269,-2.31292 -0.267269,-3.47451 0,-0.36733 0.166357,0.71589 0.267269,1.06908 0.323334,1.13167 0.162891,0.53875 0.801809,1.60362 0.102495,0.17082 0.147744,0.37517 0.267269,0.53454 0.151191,0.20158 0.404895,0.31846 0.53454,0.53454 0.144947,0.24157 0.156293,0.54286 0.267269,0.8018 0.156946,0.36621 0.394645,0.69603 0.534541,1.06908 0.128976,0.34394 0.151109,0.7206 0.267269,1.06908 0.151714,0.45514 0.396679,0.87682 0.534537,1.33635 0.130535,0.43511 0.123616,0.90539 0.267272,1.33634 0.125992,0.37798 0.394642,0.69603 0.534537,1.06908 0.128977,0.34394 0.178181,0.71272 0.267269,1.06908 0.178181,0.71272 0.332716,1.43177 0.534541,2.13816 0.154791,0.54177 0.325276,1.08046 0.534537,1.60361 0.147971,0.36993 0.43791,0.68256 0.534541,1.06908 0.04321,0.17286 -0.04321,0.36168 0,0.53454 0.04832,0.19327 0.204274,0.34555 0.267269,0.53454 0.02817,0.0845 -0.02817,0.18275 0,0.26727 0.063,0.18899 0.178181,0.35636 0.267268,0.53454 0.134274,0.26855 0.400267,0.80053 0.534541,1.06908 0.108508,0.21702 0.262451,0.66576 0.534537,0.80181 0.465249,0.23262 0.227674,-0.37616 0.267272,-0.53454 0.04832,-0.19327 0.178178,-0.35636 0.267269,-0.53454"
       id="path819"
       inkscape:connector-curvature="0"
       inkscape:export-xdpi="96"
       inkscape:export-ydpi="96" />
    <path
       style="fill:none;stroke:#000000;stroke-width:0.26458332px;stroke-linecap:butt;stroke-linejoin:miter;stroke-opacity:1"
       d="m 33.493884,129.82918 c -0.374549,-1.34838 -0.847804,-4.243 -1.870887,-5.87993 -0.589696,-0.94352 -0.902004,-0.86845 -1.069078,-1.87089 -0.04394,-0.26363 0,-0.53454 0,-0.80181 0,-0.26727 0,-0.53454 0,-0.80181 0,-1.33634 0,-2.67269 0,-4.00904 0,-0.62363 0,-1.24726 0,-1.87089 0,-0.26727 0.04394,-0.53817 0,-0.8018 -0.04632,-0.2779 -0.220954,-0.52392 -0.267269,-0.80181 -0.04394,-0.26364 0.04394,-0.53818 0,-0.80181 -0.04631,-0.2779 -0.220954,-0.52392 -0.267269,-0.80181 -0.04394,-0.26364 0,-0.53454 0,-0.80181 0,-0.26727 0,-0.53454 0,-0.80181 0,-0.8909 0,-1.78179 0,-2.67269 0,-0.26727 0,-0.53454 0,-0.80181 0,-0.26727 -0.04394,-0.53818 0,-0.80181 0.04631,-0.27789 0.220954,-0.52391 0.267269,-0.80181 0.03261,-0.19567 0.03261,-2.20976 0,-2.40542 -0.04631,-0.2779 -0.220954,-0.52392 -0.267269,-0.80181 -0.120901,-0.72541 0.120901,-1.680019 0,-2.405429 -0.168661,-1.01197 -0.440997,-0.56125 -0.267269,-1.60362 0.04632,-0.27789 0.220954,-0.52391 0.267269,-0.80181 0.04394,-0.26363 0,-0.53453 0,-0.8018 0,-0.80181 0,-1.60362 0,-2.40543 0,-0.53454 0,-1.06908 0,-1.60362 0,-0.26727 0.05242,-0.53972 0,-0.8018 -0.03907,-0.19535 -0.218953,-0.34128 -0.267269,-0.53455 -0.08643,-0.34571 0.08643,-0.72336 0,-1.06908 -0.04832,-0.19326 -0.218956,-0.34127 -0.267271,-0.53453 -0.04321,-0.17286 0,-0.35636 0,-0.53454 0,-0.53454 0,-1.06908 0,-1.60362 0,-0.0891 0,-0.17818 0,-0.26727 0,-0.0891 0.03984,-0.18759 0,-0.26727 -0.05634,-0.11269 -0.210923,-0.15458 -0.267269,-0.26727 -0.03984,-0.0797 0,-0.17818 0,-0.26727 0,-0.17818 0.05635,-0.3655 0,-0.53454 -0.03984,-0.11952 -0.267269,-0.14128 -0.267269,-0.26727 0,-0.12599 0.227428,-0.14774 0.267269,-0.26727 0.05635,-0.16904 0,-0.35636 0,-0.53454"
       id="path821"
       inkscape:connector-curvature="0"
       inkscape:export-xdpi="96"
       inkscape:export-ydpi="96" />
    <path
       style="fill:none;stroke:#000000;stroke-width:0.26458332px;stroke-linecap:butt;stroke-linejoin:miter;stroke-opacity:1"
       d="m 25.4758,77.444341 c -1.080529,1.39243 -1.857769,2.22999 -1.603618,4.00905 0.03984,0.27889 0.189873,0.53092 0.267269,0.80181 0.100912,0.35319 0.138292,0.72513 0.267271,1.06907 0.440542,1.17479 0.505132,0.88398 1.069078,1.87089 0.475295,0.83177 0.477113,1.16053 1.069078,1.87089 0.422209,0.50665 1.002938,1.03601 1.603616,1.33635 0.251984,0.12599 0.53454,0.17818 0.801809,0.26727 0.267269,0.0891 0.522256,0.23232 0.801809,0.26727 0.442008,0.0553 0.890897,0 1.336347,0 0.356359,0 0.723358,0.0864 1.069078,0 0.386527,-0.0966 0.712719,-0.35636 1.069078,-0.53454 0.35636,-0.17818 0.712719,-0.35636 1.069078,-0.53454 0.35636,-0.17818 0.731216,-0.32338 1.069078,-0.53454 0.981501,-0.61344 1.30932,-1.04205 2.138156,-1.87089 0.267269,-0.26727 0.555827,-0.51483 0.80181,-0.80181 0.497268,-0.58015 0.913304,-1.23632 1.336347,-1.87089 0.178181,-0.26727 0.432961,-0.49707 0.53454,-0.80181 0.282657,-0.84797 -0.377344,-1.76872 -0.801809,-2.40542 -0.525595,-0.7884 -0.56464,-0.96053 -1.336347,-1.60362 -0.936281,-0.78023 -2.117418,-1.11926 -3.207237,-1.60362 -0.364083,-0.16181 -0.6911,-0.40855 -1.069078,-0.53454 -0.430959,-0.14365 -0.890897,-0.17818 -1.336347,-0.26727 -0.44545,-0.0891 -0.890897,-0.17818 -1.336347,-0.26727 -1.773147,-0.35463 -0.882076,-0.26727 -2.672696,-0.26727 -0.445448,0 -0.893623,-0.0492 -1.336347,0 -0.36508,0.0406 -0.703998,0.22671 -1.069078,0.26727 -0.442725,0.0492 -0.89434,-0.0553 -1.336347,0 -0.279551,0.0349 -0.53454,0.17818 -0.801809,0.26727 -0.990796,0.33027 -0.549826,0.14128 -1.336347,0.53454"
       id="path823"
       inkscape:connector-curvature="0"
       inkscape:export-xdpi="96"
       inkscape:export-ydpi="96" />
    <path
       style="fill:none;stroke:#000000;stroke-width:0.26458332px;stroke-linecap:butt;stroke-linejoin:miter;stroke-opacity:1"
       d="m 30.019381,100.16226 c -0.44545,0.0891 -0.911,0.10776 -1.336347,0.26727 -0.873852,0.32769 -1.023154,0.90706 -1.603618,1.60361 -0.161317,0.19358 -0.35636,0.35636 -0.534538,0.53454 -0.267271,0.26727 -0.511439,0.55984 -0.801809,0.80181 -0.246766,0.20564 -0.53454,0.35636 -0.801809,0.53454 -0.534538,0.35636 -1.069078,0.71272 -1.603616,1.06908 -0.963734,0.64249 -1.903227,1.35252 -2.939965,1.87089"
       id="path829"
       inkscape:connector-curvature="0"
       inkscape:export-xdpi="96"
       inkscape:export-ydpi="96" />
    <path
       style="fill:none;stroke:#000000;stroke-width:0.26458332px;stroke-linecap:butt;stroke-linejoin:miter;stroke-opacity:1"
       d="m 30.019381,100.16226 c 0.534538,-0.534539 0.905814,-1.312869 1.603616,-1.603619 0.500229,-0.20843 1.069078,0.17818 1.603618,0.26727 0.141928,0.0236 2.673146,0.42781 2.939966,0.53454 1.436139,0.57446 1.132236,0.741399 2.138156,1.603619 1.058277,0.90709 1.168966,0.60743 1.870887,1.87088 0.232992,0.41939 0.319982,0.90724 0.534538,1.33635 0.232317,0.46464 0.569491,0.87171 0.801809,1.33635 0.214556,0.42911 0.301545,0.91696 0.534537,1.33635 0.216332,0.38939 0.534541,0.71272 0.80181,1.06908 0.267269,0.35635 0.53454,0.71271 0.801809,1.06907"
       id="path831"
       inkscape:connector-curvature="0"
       inkscape:export-xdpi="96"
       inkscape:export-ydpi="96" />
    <circle
       style="fill:#001400;fill-opacity:0.44444448;stroke:#000000;stroke-width:2.75199986;stroke-miterlimit:0;stroke-dasharray:none;stroke-opacity:0.44609668"
       id="path837"
       cx="99.023354"
       cy="72.09269"
       r="4.4099469"
       inkscape:export-xdpi="96"
       inkscape:export-ydpi="96" />
    <circle
       style="fill:#001400;fill-opacity:0.44444448;stroke:#000000;stroke-width:2.75199986;stroke-miterlimit:0;stroke-dasharray:none;stroke-opacity:0.44609668"
       id="path839"
       cx="66.282845"
       cy="101.62598"
       r="12.561667"
       inkscape:export-xdpi="96"
       inkscape:export-ydpi="96" />
    <path
       style="fill:none;stroke:#000000;stroke-width:0.765;stroke-linecap:butt;stroke-linejoin:miter;stroke-opacity:1;stroke-miterlimit:4;stroke-dasharray:none"
       d="m 74.434561,85.456166 c 1.26949,-1.523383 0.148572,-0.332671 1.069079,-1.069078 0.09838,-0.0787 0.166475,-0.191672 0.267271,-0.267269 0.159369,-0.119525 0.368784,-0.156765 0.534538,-0.267268 0.05242,-0.03494 0.08122,-0.09869 0.133635,-0.133636 0.08288,-0.05525 0.172776,-0.102137 0.267269,-0.133633 0.149858,-0.04995 0.322305,0.102163 0.400905,-0.133636 0.02817,-0.08452 0,-0.178178 0,-0.267269"
       id="path841"
       inkscape:connector-curvature="0"
       inkscape:export-xdpi="96"
       inkscape:export-ydpi="96" />
    <path
       style="fill:none;stroke:#000000;stroke-width:0.765;stroke-linecap:butt;stroke-linejoin:miter;stroke-opacity:1;fill-opacity:0.44444448;stroke-miterlimit:4;stroke-dasharray:none"
       d="m 82.185379,79.442603 c 0.133633,-0.178179 0.261768,-0.360619 0.400905,-0.534538 0.217334,-0.271672 0.439073,-0.539983 0.668173,-0.801809 0.08297,-0.09482 0.166476,-0.191675 0.267269,-0.267269 0.159369,-0.119528 0.368787,-0.156768 0.534541,-0.267272 0.05241,-0.03494 0.07387,-0.113712 0.133633,-0.133633 5.29e-4,-2.01e-4 0.400777,1.27e-4 0.400904,0 0.0315,-0.0315 -0.04454,-0.133635 0,-0.133635 0.04455,0 0,0.08909 0,0.133635"
       id="path843"
       inkscape:connector-curvature="0"
       inkscape:export-xdpi="96"
       inkscape:export-ydpi="96" />
    <path
       style="fill:none;stroke:#000000;stroke-width:0.765;stroke-linecap:butt;stroke-linejoin:miter;stroke-opacity:1;stroke-miterlimit:4;stroke-dasharray:none"
       d="m 88.466212,75.032657 c 0.08909,-0.178181 0.137626,-0.383288 0.267271,-0.53454 0.0045,-0.0052 1.047012,-0.783421 1.069078,-0.801809 0.09679,-0.08066 0.154578,-0.210923 0.267269,-0.267269 0.07968,-0.03984 0.178179,0 0.267269,0 0.08909,0 0.178181,0 0.267269,0 0.04454,0 0.09379,-0.01992 0.133636,0 0.157996,0.079 0.188269,0.236995 0.133635,0.400905 -0.01992,0.05976 -0.08909,0.08909 -0.133635,0.133635"
       id="path845"
       inkscape:connector-curvature="0"
       inkscape:export-xdpi="96"
       inkscape:export-ydpi="96" />
    <flowRoot
       xml:space="preserve"
       id="flowRoot847"
       style="font-style:normal;font-weight:normal;font-size:40px;line-height:1.25;font-family:sans-serif;letter-spacing:0px;word-spacing:0px;fill:#000000;fill-opacity:1;stroke:none"
       transform="matrix(0.26458333,0,0,0.26458333,-50.64881,-34.962798)"
       inkscape:export-xdpi="96"
       inkscape:export-ydpi="96"><flowRegion
         id="flowRegion849"><rect
           id="rect851"
           width="85"
           height="63.57143"
           x="340.71429"
           y="369.66254" /></flowRegion><flowPara
         id="flowPara853">$??</flowPara></flowRoot>    <rect
       style="fill:none;fill-opacity:0.44444448;stroke:#000000;stroke-width:0.165;stroke-miterlimit:4;stroke-dasharray:none;stroke-opacity:1"
       id="rect874"
       width="149.67857"
       height="108.29018"
       x="-2.8348215"
       y="51.315475"
       inkscape:export-xdpi="96"
       inkscape:export-ydpi="96" />
    <path
       style="fill:none;stroke:#000000;stroke-width:0.26458332px;stroke-linecap:butt;stroke-linejoin:miter;stroke-opacity:1"
       d="m 65.31901,111.60268 c -0.05005,-0.087 -0.0855,-0.18112 -0.07087,-0.28349 0.0035,-0.0247 0.01437,-0.0477 0.02363,-0.0709 0.02286,-0.0571 0.05845,-0.10325 0.07087,-0.16536 0.0075,-0.0374 -0.0088,-0.10638 0,-0.14174 0.0043,-0.0171 0.01934,-0.0302 0.02363,-0.0473 0.0038,-0.0153 -0.0038,-0.032 0,-0.0472 0.02101,-0.084 0.01836,-0.0184 0.07087,-0.0709 0.04462,-0.0446 0.01114,-0.0446 0.02363,-0.0945 0.0043,-0.0171 0.01934,-0.0302 0.02363,-0.0472 0.0096,-0.0382 -0.0065,-0.0793 0,-0.11812 0.01344,-0.0806 0.04037,-0.058 0.02363,-0.14174 -0.0035,-0.0173 -0.02016,-0.03 -0.02363,-0.0472 -0.005,-0.025 0,-0.1312 0,-0.16537 0,-0.0472 0,-0.0945 0,-0.14174 0,-0.0157 -0.0031,-0.0318 0,-0.0473 0.0068,-0.0341 0.06584,-0.17891 0.07087,-0.18898 0.0127,-0.0254 0.03264,-0.0465 0.04725,-0.0709 0.009,-0.0151 0.01307,-0.0332 0.02363,-0.0473 0.01336,-0.0178 0.03388,-0.0294 0.04725,-0.0472 0.01056,-0.0141 0.01574,-0.0315 0.02363,-0.0472 0.0079,-0.0157 0.01934,-0.0302 0.02363,-0.0473 0.0038,-0.0153 -0.005,-0.0323 0,-0.0472 0.0035,-0.0106 0.01865,-0.0137 0.02363,-0.0236 0.01114,-0.0223 0.01437,-0.0477 0.02363,-0.0709 0.0013,-0.003 0.04702,-0.0934 0.04725,-0.0945 0.0046,-0.0232 -0.0039,-0.0476 0,-0.0709 0.0041,-0.0246 0.01574,-0.0473 0.02363,-0.0709 0.0079,-0.0236 0.01574,-0.0473 0.02363,-0.0709 0.0079,-0.0236 0.02011,-0.0462 0.02363,-0.0709 0.0044,-0.0312 -0.0044,-0.0633 0,-0.0945 0.0035,-0.0247 0.01574,-0.0472 0.02363,-0.0709 0.0079,-0.0236 0.01574,-0.0472 0.02363,-0.0709 0.0079,-0.0236 0.02011,-0.0462 0.02363,-0.0709 0.0078,-0.0546 -0.01082,-0.11131 0,-0.16537 0.0035,-0.0173 0.02016,-0.03 0.02363,-0.0472 0.0046,-0.0232 0,-0.0473 0,-0.0709 0,-0.0787 0,-0.15749 0,-0.23624 0,-0.0551 0,-0.11024 0,-0.16536 0,-0.0315 -0.0044,-0.0633 0,-0.0945 0.0035,-0.0246 0.01953,-0.0463 0.02363,-0.0709 0.0039,-0.0233 0,-0.0472 0,-0.0709 0,-0.0787 0,-0.15749 0,-0.23623 0,-0.0866 0,-0.17324 0,-0.25986 0,-0.0315 0,-0.063 0,-0.0945 0,-0.0315 0.0039,-0.0632 0,-0.0945 -0.004,-0.0322 -0.01902,-0.0624 -0.02363,-0.0945 -0.0067,-0.0468 0.0078,-0.0951 0,-0.14174 -0.0041,-0.0246 -0.01574,-0.0472 -0.02363,-0.0709 -0.0079,-0.0236 -0.01574,-0.0472 -0.02363,-0.0709 -0.0079,-0.0236 -0.01873,-0.0464 -0.02363,-0.0709 -0.0031,-0.0155 0.0031,-0.0318 0,-0.0472 -0.01566,-0.0784 -0.02204,-0.0551 -0.04725,-0.11812 -0.0093,-0.0231 -0.01082,-0.0495 -0.02363,-0.0709 -0.01146,-0.0191 -0.03579,-0.0281 -0.04725,-0.0473 -0.01281,-0.0213 -0.01082,-0.0495 -0.02363,-0.0709 -0.01146,-0.0191 -0.03579,-0.0281 -0.04725,-0.0473 -0.01281,-0.0213 -0.01082,-0.0495 -0.02363,-0.0709 -0.01146,-0.0191 -0.03579,-0.0281 -0.04725,-0.0472 -0.01281,-0.0214 -0.01437,-0.0478 -0.02363,-0.0709 -0.0065,-0.0164 -0.01709,-0.0309 -0.02363,-0.0472 -0.0555,-0.13874 -5.29e-4,-0.003 -0.02363,-0.14174 -0.0041,-0.0246 -0.01953,-0.0463 -0.02363,-0.0709 -0.0039,-0.0233 0.0039,-0.0476 0,-0.0709 -0.0041,-0.0246 -0.01953,-0.0463 -0.02363,-0.0709 -0.0039,-0.0233 0.0046,-0.0477 0,-0.0709 -0.0035,-0.0173 -0.02016,-0.03 -0.02363,-0.0473 -0.0046,-0.0232 0.0039,-0.0476 0,-0.0709 -0.02365,-0.14194 -0.0164,-0.0102 -0.04725,-0.11812 -0.01103,-0.0386 -0.01865,-0.0783 -0.02363,-0.11812 -0.0058,-0.0469 0.0078,-0.0951 0,-0.14174 -0.0041,-0.0245 -0.01574,-0.0472 -0.02363,-0.0709 -0.0079,-0.0236 -0.01574,-0.0472 -0.02363,-0.0709 -0.0079,-0.0236 -0.01873,-0.0464 -0.02363,-0.0709 -0.0031,-0.0155 0.0031,-0.0318 0,-0.0472 -0.0049,-0.0244 -0.02011,-0.0462 -0.02363,-0.0709 -0.0044,-0.0312 0.0044,-0.0633 0,-0.0945 -0.0035,-0.0247 -0.01953,-0.0463 -0.02363,-0.0709 -0.0039,-0.0233 0.0039,-0.0476 0,-0.0709 -0.0041,-0.0246 -0.01953,-0.0463 -0.02363,-0.0709 -0.0039,-0.0233 0.0039,-0.0476 0,-0.0709 -0.0041,-0.0246 -0.01953,-0.0463 -0.02363,-0.0709 -0.0078,-0.0466 0.0093,-0.0954 0,-0.14174 -0.0034,-0.0173 -0.02016,-0.03 -0.02363,-0.0473 -0.0076,-0.0379 0.0076,-0.0803 0,-0.11812 -0.08564,-0.25692 0.01246,0.0623 -0.02363,-0.11812 -0.0049,-0.0244 -0.01953,-0.0463 -0.02363,-0.0709 -0.0039,-0.0233 0.0046,-0.0477 0,-0.0709 -0.0035,-0.0173 -0.02016,-0.03 -0.02363,-0.0473 -0.0046,-0.0232 0.0039,-0.0476 0,-0.0709 -0.0041,-0.0246 -0.01873,-0.0465 -0.02363,-0.0709 -0.0031,-0.0155 0.0038,-0.032 0,-0.0472 -0.0043,-0.0171 -0.02016,-0.03 -0.02363,-0.0472 -0.0046,-0.0232 0.0046,-0.0477 0,-0.0709 -0.0034,-0.0173 -0.01934,-0.0302 -0.02363,-0.0473 -0.0038,-0.0153 0.0038,-0.032 0,-0.0472 -0.0043,-0.0171 -0.01805,-0.0306 -0.02363,-0.0473 -0.01027,-0.0308 -0.01336,-0.0637 -0.02363,-0.0945 -0.0056,-0.0167 -0.01574,-0.0315 -0.02363,-0.0472 -0.0079,-0.0157 -0.01386,-0.0326 -0.02363,-0.0472 -0.0062,-0.009 -0.01744,-0.0144 -0.02363,-0.0236 -0.0098,-0.0147 -0.01307,-0.0332 -0.02363,-0.0472 -0.01336,-0.0178 -0.03388,-0.0294 -0.04725,-0.0473 -0.01056,-0.0141 -0.01117,-0.0348 -0.02363,-0.0473 -0.01246,-0.0125 -0.0348,-0.0112 -0.04725,-0.0236 -0.0016,-0.002 -0.04432,-0.0901 -0.04725,-0.0945 -0.0062,-0.009 -0.01574,-0.0157 -0.02363,-0.0236 -0.01574,-0.0157 -0.0315,-0.0315 -0.04725,-0.0472 -0.0079,-0.008 -0.01437,-0.0174 -0.02363,-0.0236 -0.01466,-0.01 -0.03316,-0.0131 -0.04725,-0.0236 -0.02673,-0.02 -0.04307,-0.0523 -0.07087,-0.0709 -0.01871,-0.0125 -0.120885,-0.0639 -0.14174,-0.0709 -0.0075,-0.002 -0.01614,0.002 -0.02363,0 -0.03341,-0.0111 -0.06299,-0.0315 -0.09449,-0.0472 -0.01574,-0.008 -0.03016,-0.0193 -0.04725,-0.0236 -0.01527,-0.004 -0.03197,0.004 -0.04725,0 -0.05122,-0.0128 -0.0669,-0.0581 -0.118117,-0.0709 -0.01527,-0.004 -0.03197,0.004 -0.04725,0 -0.133845,-0.0669 0.03522,0.009 -0.0945,-0.0236 -0.01709,-0.004 -0.03054,-0.018 -0.04725,-0.0236 -0.0075,-0.002 -0.01614,0.002 -0.02363,0 -0.0167,-0.006 -0.03017,-0.0193 -0.04725,-0.0236 -0.01527,-0.004 -0.03197,0.004 -0.04725,0 -0.01709,-0.004 -0.03016,-0.0193 -0.04725,-0.0236 -0.03056,-0.008 -0.06394,0.008 -0.09449,0 -0.01709,-0.004 -0.03016,-0.0193 -0.04725,-0.0236 -0.03706,-0.009 -0.08106,0.009 -0.118117,0 -0.01709,-0.004 -0.03017,-0.0193 -0.04725,-0.0236 -0.02291,-0.006 -0.04846,0.007 -0.07087,0 -0.0167,-0.006 -0.03017,-0.0194 -0.04725,-0.0236 -0.03056,-0.008 -0.06394,0.008 -0.09449,0 -0.01709,-0.004 -0.03016,-0.0193 -0.04725,-0.0236 -0.03056,-0.008 -0.06394,0.008 -0.0945,0 -0.01709,-0.004 -0.03017,-0.0193 -0.04725,-0.0236 -0.03056,-0.008 -0.06394,0.008 -0.09449,0 -0.01709,-0.004 -0.03054,-0.018 -0.04725,-0.0236 -0.01495,-0.005 -0.03231,0.005 -0.04725,0 -0.0167,-0.006 -0.03054,-0.018 -0.04725,-0.0236 -0.0094,-0.003 -0.0378,0.003 -0.04725,0 -0.01669,-0.006 -0.03054,-0.0181 -0.04725,-0.0236 -0.07032,-0.0234 0.04847,0.0559 -0.07087,-0.0236 -0.0093,-0.006 -0.01365,-0.0187 -0.02363,-0.0236 -0.007,-0.004 -0.01659,0.004 -0.02363,0 -0.0099,-0.005 -0.01304,-0.0201 -0.02363,-0.0236 -0.01495,-0.005 -0.03231,0.005 -0.04725,0 -0.01056,-0.004 -0.01437,-0.0174 -0.02363,-0.0236 -0.01466,-0.01 -0.0326,-0.0139 -0.04725,-0.0236 -0.0093,-0.006 -0.01365,-0.0187 -0.02363,-0.0236 -0.007,-0.004 -0.01659,0.004 -0.02363,0 -0.01,-0.005 -0.01437,-0.0174 -0.02363,-0.0236 -0.01466,-0.01 -0.0326,-0.0139 -0.04725,-0.0236 -0.0093,-0.006 -0.01365,-0.0186 -0.02363,-0.0236 -0.007,-0.004 -0.01659,0.004 -0.02363,0 -0.0099,-0.005 -0.01307,-0.0201 -0.02363,-0.0236 -0.01495,-0.005 -0.03231,0.005 -0.04725,0 -0.01056,-0.004 -0.01437,-0.0174 -0.02363,-0.0236 -0.01191,-0.052 -0.0486,-0.0125 -0.07087,-0.0236 -0.02835,-0.0142 -0.04252,-0.0567 -0.07087,-0.0709 -0.007,-0.004 -0.01659,0.004 -0.02363,0 -0.01,-0.005 -0.01307,-0.0201 -0.02363,-0.0236 -0.01495,-0.005 -0.03231,0.005 -0.04725,0 -0.01056,-0.004 -0.01365,-0.0187 -0.02363,-0.0236 -0.007,-0.004 -0.01659,0.004 -0.02363,0 -0.02835,-0.0142 -0.04252,-0.0567 -0.07087,-0.0709 -0.007,-0.004 -0.01659,0.004 -0.02363,0 -0.0672,-0.0336 0.01995,-0.0137 -0.04725,-0.0472 -0.007,-0.004 -0.01659,0.004 -0.02363,0 -0.01992,-0.01 -0.02733,-0.0373 -0.04725,-0.0473 -0.007,-0.004 -0.01614,0.002 -0.02363,0 -0.01669,-0.006 -0.03054,-0.018 -0.04725,-0.0236 -0.0075,-0.002 -0.01659,0.004 -0.02363,0 -0.01992,-0.01 -0.02611,-0.0402 -0.04725,-0.0473 -0.01495,-0.005 -0.03231,0.005 -0.04725,0 -0.02114,-0.007 -0.02733,-0.0373 -0.04725,-0.0473 -0.007,-0.004 -0.01574,0 -0.02363,0 -0.01574,-0.008 -0.0326,-0.0139 -0.04725,-0.0236 -0.03476,-0.0232 -0.05973,-0.0713 -0.09449,-0.0945 -0.01466,-0.01 -0.0326,-0.0139 -0.04725,-0.0236 -0.01852,-0.0124 -0.0315,-0.0315 -0.04725,-0.0472 -0.0315,-0.0315 -0.063,-0.063 -0.0945,-0.0945 -0.01844,-0.0185 -0.05728,-0.0505 -0.07087,-0.0709 -0.0098,-0.0146 -0.01386,-0.0326 -0.02363,-0.0472 -0.02318,-0.0348 -0.07132,-0.0597 -0.09449,-0.0945 -0.0098,-0.0147 -0.01386,-0.0326 -0.02363,-0.0472 -0.0062,-0.009 -0.01865,-0.0137 -0.02363,-0.0236 -0.0035,-0.007 0.0035,-0.0166 0,-0.0236 -0.01,-0.0199 -0.03489,-0.0287 -0.04725,-0.0473 -0.0098,-0.0146 -0.01386,-0.0326 -0.02363,-0.0472 -0.0062,-0.009 -0.01865,-0.0137 -0.02363,-0.0236 -0.0035,-0.007 0.0035,-0.0166 0,-0.0236 -0.05406,-0.10811 0.0098,0.10025 -0.04725,-0.0709 -0.0024,-0.007 0.0024,-0.0161 0,-0.0236 -0.0056,-0.0167 -0.01805,-0.0305 -0.02363,-0.0472 -0.0024,-0.007 0.0024,-0.0162 0,-0.0236 -0.0056,-0.0167 -0.01386,-0.0326 -0.02363,-0.0473 -0.0062,-0.009 -0.02011,-0.0131 -0.02363,-0.0236 -0.005,-0.0149 0.0038,-0.032 0,-0.0473 -0.01172,-0.0469 -0.05914,-0.0948 -0.07087,-0.14174 -0.0038,-0.0153 0.0038,-0.032 0,-0.0473 -0.0043,-0.0171 -0.02016,-0.03 -0.02363,-0.0472 -0.0076,-0.0379 0.0076,-0.0803 0,-0.11812 -0.0049,-0.0244 -0.01953,-0.04631 -0.02363,-0.07087 -0.0039,-0.02331 0,-0.04725 0,-0.07087 0,-0.04725 0,-0.09449 0,-0.14174 0,-0.165364 0,-0.330729 0,-0.496093 0,-0.08662 0,-0.173239 0,-0.259858 0,-0.03937 -0.0077,-0.07951 0,-0.118118 0.0069,-0.03453 0.04034,-0.05996 0.04725,-0.0945 0.0077,-0.03861 -0.0096,-0.07992 0,-0.118115 0.0043,-0.01709 0.01934,-0.03017 0.02363,-0.04725 0.0038,-0.01527 0,-0.0315 0,-0.04725 0,-0.063 0,-0.125992 0,-0.188987 0,-0.01574 -0.0031,-0.0318 0,-0.04725 0.01561,-0.07805 0.05488,-0.122965 0.0945,-0.188989 0.01812,-0.0302 0.0315,-0.063 0.04725,-0.09449 0.0079,-0.01574 0.01304,-0.03316 0.02363,-0.04725 0.01336,-0.01781 0.03389,-0.02943 0.04725,-0.04725 0.02114,-0.02817 0.02611,-0.06632 0.04725,-0.09449 0.01336,-0.01781 0.03388,-0.02943 0.04725,-0.04725 0.01056,-0.01408 0.01304,-0.03316 0.02363,-0.04725 0.01336,-0.01781 0.0315,-0.0315 0.04725,-0.04725 0.04505,-0.04505 0.08088,-0.05059 0.141743,-0.07087 0.02363,-0.0079 0.04622,-0.02011 0.07087,-0.02363 0.03118,-0.0044 0.06299,0 0.09449,0 0.02363,0 0.04725,0 0.07087,0 0.04725,0 0.09449,0 0.14174,0 0.01574,0 0.0318,-0.0031 0.04725,0 0.02442,0.0049 0.04645,0.01873 0.07087,0.02363 0.01545,0.0031 0.0318,-0.0031 0.04725,0 0.02442,0.0049 0.04725,0.01574 0.07087,0.02363 0.05071,0.01691 0.07467,0.02117 0.118118,0.04725 0.02434,0.01461 0.04652,0.03264 0.07087,0.04725 0.01511,0.009 0.03316,0.01307 0.04725,0.02363 0.01783,0.01336 0.02943,0.03389 0.04725,0.04725 0.01408,0.01056 0.03316,0.01307 0.04725,0.02363 0.01781,0.01336 0.02943,0.03388 0.04725,0.04725 0.03166,0.02373 0.08409,0.03364 0.118118,0.04725 0.0327,0.01307 0.063,0.0315 0.09449,0.04725 0.0315,0.01574 0.063,0.0315 0.09449,0.04725 0.01574,0.0079 0.03017,0.01934 0.04725,0.02363 0.01527,0.0038 0.03197,-0.0038 0.04725,0 0.01709,0.0043 0.03017,0.01934 0.04725,0.02363 0.01527,0.0038 0.0315,0 0.04725,0 0.04725,0 0.09449,0 0.14174,0 0.01574,0 0.0315,0 0.04725,0 0.01574,0 0.03231,0.005 0.04725,0 0.01056,-0.0035 0.01307,-0.02011 0.02363,-0.02363 0.02988,-0.0099 0.06461,0.0099 0.09449,0 0.01056,-0.0035 0.01365,-0.01865 0.02363,-0.02363 0.007,-0.0035 0.01659,0.0035 0.02363,0 0.0099,-0.005 0.01365,-0.01865 0.02363,-0.02363 0.007,-0.0035 0.01659,0.0035 0.02363,0 0.0099,-0.005 0.01574,-0.01574 0.02363,-0.02363 0.0079,-0.0079 0.01744,-0.01437 0.02363,-0.02363 0.0098,-0.01466 0.01386,-0.0326 0.02363,-0.04725 0.0062,-0.0093 0.01744,-0.01437 0.02363,-0.02363 0.01953,-0.0293 0.02771,-0.06519 0.04725,-0.09449 0.01852,-0.0278 0.05083,-0.04414 0.07087,-0.07087 0.01056,-0.01408 0.01117,-0.0348 0.02363,-0.04725 0.01246,-0.01246 0.03316,-0.01307 0.04725,-0.02363 0.01781,-0.01336 0.02943,-0.03388 0.04725,-0.04725 0.01408,-0.01056 0.0348,-0.01117 0.04725,-0.02363 0.01246,-0.01246 0.01117,-0.0348 0.02363,-0.04725 0.01246,-0.01246 0.0326,-0.01387 0.04725,-0.02363 0.0093,-0.0062 0.01574,-0.01574 0.02363,-0.02363 0.02363,-0.02363 0.04725,-0.04725 0.07087,-0.07087 0.0079,-0.0079 0.01574,-0.01574 0.02363,-0.02363 0.0079,-0.0079 0.02011,-0.01307 0.02363,-0.02363 0.005,-0.01495 -0.005,-0.03231 0,-0.04725 0.007,-0.02114 0.03489,-0.02872 0.04725,-0.04725 0.0098,-0.01466 0.01386,-0.03259 0.02363,-0.04725 0.0062,-0.0093 0.01865,-0.01365 0.02363,-0.02363 0.0011,-0.0019 0.0011,-0.06783 0,-0.07087 -0.0056,-0.01669 -0.01386,-0.0326 -0.02363,-0.04725 -0.0062,-0.0093 -0.01744,-0.01437 -0.02363,-0.02363 -0.07956,-0.11934 -1.83e-4,-5.29e-4 -0.02363,-0.07087 -0.02855,-0.08564 -0.01122,-0.0168 -0.04725,-0.07087 -0.01953,-0.0293 -0.02611,-0.06632 -0.04725,-0.09449 -0.03037,-0.04049 -0.06047,-0.04251 -0.07087,-0.0945 -0.0046,-0.02318 0.0046,-0.0477 0,-0.07087 -0.0035,-0.01728 -0.01574,-0.0315 -0.02363,-0.04725 -0.01929,-0.03856 -0.03995,-0.07433 -0.04725,-0.118115 -0.0039,-0.02331 0.0039,-0.04757 0,-0.07087 -0.0041,-0.02455 -0.01953,-0.04631 -0.02363,-0.07087 -0.0039,-0.02331 0.0039,-0.04757 0,-0.07087 -0.0041,-0.02455 -0.01953,-0.04631 -0.02363,-0.07087 -0.0039,-0.02331 0.0046,-0.04771 0,-0.07087 -0.0035,-0.01728 -0.02016,-0.02998 -0.02363,-0.04725 -0.0046,-0.02318 0.0039,-0.04757 0,-0.07087 -0.0041,-0.02455 -0.01873,-0.04645 -0.02363,-0.07087 -0.0031,-0.01545 0,-0.0315 0,-0.04725 0,-0.063 0,-0.125992 0,-0.188987 0,-0.01574 0.0038,-0.03197 0,-0.04725 -0.0043,-0.01709 -0.01574,-0.0315 -0.02363,-0.04725 -0.02402,-0.04804 -0.08087,-0.148119 -0.09449,-0.188986 -0.005,-0.01495 0.0038,-0.03197 0,-0.04725 -0.01172,-0.04691 -0.05914,-0.09483 -0.07087,-0.141742 -0.01024,-0.04102 0.01027,-0.100725 0,-0.14174 -0.0043,-0.01709 -0.02016,-0.02998 -0.02363,-0.04725 -0.0046,-0.02318 0.0046,-0.04771 0,-0.07087 -0.0034,-0.01728 -0.01934,-0.03016 -0.02363,-0.04725 -0.0038,-0.01527 0,-0.0315 0,-0.04725 0,-0.01574 0,-0.0315 0,-0.04725 0,-0.05512 0,-0.110244 0,-0.165365 0,-0.01574 0.0031,-0.03181 0,-0.04725 -0.0118,-0.05906 -0.04432,-0.11225 -0.07087,-0.165365 -0.01574,-0.0315 -0.0315,-0.06299 -0.04725,-0.09449 -0.0079,-0.01574 -0.01307,-0.03316 -0.02363,-0.04725 -0.01336,-0.01781 -0.03388,-0.02943 -0.04725,-0.04725 -0.01056,-0.01408 -0.01386,-0.0326 -0.02363,-0.04725 -0.0062,-0.0093 -0.01744,-0.01437 -0.02363,-0.02363 -0.0098,-0.01466 -0.01307,-0.03316 -0.02363,-0.04725 -0.02006,-0.02673 -0.05234,-0.04307 -0.07087,-0.07087 -0.0098,-0.01466 -0.01386,-0.0326 -0.02363,-0.04725 -0.0062,-0.0093 -0.01744,-0.01437 -0.02363,-0.02363 -0.0098,-0.01466 -0.01386,-0.0326 -0.02363,-0.04725 -0.01818,-0.02726 -0.0527,-0.04361 -0.07087,-0.07087 -0.0098,-0.01466 -0.01386,-0.0326 -0.02363,-0.04725 -0.0062,-0.0093 -0.01574,-0.01574 -0.02363,-0.02363 -0.0079,-0.0079 -0.01437,-0.01744 -0.02363,-0.02363 -0.01466,-0.0098 -0.03215,-0.01455 -0.04725,-0.02363 -0.03354,-0.02014 -0.145365,-0.09812 -0.165365,-0.118118 -0.02008,-0.02008 -0.0315,-0.04725 -0.04725,-0.07087"
       id="path876"
       inkscape:connector-curvature="0"
       inkscape:export-xdpi="96"
       inkscape:export-ydpi="96" />
    <path
       style="fill:none;stroke:#000000;stroke-width:0.26458332px;stroke-linecap:butt;stroke-linejoin:miter;stroke-opacity:1"
       d="m 65.31901,111.60268 c -0.118118,-0.12599 -0.225275,-0.26324 -0.354354,-0.37798 -0.0077,-0.007 -0.09986,0.005 -0.118116,0 -0.01709,-0.004 -0.03054,-0.018 -0.04725,-0.0236 -0.0075,-0.002 -0.01574,0 -0.02363,0 -0.05512,0 -0.110244,0 -0.165365,0 -0.01574,0 -0.03197,0.004 -0.04725,0 -0.03417,-0.009 -0.0618,-0.0342 -0.0945,-0.0472 -0.04624,-0.0185 -0.09719,-0.025 -0.14174,-0.0473 -0.0254,-0.0127 -0.04548,-0.0345 -0.07087,-0.0472 -0.02228,-0.0111 -0.04952,-0.0108 -0.07087,-0.0236 -0.219729,-0.13184 0.165563,0.0473 -0.118118,-0.0945 -0.02228,-0.0111 -0.0486,-0.0125 -0.07087,-0.0236 -0.283681,-0.14184 0.10161,0.0373 -0.118118,-0.0945 -0.02135,-0.0128 -0.04952,-0.0108 -0.07087,-0.0236 -0.0191,-0.0115 -0.02815,-0.0358 -0.04725,-0.0473 -0.02135,-0.0128 -0.04725,-0.0157 -0.07087,-0.0236 -0.235048,-0.0784 0.05568,0.0223 -0.118118,-0.0472 -0.03403,-0.0136 -0.08646,-0.0235 -0.118118,-0.0472 -0.03564,-0.0267 -0.05971,-0.0667 -0.09449,-0.0945 -0.02217,-0.0177 -0.0487,-0.0295 -0.07087,-0.0472 -0.01738,-0.0139 -0.0315,-0.0315 -0.04725,-0.0473 -0.04725,-0.0473 -0.0945,-0.0945 -0.141743,-0.14174 -0.01574,-0.0157 -0.02943,-0.0339 -0.04725,-0.0473 -0.01408,-0.0106 -0.03316,-0.0131 -0.04725,-0.0236 -0.05704,-0.0428 -0.048,-0.06 -0.09449,-0.11812 -0.02783,-0.0348 -0.07158,-0.0563 -0.0945,-0.0945 -0.01281,-0.0213 -0.01437,-0.0477 -0.02363,-0.0709 -0.0065,-0.0164 -0.01709,-0.0309 -0.02363,-0.0473 -0.0092,-0.0231 -0.01437,-0.0477 -0.02363,-0.0709 -0.0048,-0.0121 -0.04242,-0.0824 -0.04725,-0.0945 -0.0093,-0.0231 -0.01437,-0.0478 -0.02363,-0.0709 -0.02257,-0.0564 -0.06056,-0.10352 -0.07087,-0.16537 -0.0065,-0.0388 0.0077,-0.0795 0,-0.11811 -0.06474,-0.19424 0.0083,0.0498 -0.02363,-0.14174 -0.0041,-0.0246 -0.01953,-0.0463 -0.02363,-0.0709 -0.0039,-0.0233 0,-0.0472 0,-0.0709 -0.0079,-0.0236 -0.01873,-0.0465 -0.02363,-0.0709 -0.0031,-0.0155 0.0038,-0.032 0,-0.0473 -0.0043,-0.0171 -0.01709,-0.0309 -0.02363,-0.0472 -0.0093,-0.0231 -0.01082,-0.0495 -0.02363,-0.0709 -0.01146,-0.0191 -0.03579,-0.0281 -0.04725,-0.0473 -0.104796,-0.17466 0.0725,0.0375 -0.07087,-0.14174 -0.01392,-0.0174 -0.03333,-0.0299 -0.04725,-0.0472 -0.01773,-0.0222 -0.0315,-0.0472 -0.04725,-0.0709 -0.01574,-0.0236 -0.03455,-0.0455 -0.04725,-0.0709 -0.01114,-0.0223 -0.01249,-0.0486 -0.02363,-0.0709 -0.04847,-0.097 -0.0359,-0.0449 -0.0945,-0.11812 -0.03547,-0.0443 -0.06299,-0.0945 -0.09449,-0.14174 -0.01574,-0.0236 -0.03264,-0.0465 -0.04725,-0.0709 -0.04416,-0.0736 -0.0013,-0.031 -0.07087,-0.11811 -0.08901,-0.11128 -0.0072,0.0273 -0.09449,-0.11812 -0.009,-0.0151 -0.01709,-0.0309 -0.02363,-0.0472 -0.0092,-0.0231 -0.01082,-0.0495 -0.02363,-0.0709 -0.08197,-0.13661 -0.01969,0.0335 -0.07087,-0.0945 -0.0136,-0.034 -0.0235,-0.0865 -0.04725,-0.11812 -0.01336,-0.0178 -0.03333,-0.0299 -0.04725,-0.0472 -0.04287,-0.0276 -0.04332,-0.0814 -0.07087,-0.11812 -0.01336,-0.0178 -0.03388,-0.0294 -0.04725,-0.0472 -0.01056,-0.0141 -0.01307,-0.0332 -0.02363,-0.0472 -0.03969,-0.0529 -0.102052,-0.0888 -0.14174,-0.14174 -0.01056,-0.0141 -0.01307,-0.0332 -0.02363,-0.0472 -0.01336,-0.0178 -0.0315,-0.0315 -0.04725,-0.0473 -0.01574,-0.0157 -0.0315,-0.0315 -0.04725,-0.0472 -0.04725,-0.0472 -0.09449,-0.0945 -0.14174,-0.14174 -0.0315,-0.0315 -0.063,-0.063 -0.0945,-0.0945 -0.01574,-0.0157 -0.02943,-0.0339 -0.04725,-0.0472 -0.01407,-0.0106 -0.03316,-0.0131 -0.04725,-0.0236 -0.03564,-0.0267 -0.05971,-0.0667 -0.09449,-0.0945 -0.02762,-0.0429 -0.08138,-0.0433 -0.118118,-0.0709 -0.01781,-0.0134 -0.02815,-0.0358 -0.04725,-0.0472 -0.02135,-0.0128 -0.04952,-0.0108 -0.07087,-0.0236 -0.0191,-0.0115 -0.02815,-0.0358 -0.04725,-0.0473 -0.02135,-0.0128 -0.04775,-0.0144 -0.07087,-0.0236 -0.01635,-0.007 -0.0309,-0.0171 -0.04725,-0.0236 -0.02313,-0.009 -0.04952,-0.0108 -0.07087,-0.0236 -0.0191,-0.0115 -0.02943,-0.0339 -0.04725,-0.0472 -0.04158,-0.0312 -0.100163,-0.0397 -0.14174,-0.0709 -0.01783,-0.0134 -0.02943,-0.0339 -0.04725,-0.0473 -0.01407,-0.0105 -0.03316,-0.0131 -0.04725,-0.0236 -0.02673,-0.0201 -0.04307,-0.0523 -0.07087,-0.0709 -0.0044,-0.003 -0.09298,-0.0457 -0.0945,-0.0472 -0.01244,-0.0125 -0.01307,-0.0332 -0.02363,-0.0473 -0.01336,-0.0178 -0.0315,-0.0315 -0.04725,-0.0472 -0.01574,-0.0157 -0.02943,-0.0339 -0.04725,-0.0472 -0.01408,-0.0106 -0.0326,-0.0139 -0.04725,-0.0236 -0.0093,-0.006 -0.01574,-0.0157 -0.02363,-0.0236 -0.01574,-0.0157 -0.03388,-0.0294 -0.04725,-0.0472 -0.01418,-0.0189 -0.03307,-0.0756 -0.04725,-0.0945 -0.05855,-0.0781 -0.0382,-0.0128 -0.07087,-0.0945 -0.0092,-0.0231 -0.01082,-0.0495 -0.02363,-0.0709 -0.01146,-0.0191 -0.03388,-0.0294 -0.04725,-0.0473 -0.01056,-0.0141 -0.01574,-0.0315 -0.02363,-0.0473 -0.02363,-0.0472 -0.04725,-0.0945 -0.07087,-0.14174 -0.0079,-0.0157 -0.01709,-0.0309 -0.02363,-0.0472 -0.0092,-0.0231 -0.01082,-0.0495 -0.02363,-0.0709 -0.01146,-0.0191 -0.03388,-0.0294 -0.04725,-0.0472 -0.02114,-0.0282 -0.02611,-0.0663 -0.04725,-0.0945 -0.01336,-0.0178 -0.03388,-0.0294 -0.04725,-0.0472 -0.01056,-0.0141 -0.01574,-0.0315 -0.02363,-0.0473 -0.02363,-0.0473 -0.04725,-0.0945 -0.07087,-0.14174 -0.0079,-0.0157 -0.01387,-0.0326 -0.02363,-0.0473 -0.0062,-0.009 -0.01744,-0.0144 -0.02363,-0.0236 -0.0098,-0.0147 -0.01574,-0.0315 -0.02363,-0.0472 -0.0079,-0.0157 -0.01805,-0.0305 -0.02363,-0.0472 -0.0024,-0.007 0.0035,-0.0166 0,-0.0236 -0.005,-0.01 -0.02011,-0.0131 -0.02363,-0.0236 -0.005,-0.0149 0.0038,-0.032 0,-0.0473 0.01423,-0.0428 -0.03827,-0.0439 -0.04725,-0.0709 -0.0036,-0.0108 0,-0.10493 0,-0.11812 0,-0.063 0,-0.12599 0,-0.18899 0,-0.0236 -0.0057,-0.048 0,-0.0709 0.0043,-0.0171 0.01805,-0.0305 0.02363,-0.0472 0.0084,-0.0251 -0.0084,-0.0694 0,-0.0945 0.0056,-0.0167 0.01804,-0.0305 0.02363,-0.0472 0.0066,-0.0198 -0.0078,-0.0788 0,-0.0945 0.005,-0.01 0.01865,-0.0136 0.02363,-0.0236 0.0026,-0.005 0,-0.0889 0,-0.0945 0,-0.0155 0.0044,-0.0575 0,-0.0709 -0.0056,-0.0167 -0.01804,-0.0305 -0.02363,-0.0473 -0.0054,-0.0162 0.007,-0.0569 0,-0.0709 -0.005,-0.01 -0.02011,-0.0131 -0.02363,-0.0236 -0.005,-0.0149 0.005,-0.0323 0,-0.0472 -0.0035,-0.0106 -0.01865,-0.0137 -0.02363,-0.0236 -0.0035,-0.007 0.0035,-0.0166 0,-0.0236 -0.005,-0.01 -0.02011,-0.0131 -0.02363,-0.0236 -0.005,-0.0149 0.005,-0.0323 0,-0.0472 -0.0035,-0.0106 -0.01865,-0.0137 -0.02363,-0.0236 -0.0035,-0.007 0,-0.0157 0,-0.0236 -0.0079,-0.0157 -0.01386,-0.0326 -0.02363,-0.0472 -0.02882,-0.0432 -0.03012,-0.002 -0.04725,-0.0709 -0.0038,-0.0153 0.0038,-0.032 0,-0.0473 -0.0043,-0.0171 -0.01934,-0.0302 -0.02363,-0.0473 -0.0038,-0.0153 0.0038,-0.032 0,-0.0472 0.01423,-0.0427 -0.03827,-0.0439 -0.04725,-0.0709 -0.005,-0.0149 0.0031,-0.0318 0,-0.0472 -0.0049,-0.0244 -0.01873,-0.0465 -0.02363,-0.0709 -0.0062,-0.0309 0.0062,-0.0636 0,-0.0945 -0.0049,-0.0244 -0.01873,-0.0465 -0.02363,-0.0709 -0.0062,-0.0309 0,-0.063 0,-0.0945 0,-0.0709 0,-0.14174 0,-0.21261 0,-0.063 0,-0.126 0,-0.18899 0,-0.0236 0,-0.0472 0,-0.0709 0,-0.0157 -0.0031,-0.0318 0,-0.0473 0.0049,-0.0244 0.01873,-0.0464 0.02363,-0.0709 0.0031,-0.0154 -0.0038,-0.032 0,-0.0472 0.0043,-0.0171 0.02016,-0.03 0.02363,-0.0472 0.0046,-0.0232 -0.0046,-0.0477 0,-0.0709 0.0035,-0.0173 0.01934,-0.0302 0.02363,-0.0473 0.0038,-0.0153 -0.0031,-0.0318 0,-0.0472 0.0049,-0.0244 0.01873,-0.0465 0.02363,-0.0709 0.02524,-0.12621 -0.04489,0.0532 0.02363,-0.11812 0.02159,-0.054 0.0376,-0.0627 0.07087,-0.11811 0.03324,-0.0554 0.02021,-0.0505 0.04725,-0.11812 0.01307,-0.0327 0.03417,-0.0618 0.04725,-0.0945 0.0093,-0.0231 0.01437,-0.0477 0.02363,-0.0709 0.01307,-0.0327 0.03417,-0.0618 0.04725,-0.0945 0.0093,-0.0231 0.01082,-0.0495 0.02363,-0.0709 0.01146,-0.0191 0.03579,-0.0282 0.04725,-0.0473 0.01281,-0.0213 0.01082,-0.0495 0.02363,-0.0709 0.02291,-0.0382 0.06777,-0.0589 0.09449,-0.0945 0.01056,-0.0141 0.01307,-0.0332 0.02363,-0.0472 0.01336,-0.0178 0.03388,-0.0294 0.04725,-0.0473 0.02114,-0.0282 0.02771,-0.0652 0.04725,-0.0945 0.0062,-0.009 0.01744,-0.0144 0.02363,-0.0236 0.0098,-0.0146 0.01574,-0.0315 0.02363,-0.0472 0.01574,-0.0315 0.0315,-0.063 0.04725,-0.0945 0.0079,-0.0157 0.01307,-0.0332 0.02363,-0.0472 0.01336,-0.0178 0.03388,-0.0294 0.04725,-0.0473 0.01056,-0.0141 0.01307,-0.0332 0.02363,-0.0473 0.01336,-0.0178 0.0315,-0.0315 0.04725,-0.0472 0.0315,-0.0315 0.063,-0.063 0.09449,-0.0945 0.01574,-0.0157 0.03388,-0.0294 0.04725,-0.0472 0.01056,-0.0141 0.01386,-0.03259 0.02363,-0.04724 0.01236,-0.01852 0.0402,-0.02611 0.04725,-0.04725 0.005,-0.01495 -0.005,-0.03231 0,-0.04725 0.0035,-0.01056 0.01865,-0.01365 0.02363,-0.02363 0.0035,-0.007 -0.0035,-0.01659 0,-0.02363 0.005,-0.0099 0.02011,-0.01307 0.02363,-0.02363 0.005,-0.01495 -0.0038,-0.03197 0,-0.04725 0.0043,-0.01709 0.01937,-0.03016 0.02363,-0.04725 0.04207,-0.168275 -0.0715,0.119684 0.02363,-0.118118 0.01931,-0.04828 0.04761,-0.09521 0.07087,-0.14174 0.0079,-0.01574 0.01934,-0.03017 0.02363,-0.04725 0.0057,-0.02291 0,-0.04725 0,-0.07087 0,-0.01574 0.0038,-0.03197 0,-0.04725 -0.01712,-0.06851 -0.01844,-0.02765 -0.04725,-0.07087 -0.01953,-0.0293 -0.02771,-0.06519 -0.04725,-0.09449 -0.0062,-0.0093 -0.01744,-0.01437 -0.02363,-0.02363 -0.01953,-0.0293 -0.02612,-0.06632 -0.04725,-0.09449 -0.127442,-0.169923 0.02622,0.04986 -0.0945,-0.07087 -0.01243,-0.01244 -0.01307,-0.03316 -0.02363,-0.04725 -0.062,-0.08266 -0.02551,-0.01913 -0.09449,-0.07087 -0.169923,-0.127444 0.04985,0.02622 -0.07087,-0.09449 -0.01246,-0.01246 -0.03316,-0.01307 -0.04725,-0.02363 -0.01783,-0.01336 -0.02943,-0.03388 -0.04725,-0.04725 -0.01408,-0.01056 -0.03316,-0.01307 -0.04725,-0.02363 -0.01781,-0.01336 -0.02943,-0.03388 -0.04725,-0.04725 -0.01408,-0.01056 -0.0326,-0.01386 -0.04725,-0.02363 -0.0093,-0.0062 -0.01437,-0.01744 -0.02363,-0.02363 -0.01466,-0.0098 -0.03316,-0.01307 -0.04725,-0.02363 -0.01781,-0.01336 -0.02943,-0.03388 -0.04725,-0.04725 -0.03166,-0.02373 -0.08409,-0.03363 -0.118118,-0.04725 -0.03269,-0.01307 -0.0618,-0.03417 -0.09449,-0.04725 -0.02313,-0.0093 -0.04775,-0.01437 -0.07087,-0.02363 -0.01635,-0.0065 -0.03016,-0.01934 -0.04725,-0.02363 -0.168275,-0.04207 0.119684,0.0715 -0.118118,-0.02363 -0.04887,-0.01955 -0.09286,-0.05132 -0.14174,-0.07087 -0.2378,-0.09512 0.05016,0.01844 -0.118118,-0.02363 -0.01709,-0.0043 -0.0309,-0.01709 -0.04725,-0.02363 -0.02312,-0.0093 -0.04775,-0.01437 -0.07087,-0.02363 -0.01635,-0.0065 -0.0309,-0.01709 -0.04725,-0.02363 -0.02313,-0.0092 -0.04775,-0.01437 -0.07087,-0.02363 -0.01635,-0.0065 -0.0309,-0.01709 -0.04725,-0.02363 -0.02313,-0.0092 -0.04775,-0.01437 -0.07087,-0.02363 -0.063,-0.02519 -0.03977,-0.03158 -0.118118,-0.04725 -0.01545,-0.0031 -0.03181,0.0031 -0.04725,0 -0.256926,-0.08564 0.06225,0.01246 -0.118118,-0.02363 -0.068,-0.0136 -0.120988,-0.05727 -0.188989,-0.07087 -0.126206,-0.02524 0.05317,0.04489 -0.118118,-0.02363 -0.05508,-0.02204 -0.05096,-0.03606 -0.118118,-0.04725 -0.02331,-0.0039 -0.0477,0.0046 -0.07087,0 -0.01728,-0.0035 -0.0309,-0.01709 -0.04725,-0.02363 -0.02313,-0.0093 -0.04725,-0.01574 -0.07087,-0.02363 -0.02363,-0.0079 -0.04631,-0.01953 -0.07087,-0.02363 -0.02331,-0.0039 -0.04757,0.0039 -0.07087,0 -0.02455,-0.0041 -0.04725,-0.01574 -0.07087,-0.02363 -0.02363,-0.0079 -0.04725,-0.01574 -0.07087,-0.02363 -0.07058,-0.02352 -0.141089,-0.05043 -0.212611,-0.07087 -0.03122,-0.0089 -0.06327,-0.01471 -0.09449,-0.02363 -0.04789,-0.01368 -0.0945,-0.0315 -0.141743,-0.04725 -0.02363,-0.0079 -0.04622,-0.02011 -0.07087,-0.02363 -0.03118,-0.0044 -0.06331,0.0044 -0.09449,0 -0.02466,-0.0035 -0.04693,-0.01677 -0.07087,-0.02363 -0.03122,-0.0089 -0.06328,-0.01471 -0.09449,-0.02363 -0.02395,-0.0068 -0.04622,-0.02011 -0.07087,-0.02363 -0.03118,-0.0044 -0.06331,0.0044 -0.09449,0 -0.02466,-0.0035 -0.04622,-0.02011 -0.07087,-0.02363 -0.03118,-0.0044 -0.06324,0.0039 -0.09449,0 -0.03222,-0.004 -0.06228,-0.01961 -0.09449,-0.02363 -0.03126,-0.0039 -0.063,0 -0.09449,0 -0.0945,0 -0.188989,0 -0.283482,0"
       id="path878"
       inkscape:connector-curvature="0"
       inkscape:export-xdpi="96"
       inkscape:export-ydpi="96" />
    <path
       style="fill:none;stroke:#000000;stroke-width:0.26458332px;stroke-linecap:butt;stroke-linejoin:miter;stroke-opacity:1"
       d="m 73.610863,109.83091 c -0.232563,-0.093 -0.02387,-1.3e-4 -0.188989,-0.0945 -0.03057,-0.0175 -0.06519,-0.0277 -0.09449,-0.0472 -0.02641,-0.0176 -0.06878,-0.0688 -0.09449,-0.0945 -0.0079,-0.008 -0.01437,-0.0174 -0.02363,-0.0236 -0.01466,-0.01 -0.0326,-0.0139 -0.04725,-0.0236 -0.01852,-0.0123 -0.02612,-0.0402 -0.04725,-0.0472 -0.01495,-0.005 -0.03231,0.005 -0.04725,0 -0.02114,-0.007 -0.02872,-0.0349 -0.04725,-0.0473 -0.03442,-0.0229 -0.04921,-0.0147 -0.07087,-0.0472 -0.08564,-0.17128 0.0249,0.0373 -0.04725,-0.0709 -0.01953,-0.0293 -0.02612,-0.0663 -0.04725,-0.0945 -0.01336,-0.0178 -0.03388,-0.0294 -0.04725,-0.0472 -0.01056,-0.0141 -0.01307,-0.0332 -0.02363,-0.0473 -0.01336,-0.0178 -0.03388,-0.0294 -0.04725,-0.0472 -0.02043,-0.0272 -0.05159,-0.12246 -0.07087,-0.14174 -0.01246,-0.0125 -0.0348,-0.0112 -0.04725,-0.0236 -0.01246,-0.0125 -0.01574,-0.0315 -0.02363,-0.0473 -0.0079,-0.0157 -0.01574,-0.0315 -0.02363,-0.0472 -0.01574,-0.0315 -0.03417,-0.0618 -0.04725,-0.0945 -0.0093,-0.0231 -0.01437,-0.0477 -0.02363,-0.0709 -0.0065,-0.0164 -0.01574,-0.0315 -0.02363,-0.0473 -0.0079,-0.0236 -0.01437,-0.0477 -0.02363,-0.0709 -0.0065,-0.0163 -0.01934,-0.0302 -0.02363,-0.0472 -0.0038,-0.0153 0,-0.0315 0,-0.0473 0,-0.0394 0,-0.0787 0,-0.11812 0,-0.0472 0,-0.0945 0,-0.14174 0,-0.0157 -0.0038,-0.032 0,-0.0472 0.0043,-0.0171 0.01709,-0.0309 0.02363,-0.0472 0.07835,-0.23505 -0.02228,0.0557 0.04725,-0.11812 0.0093,-0.0231 0.01437,-0.0477 0.02363,-0.0709 0.01307,-0.0327 0.03417,-0.0618 0.04725,-0.0945 0.0092,-0.0231 0.01437,-0.0478 0.02363,-0.0709 0.0065,-0.0164 0.01574,-0.0315 0.02363,-0.0472 0.0079,-0.0157 0.01386,-0.0326 0.02363,-0.0473 0.0062,-0.009 0.01865,-0.0136 0.02363,-0.0236 0.0035,-0.007 -0.0024,-0.0162 0,-0.0236 0.0056,-0.0167 0.01804,-0.0305 0.02363,-0.0472 0.0024,-0.007 -0.0024,-0.0161 0,-0.0236 0.0056,-0.0167 0.01934,-0.0302 0.02363,-0.0473 0.0038,-0.0153 -0.0038,-0.032 0,-0.0472 0.0043,-0.0171 0.01934,-0.0302 0.02363,-0.0472 0.0038,-0.0153 -0.0038,-0.032 0,-0.0473 0.0043,-0.0171 0.01934,-0.0302 0.02363,-0.0472 0.0038,-0.0153 0,-0.0315 0,-0.0472 0.0079,-0.0157 0.01934,-0.0302 0.02363,-0.0473 0.0038,-0.0153 -0.0038,-0.032 0,-0.0473 0.0043,-0.0171 0.01934,-0.0302 0.02363,-0.0472 0.0038,-0.0153 -0.0038,-0.032 0,-0.0472 0.0043,-0.0171 0.01934,-0.0302 0.02363,-0.0473 0.0078,-0.0311 -0.0098,-0.0888 0,-0.11811 0.0035,-0.0106 0.01574,-0.0157 0.02363,-0.0236 0.0079,-0.0157 0.01934,-0.0302 0.02363,-0.0473 0.0057,-0.0229 -0.0075,-0.0485 0,-0.0709 0.0056,-0.0167 0.02016,-0.03 0.02363,-0.0472 0.0046,-0.0232 -0.0046,-0.0477 0,-0.0709 0.0034,-0.0173 0.01934,-0.0302 0.02363,-0.0473 0.04207,-0.16828 -0.0715,0.11968 0.02363,-0.11812 0.0065,-0.0164 0.01709,-0.0309 0.02363,-0.0472 0.0093,-0.0231 0.01437,-0.0478 0.02363,-0.0709 0.02204,-0.0551 0.03605,-0.051 0.04725,-0.11811 0.0039,-0.0233 0,-0.0473 0,-0.0709 0.0079,-0.0236 0.01873,-0.0465 0.02363,-0.0709 0.0076,-0.0379 -0.0076,-0.0803 0,-0.11812 0.0034,-0.0173 0.01934,-0.0302 0.02363,-0.0473 0.01204,-0.0481 -0.01405,-0.0703 -0.02363,-0.11812 -0.0031,-0.0155 0,-0.0315 0,-0.0472 0,-0.0394 0.0065,-0.0793 0,-0.11812 -0.0041,-0.0246 -0.01873,-0.0464 -0.02363,-0.0709 -0.0077,-0.0386 0.0065,-0.0793 0,-0.11812 -0.0041,-0.0245 -0.01953,-0.0463 -0.02363,-0.0709 -0.0093,-0.0556 0.01087,-0.13466 0,-0.18899 -0.0069,-0.0345 -0.03871,-0.0603 -0.04725,-0.0945 -0.0038,-0.0153 0.0031,-0.0318 0,-0.0472 -0.01024,-0.0512 -0.04351,-0.11976 -0.07087,-0.16537 -0.04396,-0.0733 -0.08313,-0.10675 -0.141743,-0.16536 -0.01574,-0.0157 -0.02985,-0.0333 -0.04725,-0.0473 -0.04434,-0.0355 -0.09449,-0.063 -0.141739,-0.0945 -0.02363,-0.0157 -0.04622,-0.0332 -0.07087,-0.0473 -0.03057,-0.0175 -0.06392,-0.0298 -0.09449,-0.0472 -0.02466,-0.0141 -0.04478,-0.0361 -0.07087,-0.0472 -0.02984,-0.0128 -0.06465,-0.0109 -0.09449,-0.0236 -0.02609,-0.0112 -0.04478,-0.0361 -0.07087,-0.0472 -0.05969,-0.0256 -0.129304,-0.0217 -0.188989,-0.0472 -0.02609,-0.0112 -0.04477,-0.0361 -0.07087,-0.0473 -0.02984,-0.0128 -0.0641,-0.0122 -0.0945,-0.0236 -0.03297,-0.0124 -0.06152,-0.0349 -0.09449,-0.0473 -0.0304,-0.0114 -0.06409,-0.0122 -0.09449,-0.0236 -0.06595,-0.0247 -0.123042,-0.0698 -0.18899,-0.0945 -0.0304,-0.0114 -0.06409,-0.0122 -0.09449,-0.0236 -0.03297,-0.0124 -0.063,-0.0315 -0.0945,-0.0472 -0.0315,-0.0157 -0.06299,-0.0315 -0.09449,-0.0472 -0.0315,-0.0157 -0.06463,-0.0286 -0.09449,-0.0473 -0.03339,-0.0209 -0.06111,-0.05 -0.09449,-0.0709 -0.02986,-0.0186 -0.06463,-0.0286 -0.0945,-0.0472 -0.09112,-0.057 -0.161062,-0.13744 -0.236233,-0.21261 -0.02363,-0.0236 -0.04913,-0.0455 -0.07087,-0.0709 -0.212741,-0.24819 0.05473,0.053 -0.118118,-0.18899 -0.01942,-0.0272 -0.05145,-0.0437 -0.07087,-0.0709 -0.02125,-0.0298 -0.07324,-0.15923 -0.09449,-0.18899 -0.03884,-0.0544 -0.09896,-0.0904 -0.14174,-0.14174 -0.01818,-0.0218 -0.02907,-0.0491 -0.04725,-0.0709 -0.02138,-0.0257 -0.04948,-0.0452 -0.07087,-0.0709 -0.03635,-0.0436 -0.063,-0.0945 -0.0945,-0.14174 -0.01574,-0.0236 -0.03606,-0.0448 -0.04725,-0.0709 -0.01278,-0.0298 -0.01471,-0.0633 -0.02363,-0.0945 -0.0069,-0.0239 -0.01677,-0.0469 -0.02363,-0.0709 -0.02241,-0.0784 -0.01892,-0.0946 -0.04725,-0.16537 -0.0065,-0.0164 -0.01709,-0.0309 -0.02363,-0.0473 -0.02769,-0.0692 -0.04317,-0.14337 -0.07087,-0.21261 -0.0065,-0.0164 -0.02016,-0.03 -0.02363,-0.0472 -0.0077,-0.0386 0.0096,-0.0799 0,-0.11812 -0.0043,-0.0171 -0.02016,-0.03 -0.02363,-0.0472 -0.0077,-0.0386 0.0096,-0.0799 0,-0.11812 -0.0085,-0.0342 -0.04034,-0.06 -0.04725,-0.0945 -0.0046,-0.0232 0,-0.0473 0,-0.0709 0,-0.0157 -0.0038,-0.032 0,-0.0473 0.0043,-0.0171 0.01709,-0.0309 0.02363,-0.0472 0.0092,-0.0231 0.01437,-0.0477 0.02363,-0.0709 0.0065,-0.0164 0.01574,-0.0315 0.02363,-0.0472 0.0079,-0.0157 0.01307,-0.0332 0.02363,-0.0472 0.01336,-0.0178 0.03388,-0.0294 0.04725,-0.0473 0.01056,-0.0141 0.01307,-0.0332 0.02363,-0.0472 0.01336,-0.0178 0.03388,-0.0294 0.04725,-0.0472 0.01056,-0.0141 0.01307,-0.0332 0.02363,-0.0473 0.01336,-0.0178 0.0315,-0.0315 0.04725,-0.0472 0.0315,-0.0315 0.063,-0.063 0.0945,-0.0945 0.04725,-0.0472 0.09449,-0.0945 0.14174,-0.14174 0.01574,-0.0157 0.02943,-0.0339 0.04725,-0.0473 0.01408,-0.0105 0.03316,-0.0131 0.04725,-0.0236 0.01781,-0.0134 0.02815,-0.0358 0.04725,-0.0473 0.02135,-0.0128 0.04775,-0.0144 0.07087,-0.0236 0.01635,-0.007 0.0315,-0.0157 0.04725,-0.0236 0.01574,-0.008 0.03316,-0.013 0.04725,-0.0236 0.01783,-0.0134 0.02815,-0.0358 0.04725,-0.0472 0.02135,-0.0128 0.04725,-0.0157 0.07087,-0.0236 0.02363,-0.008 0.04725,-0.0157 0.07087,-0.0236 0.02363,-0.008 0.0486,-0.0125 0.07087,-0.0236 0.0254,-0.0127 0.04548,-0.0345 0.07087,-0.0473 0.02228,-0.0111 0.04725,-0.0157 0.07087,-0.0236 0.02363,-0.008 0.04725,-0.0157 0.07087,-0.0236 0.02363,-0.008 0.04645,-0.0187 0.07087,-0.0236 0.01545,-0.003 0.0318,0.003 0.04725,0 0.02442,-0.005 0.04725,-0.0157 0.07087,-0.0236 0.02363,-0.008 0.04725,-0.0157 0.07087,-0.0236 0.02363,-0.008 0.04622,-0.0201 0.07087,-0.0236 0.03118,-0.004 0.06331,0.004 0.09449,0 0.02466,-0.004 0.04631,-0.0195 0.07087,-0.0236 0.02331,-0.004 0.0477,0.005 0.07087,0 0.01725,-0.003 0.02998,-0.0202 0.04725,-0.0236 0.02318,-0.005 0.04757,0.004 0.07087,0 0.02455,-0.004 0.04725,-0.0157 0.07087,-0.0236 0.04725,-0.0157 0.09386,-0.0336 0.141743,-0.0473 0.03122,-0.009 0.06328,-0.0147 0.09449,-0.0236 0.04789,-0.0137 0.09449,-0.0315 0.14174,-0.0472 0.02363,-0.008 0.04775,-0.0144 0.07087,-0.0236 0.01635,-0.007 0.0309,-0.0171 0.04725,-0.0236 0.171286,-0.06851 -0.0081,0.002 0.118118,-0.0236 0.02442,-0.0049 0.04645,-0.01873 0.07087,-0.02362 0.01545,-0.0031 0.03197,0.0038 0.04725,0 0.04691,-0.01172 0.09483,-0.05914 0.14174,-0.07087 0.01527,-0.0038 0.03197,0.0038 0.04725,0 0.01709,-0.0043 0.0315,-0.01574 0.04725,-0.02363 0.0315,-0.01574 0.06108,-0.03611 0.09449,-0.04725 0.0075,-0.0024 0.01614,0.0024 0.02363,0 0.01669,-0.0056 0.0315,-0.01574 0.04725,-0.02363 0.01574,-0.0079 0.0326,-0.01386 0.04725,-0.02363 0.0093,-0.0062 0.01437,-0.01744 0.02363,-0.02363 0.0293,-0.01953 0.063,-0.0315 0.0945,-0.04725 0.04725,-0.02363 0.09449,-0.04725 0.141739,-0.07087 0.01574,-0.0079 0.03316,-0.01307 0.04725,-0.02363 0.01783,-0.01336 0.02943,-0.03388 0.04725,-0.04725 0.01408,-0.01056 0.0326,-0.01386 0.04725,-0.02363 0.0093,-0.0062 0.01437,-0.01744 0.02363,-0.02363 0.0044,-0.0029 0.09298,-0.04573 0.09449,-0.04725 0.01246,-0.01246 0.01117,-0.0348 0.02363,-0.04725 0.01246,-0.01244 0.0326,-0.01386 0.04725,-0.02363 0.0097,-0.0065 0.0644,-0.06117 0.07087,-0.07087 0.0098,-0.01466 0.01117,-0.0348 0.02363,-0.04725 0.01246,-0.01246 0.0326,-0.01386 0.04725,-0.02363 0.05427,-0.03618 -0.01013,-0.01349 0.04725,-0.07087 0.01246,-0.01246 0.03479,-0.01116 0.04725,-0.02363 0.01246,-0.01246 0.01386,-0.0326 0.02363,-0.04725 0.0062,-0.0093 0.01574,-0.01574 0.02363,-0.02363 0.0079,-0.01574 0.01386,-0.03259 0.02363,-0.04725 0.01236,-0.01852 0.0402,-0.02611 0.04725,-0.04725 0.005,-0.01495 -0.005,-0.03231 0,-0.04725 0.007,-0.02114 0.03728,-0.02733 0.04725,-0.04725 0.0035,-0.007 -0.0024,-0.01617 0,-0.02363 0.0056,-0.01669 0.01934,-0.03016 0.02363,-0.04725 0.0038,-0.01527 -0.005,-0.03231 0,-0.04725 0.0035,-0.01056 0.01744,-0.01437 0.02363,-0.02363 0.0098,-0.01466 0.01574,-0.0315 0.02363,-0.04725 0.0079,-0.01574 0.01804,-0.03054 0.02363,-0.04725 0.0024,-0.0075 0,-0.01574 0,-0.02363 0.0079,-0.02363 0.01249,-0.0486 0.02363,-0.07087 0.005,-0.0099 0.01865,-0.01365 0.02363,-0.02363 0.0035,-0.007 -0.0035,-0.01659 0,-0.02363 0.005,-0.01 0.02011,-0.01307 0.02363,-0.02363 0.0073,-0.02188 -0.0075,-0.09548 0,-0.118118 0.0056,-0.01669 0.01805,-0.03054 0.02363,-0.04725 0.0089,-0.02669 -0.01638,-0.04911 -0.02363,-0.07087 -0.0024,-0.0075 0,-0.01574 0,-0.02363 0,-0.01574 0.005,-0.03231 0,-0.04725 -0.0035,-0.01056 -0.01865,-0.01365 -0.02363,-0.02363 -0.0035,-0.007 0.0035,-0.01659 0,-0.02363 -0.005,-0.0099 -0.01574,-0.01574 -0.02363,-0.02363 -0.01574,-0.01574 -0.0315,-0.0315 -0.04725,-0.04725 -0.02363,-0.02363 -0.04415,-0.05083 -0.07087,-0.07087 -0.0093,-0.007 -0.131402,-0.06829 -0.141742,-0.07087 -0.01527,-0.0038 -0.0318,0.0031 -0.04725,0 -0.02442,-0.0049 -0.04645,-0.01873 -0.07087,-0.02363 -0.01545,-0.0031 -0.0315,0 -0.04725,0 -0.02363,0 -0.04725,0 -0.07087,0 -0.08662,0 -0.173242,0 -0.259861,0 -0.063,0 -0.125992,0 -0.188986,0 -0.01574,0 -0.0315,0 -0.04725,0 -0.01574,0 -0.03231,-0.005 -0.04725,0 -0.10428,0.03476 0.08583,0.02363 -0.07087,0.02363 -0.09228,0 -0.0024,-0.007 -0.09449,0.02363 -0.0075,0.0024 -0.01617,-0.0024 -0.02363,0 -0.01669,0.0056 -0.03016,0.01934 -0.04725,0.02363 -0.01527,0.0038 -0.03197,-0.0038 -0.04725,0 -0.01709,0.0043 -0.03016,0.01934 -0.04725,0.02363 -0.01527,0.0038 -0.03197,-0.0038 -0.04725,0 -0.03416,0.0085 -0.05996,0.04034 -0.09449,0.04725 -0.226084,0 0.05282,-0.01056 -0.118118,0.02363 -0.02315,0.0046 -0.04725,0 -0.07087,0 -0.04725,0 -0.0945,0 -0.141742,0 -0.02363,0 -0.04757,-0.0039 -0.07087,0 -0.02455,0.0041 -0.04631,0.01953 -0.07087,0.02363 -0.02331,0.0039 -0.04757,-0.0039 -0.07087,0 -0.07643,0.01275 -0.07452,0.03246 -0.141739,0.07087 -0.03058,0.01746 -0.06463,0.02858 -0.0945,0.04725 -0.03339,0.02088 -0.063,0.04725 -0.09449,0.07087 -0.063,0.04725 -0.123468,0.09806 -0.188989,0.14174 -0.0382,0.02548 -0.08187,0.04268 -0.118118,0.07087 -0.179819,0.139859 -0.008,0.05228 -0.188986,0.165365 -0.02986,0.01865 -0.06478,0.02834 -0.09449,0.04725 -0.09793,0.06232 -0.180178,0.137337 -0.283482,0.188989 -0.01574,0.0079 -0.03016,0.01934 -0.04725,0.02363 -0.01527,0.0038 -0.03197,-0.0038 -0.04725,0 -0.01709,0.0043 -0.03054,0.01807 -0.04725,0.02363 -0.0075,0.0024 -0.01574,0 -0.02363,0 -0.01574,0 -0.0315,0 -0.04725,0 -0.02363,0 -0.04771,0.0046 -0.07087,0 -0.01728,-0.0034 -0.0315,-0.01574 -0.04725,-0.02363 -0.01574,-0.0079 -0.03215,-0.01455 -0.04725,-0.02363 -0.02434,-0.0146 -0.04725,-0.0315 -0.07087,-0.04725 -0.05262,-0.03508 -0.07965,-0.04641 -0.118118,-0.0945 -0.01773,-0.02217 -0.0315,-0.04725 -0.04725,-0.07087 -0.0315,-0.04725 -0.063,-0.0945 -0.09449,-0.141743 -0.04714,-0.07071 -0.09235,-0.143465 -0.141742,-0.212611 -0.02289,-0.03204 -0.05,-0.06111 -0.07087,-0.09449 -0.01865,-0.02986 -0.0315,-0.063 -0.04725,-0.09449 -0.01574,-0.0315 -0.03337,-0.06213 -0.04725,-0.0945 -0.0098,-0.02289 -0.01249,-0.0486 -0.02363,-0.07087 -0.0127,-0.0254 -0.03316,-0.04622 -0.04725,-0.07087 -0.03494,-0.06115 -0.063,-0.125992 -0.09449,-0.188989 -0.01574,-0.0315 -0.0315,-0.06299 -0.04725,-0.09449 -0.01574,-0.0315 -0.03611,-0.06108 -0.04725,-0.09449 -0.05781,-0.173432 -0.0016,-0.0588 -0.02363,-0.212612 -0.0035,-0.02466 -0.01953,-0.04631 -0.02363,-0.07087 -0.0039,-0.02331 0,-0.04725 0,-0.07087 0,-0.01574 -0.0031,-0.0318 0,-0.04725 0.0048,-0.02418 0.01598,-0.07887 0.04725,-0.09449 0.007,-0.0035 0.01574,0 0.02363,0 0.01574,0 0.0315,0 0.04725,0 0.01574,0 0.03197,-0.0038 0.04725,0 0.03416,0.0085 0.06108,0.03611 0.09449,0.04725 0.0075,0.0024 0.01574,0 0.02363,0 0.01574,0 0.0315,0 0.04725,0 0.0079,0 0.01574,0 0.02363,0 0.0079,0 0.01659,0.0035 0.02363,0 0.0099,-0.005 0.01574,-0.01574 0.02363,-0.02363 0.0079,-0.0079 0.02011,-0.01307 0.02363,-0.02363 0.0099,-0.02988 -0.0076,-0.06394 0,-0.0945 0.0043,-0.01709 0.01934,-0.03016 0.02363,-0.04725 0.01265,-0.05057 -0.015,-0.06643 -0.02363,-0.118118 -0.0078,-0.0466 0.0078,-0.09514 0,-0.14174 -0.0041,-0.02455 -0.02011,-0.04622 -0.02363,-0.07087 -0.0044,-0.03118 0,-0.06299 0,-0.09449 0,-0.02363 -0.0033,-0.04748 0,-0.07087 0.0019,-0.01352 0.03463,-0.144331 0.04725,-0.165365 0.01146,-0.0191 0.03728,-0.02733 0.04725,-0.04725 0.007,-0.01407 0,-0.0315 0,-0.04725 0,-0.01574 0,-0.0315 0,-0.04725 0,-0.0315 0,-0.063 0,-0.09449 0,-0.01574 0.0038,-0.03197 0,-0.04725 -0.0043,-0.01709 -0.02016,-0.02998 -0.02363,-0.04725 -0.0077,-0.03861 0.0077,-0.07951 0,-0.118118 -0.0049,-0.02442 -0.01873,-0.04645 -0.02363,-0.07087 -0.0075,-0.0374 0.0088,-0.106378 0,-0.141742 -0.0043,-0.01709 -0.01669,-0.03106 -0.02363,-0.04725 -0.0167,-0.03898 -0.03054,-0.07914 -0.04725,-0.118118 -0.0069,-0.01619 -0.02016,-0.02998 -0.02363,-0.04725 -7.94e-4,-0.0043 -0.003,-0.153466 0,-0.165364 0.0043,-0.01709 0.01934,-0.03016 0.02363,-0.04725 0.0038,-0.01527 -0.0038,-0.03197 0,-0.04725 0.0043,-0.01709 0.01574,-0.0315 0.02363,-0.04725 0.0079,-0.01574 0.01574,-0.0315 0.02363,-0.04725 0.0079,-0.01574 0.01574,-0.0315 0.02363,-0.04725 0.0079,-0.01574 0.01307,-0.03316 0.02363,-0.04725 0.01336,-0.01781 0.0315,-0.0315 0.04725,-0.04725 0.05174,-0.05174 0.04858,-0.05476 0.118118,-0.09449 0.03057,-0.01746 0.06392,-0.02978 0.09449,-0.04725 0.08889,-0.05079 0.05362,-0.0569 0.165365,-0.07087 0.03126,-0.0039 0.06331,0.0044 0.0945,0 0.02466,-0.0035 0.04631,-0.01953 0.07087,-0.02363 0.268695,-0.04478 -0.08458,0.04394 0.118118,-0.02363 0.0308,-0.01027 0.06266,-0.01725 0.0945,-0.02363 0.05023,-0.01005 -0.0035,0.02598 0.07087,-0.02363 0.03007,-0.02005 0.06539,-0.07266 0.0945,-0.0945 0.01408,-0.01056 0.0315,-0.01574 0.04725,-0.02363 0.01574,-0.01574 0.02943,-0.03388 0.04725,-0.04725 0.01408,-0.01056 0.03215,-0.01455 0.04725,-0.02363 0.05546,-0.03328 0.06412,-0.04927 0.118117,-0.07087 0.0031,-0.0013 0.140963,-0.04678 0.14174,-0.04725 0.0191,-0.01146 0.02815,-0.03579 0.04725,-0.04725 0.02135,-0.01281 0.04952,-0.01082 0.07087,-0.02363 0.0382,-0.02291 0.05886,-0.06777 0.09449,-0.0945 0.01408,-0.01056 0.03316,-0.01307 0.04725,-0.02363 0.05704,-0.04278 0.048,-0.06 0.09449,-0.118118 0.01392,-0.01738 0.0315,-0.0315 0.04725,-0.04725 0.09871,-0.09871 0.04414,-0.05083 0.165364,-0.141742 0.0315,-0.02363 0.06111,-0.05 0.09449,-0.07087 0.02986,-0.01865 0.06371,-0.03015 0.0945,-0.04725 0.04014,-0.0223 0.07705,-0.05033 0.118118,-0.07087 0.11235,-0.05618 0.242001,-0.08557 0.354351,-0.141742 0.04107,-0.02053 0.07705,-0.05034 0.118118,-0.07087 0.03793,-0.01897 0.07874,-0.0315 0.118118,-0.04725 0.03937,-0.01574 0.07841,-0.03236 0.118118,-0.04725 0.0863,-0.03236 0.173558,-0.06213 0.259857,-0.09449 0.03971,-0.0149 0.08019,-0.02828 0.118118,-0.04725 0.125992,-0.063 0.02363,-0.02363 0.118118,-0.118118 0.0759,-0.0759 0.181372,-0.11743 0.283483,-0.14174 0.100756,-0.024 0.204166,-0.03581 0.307104,-0.04725 0.260332,-0.02892 0.51852,-0.02363 0.779577,-0.02363 0.149614,0 0.29923,0 0.448847,0 0.04725,0 0.09473,0.0047 0.14174,0 0.274431,-0.02744 -0.01783,-0.02363 0.141742,-0.02363"
       id="path880"
       inkscape:connector-curvature="0"
       inkscape:export-xdpi="96"
       inkscape:export-ydpi="96" />
    <path
       style="fill:none;stroke:#000000;stroke-width:0.26458332px;stroke-linecap:butt;stroke-linejoin:miter;stroke-opacity:1"
       d="m 62.31841,93.601121 c 0.1299,-0.05343 0.274815,-0.07947 0.389702,-0.160277 0.02577,-0.01812 -0.04222,-0.04714 -0.06682,-0.06682 -0.03135,-0.02508 -0.07183,-0.03843 -0.100224,-0.06682 -0.073,-0.073 -0.06682,-0.0702 -0.06682,-0.133636 0,-0.01114 0.0035,-0.02283 0,-0.03341 -0.0079,-0.02363 -0.02553,-0.04319 -0.03341,-0.06682 -0.0039,-0.01161 -0.0021,-0.158519 0,-0.167042 0.006,-0.02416 0.02553,-0.04319 0.03341,-0.06682 0.007,-0.02114 -0.01,-0.0469 0,-0.06682 0.01408,-0.02817 0.05686,-0.03694 0.06682,-0.06682 0.007,-0.02114 0,-0.04454 0,-0.06682 0,-0.01114 -0.005,-0.02344 0,-0.03341 0.007,-0.01408 0.02635,-0.01932 0.03341,-0.03341 0.0096,-0.01918 -0.0071,-0.138608 0,-0.167045 -0.02013,-0.06047 0.05412,-0.06213 0.06682,-0.100227 0.007,-0.02114 -0.007,-0.04569 0,-0.06681 0.0099,-0.02988 0.05273,-0.03865 0.06682,-0.06682 0.005,-0.01 -0.005,-0.02344 0,-0.03341 0.007,-0.01408 0.03341,-0.01765 0.03341,-0.03341 0,-0.0249 -0.02553,-0.04319 -0.03341,-0.06682 -0.007,-0.02114 0,-0.04454 0,-0.06682 0,-0.04454 0,-0.08909 0,-0.133633 0,-0.107542 -0.0079,0.05703 0.03341,-0.06682 0.01056,-0.03169 0,-0.06682 0,-0.100227 0,-0.01114 0.005,-0.02344 0,-0.03341 -0.007,-0.01408 -0.02635,-0.01932 -0.03341,-0.03341 -0.005,-0.0099 0.005,-0.02344 0,-0.03341 -0.006,-0.01196 -0.11974,-0.124373 -0.133633,-0.133633 -0.02072,-0.01381 -0.04737,-0.01786 -0.06682,-0.03341 -0.03689,-0.02951 -0.06393,-0.06998 -0.100227,-0.100227 -0.03084,-0.02569 -0.07183,-0.03843 -0.100227,-0.06682 -0.02839,-0.02839 -0.04348,-0.06755 -0.06682,-0.100224 -0.03236,-0.04531 -0.06681,-0.08909 -0.100224,-0.133636"
       id="path882"
       inkscape:connector-curvature="0"
       inkscape:export-xdpi="96"
       inkscape:export-ydpi="96" />
    <path
       style="fill:none;stroke:#000000;stroke-width:0.26458332px;stroke-linecap:butt;stroke-linejoin:miter;stroke-opacity:1"
       d="m 65.213764,90.567697 c 0.04315,0.172587 0.0079,0.09543 0.100226,0.233862 0.02228,0.03341 0.03843,0.07183 0.06682,0.100224 0.02839,0.02839 0.06887,0.04174 0.100224,0.06682 0.127863,0.102291 0.01839,0.02453 0.100227,0.133636 0.0378,0.05039 0.09584,0.08324 0.133636,0.133633 0.0441,0.0588 0.05613,0.141653 0.100224,0.200454 0.01889,0.02519 0.04792,0.04162 0.06682,0.06682 0.01495,0.01992 0.01847,0.04689 0.03341,0.06682 0.01889,0.02519 0.04792,0.04162 0.06682,0.06682 0.01495,0.01992 0.02228,0.04454 0.03341,0.06682 0.01114,0.02228 0.02853,0.0424 0.03341,0.06682 0.01072,0.05354 -0.01072,0.113503 0,0.167042 0.0069,0.03453 0.0265,0.0657 0.03341,0.100226 0.0044,0.02186 -0.0054,0.04521 0,0.06682 0.006,0.02416 0.02228,0.04454 0.03341,0.06682 0.01114,0.03341 0.0265,0.06569 0.03341,0.100224 0.0044,0.02183 -0.0054,0.04521 0,0.06682 0.006,0.02416 0.02228,0.04454 0.03341,0.06682 0.01114,0.02228 0.0196,0.0461 0.03341,0.06682 0.05097,0.07645 0.02646,-0.0209 0.06682,0.100227 0.006,0.01802 0.0024,0.190907 0,0.200451 -0.006,0.02416 -0.02853,0.0424 -0.03341,0.06682 -0.0066,0.03276 0.0055,0.06727 0,0.100226 -0.0058,0.03473 -0.02228,0.06682 -0.03341,0.100225 -0.01114,0.03341 -0.01765,0.06873 -0.03341,0.100226 -0.01797,0.03592 -0.04616,0.0658 -0.06682,0.100227 -0.04701,0.07835 -0.02857,0.07143 -0.06682,0.167042 -0.0093,0.02312 -0.02737,0.04266 -0.03341,0.06682 -0.0054,0.02162 0.0054,0.04521 0,0.06682 -0.01207,0.04832 -0.05474,0.08532 -0.06682,0.133633 -0.0145,0.05801 0.0145,0.142449 0,0.200454 -0.01209,0.04832 -0.05107,0.08639 -0.06682,0.133635 -0.0035,0.01056 0.0035,0.02283 0,0.03341 -0.0079,0.02363 -0.02228,0.04454 -0.03341,0.06682 -0.01114,0.02228 -0.0196,0.0461 -0.03341,0.06682 -0.0087,0.0131 -0.02843,0.01847 -0.03341,0.03341 -0.01056,0.03169 0,0.06682 0,0.100227 0,0.02228 0,0.04454 0,0.06682 0,0.01114 -0.0079,0.02553 0,0.03341 0.0079,0.0079 0.02344,-0.005 0.03341,0 0.110805,0.110805 -0.0315,-0.01574 0.06682,0.03341 0.01408,0.007 0.01932,0.02635 0.03341,0.03341 0.0099,0.005 0.02228,0 0.03341,0 0.02228,0.01114 0.0461,0.01961 0.06682,0.03341 0.07645,0.05097 -0.0209,0.02646 0.100227,0.06682 0.01056,0.0035 0.02553,-0.0079 0.03341,0 0.04454,0.04454 -0.07087,0.03206 0.03341,0.06682 0.03169,0.01056 0.06682,0 0.100227,0 0.03474,0 0.174172,0.0066 0.200453,0 0.02416,-0.006 0.0437,-0.02416 0.06682,-0.03341 0.09248,-0.03699 0.192722,-0.05909 0.267271,-0.133636 0.02839,-0.02839 0.04173,-0.06887 0.06682,-0.100224 0.01968,-0.02461 0.04455,-0.04454 0.06682,-0.06682 0.05568,-0.05568 0.111363,-0.111363 0.167045,-0.167044 0.03341,-0.03341 0.06998,-0.06393 0.100227,-0.100227 0.05141,-0.06169 0.07685,-0.143666 0.133633,-0.200451 0.02839,-0.02839 0.07183,-0.03843 0.100227,-0.06682 0.02839,-0.02839 0.04111,-0.06938 0.06682,-0.100227 0.03025,-0.0363 0.06998,-0.06393 0.100225,-0.100224 0.02572,-0.03084 0.03842,-0.07183 0.06682,-0.100227 0.02839,-0.02839 0.07514,-0.03547 0.100227,-0.06682 0.02199,-0.0275 0.01765,-0.06873 0.03341,-0.100224 0.01797,-0.03591 0.04616,-0.0658 0.06682,-0.100227 0.01281,-0.02135 0.02228,-0.04454 0.03341,-0.06682 0.02228,-0.03341 0.04616,-0.0658 0.06681,-0.100226 0.02905,-0.04842 0.07932,-0.148194 0.100227,-0.200451 0.01307,-0.0327 0.02032,-0.06753 0.03341,-0.100227 0.04621,-0.115525 0.01744,-0.02323 0.100227,-0.133636 0.101264,-0.135017 0.0053,-0.01587 0.03341,-0.100224 0.01574,-0.04725 0.05705,-0.0848 0.06681,-0.133636 0.0066,-0.03276 -0.0066,-0.06747 0,-0.100227 0.0049,-0.02442 0.02853,-0.0424 0.03341,-0.06682 0.0131,-0.06552 -0.01098,-0.134546 0,-0.200454 -0.01162,-0.06797 0.05506,-0.108238 0.06682,-0.167042 0.0066,-0.03276 -0.0066,-0.06747 0,-0.100226 0.0049,-0.02442 0.02737,-0.04266 0.03341,-0.06682 0.0054,-0.02162 -0.0054,-0.04521 0,-0.06682 0.006,-0.02416 0.02737,-0.04266 0.03341,-0.06682 0.0054,-0.02162 -0.007,-0.04569 0,-0.06681 0.005,-0.01495 0.02843,-0.01847 0.03341,-0.03341 0.02175,-0.06525 -0.01437,-0.07649 -0.03341,-0.133636 -0.0035,-0.01056 0.0035,-0.02283 0,-0.03341 -0.0079,-0.02363 -0.02853,-0.0424 -0.03341,-0.06682 -0.0066,-0.03276 0,-0.06682 0,-0.100224 0,-0.03341 -0.0047,-0.06715 0,-0.100227 0.0065,-0.04546 0.02228,-0.08909 0.03341,-0.133635 0.02228,-0.08909 0.04454,-0.178179 0.06682,-0.267269"
       id="path884"
       inkscape:connector-curvature="0"
       inkscape:export-xdpi="96"
       inkscape:export-ydpi="96" />
    <path
       style="fill:none;stroke:#000000;stroke-width:0.165;stroke-linecap:butt;stroke-linejoin:miter;stroke-opacity:1;stroke-miterlimit:4;stroke-dasharray:none"
       d="m 97.210752,72.671129 c 0.01574,0 0.0315,0 0.04725,0 0.0079,0.0039 0.01495,0.01037 0.02363,0.0118 0.01553,0.0026 0.0315,0 0.04725,0 0.0079,0 0.0159,0.0016 0.02363,0 0.0122,-0.0024 0.02323,-0.0094 0.03543,-0.0118 0.0077,-0.0016 0.01574,0 0.02363,0 0.01574,0 0.0315,0 0.04725,0 0.0079,0 0.01614,0.0024 0.02363,0 0.0053,-0.0019 0.0063,-0.0109 0.0118,-0.0118 0.01942,-0.0032 0.03937,0 0.05906,0 0.02363,0 0.04733,0.0019 0.07087,0 0.02387,-0.0021 0.04699,-0.01 0.07087,-0.01183 0.05496,-0.0042 0.110365,0.0037 0.165364,0 0.03167,-0.0021 0.0628,-0.01005 0.0945,-0.0118 0.03931,-0.0021 0.07874,0 0.118116,0 0.03937,0 0.07874,0 0.118118,0"
       id="path888"
       inkscape:connector-curvature="0"
       inkscape:export-xdpi="96"
       inkscape:export-ydpi="96" />
    <path
       style="fill:none;stroke:#000000;stroke-width:0.26458332px;stroke-linecap:butt;stroke-linejoin:miter;stroke-opacity:1"
       d="m 98.368304,72.434894 c -0.04349,-0.007 -0.07832,0.01037 -0.118118,0.02363 -0.0118,0.0039 -0.02548,0.0043 -0.03544,0.0118 -0.01175,0.0088 -0.01503,0.03438 -0.0118,0.04725 0.0021,0.0085 0.0079,0.01574 0.0118,0.02363 0.0039,0.0079 0.0065,0.01659 0.0118,0.02363 0.01336,0.01783 0.03579,0.02815 0.04725,0.04725 0.0064,0.01066 0.0054,0.02477 0.01183,0.03543 0.06592,0.109865 -0.02368,-0.08278 0.04725,0.05906 0.0056,0.01114 0.0062,0.02429 0.0118,0.03544 0.0063,0.0127 0.01728,0.02273 0.02363,0.03543 0.0056,0.01114 0.0079,0.02363 0.0118,0.03543 0.01461,0.04379 0.0062,0.02429 0.02363,0.05906 0.0039,0.0079 0.0056,0.01738 0.0118,0.02363 0.0062,0.0062 0.0163,0.0069 0.02363,0.01183 0.0046,0.0031 0.0065,0.01005 0.01183,0.0118 0.0075,0.0024 0.01574,0 0.02363,0 0.0079,0 0.01574,0 0.02363,0 0.0079,0 0.01598,0.0019 0.02363,0 0.02697,-0.0067 0.05185,-0.04003 0.07087,-0.05906 0.0079,-0.0079 0.01865,-0.01365 0.02363,-0.02363 0.0072,-0.01453 0.0061,-0.03205 0.0118,-0.04725 0.01236,-0.03298 0.03488,-0.06152 0.04725,-0.09449 0.0057,-0.01519 0.0079,-0.0315 0.0118,-0.04725 0.0039,-0.01574 0.0079,-0.0315 0.01183,-0.04725 0.0039,-0.01574 0.0095,-0.03118 0.0118,-0.04725 0.0016,-0.0117 0,-0.02363 0,-0.03544 0,-0.02363 0,-0.04725 0,-0.07087 0,-0.0079 0.0044,-0.01707 0,-0.02363 -0.0049,-0.0073 -0.01574,-0.0079 -0.02363,-0.0118 -0.0079,-0.0039 -0.01498,-0.01008 -0.02363,-0.01183 -0.01159,-0.0024 -0.02363,0 -0.03543,0 -0.05167,0 -0.02397,-0.0029 -0.08268,0.01183 -0.01574,0.0039 -0.03233,0.0054 -0.04725,0.0118 -0.03385,0.0145 -0.03893,0.0409 -0.08268,0.03544 -0.01746,-0.0021 -0.03026,-0.02826 -0.04725,-0.02363 -0.03268,0.0089 -0.05308,0.04261 -0.08268,0.05906 -0.0069,0.0038 -0.01574,0 -0.02363,0 -0.0079,0 -0.01574,0 -0.02363,0 -0.0039,0 -0.01056,-0.0037 -0.0118,0 -0.0154,0.0462 -0.0236,0.0945 -0.03541,0.141745"
       id="path890"
       inkscape:connector-curvature="0"
       inkscape:export-xdpi="96"
       inkscape:export-ydpi="96" />
    <path
       style="fill:none;stroke:#000000;stroke-width:0.26458332px;stroke-linecap:butt;stroke-linejoin:miter;stroke-opacity:1"
       d="m 96.903645,72.458518 c -0.0095,0.04978 -0.0411,0.0028 -0.05906,0.0118 -0.005,0.0024 -0.0079,0.0079 -0.0118,0.0118 -0.0079,0.0079 -0.01508,0.01648 -0.02363,0.02363 -0.01513,0.0126 -0.03333,0.02151 -0.04725,0.03544 -0.01392,0.01392 -0.02283,0.03212 -0.03544,0.04725 -0.0071,0.0085 -0.01667,0.01492 -0.02363,0.02363 -0.01717,0.02148 -0.03084,0.04329 -0.03544,0.07087 -0.0019,0.01164 0,0.02363 0,0.03544 0,0.0597 -0.005,0.03231 0.0118,0.08268 0.0039,0.0118 0.0054,0.02476 0.0118,0.03543 0.0057,0.0096 0.01574,0.01574 0.02363,0.02363 0.0118,0.0118 0.02154,0.02617 0.03543,0.03543 0.009,0.006 0.07784,0.02302 0.08268,0.02363 0.04892,0.0061 0.04083,1.45e-4 0.08268,-0.0118 0.01561,-0.0045 0.03205,-0.0061 0.04725,-0.01183 0.01648,-0.0062 0.03106,-0.01669 0.04725,-0.02363 0.01146,-0.0049 0.02477,-0.0054 0.03544,-0.0118 0.02625,-0.01574 0.055,-0.06347 0.04725,-0.0945 -0.0039,-0.01542 -0.02999,-0.04998 -0.03544,-0.05906 -0.0045,-0.0075 -0.0065,-0.01659 -0.0118,-0.02363 -0.0067,-0.0089 -0.01574,-0.01574 -0.02363,-0.02363 -0.0079,-0.0079 -0.01574,-0.01574 -0.02363,-0.02363 -0.0079,-0.0079 -0.01574,-0.01574 -0.02363,-0.02363 -0.0079,-0.0079 -0.01471,-0.01693 -0.02363,-0.02363 -0.007,-0.0053 -0.01574,-0.0079 -0.02363,-0.0118"
       id="path892"
       inkscape:connector-curvature="0"
       inkscape:export-xdpi="96"
       inkscape:export-ydpi="96" />
    <path
       style="fill:none;stroke:#000000;stroke-width:0.26458332px;stroke-linecap:butt;stroke-linejoin:miter;stroke-opacity:1"
       d="m 98.864398,72.600258 c 0.170386,0.04868 0.0068,0.01013 0.14174,0.02363 0.01998,0.0021 0.0391,0.0096 0.05906,0.0118 0.01566,0.0019 0.0315,0 0.04725,0 0.01969,0 0.03937,0 0.05906,0 0.187698,0 -0.03452,0.0046 0.129929,-0.0118 0.01958,-0.0019 0.03937,0 0.05906,0 0.05512,0 0.110242,0 0.165365,0 0.0079,0 0.01574,0 0.02363,0 0.0118,0 0.02397,-0.0029 0.03544,0 0.0054,0.0013 0.0065,0.01005 0.0118,0.0118 0.01119,0.0037 0.02363,0 0.03544,0 0.0039,0 0.0083,0.0019 0.0118,0 0.02151,-0.01074 0.0069,-0.009 0.0118,-0.02363 0.0028,-0.0084 0.01008,-0.015 0.0118,-0.02363 0.0039,-0.01931 -0.0039,-0.03975 0,-0.05906 0.0024,-0.01222 0.01005,-0.0231 0.0118,-0.03544 0.0082,-0.05731 -0.01225,-0.03833 0.01183,-0.0945 0.0056,-0.01304 0.01802,-0.02238 0.02363,-0.03543 0.0064,-0.01492 0.0079,-0.0315 0.0118,-0.04725 0.006,-0.02397 0.01347,-0.05896 0.02363,-0.08268 0.0069,-0.01619 0.0167,-0.03106 0.02363,-0.04725 0.0049,-0.01146 0.0062,-0.02429 0.0118,-0.03544 0.0063,-0.0127 0.03101,-0.04138 0.03544,-0.05906 0.0019,-0.0076 -0.0019,-0.01598 0,-0.02363 0.0028,-0.0113 0.02365,-0.04135 0.03544,-0.04725 0.0082,-0.0041 0.05491,0.0042 0.05906,0 0.0028,-0.0028 0.0028,-0.009 0,-0.0118 -0.0062,-0.0062 -0.01574,-0.0079 -0.02363,-0.0118 -0.01574,-0.0079 -0.03196,-0.0149 -0.04725,-0.02363 -0.01233,-0.007 -0.02273,-0.01728 -0.03544,-0.02363 -0.0093,-0.0046 -0.09679,-0.03408 -0.106305,-0.03544 -0.01558,-0.0021 -0.0315,0 -0.04725,0 -0.01574,0 -0.0315,0 -0.04725,0 -0.05119,0 -0.10237,0 -0.153554,0 -0.02363,0 -0.04733,-0.0019 -0.07087,0 -0.02387,0.0021 -0.047,0.0098 -0.07087,0.0118 -0.02355,0.0019 -0.04738,-0.0024 -0.07087,0 -0.0515,0.0054 -0.102341,0.01593 -0.153553,0.02363 -0.08259,0.01238 -0.165503,0.02273 -0.248047,0.03543 -0.02368,0.0037 -0.047,0.0098 -0.07087,0.01183 -0.02355,0.0019 -0.04734,-0.0021 -0.07087,0 -0.02,0.0019 -0.03909,0.0098 -0.05906,0.0118 -0.01958,0.0019 -0.03937,0 -0.05906,0 -0.01969,0 -0.03937,0 -0.05906,0 -0.0118,0 -0.02379,0.0019 -0.03544,0 -0.01228,-0.0021 -0.02323,-0.0094 -0.03543,-0.0118 -0.0097,-0.0019 -0.053,0.003 -0.05906,0 -0.01148,-0.0057 -0.01971,-0.02627 -0.02363,-0.03544 -0.0084,-0.0195 -0.01781,-0.03867 -0.02363,-0.05906 -0.0021,-0.0076 0,-0.01574 0,-0.02363 0,-0.0118 0.0016,-0.02373 0,-0.03544 -0.0024,-0.01606 -0.0095,-0.03118 -0.0118,-0.04725 -0.0039,-0.02728 0.0034,-0.05533 0,-0.08268 -0.0021,-0.01611 -0.0095,-0.03118 -0.0118,-0.04725 -0.0016,-0.0117 0.0016,-0.02373 0,-0.03544 -0.01746,-0.122161 -0.0077,0.03723 -0.02363,-0.106307 -0.0019,-0.01566 0.0019,-0.03162 0,-0.04725 -0.0021,-0.01611 -0.0079,-0.0315 -0.0118,-0.04725 -0.0039,-0.01969 -0.0096,-0.03911 -0.01183,-0.05906 -0.0019,-0.01566 0,-0.0315 0,-0.04725 -0.0039,-0.01574 -0.0098,-0.03114 -0.0118,-0.04725 -0.0019,-0.01564 0.0019,-0.03162 0,-0.04725 -0.01831,-0.146476 -0.004,0.03499 -0.02363,-0.08268 -0.0032,-0.01942 0.0039,-0.03975 0,-0.05906 -0.0024,-0.01222 -0.0094,-0.02323 -0.0118,-0.03544 -0.0016,-0.0077 0.0019,-0.01598 0,-0.02363 -0.0021,-0.0085 -0.0097,-0.01508 -0.0118,-0.02363 -0.0019,-0.0076 0.0019,-0.01598 0,-0.02363 -0.0053,-0.02109 -0.02109,-0.03291 -0.03544,-0.04725 -0.01569,-0.01569 -0.02487,-0.02984 -0.04725,-0.03544 -0.0076,-0.0019 -0.01574,0 -0.02363,0 -0.0118,0 -0.02363,0 -0.03544,0 -0.01574,0 -0.0315,0 -0.04725,0 -0.0118,0 -0.02373,-0.0016 -0.03544,0 -0.01606,0.0024 -0.0315,0.0079 -0.04725,0.0118 -0.0315,0.0079 -0.06346,0.01408 -0.09449,0.02363 -0.0569,0.01752 -0.05547,0.02466 -0.106307,0.04725 -0.01937,0.0086 -0.03968,0.015 -0.05906,0.02363 -0.03218,0.01429 -0.063,0.0315 -0.09449,0.04725 -0.01574,0.0079 -0.03196,0.0149 -0.04725,0.02363 -0.03688,0.02109 -0.06988,0.04902 -0.106307,0.07087 -0.04198,0.02519 -0.0068,-0.005 -0.04725,0.03544 -0.0039,0.0039 -0.0093,0.0068 -0.0118,0.0118 -0.0019,0.0035 0,0.0079 0,0.0118 0,0.0079 0,0.01574 0,0.02363 0,0.0039 -0.0019,0.0083 0,0.0118 0.0016,0.0031 0.0323,0.03387 0.03543,0.03544 0.0035,0.0019 0.0118,-0.0039 0.0118,0 0,0.0056 -0.0065,0.01005 -0.0118,0.0118 -0.0075,0.0024 -0.01585,-0.0013 -0.02363,0 -0.01601,0.0027 -0.03111,0.01003 -0.04725,0.0118 -0.01958,0.0021 -0.03937,0 -0.05906,0 -0.03937,0.0039 -0.07899,0.006 -0.118118,0.0118 -0.03971,0.006 -0.07865,0.01622 -0.118115,0.02363 -0.241798,0.04534 0.0793,-0.01823 -0.129932,0.02363 -0.03937,0.0079 -0.07875,0.01574 -0.118115,0.02363 -0.01968,0.0039 -0.04001,0.0055 -0.05906,0.0118 -0.01669,0.0056 -0.0315,0.01574 -0.04725,0.02363 -0.0315,0.01574 -0.063,0.0315 -0.09449,0.04725 -0.0315,0.01574 -0.063,0.0315 -0.0945,0.04725 -0.01574,0.0079 -0.03196,0.0149 -0.04725,0.02363 -0.02466,0.01408 -0.04652,0.03264 -0.07087,0.04725 -0.01511,0.009 -0.0315,0.01574 -0.04725,0.02363 -0.0079,0.0039 -0.01527,0.009 -0.02363,0.0118 -0.0037,0.0013 -0.0083,-0.0019 -0.0118,0 -0.0208,0.0104 -0.007,0.01611 -0.01183,0.03543 -0.0021,0.0085 -0.0085,0.01545 -0.0118,0.02363 -0.0046,0.01156 -0.0079,0.02363 -0.0118,0.03543 -0.0084,0.02524 -0.01992,0.05673 -0.02363,0.08268 -0.0016,0.01169 0,0.02363 0,0.03543 0,0.01574 0,0.0315 0,0.04725 0,0.0118 -0.0016,0.02373 0,0.03544 0.0024,0.01606 0.0074,0.03164 0.0118,0.04725 0.0034,0.01199 0.0072,0.02387 0.0118,0.03544 0.0033,0.0082 0.0097,0.01508 0.0118,0.02363 0.0019,0.0076 0,0.01574 0,0.02363 0.0039,0.0079 0.0097,0.01508 0.0118,0.02363 0.0019,0.0076 -0.0024,0.01617 0,0.02363 0.0019,0.0053 0.0093,0.0068 0.01183,0.0118 0.0019,0.0035 0,0.0079 0,0.0118 0,0.0079 0.0024,0.01617 0,0.02363 -0.004,0.01204 -0.029,0.01881 -0.03544,0.02363 -0.0089,0.0067 -0.01471,0.01693 -0.02363,0.02363 -0.007,0.0053 -0.01606,0.0073 -0.02363,0.0118 -0.01217,0.0073 -0.02363,0.01574 -0.03544,0.02363 -0.04109,0.02739 -0.08472,0.05078 -0.129929,0.07087 -0.01937,0.0086 -0.04053,0.01333 -0.05906,0.02363 -0.0172,0.0096 -0.03004,0.02588 -0.04725,0.03544 -0.115758,0.0463 -0.0064,-0.0034 -0.106307,0.05906 -0.01492,0.0093 -0.03196,0.0149 -0.04725,0.02363 -0.01233,0.007 -0.02363,0.01574 -0.03544,0.02363 -0.0118,0.0079 -0.02434,0.01476 -0.03543,0.02363 -0.0087,0.007 -0.01574,0.01574 -0.02363,0.02363 -0.0118,0.0118 -0.02543,0.02207 -0.03544,0.03544 -0.0024,0.0031 0,0.0079 0,0.0118 0,0.0039 -0.0019,0.0083 0,0.0118 0.0024,0.005 0.0087,0.0072 0.0118,0.01183 0.0049,0.0073 0.0056,0.01738 0.0118,0.02363 0.0062,0.0062 0.01606,0.0073 0.02363,0.0118 0.01217,0.0073 0.02273,0.01728 0.03544,0.02363 0.01114,0.0056 0.02387,0.0072 0.03544,0.0118 0.0082,0.0033 0.01545,0.0085 0.02363,0.01183 0.01156,0.0046 0.02363,0.0079 0.03543,0.0118 0.0118,0.0039 0.02315,0.0098 0.03543,0.0118 0.01164,0.0019 0.02387,-0.0024 0.03544,0 0.0086,0.0019 0.01545,0.0085 0.02363,0.0118 0.118899,0.04756 -0.02508,-0.0092 0.05906,0.0118 0.0085,0.0021 0.01508,0.0097 0.02363,0.0118 0.0076,0.0019 0.01598,-0.0019 0.02363,0 0.0085,0.0021 0.01508,0.0097 0.02363,0.0118 0.0076,0.0019 0.01574,0 0.02363,0 0.0039,0 0.0083,-0.0019 0.0118,0 0.005,0.0024 0.0068,0.0093 0.0118,0.01183 0.0035,0.0019 0.0083,-0.0019 0.0118,0 0.005,0.0024 0.0093,0.0068 0.01183,0.0118 0.0019,0.0035 0,0.0079 0,0.0118 0,0.0079 0.0024,0.01617 0,0.02363 -0.0019,0.0053 -0.0079,0.0079 -0.01183,0.0118"
       id="path894"
       inkscape:connector-curvature="0"
       inkscape:export-xdpi="96"
       inkscape:export-ydpi="96" />
    <path
       style="fill:none;stroke:#000000;stroke-width:0.26458332px;stroke-linecap:butt;stroke-linejoin:miter;stroke-opacity:1"
       d="m 99.821149,71.915178 c 0.02776,-0.0694 0.01746,-0.05276 0.05906,-0.118118 0.01524,-0.02394 0.02951,-0.0487 0.04725,-0.07087 0.06117,-0.06117 0.03388,-0.02943 0.08269,-0.09449 0.0893,-0.119131 -0.02437,0.02784 0.0827,-0.09449 0.013,-0.01482 0.0215,-0.03333 0.0354,-0.04725 0.0139,-0.01392 0.0333,-0.02151 0.0473,-0.03543 0.0679,-0.06794 -1.3e-4,-0.03008 0.0827,-0.0945 0.0181,-0.0141 0.0409,-0.02133 0.0591,-0.03544 0.0899,-0.06993 0.004,-0.02614 0.0945,-0.08268 0.0149,-0.0093 0.0329,-0.01339 0.0472,-0.02363 0.0136,-0.0097 0.0226,-0.02474 0.0354,-0.03544 0.0109,-0.0091 0.0243,-0.01476 0.0354,-0.02363 0.009,-0.007 0.0149,-0.01667 0.0236,-0.02363 0.0111,-0.0089 0.0243,-0.01476 0.0354,-0.02363 0.009,-0.007 0.0157,-0.01574 0.0236,-0.02363 0.004,-0.0039 0.007,-0.0093 0.0118,-0.01183 0.004,-0.0019 0.008,0.0019 0.0118,0 0.005,-0.0024 0.007,-0.0093 0.0118,-0.0118 0.0163,-0.0081 0.0106,0.01431 0.0236,-0.0118 0.002,-0.0035 -0.002,-0.0083 0,-0.0118 0.005,-0.0099 0.0201,-0.01307 0.0236,-0.02363 0.002,-0.0075 -0.008,-0.02363 0,-0.02363 0.008,0 0,0.01574 0,0.02363"
       id="path896"
       inkscape:connector-curvature="0"
       inkscape:export-xdpi="96"
       inkscape:export-ydpi="96" />
    <path
       style="fill:none;stroke:#000000;stroke-width:0.26458332px;stroke-linecap:butt;stroke-linejoin:miter;stroke-opacity:1"
       d="m 100.69505,71.01746 c 0.0394,-0.01968 0.0747,-0.05235 0.11829,-0.05903 0.0165,-0.0026 0.0236,0.02363 0.0354,0.03543 0.0157,0.01574 0.0315,0.0315 0.0472,0.04725 0.0276,0.02756 0.057,0.05335 0.0827,0.08268 0.013,0.01482 0.0215,0.03332 0.0354,0.04725 0.0139,0.01392 0.0324,0.02246 0.0472,0.03544 0.0665,0.05819 0.0292,0.03206 0.0827,0.09449 0.0109,0.01267 0.0257,0.02186 0.0354,0.03544 0.0205,0.02865 0.0277,0.06519 0.0472,0.09449 0.006,0.0093 0.0157,0.01574 0.0236,0.02363 0.008,0.0118 0.0163,0.02326 0.0236,0.03543 0.005,0.0075 0.009,0.01527 0.0118,0.02363 0.002,0.0046 -0.002,0.0336 0,0.03544 0.003,0.0028 0.008,0.0013 0.0118,0 0.008,-0.0028 0.0155,-0.0085 0.0236,-0.0118 0.0116,-0.0046 0.0236,-0.0079 0.0354,-0.0118"
       id="path898"
       inkscape:connector-curvature="0"
       inkscape:export-xdpi="96"
       inkscape:export-ydpi="96" />
    <path
       style="fill:none;stroke:#000000;stroke-width:0.26458332px;stroke-linecap:butt;stroke-linejoin:miter;stroke-opacity:1"
       d="m 101.35634,71.525428 c 0.20977,-0.07505 0.0639,-0.03064 0.0476,-0.02365 -0.0162,0.0069 -0.0308,0.01744 -0.0472,0.02363 -0.0152,0.0057 -0.0318,0.0067 -0.0472,0.0118 -0.008,0.0028 -0.0157,0.0079 -0.0236,0.0118 -0.0157,0.0079 -0.0315,0.01574 -0.0472,0.02363 -0.008,0.0039 -0.0153,0.009 -0.0236,0.01183 -0.004,0.0013 -0.008,-0.0013 -0.0118,0 -0.008,0.0028 -0.0157,0.0079 -0.0236,0.0118 -0.008,0.0039 -0.0163,0.0069 -0.0236,0.0118 -0.005,0.0031 -0.007,0.0093 -0.0118,0.0118 -0.0163,0.0081 -0.0105,-0.01431 -0.0236,0.0118 -0.002,0.0035 0.002,0.0083 0,0.0118 -0.002,0.005 -0.009,0.0068 -0.0118,0.0118 -0.007,0.01386 0.007,0.01402 0.0118,0.02363 0.002,0.0035 -0.002,0.0083 0,0.0118 0.002,0.005 0.009,0.0068 0.0118,0.0118 0.002,0.0035 -0.001,0.0081 0,0.0118 0.003,0.0095 0.0297,0.0632 0.0354,0.07087 0.007,0.0089 0.0179,0.01408 0.0236,0.02363 0.008,0.01288 0.0208,0.07285 0.0236,0.08268 0.009,0.03313 0.0174,0.05118 0.0354,0.08268 0.0298,0.05221 0.0172,0.02201 0.0591,0.07087 0.0128,0.01495 0.0226,0.0323 0.0354,0.04725 0.0217,0.02537 0.0515,0.04368 0.0709,0.07087 0.0205,0.02865 0.0286,0.06463 0.0472,0.09449 0.0767,0.122666 -7.9e-4,-0.02521 0.0591,0.09449 0.008,0.01574 0.0165,0.03116 0.0236,0.04725 0.0502,0.112983 -0.003,0.0051 0.0473,0.118118 0.007,0.01609 0.018,0.03054 0.0236,0.04725 4e-5,1.35e-4 0.0234,0.117327 0.0236,0.118118 0.0189,0.08492 0.003,0.0098 0.0354,0.106307 0.0103,0.0308 0.0134,0.06369 0.0236,0.09449 0.0233,0.07003 0.0198,0.04456 0.0472,0.106307 0.009,0.01937 0.015,0.03968 0.0236,0.05906 0.007,0.01609 0.0157,0.0315 0.0236,0.04725 0.008,0.01574 0.0149,0.03196 0.0236,0.04725 0.007,0.01233 0.018,0.02238 0.0236,0.03544 0.006,0.01492 0.007,0.03185 0.0118,0.04725 0.009,0.02652 0.022,0.03211 0.0354,0.05906 0.006,0.01114 0.007,0.02387 0.0118,0.03544 0.003,0.0082 0.01,0.01508 0.0118,0.02363 0.002,0.0076 -0.002,0.01598 0,0.02363 0.002,0.0085 0.009,0.01527 0.0118,0.02363 0.005,0.01532 -0.0113,0.03953 0.0118,0.04725 0.007,0.0024 0.0157,0 0.0236,0 0.008,0 0.0157,0 0.0236,0 0.0774,0 -0.007,0.0037 0.0709,-0.0118 0.0155,-0.0031 0.0315,0 0.0473,0 0.0315,0 0.063,0 0.0945,0 0.008,0 0.0648,-0.0021 0.0709,0 0.005,0.0019 0.007,0.0093 0.0118,0.0118 0.004,0.0019 0.008,0 0.0118,0 0.004,0 0.008,0 0.0118,0 0.004,0 0.008,-0.0019 0.0118,0 0.005,0.0024 0.006,0.0118 0.0118,0.0118 0.0125,0 0.0234,-0.0088 0.0354,-0.0118 0.004,-0.0011 0.0101,0.0035 0.0118,0 0.007,-0.01461 -0.005,-0.0365 -0.0118,-0.04725 -0.003,-0.0046 -0.0101,-0.0065 -0.0118,-0.0118 -0.002,-0.0075 0.002,-0.01617 0,-0.02363 -0.002,-0.0053 -0.009,-0.0072 -0.0118,-0.0118 -0.005,-0.0073 -0.008,-0.01574 -0.0118,-0.02363 -0.008,-0.0079 -0.0169,-0.01471 -0.0236,-0.02363 -0.005,-0.007 -0.008,-0.01574 -0.0118,-0.02363 -0.008,-0.01574 -0.0171,-0.0309 -0.0236,-0.04725 -0.005,-0.01156 -0.007,-0.02387 -0.0118,-0.03543 -0.003,-0.0082 -0.008,-0.01574 -0.0118,-0.02363 -0.0118,-0.02363 -0.0236,-0.04725 -0.0354,-0.07087 0.004,-0.02016 -0.0173,-0.02273 -0.0236,-0.03544 -0.002,-0.0035 0.002,-0.0083 0,-0.0118 -0.002,-0.005 -0.009,-0.0068 -0.0118,-0.0118 -0.002,-0.0035 0,-0.0079 0,-0.0118 0,-0.0039 -0.002,-0.0083 0,-0.0118 0.001,-0.0024 0.045,-0.04612 0.0472,-0.04725 0.004,-0.0019 0.008,0.0019 0.0118,0 0.01,-0.005 0.0136,-0.01865 0.0236,-0.02363 0.004,-0.0019 0.008,0.0019 0.0118,0 0.005,-0.0024 0.007,-0.0087 0.0118,-0.0118 0.0196,-0.01304 0.0268,-0.0118 0.0472,-0.0118 0.0267,0 -0.005,0.0019 0.0354,-0.0118 0.01,-0.0033 0.052,0.0035 0.0591,0 0.005,-0.0024 0.007,-0.01005 0.0118,-0.01183 0.007,-0.0024 0.0157,0 0.0236,0 0.0236,0 0.0472,0 0.0709,0 0.0551,0 0.11024,0 0.16536,0 0.0315,0 0.063,0 0.0945,0 0.008,0 0.0157,0 0.0236,0 0.008,0 0.016,0.0019 0.0236,0 0.009,-0.0021 0.015,-0.01008 0.0236,-0.0118 0.0116,-0.0024 0.0238,0.0019 0.0354,0 0.024,0.0041 0.0383,-0.01947 0.0591,-0.02363 0.0116,-0.0024 0.0239,0.0024 0.0354,0 0.009,-0.0019 0.0157,-0.0079 0.0236,-0.0118 0.0118,-0.0039 0.0232,-0.0094 0.0354,-0.0118 0.008,-0.0016 0.016,0.0019 0.0236,0 0.009,-0.0021 0.0155,-0.0085 0.0236,-0.0118 0.0116,-0.0046 0.0239,-0.0072 0.0354,-0.01183 0.008,-0.0033 0.0151,-0.0097 0.0236,-0.0118 0.008,-0.0019 0.0159,0.0016 0.0236,0 0.0392,-0.0078 0.0276,-0.01103 0.0591,-0.02363 0.0116,-0.0046 0.0239,-0.0072 0.0354,-0.0118 0.008,-0.0033 0.0155,-0.0085 0.0236,-0.0118 0.0856,-0.03426 -0.004,7.94e-4 0.0591,-0.0118 0.034,-0.0068 0.0605,-0.02864 0.0945,-0.03544 0.0631,-0.01262 -0.0266,0.02244 0.0591,-0.0118 0.28095,-0.112385 -0.03,0.01498 0.11811,-0.05906 0.0111,-0.0056 0.024,-0.0069 0.0354,-0.0118 0.0162,-0.0069 0.0311,-0.0167 0.0472,-0.02363 0.0114,-0.0049 0.0248,-0.0054 0.0354,-0.0118 0.01,-0.0057 0.0141,-0.01788 0.0236,-0.02363 0.0107,-0.0064 0.0243,-0.0062 0.0354,-0.0118 0.0127,-0.0063 0.0227,-0.01728 0.0354,-0.02363 0.0111,-0.0056 0.0248,-0.0054 0.0354,-0.0118 0.0336,-0.02016 0.0107,-0.0263 0.0472,-0.03544 0.0409,-0.01021 0.007,0.01495 0.0473,-0.0118 0.0392,-0.03917 -0.0111,0.0056 0.0236,-0.0118 0.005,-0.0024 0.007,-0.0093 0.0118,-0.0118 0.004,-0.0019 0.0118,0.0039 0.0118,0 0,-0.02756 -0.0197,-0.02363 -0.0354,-0.03544 -0.009,-0.0067 -0.0157,-0.01574 -0.0236,-0.02363 -0.004,-0.0039 -0.007,-0.01005 -0.0118,-0.0118 -0.0106,-0.0075 -0.0242,0.0037 -0.0354,0 -0.008,-0.0028 -0.0153,-0.009 -0.0236,-0.0118 -0.004,-0.0013 -0.008,0.0019 -0.0118,0 -0.005,-0.0024 -0.007,-0.01005 -0.0118,-0.0118 -0.007,-0.0024 -0.0159,0.0016 -0.0236,0 -0.0122,-0.0024 -0.0234,-0.0088 -0.0354,-0.0118 -0.004,-0.0011 -0.008,0 -0.0118,0 -0.008,0 -0.0157,0 -0.0236,0 -0.0354,0 -0.0709,0 -0.1063,0 -0.0599,0 0.0141,-0.0035 -0.0472,0.0118 -0.0191,0.0048 -0.0398,-0.0039 -0.0591,0 -5.3e-4,1.11e-4 -0.0456,0.02297 -0.0473,0.02363 -0.0231,0.0092 -0.0477,0.01437 -0.0709,0.02363 -0.0275,0.01101 -0.0255,0.01802 -0.0591,0.02363 -0.0116,0.0019 -0.0238,-0.0019 -0.0354,0 -0.0123,0.0021 -0.0232,0.0094 -0.0354,0.0118 -0.008,0.0016 -0.0159,-0.0016 -0.0236,0 -0.0122,0.0024 -0.0232,0.0098 -0.0354,0.0118 -0.0116,0.0019 -0.0239,-0.0024 -0.0354,0 -0.009,0.0019 -0.015,0.01008 -0.0236,0.0118 -0.0116,0.0024 -0.0236,0 -0.0354,0 -0.0118,0 -0.0236,0 -0.0354,0 -0.0118,0 -0.0236,0 -0.0354,0 -0.0118,0 -0.0238,0.0019 -0.0354,0 -0.0123,-0.0021 -0.0232,-0.0094 -0.0354,-0.0118 -0.008,-0.0016 -0.0157,0 -0.0236,0 -0.0118,0 -0.0236,0 -0.0354,0 -0.0394,0 -0.0787,0 -0.11811,0 -0.0394,0 -0.0787,0 -0.11812,0 -0.0118,0 -0.0238,-0.0019 -0.0354,0 -0.0123,0.0021 -0.0232,0.0098 -0.0354,0.0118 -0.0116,0.0019 -0.0236,0 -0.0354,0 -0.0236,0 -0.0473,0 -0.0709,0 -0.0118,0 -0.0238,-0.0019 -0.0354,0 -0.0123,0.0021 -0.0232,0.0098 -0.0354,0.0118 -0.0233,0.0039 -0.0476,-0.0039 -0.0709,0 -0.0123,0.0021 -0.023,0.0118 -0.0354,0.0118 -0.009,0 -0.0151,-0.0097 -0.0236,-0.0118 -0.009,-0.0024 -0.0586,0 -0.0709,0 -0.008,0 -0.016,0.0019 -0.0236,0 -0.009,-0.0021 -0.0151,-0.0097 -0.0236,-0.0118 -0.008,-0.0019 -0.0157,0 -0.0236,0 -0.004,0 -0.008,0.0019 -0.0118,0 -0.005,-0.0024 -0.007,-0.0093 -0.0118,-0.0118 -0.004,-0.0019 -0.008,0.0019 -0.0118,0 -0.003,-0.0016 -0.0339,-0.0323 -0.0354,-0.03544 -0.004,-0.007 0.004,-0.01659 0,-0.02363 -0.002,-0.005 -0.01,-0.0065 -0.0118,-0.0118 -0.002,-0.0063 0,-0.03725 0,-0.04725 0,-0.0066 0.002,-0.05365 0,-0.05906 -0.002,-0.0053 -0.0101,-0.0065 -0.0118,-0.0118 -0.002,-0.0075 0.002,-0.01614 0,-0.02363 -0.002,-0.0053 -0.009,-0.0072 -0.0118,-0.0118 -0.005,-0.0073 -0.008,-0.01574 -0.0118,-0.02363 -0.004,-0.0079 -0.008,-0.01574 -0.0118,-0.02363 -0.004,-0.0079 -0.01,-0.01508 -0.0118,-0.02363 -0.002,-0.0076 0.002,-0.01598 0,-0.02363 -0.004,-0.01709 -0.0202,-0.02998 -0.0236,-0.04725 -0.002,-0.01159 0.002,-0.02387 0,-0.03544 -0.002,-0.0086 -0.0101,-0.015 -0.0118,-0.02363 -0.004,-0.01931 0.005,-0.03996 0,-0.05906 -0.002,-0.0085 -0.008,-0.01574 -0.0118,-0.02363 -0.004,-0.0079 -0.007,-0.01659 -0.0118,-0.02363 -0.007,-0.0089 -0.0169,-0.01471 -0.0236,-0.02363 -0.016,-0.0213 -0.0154,-0.04613 -0.0236,-0.07087 -0.003,-0.0084 -0.01,-0.01508 -0.0118,-0.02363 -0.002,-0.0076 0.002,-0.01598 0,-0.02363 -0.002,-0.0085 -0.01,-0.01508 -0.0118,-0.02363 -0.002,-0.0093 0,-0.05859 0,-0.07087 0,-0.0039 10e-4,-0.0081 0,-0.0118 -0.003,-0.0084 -0.009,-0.01527 -0.0118,-0.02363 -0.004,-0.01064 0.004,-0.02479 0,-0.03544 -0.002,-0.0053 -0.009,-0.0068 -0.0118,-0.0118 -0.002,-0.0035 0.002,-0.0083 0,-0.0118 -0.002,-0.005 -0.009,-0.0068 -0.0118,-0.01183 -0.002,-0.0035 0.001,-0.0081 0,-0.0118 -0.003,-0.0084 -0.009,-0.01527 -0.0118,-0.02363 -0.001,-0.0037 0.002,-0.0083 0,-0.0118 -0.002,-0.005 -0.009,-0.0068 -0.0118,-0.0118 -0.002,-0.0035 0.002,-0.0083 0,-0.0118 -0.002,-0.005 -0.01,-0.0065 -0.0118,-0.01183 -0.002,-0.0075 0,-0.01574 0,-0.02363 0,-0.0039 0.002,-0.0083 0,-0.0118 -0.002,-0.005 -0.009,-0.0068 -0.0118,-0.0118 -0.002,-0.0035 0.002,-0.0083 0,-0.0118 -0.005,-0.0099 -0.0187,-0.01365 -0.0236,-0.02363 -0.002,-0.0035 0.002,-0.0083 0,-0.0118 -0.002,-0.005 -0.009,-0.0068 -0.0118,-0.0118 -0.002,-0.0035 0.002,-0.0083 0,-0.0118 -0.006,-0.01162 -0.0414,-0.03563 -0.0472,-0.04725 -0.002,-0.0035 0.004,-0.01005 0,-0.0118 -0.007,-0.0035 -0.0157,0 -0.0236,0 -0.0252,0 -0.0361,0.01442 -0.0591,0.02363 -0.0116,0.0046 -0.0239,0.0072 -0.0354,0.0118 -0.0407,0.01627 -0.0779,0.04181 -0.11812,0.05906 -0.0115,0.0049 -0.0239,0.0072 -0.0354,0.01183 -0.0164,0.0065 -0.0315,0.01574 -0.0472,0.02363 -0.0669,0.03346 0.0176,-0.0044 -0.0472,0.0118 -0.009,0.0021 -0.0157,0.0079 -0.0236,0.0118 -0.008,0.0039 -0.0163,0.0069 -0.0236,0.0118 -0.005,0.0031 -0.007,0.0093 -0.0118,0.0118 -0.004,0.0019 -0.008,-0.0019 -0.0118,0 -0.005,0.0024 -0.007,0.01005 -0.0118,0.01183 -0.007,0.0024 -0.0162,0.0024 -0.0236,0 -0.005,-0.0019 -0.0117,-0.01738 -0.0118,-0.01183 -2e-4,0.0088 0.008,0.01577 0.0115,0.02363"
       id="path902"
       inkscape:connector-curvature="0"
       inkscape:export-xdpi="96"
       inkscape:export-ydpi="96" />
  </g>
</svg>
