<?xml version="1.0" encoding="UTF-8" standalone="no"?>
<svg
   xmlns:dc="http://purl.org/dc/elements/1.1/"
   xmlns:cc="http://creativecommons.org/ns#"
   xmlns:rdf="http://www.w3.org/1999/02/22-rdf-syntax-ns#"
   xmlns:svg="http://www.w3.org/2000/svg"
   xmlns="http://www.w3.org/2000/svg"
   xmlns:sodipodi="http://sodipodi.sourceforge.net/DTD/sodipodi-0.dtd"
   xmlns:inkscape="http://www.inkscape.org/namespaces/inkscape"
   sodipodi:docname="Acte8-11.svg"
   inkscape:version="1.0 (4035a4fb49, 2020-05-01)"
   id="svg8"
   version="1.1"
   viewBox="0 0 210 297"
   height="297mm"
   width="210mm">
  <defs
     id="defs2" />
  <sodipodi:namedview
     inkscape:window-maximized="1"
     inkscape:window-y="0"
     inkscape:window-x="0"
     inkscape:window-height="1016"
     inkscape:window-width="1920"
     showgrid="false"
     inkscape:document-rotation="0"
     inkscape:current-layer="layer1"
     inkscape:document-units="mm"
     inkscape:cy="738.58227"
     inkscape:cx="188.98334"
     inkscape:zoom="0.7"
     inkscape:pageshadow="2"
     inkscape:pageopacity="0.0"
     borderopacity="1.0"
     bordercolor="#666666"
     pagecolor="#ffffff"
     id="base" />
  <metadata
     id="metadata5">
    <rdf:RDF>
      <cc:Work
         rdf:about="">
        <dc:format>image/svg+xml</dc:format>
        <dc:type
           rdf:resource="http://purl.org/dc/dcmitype/StillImage" />
        <dc:title></dc:title>
      </cc:Work>
    </rdf:RDF>
  </metadata>
  <g
     id="layer1"
     inkscape:groupmode="layer"
     inkscape:label="Calque 1">
    <path
       inkscape:export-ydpi="96"
       inkscape:export-xdpi="96"
       id="path10"
       d="m 26.458333,170.27827 c -2.233803,4.54892 0.0088,7.5381 1.133927,11.71726 1.132518,4.20649 1.809428,8.53255 3.779764,12.47322 3.206983,6.41396 7.888581,7.63178 13.418153,3.02381 2.395273,-1.99606 4.274441,-4.83743 6.047621,-7.37054 3.883168,-5.54738 -0.896263,1.41908 2.267857,-3.59077 0.133229,-0.21095 2.123205,-2.63419 2.267855,-3.2128 0.128233,-0.51293 -0.161285,-0.43933 -0.377976,-0.94494 -0.215537,-0.50292 -0.5115,-2.34079 -0.566962,-2.64583 -0.170413,-0.93727 0.105241,-1.91361 0.188986,-2.83482 0.105744,-1.16318 -0.21663,-2.27237 -0.377975,-3.40179 -0.253516,-1.77461 2.075905,-0.85489 0.377975,-3.40179"
       style="fill:none;stroke:#000000;stroke-width:0.264583px;stroke-linecap:butt;stroke-linejoin:miter;stroke-opacity:1" />
    <path
       inkscape:export-ydpi="96"
       inkscape:export-xdpi="96"
       id="path12"
       d="m 32.883927,169.14434 c -1.443778,-0.37607 -0.998897,-3.13426 -2.645833,-2.83482 -0.472025,0.0858 -0.964335,0.24823 -1.322917,0.56697 -0.482875,0.42922 -1.785517,4.93944 -1.889879,5.29166 -0.960218,3.24074 -1.460745,8.39423 3.401785,7.37054 2.04465,-0.43045 1.661697,-0.31666 3.023809,-1.13393"
       style="fill:none;stroke:#000000;stroke-width:0.264583px;stroke-linecap:butt;stroke-linejoin:miter;stroke-opacity:1" />
    <path
       inkscape:export-ydpi="96"
       inkscape:export-xdpi="96"
       id="path14"
       d="m 41.766368,166.12053 c 0.112442,1.05567 -0.976183,1.69937 -1.133928,2.64584 -0.217688,1.30612 1.311844,4.14113 2.078869,5.29166 0.62017,0.93026 1.710676,1.84227 2.456846,2.64584 1.866559,2.01014 3.820163,3.85359 6.614584,4.34672 0.868833,0.15333 2.325071,0.34144 3.212795,0 0.376486,-0.1448 0.629963,-0.50397 0.944941,-0.75595"
       style="fill:none;stroke:#000000;stroke-width:0.264583px;stroke-linecap:butt;stroke-linejoin:miter;stroke-opacity:1" />
    <path
       inkscape:export-ydpi="96"
       inkscape:export-xdpi="96"
       id="path16"
       d="m 24.946428,165.36458 c 1.783209,-0.4458 1.451252,-0.44064 4.535714,0 0.532829,0.0761 1.001287,0.39676 1.511906,0.56697 2.52803,0.84267 4.597183,2.5667 7.181546,3.21279 5.357566,1.33939 12.842676,0.0978 17.95387,-1.88988 1.80367,-0.70143 3.502647,-1.76813 5.102678,-2.83482 2.176766,-1.45118 4.113744,-3.06285 4.346725,-5.85863 0.06608,-0.79293 0.04988,-1.55477 -0.377975,-2.26786 -1.466059,-2.44343 -6.76279,-2.83482 -9.260417,-2.83482 -3.436099,0 -9.422048,0.53215 -12.851191,1.51191 -4.381037,1.25172 -8.734419,3.18152 -12.85119,5.10267 -1.864538,0.87012 -3.57174,2.10714 -5.291666,3.2128 -0.427226,0.27465 -0.912167,0.45723 -1.322916,0.75595 -1.517689,1.10378 -0.0708,0.52757 -1.322917,0.94495"
       style="fill:none;stroke:#000000;stroke-width:0.264583px;stroke-linecap:butt;stroke-linejoin:miter;stroke-opacity:1" />
    <path
       inkscape:export-ydpi="96"
       inkscape:export-xdpi="96"
       id="path18"
       d="m 45.735118,149.11161 c 0.56285,0.005 4.50053,-0.39105 4.157739,1.32291 -0.247139,1.23569 -2.94032,0.46147 -3.401785,0 -0.359135,-0.35913 -0.353388,-1.01325 -0.755954,-1.32291 -0.473697,-0.36439 -1.17357,-0.28573 -1.700893,-0.56697 -4.820152,-2.57075 3.655648,0.97547 -2.83482,-2.07887 -1.57879,-0.74296 -3.502697,-0.39999 -5.10268,0 -6.128713,1.53218 -7.536624,2.67501 -10.583332,7.9375 -0.770753,1.3313 -2.382962,4.62515 -2.267858,6.23661 0.04046,0.56647 0.688272,2.17527 0.944941,2.64583 0.150829,0.27652 0.459322,0.45994 0.566964,0.75595 0.152229,0.41863 0.125992,0.88195 0.188988,1.32292"
       style="fill:none;stroke:#000000;stroke-width:0.264583px;stroke-linecap:butt;stroke-linejoin:miter;stroke-opacity:1" />
    <path
       inkscape:export-ydpi="96"
       inkscape:export-xdpi="96"
       id="path20"
       d="m 47.624999,142.875 c -0.251983,0.063 -0.872111,-0.0433 -0.755951,0.18899 0.458618,0.91723 1.62723,1.27808 2.267857,2.07887 0.8967,1.12087 3.094768,3.86863 3.590772,5.48065 0.787815,2.5604 -0.188987,1.98726 -0.188987,3.77976"
       style="fill:none;stroke:#000000;stroke-width:0.264583px;stroke-linecap:butt;stroke-linejoin:miter;stroke-opacity:1" />
    <path
       inkscape:export-ydpi="96"
       inkscape:export-xdpi="96"
       id="path22"
       d="m 47.624999,142.875 c -0.755954,0.31498 -1.464812,0.78433 -2.267857,0.94494 -0.498028,0.0996 0.854096,-0.56061 1.322917,-0.75595 0.257542,-0.10731 2.185931,-0.37798 2.267857,-0.37798 2.374762,0 4.619651,1.91099 3.401785,4.34673"
       style="fill:none;stroke:#000000;stroke-width:0.264583px;stroke-linecap:butt;stroke-linejoin:miter;stroke-opacity:1" />
    <path
       inkscape:export-ydpi="96"
       inkscape:export-xdpi="96"
       id="path24"
       d="m 63.31101,152.70238 c -0.251984,0 -0.564631,0.16399 -0.755952,0 -0.966253,-0.82822 -0.675142,-2.70014 -1.322916,-3.77976 -1.057082,-1.76181 -2.335649,-4.00943 -4.157737,-5.10268 -1.039945,-0.62397 -2.448221,-0.78237 -3.590774,-1.13393 -1.276085,-0.39264 -2.444731,-0.58165 -3.779763,-0.18899 -1.530313,0.4501 -6.047619,3.12739 -6.047619,4.91369 0,0.38319 -0.107584,0.89128 0.18899,1.13393 0.509029,0.41648 1.259919,0.37798 1.889879,0.56697"
       style="fill:none;stroke:#000000;stroke-width:0.264583px;stroke-linecap:butt;stroke-linejoin:miter;stroke-opacity:1" />
    <path
       inkscape:export-ydpi="96"
       inkscape:export-xdpi="96"
       id="path26"
       d="m 47.624999,142.875 c -2.469239,-2.0857 -6.376278,-3.16821 -8.693451,-0.18899 -0.931572,1.19774 -0.850728,2.93016 -1.322917,4.34673"
       style="fill:none;stroke:#000000;stroke-width:0.264583px;stroke-linecap:butt;stroke-linejoin:miter;stroke-opacity:1" />
    <path
       inkscape:export-ydpi="96"
       inkscape:export-xdpi="96"
       id="path28"
       d="m 33.450892,178.40476 c 0.06299,-0.18899 0.02143,-0.45924 0.188989,-0.56696 0.758714,-0.48775 1.650101,-0.73056 2.456844,-1.13393 2.174894,-1.08745 1.404533,-0.8468 3.590775,-2.26786 2.322634,-1.50971 3.189189,-2.12951 4.91369,-4.34673"
       style="fill:none;stroke:#000000;stroke-width:0.264583px;stroke-linecap:butt;stroke-linejoin:miter;stroke-opacity:1" />
    <path
       inkscape:export-ydpi="96"
       inkscape:export-xdpi="96"
       id="path30"
       d="m 41.010416,185.20833 c -0.881943,-0.12599 -1.755243,-0.40141 -2.645833,-0.37797 -3.877032,0.10202 -7.241249,1.49284 -10.961309,2.26785 -1.983714,0.41328 -3.857123,0.63822 -5.858631,0.75595 -0.617872,0.0363 -3.238659,0.35212 -3.779762,-0.18898 -0.321218,-0.32122 0.679657,-0.75596 1.133928,-0.75596 1.741763,0 3.745977,1.01392 5.291667,1.7009"
       style="fill:none;stroke:#000000;stroke-width:0.264583px;stroke-linecap:butt;stroke-linejoin:miter;stroke-opacity:1" />
    <path
       inkscape:export-ydpi="96"
       inkscape:export-xdpi="96"
       id="path32"
       d="m 41.010416,185.20833 c 0.251984,0.62996 0.332105,1.36007 0.755952,1.88988 0.371258,0.46408 1.026379,0.60222 1.511906,0.94494 0.586798,0.41421 1.162309,0.8477 1.700892,1.32292 2.724502,2.40397 0.239128,0.68717 3.212798,2.83482 3.805121,2.74815 6.832352,4.52132 11.339285,2.26786 1.085199,-0.5426 2.173825,-1.2665 3.212799,-1.88988 0.786222,-0.47174 1.235329,-0.72216 1.133927,-0.75596 -2.03618,-0.67872 -4.304443,-0.63118 -6.425594,-0.75595 -2.464136,-0.14495 -4.774496,-1.06058 -7.181548,-1.5119 -1.411058,-0.26458 -2.79875,-0.42225 -4.157739,-0.94494 -1.439564,-0.55368 -2.965106,-1.48106 -4.157737,-2.45685 -0.34476,-0.28208 -0.569132,-0.70579 -0.944941,-0.94494 -0.336134,-0.2139 -0.764003,-0.23001 -1.133927,-0.37797 -0.314981,-0.126 -0.944941,-0.71722 -0.944941,-0.37798 0,0.063 0.136573,-0.0349 0.188986,0 0.148254,0.0988 0.212543,0.3118 0.377976,0.37798 0.482325,0.19292 1.079675,0.0898 1.511906,0.37797 0.92733,0.61822 1.586556,1.57163 2.456844,2.26786 1.15596,0.92477 2.939286,1.66491 4.346729,2.07887 1.755529,0.51633 3.316578,0.26634 5.102677,0.37797 1.348676,0.0843 2.426563,0.27064 3.779761,0 0.0665,-0.0133 2.073431,-0.52379 1.511906,-0.94494 -1.605307,-1.20398 -4.028128,-1.09072 -5.858632,-1.70089 -0.455142,-0.15172 -0.867773,-0.41525 -1.322917,-0.56696 -2.031306,-0.67711 -4.186171,-1.06014 -6.236607,-1.7009 -0.703784,-0.21993 -1.353413,-0.62405 -2.078868,-0.75595 -1.387637,-0.2523 -2.554074,0.26054 -3.779761,0.56697 -0.772054,0.19301 -1.679379,-0.17278 -2.456847,0 -0.799446,0.17765 -1.507482,0.64079 -2.267857,0.94494 -2.77054,1.10821 -5.94536,2.58324 -8.882439,3.02381 -2.247444,0.33711 -4.544489,0.28457 -6.803572,0.56696 -0.370461,0.0463 -1.937377,0.20482 -2.456845,0.37798 -0.730544,0.24351 -1.133929,0.7755 -1.133929,0.37797 0,-0.17597 3.000642,-1.45297 3.212798,-1.5119 1.718723,-0.47743 3.313923,-0.49095 5.102678,-0.75596 2.149453,-0.31843 4.252147,-0.6352 6.425596,-0.75595 2.197876,-0.1221 4.417169,0.12926 6.614584,0 1.98502,-0.11676 4.182972,-0.168 6.047618,-0.94494 0.678143,-0.28256 1.218546,-0.83555 1.889881,-1.13393 0.237353,-0.10549 0.501256,-0.13805 0.755952,-0.18898 0.06177,-0.0124 0.250103,-0.0153 0.188989,0 -2.532636,0.63315 0.885958,-0.42998 -2.078871,0.75595 -2.750883,1.10035 -6.295448,1.70957 -9.260416,1.5119 -1.462942,-0.0975 -2.9683,-0.48546 -4.346726,-0.94494 -0.673888,-0.22463 -1.511903,-0.76393 -1.511903,-0.56696 0,0.37715 2.690217,0.52248 3.023809,0.56696 3.75068,0.50009 10.983465,1.56013 14.174107,-0.56696"
       style="fill:none;stroke:#000000;stroke-width:0.264583px;stroke-linecap:butt;stroke-linejoin:miter;stroke-opacity:1" />
    <path
       inkscape:export-ydpi="96"
       inkscape:export-xdpi="96"
       id="path34"
       d="m 40.065475,198.24851 c -0.06299,0.44097 -0.224509,0.87889 -0.188986,1.32292 0.851035,10.63794 1.139986,5.52633 1.511903,16.06398 0.263022,7.45228 -0.165171,14.86746 -0.566965,22.3006 -0.06348,1.17431 0.05608,7.50345 -0.755952,8.31548"
       style="fill:none;stroke:#000000;stroke-width:0.264583px;stroke-linecap:butt;stroke-linejoin:miter;stroke-opacity:1" />
    <path
       inkscape:export-ydpi="96"
       inkscape:export-xdpi="96"
       id="path36"
       d="m 40.443451,217.33631 c -0.377976,0.12599 -0.738235,0.33142 -1.133927,0.37797 -0.688211,0.081 -1.39055,-0.08 -2.078869,0 -2.026679,0.23566 -4.027794,0.6564 -6.04762,0.94494 -1.06748,0.1525 -2.150888,0.19059 -3.212796,0.37798 -6.293269,1.11058 -9.966182,2.05291 -15.497025,4.91369 -1.301461,0.67317 -2.7006837,1.15574 -3.9687499,1.88988 -2.4917198,1.44258 -4.6907605,3.16594 -6.8035713,5.10268"
       style="fill:none;stroke:#000000;stroke-width:0.264583px;stroke-linecap:butt;stroke-linejoin:miter;stroke-opacity:1" />
    <path
       inkscape:export-ydpi="96"
       inkscape:export-xdpi="96"
       id="path38"
       d="m 48.380951,215.06845 c 0.629962,1.19692 1.16618,2.44809 1.889882,3.59077 1.720606,2.71675 4.528161,4.7613 6.614583,7.18155 3.555227,4.12407 6.664425,8.61204 9.827382,13.04018"
       style="fill:none;stroke:#000000;stroke-width:0.264583px;stroke-linecap:butt;stroke-linejoin:miter;stroke-opacity:1" />
    <path
       inkscape:export-ydpi="96"
       inkscape:export-xdpi="96"
       id="path40"
       d="m -45.84143,170.80685 c -0.18898,0.37797 -0.57938,0.71152 -0.56696,1.13392 0.0524,1.78103 0.62335,3.51482 0.75595,5.29167 0.1829,2.45084 0.0921,4.9148 0.18899,7.37054 0.13438,3.40437 0.25851,6.81231 0.56696,10.20535 0.0624,0.68646 0.26708,3.30788 0.75596,4.34673 0.97246,2.06649 4.00861,5.37699 6.61458,5.10268 2.0477,-0.21555 2.39011,-0.58656 3.96875,-1.7009 1.78264,-1.25833 3.04382,-2.79849 4.34673,-4.53571 2.88892,-3.8519 5.43742,-8.33154 6.61458,-13.04018 0.35177,-1.40708 1.08013,-5.31572 1.32292,-6.42559 0.46066,-2.1059 1.23488,-4.13958 1.70089,-6.23661 0.34727,-1.56271 0.55398,-3.16088 0.94494,-4.7247"
       style="fill:none;stroke:#000000;stroke-width:0.264583px;stroke-linecap:butt;stroke-linejoin:miter;stroke-opacity:1" />
    <path
       inkscape:export-ydpi="96"
       inkscape:export-xdpi="96"
       id="path42"
       d="m -30.3444,170.23988 c -1.68909,0.70503 -1.04445,2.13864 -1.7009,3.77976 -0.30504,0.76262 -0.91875,1.36382 -1.32291,2.07887 -0.41588,0.73578 -0.68906,1.54923 -1.13393,2.26786 -2.20762,3.56616 -5.78973,6.99825 -10.01637,7.9375 -1.20398,0.26755 -3.05962,0.15318 -3.96875,-0.75595 -0.16061,-0.16061 -0.4101,-0.34212 -0.37798,-0.56697 0.0446,-0.31181 0.37798,-0.50397 0.56697,-0.75595"
       style="fill:none;stroke:#000000;stroke-width:0.264583px;stroke-linecap:butt;stroke-linejoin:miter;stroke-opacity:1" />
    <path
       inkscape:export-ydpi="96"
       inkscape:export-xdpi="96"
       id="path44"
       d="m -24.48577,173.64167 c -1.48518,0.24753 -2.27218,0.28645 -3.77976,1.32291 -0.27956,0.1922 -0.32221,0.61032 -0.37798,0.94494 -0.0829,0.49763 -0.38721,2.73892 0,3.59078 1.54934,3.40853 6.57904,2.20977 6.99256,-1.51191 0.12166,-1.09491 -0.23551,-1.86545 -0.94494,-2.64583 -0.33096,-0.36406 -0.76822,-0.6158 -1.13393,-0.94494 -0.26488,-0.23839 -0.42334,-0.62803 -0.75595,-0.75595 -0.91939,-0.35361 -2.78992,0.23389 -3.59078,-0.56697 -0.85567,-0.85568 -1.5119,-1.88988 -2.26785,-2.83482"
       style="fill:none;stroke:#000000;stroke-width:0.264583px;stroke-linecap:butt;stroke-linejoin:miter;stroke-opacity:1" />
    <path
       inkscape:export-ydpi="96"
       inkscape:export-xdpi="96"
       id="path46"
       d="m -42.62863,167.97202 c 7.50472,1.02182 14.98095,-1.29228 22.48958,-0.75595 1.27261,0.0909 2.67947,0.40387 3.96875,0.18899 0.35152,-0.0586 1.10621,-0.82163 0.75596,-0.75595 -1.09718,0.20572 -2.14187,0.62996 -3.2128,0.94494"
       style="fill:none;stroke:#000000;stroke-width:0.264583px;stroke-linecap:butt;stroke-linejoin:miter;stroke-opacity:1" />
    <path
       inkscape:export-ydpi="96"
       inkscape:export-xdpi="96"
       id="path48"
       d="m -42.62863,167.97202 c -0.37798,-0.18899 -0.71192,-0.54475 -1.13393,-0.56696 -0.82744,-0.0436 -1.6309,0.3119 -2.45684,0.37798 -0.75355,0.0603 -1.51383,-0.0539 -2.26786,0 -0.1405,0.01 -0.23903,0.16583 -0.37798,0.18898 -0.34795,0.058 -1.12783,0 -1.5119,0"
       style="fill:none;stroke:#000000;stroke-width:0.264583px;stroke-linecap:butt;stroke-linejoin:miter;stroke-opacity:1" />
    <path
       inkscape:export-ydpi="96"
       inkscape:export-xdpi="96"
       id="path52"
       d="m -50.37714,167.97202 c 2.78281,-0.83483 1.53844,0.15027 2.26786,-2.64583 0.20114,-0.77104 0.54268,-1.50008 0.75595,-2.26786 0.10256,-0.36921 0.0678,-0.7704 0.18899,-1.13393 0.25897,-0.77692 0.65095,-1.50349 0.94494,-2.26785 0.85556,-2.22446 2.19179,-7.21899 4.15774,-8.69345 0.36689,-0.27518 0.87604,0.27485 1.32291,0.37797 0.36668,0.0846 3.2172,0.36644 3.40179,0.37798 2.33437,0.1459 4.66685,-0.28495 6.99256,-0.37798 2.39163,-0.0957 4.79033,-0.085 7.18154,-0.18899 2.20935,-0.096 4.47692,-0.37489 6.61459,-0.94494 0.31624,-0.0843 3.59077,-1.12671 3.59077,-0.94494 0,0.66721 -0.69327,0.6914 -0.56696,1.32292 0.78174,3.90869 0.8059,7.92418 -0.75595,11.71726 -0.67013,1.62745 -0.7585,1.32801 -1.51191,2.83482 -0.25987,0.51975 -0.49076,1.59753 -1.13393,1.88988 -0.54406,0.24731 -1.13393,0.37798 -1.70089,0.56697"
       style="fill:none;stroke:#000000;stroke-width:0.264583px;stroke-linecap:butt;stroke-linejoin:miter;stroke-opacity:1" />
    <path
       inkscape:export-ydpi="96"
       inkscape:export-xdpi="96"
       id="path54"
       d="m -14.28041,148.50625 c 2.22428,0.88972 3.17664,1.20208 5.6696398,3.40179 4.7981,4.23361 2.61561,16.89212 1.13393,22.48958 -0.022,0.0833 -0.99301,3.2128 -1.32292,3.2128 -0.36733,0 -0.62996,-0.37798 -0.94494,-0.56697"
       style="fill:none;stroke:#000000;stroke-width:0.264583px;stroke-linecap:butt;stroke-linejoin:miter;stroke-opacity:1" />
    <path
       inkscape:export-ydpi="96"
       inkscape:export-xdpi="96"
       id="path56"
       d="m -15.03637,152.475 c 1.5749,0.69296 3.53964,0.83143 4.72471,2.07887 1.8655798,1.96377 3.6795398,9.48451 4.1577298,12.47321 0.13014,0.81338 0.61073,2.76765 -0.56696,3.40179 -0.4992,0.2688 -1.13393,0 -1.70089,0"
       style="fill:none;stroke:#000000;stroke-width:0.264583px;stroke-linecap:butt;stroke-linejoin:miter;stroke-opacity:1" />
    <path
       inkscape:export-ydpi="96"
       inkscape:export-xdpi="96"
       id="path58"
       d="m -11.44559,151.15208 c 0.063,0.44098 -0.0102,0.9245 0.18898,1.32292 2.0518498,4.10369 1.7553698,1.39345 3.0238098,5.48065 1.07466,3.46279 0.97784,7.58939 0.56697,11.1503 -0.0729,0.63219 -0.23645,2.7142 -1.13393,3.2128 -0.2808,0.156 -0.64021,-0.0874 -0.94494,-0.18899 -0.2672698,-0.0891 -0.9289198,-0.15559 -0.7559498,-0.37797 0.5042698,-0.64835 1.3859098,-0.88195 2.0788698,-1.32292"
       style="fill:none;stroke:#000000;stroke-width:0.264583px;stroke-linecap:butt;stroke-linejoin:miter;stroke-opacity:1" />
    <path
       inkscape:export-ydpi="96"
       inkscape:export-xdpi="96"
       id="path60"
       d="m -14.28041,148.50625 c 0.81894,0.88194 1.82335,1.62251 2.45684,2.64583 1.02362,1.65354 1.9851798,3.405 2.4568498,5.29167 0.42382,1.69529 1.23232,11.42207 0.37797,13.98512 -0.23976,0.7193 -0.66949,2.35503 -1.8898798,2.26786 -0.56202,-0.0401 -1.00793,-0.50397 -1.5119,-0.75596"
       style="fill:none;stroke:#000000;stroke-width:0.264583px;stroke-linecap:butt;stroke-linejoin:miter;stroke-opacity:1" />
    <path
       inkscape:export-ydpi="96"
       inkscape:export-xdpi="96"
       id="path62"
       d="m -14.28041,148.50625 c 0.25198,1.19692 0.34691,2.43803 0.75595,3.59077 0.29266,0.82479 0.88194,1.51191 1.32291,2.26786 0.44098,0.88195 1.00475,1.71253 1.32292,2.64583 0.63113,1.8513 1.1412898,3.74916 1.5119098,5.66965 0.1029,0.53323 1.11746,5.17873 0.18898,6.80357 -1.9654098,3.43947 -0.2303,-0.7259 -2.2678498,0.75595 -0.52454,0.38148 -0.62996,1.13393 -0.94494,1.70089"
       style="fill:none;stroke:#000000;stroke-width:0.264583px;stroke-linecap:butt;stroke-linejoin:miter;stroke-opacity:1" />
    <path
       inkscape:export-ydpi="96"
       inkscape:export-xdpi="96"
       id="path64"
       d="m -14.28041,148.50625 c 0.25198,0.50397 0.42171,1.05829 0.75595,1.5119 0.55553,0.75394 1.32322,1.33327 1.88988,2.07887 2.8937198,3.80753 4.5750198,9.62173 4.9136898,14.3631 0.10177,1.42484 0.1847,2.86916 -0.56697,4.15774 -0.63669,1.09147 -1.13393,0.5211 -1.13392,-0.18899"
       style="fill:none;stroke:#000000;stroke-width:0.264583px;stroke-linecap:butt;stroke-linejoin:miter;stroke-opacity:1" />
    <path
       inkscape:export-ydpi="96"
       inkscape:export-xdpi="96"
       id="path66"
       d="m -14.28041,148.50625 c 0.89865,0.89865 4.6478998,4.33829 5.4806498,6.04762 2.77218,5.69026 4.09927,16.21225 3.40179,22.48958"
       style="fill:none;stroke:#000000;stroke-width:0.264583px;stroke-linecap:butt;stroke-linejoin:miter;stroke-opacity:1" />
    <path
       inkscape:export-ydpi="96"
       inkscape:export-xdpi="96"
       id="path68"
       d="m -40.73875,188.9497 c 1.60026,5.28164 7.41327,6.0583 11.90625,7.18155"
       style="fill:none;stroke:#000000;stroke-width:0.264583px;stroke-linecap:butt;stroke-linejoin:miter;stroke-opacity:1" />
    <path
       inkscape:export-ydpi="96"
       inkscape:export-xdpi="96"
       id="path70"
       d="m 38.742559,192.20089 c 1.089559,-0.60702 2.384274,-0.70364 3.590774,-0.94494"
       style="fill:none;stroke:#000000;stroke-width:0.264583px;stroke-linecap:butt;stroke-linejoin:miter;stroke-opacity:1" />
    <path
       inkscape:export-ydpi="96"
       inkscape:export-xdpi="96"
       id="path72"
       d="m 40.065475,173.11309 c -1.429504,-3.0896 -6.806774,-5.07293 -9.638392,-2.64583 -2.268138,1.94412 -3.951769,7.01417 -1.889882,9.63839 0.430435,0.54783 1.421379,0.99417 2.078871,1.32292"
       style="fill:none;stroke:#000000;stroke-width:0.264583px;stroke-linecap:butt;stroke-linejoin:miter;stroke-opacity:1" />
    <path
       inkscape:export-ydpi="96"
       inkscape:export-xdpi="96"
       id="path74"
       d="m -41.68369,206.14762 c 1.9122,8.44899 3.06767,17.21775 2.45685,25.89137 -0.3725,5.2894 -1.51191,10.56623 -1.51191,15.875"
       style="fill:none;stroke:#000000;stroke-width:0.264583px;stroke-linecap:butt;stroke-linejoin:miter;stroke-opacity:1" />
    <path
       inkscape:export-ydpi="96"
       inkscape:export-xdpi="96"
       id="path76"
       d="m -41.30571,223.9125 c -5.25629,3.49346 -10.62465,6.78731 -15.686013,10.58333"
       style="fill:none;stroke:#000000;stroke-width:0.264583px;stroke-linecap:butt;stroke-linejoin:miter;stroke-opacity:1" />
    <path
       inkscape:export-ydpi="96"
       inkscape:export-xdpi="96"
       id="path78"
       d="m -30.53339,223.53452 c 1.69757,-0.48502 1.14843,-0.59746 3.02381,0.18899 1.40392,0.58874 2.84872,1.11265 4.15774,1.88988 1.9275,1.14446 3.45741,3.43836 4.91369,5.10268"
       style="fill:none;stroke:#000000;stroke-width:0.264583px;stroke-linecap:butt;stroke-linejoin:miter;stroke-opacity:1" />
    <path
       inkscape:export-ydpi="96"
       inkscape:export-xdpi="96"
       id="path80"
       d="m 139.69764,170.43478 c 0.43791,0.14597 0.94926,0.28672 1.32291,0.56696 0.091,0.0683 -2.31922,6.01271 -2.45684,6.4256 -1.73058,5.19172 -2.77758,10.70366 -5.10268,15.68601 -0.70958,1.52053 -2.08451,3.99413 -3.2128,5.29167 -2.29206,2.63587 -6.42041,5.05199 -10.01637,4.91369 -2.08878,-0.0803 -4.29283,-1.63565 -5.85863,-2.64584 -4.47762,-2.88878 -5.35775,-5.51107 -6.42559,-10.58333 -0.49927,-2.37152 -0.82048,-4.7784 -1.13393,-7.18155 -0.67762,-5.19508 -0.73244,-5.36673 -0.37798,-10.77232 0.38432,-5.86087 -0.40166,-4.24426 1.13393,-6.80357 2.58149,0.0634 5.16801,-0.10981 7.74851,0 3.09663,0.13177 6.18456,0.61539 9.26042,0.94494 4.33499,0.46447 8.68649,0.56697 13.04018,0.56697 1.47127,0 2.87546,-0.18899 4.34672,-0.18899 0.68867,0 1.25595,0.055 1.13393,-0.18899 -0.22003,-0.44007 -0.67202,-0.72455 -0.94494,-1.13393"
       style="fill:none;stroke:#000000;stroke-width:0.264583px;stroke-linecap:butt;stroke-linejoin:miter;stroke-opacity:1" />
    <path
       inkscape:export-ydpi="96"
       inkscape:export-xdpi="96"
       id="path84"
       d="m 107.56966,165.3321 c 3.24971,-2.59976 3.0828,-1.05746 2.64583,-3.02381 -0.0697,-0.31357 0.004,-0.68797 -0.18899,-0.94494 -0.004,-0.005 -1.46483,0.92612 -2.45684,1.32292 -0.28056,0.11222 -1.63966,0.75595 -1.88988,0.75595 -0.0891,0 0.13195,-0.12055 0.18899,-0.18899 0.25823,-0.30988 0.57556,-0.58415 0.75595,-0.94494 0.0398,-0.0797 -0.12599,-0.12599 -0.18899,-0.18899 -0.12599,-0.12599 -0.20894,-0.32163 -0.37798,-0.37797 -0.6423,-0.2141 -1.98042,0.48696 -2.26785,-0.56697 -0.41732,-1.53016 0.37014,-3.53417 0.94494,-4.91369 0.13048,-0.31314 0.71722,-0.94494 0.37797,-0.94494 -0.39842,0 -0.75595,0.50397 -1.13392,0.37798 -1.5176,-0.50587 -1.06072,-2.60839 -1.13393,-3.77976 -0.0317,-0.5069 -0.18899,-1.00402 -0.18899,-1.51191 0,-0.32122 0.18899,-0.62372 0.18899,-0.94494 0,-0.83703 -0.86754,-1.55514 -0.56697,-2.45684 0.30786,-0.92358 1.01373,-1.25848 0.75596,-1.32292 -0.24447,-0.0611 -0.51367,0.0692 -0.75596,0 -2.09663,-0.59904 -2.13912,-3.58687 -1.32291,-5.10268 0.16895,-0.31376 0.48538,-0.52404 0.75595,-0.75595 1.14989,-0.98562 0.59371,0.36566 1.70089,0.56696 1.29503,0.23546 3.87367,-1.82105 5.29167,-2.07887 2.00303,-0.36418 3.49984,1.96367 5.10268,2.45685 1.14399,0.352 2.40204,-0.13985 3.59077,0 0.59354,0.0698 1.11487,0.44976 1.70089,0.56696 0.6077,0.12154 1.68724,-0.9833 2.07887,-1.13393 1.00529,-0.38664 2.05186,-0.13499 3.02381,0.18899 0.5886,0.1962 1.179,0.42045 1.70089,0.75595 0.36018,0.23154 1.04236,1.32292 1.7009,1.32292 2.05226,0 2.73285,-2.7462 4.53571,-3.40178 1.52882,-0.55594 2.77011,1.94926 5.10268,1.5119 1.05781,-0.19834 4.27731,-2.18493 4.91369,-2.07887 1.47226,0.24538 2.54006,1.12958 3.59077,2.26786 0.17618,0.19086 0.10023,0.51185 0.18899,0.75595 0.16396,0.45088 0.35241,0.89381 0.56697,1.32292 0.37651,0.75302 1.15778,0.6609 1.5119,-0.18899 0.26017,-0.62441 0.32798,-3.50421 1.88988,-2.83482 0.24566,0.10528 0.44744,0.32791 0.56697,0.56696 0.61414,1.22828 0.58374,2.99024 0,4.15774 -0.15089,0.30178 0.36586,0.82282 0,1.70089 -0.0986,0.23662 -1.63469,2.37259 -1.7009,2.45685 -0.30125,0.38342 -2.45684,2.57006 -2.45684,3.2128 0,0.53061 1.02075,1.41905 1.13393,2.26785 0.24861,1.86457 -0.57054,3.63643 -1.32292,5.29167 -0.0737,0.16221 -0.37798,0.1998 -0.37798,0.37798 0,0.36732 0.45081,0.59646 0.56697,0.94494 0.30907,0.92721 0.19746,2.31108 -0.18899,3.21279 -0.0702,0.16378 -0.21254,0.31181 -0.37798,0.37798 -0.97524,0.3901 -0.94494,-1.26777 -0.94494,0 0,0.31498 0,0.62996 0,0.94494 0,1.1123 -1.08159,0.99727 -1.70089,0.37798 -0.14086,-0.14087 0.0102,-0.56697 -0.18899,-0.56697 -0.38206,0 -0.75595,0.53528 -0.75595,0.18899"
       style="fill:none;stroke:#000000;stroke-width:0.264583px;stroke-linecap:butt;stroke-linejoin:miter;stroke-opacity:1" />
    <path
       inkscape:export-ydpi="96"
       inkscape:export-xdpi="96"
       id="path86"
       d="m 107.94764,141.33061 c -2.50491,4.07047 -0.34112,1.09707 -3.02381,3.77976 -0.16061,0.16061 0.37652,-0.25419 0.56696,-0.37797 1.0695,-0.69517 2.0912,-1.47134 3.2128,-2.07887 0.50159,-0.2717 1.85761,-0.73749 1.70089,-0.18899 -0.181,0.6335 -4.47482,4.36195 -3.02381,4.7247 0.75536,0.18884 3.23179,-0.72103 4.34673,-0.37797 0.38553,0.11862 1.04759,0.36586 0.94494,0.75595 -0.58277,2.2145 -2.50506,3.32374 -4.15774,4.53571 -0.21553,0.15806 -0.81028,0.67756 -0.56696,0.56697 1.18963,-0.54074 6.07186,-3.95259 7.18154,-3.2128 0.11721,0.0781 -0.0948,0.27328 -0.18898,0.37798 -1.42052,1.57834 -1.77377,1.74121 -3.59078,3.02381 -0.37112,0.26197 -0.81271,1.07717 -1.13393,0.75595 -0.31498,-0.31498 0.58383,-0.68414 0.94494,-0.94494 0.97224,-0.70217 3.53431,-2.18291 4.72471,-2.64583 0.2545,-0.099 1.88228,-0.6121 1.70089,0.56696 -0.19409,1.26155 -1.89595,2.6519 -2.64583,3.40179 -0.25199,0.25198 -0.84239,0.41023 -0.75596,0.75595 0.0721,0.28847 2.81108,-0.53468 2.64584,0.56696 -0.17181,1.14536 -0.72074,2.22349 -1.32292,3.2128 -0.30198,0.49611 -0.88883,0.74807 -1.32292,1.13393 -0.69995,0.62218 -1.36782,1.28041 -2.07887,1.88988 -0.17245,0.14782 -0.7941,0.37798 -0.56696,0.37798 0.61347,0 1.59111,-0.79255 2.26786,-0.56697 2.0596,0.68654 -1.69523,4.45672 -2.45685,4.91369 -0.054,0.0324 -0.0407,-0.1409 0,-0.18899 1.73671,-2.05247 2.21042,-2.40515 4.15774,-4.15773 0.69948,-0.62954 3.02086,-2.25014 3.2128,-3.40179 0.45272,-2.71634 -0.84242,-0.84339 0.94494,-3.77976 1.41522,-2.32501 1.8873,-2.4232 3.96875,-4.15774"
       style="fill:none;stroke:#000000;stroke-width:0.264583px;stroke-linecap:butt;stroke-linejoin:miter;stroke-opacity:1" />
    <path
       inkscape:export-ydpi="96"
       inkscape:export-xdpi="96"
       id="path88"
       d="m 113.99525,150.02407 c 0.81895,-0.25199 1.62146,-0.56543 2.45685,-0.75596 5.3739,-1.22562 10.90687,-2.02707 16.25298,-3.40178 1.02273,-0.26299 2.00691,-0.66021 3.02381,-0.94494 0.55928,-0.1566 1.13743,-0.23712 1.70089,-0.37798 0.19326,-0.0483 0.70782,-0.0481 0.56696,-0.18899 -0.22713,-0.22713 -0.62372,-0.18899 -0.94494,-0.18899 -1.19858,0 -2.39484,0.10926 -3.59077,0.18899 -2.78401,0.1856 -3.20176,0.38775 -6.61459,0.94494 -4.60857,0.75242 -9.56424,1.22723 -13.98511,2.83482 -0.0837,0.0305 -0.27171,0.1559 -0.18899,0.18899 0.35578,0.14231 0.75074,0.18899 1.13393,0.18899 0.88419,0 1.76496,-0.11239 2.64583,-0.18899 3.21055,-0.27917 6.42896,-0.46418 9.63839,-0.75595 1.51742,-0.13795 3.02736,-0.35148 4.53572,-0.56696 0.25713,-0.0367 0.49621,-0.18899 0.75595,-0.18899 0.33924,0 -0.63228,0.24633 -0.94494,0.37797 -0.90877,0.38265 -1.77162,0.86681 -2.64583,1.32292 -2.585,1.34869 -5.3,2.5662 -7.74852,4.15774 -0.41252,0.26814 -1.13392,0.45292 -1.13392,0.94494 0,1.33493 3.58971,1.13396 3.59077,1.13393 1.67518,-0.0523 5.76953,-0.68532 7.37053,-0.94494 0.21304,-0.0345 4.64549,-0.48775 5.29167,-1.13393 0.0446,-0.0446 -0.1263,-0.006 -0.18899,0 -0.56762,0.0568 -1.14636,0.0551 -1.70089,0.18899 -1.27867,0.30864 -2.53494,0.70886 -3.77976,1.13393 -3.18522,1.08763 -6.73066,2.43953 -9.63839,4.15773 -0.19555,0.11555 -0.51426,0.38526 -0.37798,0.56697 0.19273,0.25697 0.63226,0.11541 0.94494,0.18899 3.63941,0.85633 4.5949,0.87798 8.31548,0.18898 0.69254,-0.12825 1.38413,-0.26218 2.07886,-0.37797 0.43939,-0.0732 1.72998,-0.3699 1.32292,-0.18899 -0.52304,0.23246 -6.53631,3.26498 -6.04762,3.59077 2.25418,1.50279 7.82131,-3.28225 9.07143,-4.7247 1.97699,-2.28113 5.3e-4,-0.37864 1.70089,-2.45684 0.37882,-0.463 1.244,-1.32737 1.88988,-1.51191 0.3831,-0.10945 0.55616,0.77757 0.37798,1.13393 -0.51263,1.02525 -1.67293,1.78141 -2.64583,2.26786 -0.35636,0.17818 -0.73749,0.41762 -1.13393,0.37797 -1.02765,-0.10276 -1.05561,-1.71449 -0.94494,-2.26785 0.52,-2.6 2.31198,-5.7604 3.96875,-7.74852 2.89125,-3.46949 4.30205,-0.65514 3.40178,2.64584 -0.82592,3.0284 -3.09182,5.72243 -3.59077,8.88244 -0.32831,2.07927 1.42199,1.93864 2.45685,0.75595 1.25413,-1.4333 2.03065,-3.23147 3.21279,-4.7247 0.38511,-0.48645 1.92612,-2.03873 2.45685,-2.83482 0.0699,-0.10484 -0.29369,-0.0936 -0.37798,0 -0.48049,0.53388 -0.87709,1.13774 -1.32291,1.70089 -2.02911,2.56308 -3.94416,5.60121 -6.61459,7.55952 -0.27357,0.20062 -0.68432,0.59516 -0.94494,0.37798 -2.0826,-1.7355 5.83192,-10.933 5.29167,-13.41816 -0.16335,-0.75141 -1.16038,-1.07974 -1.88988,-1.32291 -4.86958,-1.6232 -12.58889,1.29144 -17.57589,2.07887 -1.61933,0.25568 -2.64584,0.25497 -2.64584,0 0,-0.59753 2.43899,-1.31697 3.02381,-1.51191 2.96918,-0.98972 6.4072,-2.26786 9.63839,-2.26786 0.063,0 -0.12841,-0.0173 -0.18898,0 -0.82388,0.2354 -1.62559,0.54814 -2.45685,0.75596 -4.26356,1.06589 -8.69758,1.9673 -13.04018,2.64583 -2.04608,0.3197 -3.85544,0.019 -3.40178,-0.37798 0.99144,-0.86751 4.68054,-2.09131 5.29166,-2.26785 4.21461,-1.21756 9.00286,-2.12818 13.41816,-1.7009 0.83404,0.0807 2.74492,0.35246 2.83482,1.7009 0.19356,2.9034 -9.26403,9.14662 -11.33929,10.58333 -1.79572,1.24319 -3.64944,2.40048 -5.48065,3.59077 -0.68867,0.44764 -1.37935,0.89244 -2.07887,1.32292 -0.47252,0.29078 -1.08479,0.37798 -0.56696,0.37798 1.65716,0 3.28133,-0.47029 4.91369,-0.75596 4.05352,-0.70936 8.02034,-1.68572 12.09523,-2.26785 0.94372,-0.13482 1.88511,-0.29539 2.83483,-0.37798 0.50207,-0.0437 1.00793,0 1.5119,0 0.063,0 0.24533,-0.0282 0.18899,0 -1.20892,0.60446 -3.84627,1.14235 -4.53572,1.32292 -4.3631,1.14271 -4.28798,1.17775 -8.69345,2.07887 -2.49731,0.51081 -6.80839,1.76308 -9.4494,1.32291 -0.0621,-0.0103 -0.0592,-0.16745 0,-0.18898 1.17395,-0.4269 4.9266,-1.2056 5.66964,-1.32292 3.61357,-0.57056 7.32172,-0.69446 10.96131,-0.37798 0.56831,0.0494 1.13707,0.10225 1.70089,0.18899 0.25672,0.0395 0.87211,-0.0433 0.75595,0.18899 -0.14365,0.28731 -0.63171,0.1178 -0.94494,0.18899 -1.07282,0.24382 -2.14925,0.47442 -3.21279,0.75595 -0.0473,0.0125 -12.94989,3.9694 -6.80357,3.02381 1.07483,-0.16536 2.14531,-0.3594 3.21279,-0.56697 1.20068,-0.23346 2.39137,-0.51607 3.59078,-0.75595 1.32055,-0.26411 2.64323,-0.51804 3.96875,-0.75595 2.11755,-0.38007 4.63091,-0.52007 6.61458,-1.5119 0.0563,-0.0282 -0.12638,0.007 -0.18899,0 -0.50478,-0.0561 -1.00563,-0.22949 -1.5119,-0.18899 -1.08402,0.0867 -2.15779,0.30321 -3.2128,0.56696 -2.02978,0.50745 -7.30936,1.7759 -9.26042,3.40179 -0.5444,0.45367 3.1082,0.20572 3.2128,0.18899 3.53806,-0.56609 6.84926,-1.37284 10.20536,-2.64584 0.76571,-0.29044 1.51059,-0.63312 2.26785,-0.94494 0.3137,-0.12917 1.2776,-0.31144 0.94494,-0.37797 -2.01428,-0.40286 -5.63069,1.35215 -7.37053,2.26785 -0.40199,0.21158 -0.73951,0.53057 -1.13393,0.75595 -0.0547,0.0313 -0.24533,-0.0282 -0.18899,0 1.40975,0.70488 4.39536,-1.37093 5.66965,-2.07886 0.23363,-0.1298 0.80601,-0.44744 0.56696,-0.56697 -0.98403,-0.49201 -2.17534,0.38979 -3.2128,0.75595 -0.3985,0.14065 -1.55077,0.63644 -1.13393,0.56697 0.92929,-0.15488 6.88718,-2.24609 7.18155,-2.83482 0.214,-0.42801 -3.22098,0.42011 -3.59077,0.18898 -1.69441,-1.059 1.04704,-2.96016 1.5119,-3.40178 0.30994,-0.29444 4.38979,-3.94243 4.34673,-4.15774 -0.12837,-0.64183 -4.17507,0.40531 -4.7247,0.56697 -0.49838,0.14657 -1.76964,0.82901 -1.51191,0.37797 1.17067,-2.04867 3.78592,-2.96801 5.66964,-4.15774 0.45818,-0.28937 1.80762,-0.70259 1.32292,-0.94494 -0.14449,-0.0722 -4.45832,2.01012 -5.10268,2.26786 -0.0827,0.0331 0.12371,-0.12837 0.18899,-0.18899 0.81671,-0.75837 1.59059,-1.56661 2.45685,-2.26786 0.46191,-0.37393 1.01741,-0.61528 1.5119,-0.94494 0.26208,-0.17472 0.97868,-0.34423 0.75595,-0.56696 -0.23988,-0.23988 -0.63493,0.2402 -0.94494,0.37798 -0.61882,0.27503 -4.99102,2.75748 -5.85863,1.88988 -1.37607,-1.37608 3.2128,-3.91396 3.2128,-5.10268 0,-1.59138 -6.15,1.18125 -5.85863,-0.56697 0.12879,-0.77276 0.981,-1.31478 1.5119,-1.70089 0.36739,-0.26719 1.5882,-0.75595 1.13393,-0.75595 -0.46985,0 -6.5433,3.48483 -7.55952,3.96875 -0.48596,0.23141 -1.02006,0.34836 -1.51191,0.56696 -0.0814,0.0362 -0.2735,0.21716 -0.18899,0.18899 0.44251,-0.1475 4.03265,-2.64315 4.34673,-1.70089 0.40657,1.21971 -1.64518,3.01871 -2.26786,3.77976 -0.25543,0.31219 -1.11674,1.12533 -0.75595,0.94494 0.849,-0.4245 3.59639,-2.74173 3.96875,-2.83482 1.44325,-0.36081 1.39151,2.63969 1.32292,3.02381 -0.19964,1.11799 -0.52249,2.25577 -1.13393,3.2128 -0.89841,1.40621 -6.33891,7.332 -8.12649,8.12648 -1.15804,0.51469 -2.11235,-0.3197 -2.26786,-1.5119 -0.36231,-2.77773 1.64809,-6.43333 3.02381,-8.69345 0.3543,-0.58206 0.73315,-1.14982 1.13393,-1.7009 0.1048,-0.1441 0.1998,-0.37797 0.37798,-0.37797 0.12599,0 0.0756,0.27718 0,0.37797 -0.50852,0.67803 -1.1282,1.26513 -1.70089,1.88989 -0.3216,0.35083 -8.95156,9.54172 -9.44941,6.80357 -0.24703,-1.35868 3.10888,-6.38306 4.15774,-5.85863 0.62996,0.31498 -0.0441,1.45874 -0.37798,2.07887 -0.6843,1.27084 -4.64345,6.2302 -6.42559,3.77976 -0.80618,-1.10849 0.34671,-5.11121 0.75595,-6.23661 0.22165,-0.60954 0.61125,-1.14474 0.94494,-1.70089 0.0458,-0.0764 0.11486,-0.23841 0.18899,-0.18899 1.94391,1.29594 -3.31379,7.79651 -5.48066,6.61458 -1.58249,-0.86318 -4.27365,-5.9317 -2.64583,-7.55952 0.18673,-0.18673 1.31592,0.44564 1.51191,2.07887 0.11358,0.94651 -0.19102,1.90003 -0.37798,2.83482 -0.64145,3.20726 -1.948,7.82127 -4.7247,2.26786 -0.48142,-0.96283 -0.85069,-1.98527 -1.13393,-3.02381 -0.28614,-1.04916 -0.56697,-2.12532 -0.56697,-3.2128 0,-1.5715 1.23503,-4.05811 2.07887,-3.40179 1.97403,1.53536 2.44273,3.69849 1.7009,6.04762 -0.30491,0.96553 -1.10782,1.7183 -1.13393,1.7009 -0.17701,-0.11801 -0.36496,-2.30715 -0.37798,-2.45685 -0.2112,-2.42875 -0.76613,-5.39745 1.88988,-6.80357 0.4454,-0.2358 1.02919,-0.14482 1.51191,0 1.84544,0.55363 3.17635,1.71732 4.34672,3.2128 0.55759,0.71247 1.71082,4.32462 3.2128,4.15773 1.80231,-0.20025 1.71724,-4.6014 3.2128,-5.29166 3.34612,-1.54437 4.20336,5.88144 5.66964,6.61458 1.81369,0.90684 3.95339,-4.50335 6.04762,-5.48065 2.23785,-1.04433 4.25088,1.99671 5.66964,3.21279 1.53837,1.3186 3.38497,1.85327 5.10268,2.83483"
       style="fill:none;stroke:#000000;stroke-width:0.264583px;stroke-linecap:butt;stroke-linejoin:miter;stroke-opacity:1" />
    <path
       inkscape:export-ydpi="96"
       inkscape:export-xdpi="96"
       id="path90"
       d="m 105.11281,170.81276 c 3.03168,1.39923 1.55936,1.04417 4.34673,1.32291 2.39135,0.23914 1.25678,0.18899 3.40179,0.18899 0.69581,0 1.38305,-0.18899 2.07887,-0.18899 0.49023,0 2.91671,0.48129 1.13392,-0.94494 -0.2087,-0.16696 -0.31671,-0.47312 -0.56696,-0.56696 -1.24073,-0.46528 -3.44174,0.5274 -4.15774,1.5119 -0.53734,0.73885 -0.37797,1.84001 -0.37797,2.64584 0,1.72209 0.29385,5.29166 2.83482,5.29166 3.07401,0 6.67122,-7.40463 5.48065,-9.07143 -1.05665,-1.4793 -2.8567,1.32292 -3.96875,1.32292"
       style="fill:none;stroke:#000000;stroke-width:0.264583px;stroke-linecap:butt;stroke-linejoin:miter;stroke-opacity:1" />
    <path
       inkscape:export-ydpi="96"
       inkscape:export-xdpi="96"
       id="path92"
       d="m 115.31817,172.32466 c 6.62554,0.99383 1.14465,0.54105 6.4256,0.18899 3.41748,-0.22783 2.38511,0.034 5.48065,0.37797 0.30945,0.0344 2.26786,0.14462 2.26786,-0.37797 0,-0.23791 -1.0099,-0.56403 -1.13393,-0.37798 -0.1105,0.16576 -0.0999,0.38879 -0.18899,0.56697 -0.51856,1.03712 -1.28024,1.93012 -1.70089,3.02381 -0.58628,1.52431 -0.80659,4.32494 1.5119,4.53571 0.78073,0.071 2.34656,-0.61943 2.83482,-0.94494 3.88622,-2.59081 0.45697,-7.97699 -1.5119,-6.99256 -1.21995,0.60997 3.97845,1.13393 4.15774,1.13393 0.38319,0 0.75186,-0.1596 1.13393,-0.18899 1.06328,-0.0818 2.15079,0.0966 3.21279,0 2.03805,-0.18528 4.25838,-0.91393 6.04762,-1.88988 0.27652,-0.15083 0.47423,-0.4261 0.75596,-0.56696 0.5702,-0.28511 0.8691,0.56696 1.32291,0.56696"
       style="fill:none;stroke:#000000;stroke-width:0.264583px;stroke-linecap:butt;stroke-linejoin:miter;stroke-opacity:1" />
    <path
       inkscape:export-ydpi="96"
       inkscape:export-xdpi="96"
       id="path94"
       d="m 122.68871,188.38865 c -1.38592,-0.75595 -2.64821,-1.80576 -4.15774,-2.26786 -4.86834,-1.49031 -12.01952,-0.34312 -16.81994,1.13393 -0.97273,0.2993 -1.88493,0.76858 -2.83482,1.13393 -1.45303,0.55886 -2.91851,0.94061 -4.34673,1.5119 -0.0585,0.0234 -0.18899,-0.063 -0.18899,0 0,0.14087 0.063,0.31498 0.18899,0.37798 0.62129,0.31064 1.24395,0.13027 1.88988,0.18899 0.76631,0.0697 1.95522,0.37359 2.64584,0.56696 1.61497,0.4522 4.01231,1.41084 5.85863,1.32292 4.28949,-0.20426 8.00785,-2.48444 11.52827,-4.7247 1.16671,-0.74246 2.70689,-2.16668 4.15774,-2.45685 0.0874,-0.0175 0.22883,0.1093 0.18899,0.18899 -2.02384,4.04767 -12.47416,3.14698 -16.06399,2.83482 -1.64257,-0.14283 -3.27501,-0.38489 -4.91369,-0.56696 -0.44273,-0.0492 -0.88808,-0.0924 -1.32292,-0.18899 -0.13751,-0.0306 -0.51884,-0.18899 -0.37798,-0.18899 1.28488,0 2.5149,0.53008 3.77977,0.75595 0.87702,0.15661 1.76226,0.26397 2.64583,0.37798 4.68919,0.60506 8.38055,0.70927 13.04018,-0.37798 1.22235,-0.28521 2.43214,-0.65116 3.59077,-1.13393 0.45417,-0.18923 1.574,-0.7249 1.13393,-0.94494 -0.44854,-0.22427 -6.38634,-0.4826 -7.37053,-0.56696 -6.04495,-0.51814 -11.28498,-0.58273 -17.19792,1.13393 -0.89937,0.2611 -1.76571,0.62489 -2.64583,0.94494 -0.50584,0.18394 -1.01217,0.36706 -1.51191,0.56696 -0.13079,0.0523 -0.33343,0.0554 -0.37798,0.18899 -0.2051,0.6153 1.06316,0.82684 1.7009,0.94494 2.13848,0.39602 4.62721,0.46168 6.80357,0.37798 4.34921,-0.16728 8.9473,-0.13579 13.04018,-1.88988 0.54292,-0.23269 2.23519,-1.00329 2.45684,-1.88988 0.17818,-0.71272 -1.15887,-1.06083 -1.88988,-1.13393 -4.26239,-0.42624 -7.19867,0.83098 -11.1503,2.07887 -1.19692,0.37797 -2.4155,0.6932 -3.59077,1.13392 -0.84454,0.3167 -1.63432,0.7638 -2.45685,1.13393 -0.4375,0.19688 -0.87369,0.39851 -1.32291,0.56697 -0.059,0.0221 -0.2501,-0.0153 -0.18899,0 3.02018,0.75504 6.2057,0.14901 9.26042,0 1.10835,-0.0541 8.73818,0.12934 9.82738,-1.32292 0.0845,-0.11269 -0.23875,-0.16757 -0.37798,-0.18899 -0.68772,-0.1058 -1.38527,-0.1335 -2.07887,-0.18899 -3.29182,-0.26334 -6.53636,-0.15671 -9.82738,0 -0.0548,0.003 -5.48065,0.40613 -5.48065,0.37798 0,-0.33171 1.54736,-0.18899 2.64583,-0.18899 2.26415,0 4.54393,0.076 6.80357,0.18899 0.53948,0.027 2.56568,0.51255 3.2128,0.18899 0.62996,-0.31498 -1.20837,-0.76716 -1.88988,-0.94494 -1.64831,-0.43 -3.62407,-0.428 -5.29167,-0.56697 -3.01963,-0.25163 -0.7493,-0.31337 -5.10268,-0.18898 -2.47817,0.0708 -3.18945,0.30354 -5.48065,0.18898 -0.50726,-0.0254 -1.00654,-0.13845 -1.51191,-0.18898 -0.12536,-0.0125 -0.28888,-0.0891 -0.37797,0 -0.063,0.063 0.10304,0.16554 0.18899,0.18898 0.6198,0.16904 1.25063,0.31406 1.88988,0.37798 2.77628,0.27763 5.54591,0.36209 8.31547,0.18899 0.31437,-0.0197 0.62996,0 0.94494,0 0.126,0 0.28889,0.0891 0.37798,0 0.063,-0.063 -0.10044,-0.17915 -0.18899,-0.18899 -0.50089,-0.0557 -1.00794,0 -1.5119,0 -1.57279,0 -5.95274,0.52235 -7.37054,0 -0.74067,-0.27288 -1.38591,-0.75595 -2.07887,-1.13393"
       style="fill:none;stroke:#000000;stroke-width:0.264583px;stroke-linecap:butt;stroke-linejoin:miter;stroke-opacity:1" />
    <path
       inkscape:export-ydpi="96"
       inkscape:export-xdpi="96"
       id="path96"
       d="m 118.53097,186.49877 c 0.89381,4.96587 9.83567,3.12972 12.09524,3.02381 1.26481,-0.0593 2.52333,-0.22093 3.77976,-0.37798 1.32386,-0.16548 3.75465,-0.45309 5.29167,-0.94494 1.87737,-0.60076 4.54222,-1.31641 3.96875,-1.88988 -0.28173,-0.28173 -0.74863,-0.27658 -1.13393,-0.37798 -0.8128,-0.21389 -1.63169,-0.40725 -2.45685,-0.56696 -4.1558,-0.80435 -8.24174,-0.84999 -12.47321,-0.75595 -0.70546,0.0157 -4.32747,0.27084 -5.29167,0.37797 -0.38085,0.0423 -1.04099,-0.18276 -1.13393,0.18899 -0.0891,0.35636 0.59254,0.46332 0.94494,0.56697 0.73524,0.21624 1.51341,0.24325 2.26786,0.37797 4.9066,0.87618 9.94471,1.7064 14.93006,1.32292 1.06962,-0.0823 2.14903,-0.0502 3.2128,-0.18899 0.41904,-0.0547 1.49629,-0.34954 1.13393,-0.56696 -0.8145,-0.4887 -2.23967,-0.63049 -3.02381,-0.75596 -3.89936,-0.62389 -7.87325,-0.58303 -11.71727,0.37798 -1.05881,0.2647 -2.64583,0.77328 -2.64583,0.94494 0,0.66012 1.88933,0.76239 3.2128,0.94494 3.59022,0.4952 7.33702,0.69194 10.96131,0.56696 1.40181,-0.0483 3.95516,0.0136 5.10268,-1.13392 0.25198,-0.25199 -0.42841,-0.61558 -0.75596,-0.75596 -2.6835,-1.15007 -1.92769,-0.83052 -5.66964,-1.13392 -2.9705,-0.24086 -5.76092,-0.15521 -8.69345,0.37797 -0.57143,0.1039 -1.13497,0.24738 -1.70089,0.37798 -0.25309,0.0584 -0.57229,0.005 -0.75596,0.18899 -0.22272,0.22272 0.4531,0.48043 0.75596,0.56696 1.87385,0.53539 2.89692,0.80864 4.91369,1.13393 3.0024,0.48426 11.21803,1.42396 13.60714,-0.56697 0.41064,-0.3422 -0.64546,-0.91683 -1.13393,-1.13392 -1.81168,-0.80519 -3.10571,-0.95239 -5.10268,-1.13393 -3.31943,-0.30177 -6.53949,-0.12786 -9.82738,0.37797 -0.35057,0.0539 -2.41815,0.30171 -3.02381,0.75596 -0.0348,0.0261 0.38654,0.42822 1.32292,0.75595 2.90712,1.01749 2.79892,0.67318 6.04762,1.32291 1.39365,0.27873 2.76408,0.66621 4.15774,0.94495 5.11962,1.02392 10.29131,1.58366 15.49702,1.88988"
       style="fill:none;stroke:#000000;stroke-width:0.264583px;stroke-linecap:butt;stroke-linejoin:miter;stroke-opacity:1" />
    <path
       inkscape:export-ydpi="96"
       inkscape:export-xdpi="96"
       id="path98"
       d="m 117.964,193.68032 c 4.91573,1.7205 2.45224,1.46265 7.37054,0.94494"
       style="fill:none;stroke:#000000;stroke-width:0.264583px;stroke-linecap:butt;stroke-linejoin:miter;stroke-opacity:1" />
    <path
       inkscape:export-ydpi="96"
       inkscape:export-xdpi="96"
       id="path100"
       d="m 118.15299,204.07466 c -0.18899,0.25198 -0.59386,0.44212 -0.56696,0.75595 0.16987,1.98185 0.88721,3.88488 1.13393,5.85863 0.7945,6.356 0.92883,13.48592 1.13393,19.84375 0.42433,3.58501 0.0802,7.18265 0.18898,10.77232 0.22281,7.35271 0.18899,-0.75693 0.18899,3.77977"
       style="fill:none;stroke:#000000;stroke-width:0.264583px;stroke-linecap:butt;stroke-linejoin:miter;stroke-opacity:1" />
    <path
       inkscape:export-ydpi="96"
       inkscape:export-xdpi="96"
       id="path102"
       d="m 112.48335,222.40651 c -0.44267,0.44266 -1.15515,1.2108 -1.70089,1.5119 -1.9812,1.09308 -5.53617,2.74131 -7.74851,3.77976 -6.85641,3.21831 -3.96745,2.0919 -8.69346,3.77976"
       style="fill:none;stroke:#000000;stroke-width:0.264583px;stroke-linecap:butt;stroke-linejoin:miter;stroke-opacity:1" />
    <path
       inkscape:export-ydpi="96"
       inkscape:export-xdpi="96"
       id="path104"
       d="m 125.9015,228.8321 c 2.37507,-0.88381 4.93434,-0.0921 7.37054,0.18899 1.79946,0.20763 6.8074,0.19282 8.50446,1.88988"
       style="fill:none;stroke:#000000;stroke-width:0.264583px;stroke-linecap:butt;stroke-linejoin:miter;stroke-opacity:1" />
    <path
       inkscape:export-ydpi="96"
       inkscape:export-xdpi="96"
       id="path106"
       d="m 65.578867,223.00595 c -0.385746,2.19424 -0.05139,4.41312 -0.188986,6.61458 -0.04127,0.66035 -1.078672,5.53592 -0.377976,6.23661 0.04454,0.0445 0.13657,-0.0349 0.188987,0 0.29651,0.19767 0.477684,0.53334 0.755951,0.75595 2.234864,1.78789 4.292767,0.31754 6.614584,-0.56696 0.909087,-0.34632 1.192302,-0.40716 1.889881,-0.75595 0.112692,-0.0563 0.308089,0.10483 0.377976,0 0.574543,-0.86182 0.08942,-7.16395 0.188989,-8.12649 0.103849,-1.00387 0.854959,-3.4708 1.511903,-4.34673 0.351632,-0.46884 1.074077,-0.94494 1.700896,-0.94494 0.06299,0 0.06299,0.18899 0,0.18899 -0.840473,0 -1.629164,-0.4209 -2.456847,-0.56696 -2.418818,-0.42686 -5.922611,-0.78721 -8.315476,-0.18899 -0.663718,-0.77434 -1.500104,-1.16933 -1.133928,-2.26786 0.599146,-1.79743 6.482714,-3.91674 8.126489,-3.77976 0.338072,0.0282 0.654041,0.20344 0.94494,0.37798 1.686586,1.01195 1.915121,3.11246 2.078869,4.91369 0.03012,0.33126 -0.195495,3.19978 -0.755952,2.07887"
       style="fill:none;stroke:#000000;stroke-width:0.264583px;stroke-linecap:butt;stroke-linejoin:miter;stroke-opacity:1" />
  </g>
</svg>
