<?xml version='1.0' encoding='utf-8'?>
<mlt LC_NUMERIC="C" producer="main_bin" version="6.24.0" root="/home/nicolas/Documents/Projets Musique/Barons Freaks/Créa 2020/LesNouvellesAventuresDesBaronsFreaks/Film/Kdenlive/Acte3">
 <profile frame_rate_num="25" sample_aspect_num="1" display_aspect_den="1080" colorspace="601" progressive="0" description="1920x1080 25.00fps" display_aspect_num="1920" frame_rate_den="1" width="1920" height="1080" sample_aspect_den="1"/>
 <producer id="producer0" in="00:00:00.000" out="00:01:55.280">
  <property name="length">2883</property>
  <property name="eof">pause</property>
  <property name="resource">/home/nicolas/Documents/Projets Musique/Barons Freaks/Créa 2020/LesNouvellesAventuresDesBaronsFreaks/Film/Rushes/Common/Crop4tiers2_1080p.png</property>
  <property name="ttl">25</property>
  <property name="aspect_ratio">1</property>
  <property name="progressive">1</property>
  <property name="seekable">1</property>
  <property name="meta.media.width">1920</property>
  <property name="meta.media.height">1080</property>
  <property name="mlt_service">qimage</property>
  <property name="kdenlive:clipname"/>
  <property name="kdenlive:duration">00:00:03.000</property>
  <property name="kdenlive:id">2</property>
  <property name="kdenlive:file_size">21871</property>
  <property name="kdenlive:file_hash">3987722afcb7d0f34676d7ff4da40e1d</property>
  <property name="kdenlive:folderid">-1</property>
 </producer>
 <producer id="producer7" in="00:00:00.000" out="00:01:03.920">
  <property name="length">1599</property>
  <property name="eof">pause</property>
  <property name="resource">/home/nicolas/Documents/Projets Musique/Barons Freaks/Créa 2020/LesNouvellesAventuresDesBaronsFreaks/Film/Rushes/Acte3/bureau_jack_caesar/00091.MTS</property>
  <property name="audio_index">1</property>
  <property name="video_index">0</property>
  <property name="mute_on_pause">0</property>
  <property name="mlt_service">avformat-novalidate</property>
  <property name="seekable">1</property>
  <property name="aspect_ratio">1</property>
  <property name="kdenlive:clipname">00091.MTS</property>
  <property name="kdenlive:folderid">-1</property>
  <property name="kdenlive:id">3</property>
  <property name="kdenlive:file_size">131923968</property>
  <property name="kdenlive:file_hash">398cb9b7ce2292065e8bd8123e25fc90</property>
  <property name="kdenlive:proxy">-</property>
  <property name="kdenlive:originalurl">/home/nicolas/Documents/Projets Musique/Barons Freaks/Créa 2020/LesNouvellesAventuresDesBaronsFreaks/Film/Rushes/Acte3/bureau_jack_caesar/00091.MTS</property>
  <property name="kdenlive:audio_max">6</property>
  <property name="global_feed">1</property>
  <property name="meta.media.nb_streams">3</property>
  <property name="meta.media.0.stream.type">video</property>
  <property name="meta.media.0.stream.frame_rate">25</property>
  <property name="meta.media.0.stream.sample_aspect_ratio">0</property>
  <property name="meta.media.0.codec.width">1920</property>
  <property name="meta.media.0.codec.height">1080</property>
  <property name="meta.media.0.codec.rotate">0</property>
  <property name="meta.media.0.codec.frame_rate">25</property>
  <property name="meta.media.0.codec.pix_fmt">yuv420p</property>
  <property name="meta.media.0.codec.sample_aspect_ratio">1</property>
  <property name="meta.media.0.codec.colorspace">709</property>
  <property name="meta.media.0.codec.name">h264</property>
  <property name="meta.media.0.codec.long_name">H.264 / AVC / MPEG-4 AVC / MPEG-4 part 10</property>
  <property name="meta.media.0.codec.bit_rate">0</property>
  <property name="meta.media.1.stream.type">audio</property>
  <property name="meta.media.1.codec.sample_fmt">fltp</property>
  <property name="meta.media.1.codec.sample_rate">48000</property>
  <property name="meta.media.1.codec.channels">6</property>
  <property name="meta.media.1.codec.name">ac3</property>
  <property name="meta.media.1.codec.long_name">ATSC A/52A (AC-3)</property>
  <property name="meta.media.1.codec.bit_rate">448000</property>
  <property name="meta.media.2.codec.name">pgssub</property>
  <property name="meta.media.2.codec.long_name">HDMV Presentation Graphic Stream subtitles</property>
  <property name="meta.media.2.codec.bit_rate">0</property>
  <property name="meta.media.sample_aspect_num">1</property>
  <property name="meta.media.sample_aspect_den">1</property>
  <property name="meta.media.frame_rate_num">25</property>
  <property name="meta.media.frame_rate_den">1</property>
  <property name="meta.media.colorspace">709</property>
  <property name="meta.media.color_trc">2</property>
  <property name="meta.media.width">1920</property>
  <property name="meta.media.height">1080</property>
  <property name="meta.media.color_range">mpeg</property>
  <property name="meta.media.top_field_first">1</property>
  <property name="meta.media.progressive">0</property>
 </producer>
 <producer id="producer8" in="00:00:00.000" out="00:01:14.320">
  <property name="length">1859</property>
  <property name="eof">pause</property>
  <property name="resource">/home/nicolas/Documents/Projets Musique/Barons Freaks/Créa 2020/LesNouvellesAventuresDesBaronsFreaks/Film/Rushes/Acte3/bureau_jack_caesar/00092.MTS</property>
  <property name="audio_index">1</property>
  <property name="video_index">0</property>
  <property name="mute_on_pause">0</property>
  <property name="mlt_service">avformat-novalidate</property>
  <property name="seekable">1</property>
  <property name="aspect_ratio">1</property>
  <property name="kdenlive:clipname">00092.MTS</property>
  <property name="kdenlive:folderid">-1</property>
  <property name="kdenlive:id">4</property>
  <property name="kdenlive:file_size">153550848</property>
  <property name="kdenlive:file_hash">1a9686ab35d57d32e1942c15d4d4a54e</property>
  <property name="kdenlive:proxy">-</property>
  <property name="kdenlive:originalurl">/home/nicolas/Documents/Projets Musique/Barons Freaks/Créa 2020/LesNouvellesAventuresDesBaronsFreaks/Film/Rushes/Acte3/bureau_jack_caesar/00092.MTS</property>
  <property name="kdenlive:audio_max">5</property>
  <property name="global_feed">1</property>
  <property name="meta.media.nb_streams">3</property>
  <property name="meta.media.0.stream.type">video</property>
  <property name="meta.media.0.stream.frame_rate">25</property>
  <property name="meta.media.0.stream.sample_aspect_ratio">0</property>
  <property name="meta.media.0.codec.width">1920</property>
  <property name="meta.media.0.codec.height">1080</property>
  <property name="meta.media.0.codec.rotate">0</property>
  <property name="meta.media.0.codec.frame_rate">25</property>
  <property name="meta.media.0.codec.pix_fmt">yuv420p</property>
  <property name="meta.media.0.codec.sample_aspect_ratio">1</property>
  <property name="meta.media.0.codec.colorspace">709</property>
  <property name="meta.media.0.codec.name">h264</property>
  <property name="meta.media.0.codec.long_name">H.264 / AVC / MPEG-4 AVC / MPEG-4 part 10</property>
  <property name="meta.media.0.codec.bit_rate">0</property>
  <property name="meta.media.1.stream.type">audio</property>
  <property name="meta.media.1.codec.sample_fmt">fltp</property>
  <property name="meta.media.1.codec.sample_rate">48000</property>
  <property name="meta.media.1.codec.channels">6</property>
  <property name="meta.media.1.codec.name">ac3</property>
  <property name="meta.media.1.codec.long_name">ATSC A/52A (AC-3)</property>
  <property name="meta.media.1.codec.bit_rate">448000</property>
  <property name="meta.media.2.codec.name">pgssub</property>
  <property name="meta.media.2.codec.long_name">HDMV Presentation Graphic Stream subtitles</property>
  <property name="meta.media.2.codec.bit_rate">0</property>
  <property name="meta.media.sample_aspect_num">1</property>
  <property name="meta.media.sample_aspect_den">1</property>
  <property name="meta.media.frame_rate_num">25</property>
  <property name="meta.media.frame_rate_den">1</property>
  <property name="meta.media.colorspace">709</property>
  <property name="meta.media.color_trc">2</property>
  <property name="meta.media.width">1920</property>
  <property name="meta.media.height">1080</property>
  <property name="meta.media.color_range">mpeg</property>
 </producer>
 <producer id="producer10" in="00:00:00.000" out="00:00:42.120">
  <property name="length">1054</property>
  <property name="eof">pause</property>
  <property name="resource">/home/nicolas/Documents/Projets Musique/Barons Freaks/Créa 2020/LesNouvellesAventuresDesBaronsFreaks/Film/Rushes/Acte3/bureau_jack_caesar/00094.MTS</property>
  <property name="audio_index">1</property>
  <property name="video_index">0</property>
  <property name="mute_on_pause">0</property>
  <property name="mlt_service">avformat-novalidate</property>
  <property name="seekable">1</property>
  <property name="aspect_ratio">1</property>
  <property name="kdenlive:clipname">00094.MTS</property>
  <property name="kdenlive:folderid">-1</property>
  <property name="kdenlive:id">5</property>
  <property name="kdenlive:file_size">86507520</property>
  <property name="kdenlive:file_hash">8a1e1b0bcfb89c3a4252713c42f7886d</property>
  <property name="kdenlive:proxy">-</property>
  <property name="kdenlive:originalurl">/home/nicolas/Documents/Projets Musique/Barons Freaks/Créa 2020/LesNouvellesAventuresDesBaronsFreaks/Film/Rushes/Acte3/bureau_jack_caesar/00094.MTS</property>
  <property name="kdenlive:audio_max">8</property>
  <property name="global_feed">1</property>
  <property name="meta.media.nb_streams">3</property>
  <property name="meta.media.0.stream.type">video</property>
  <property name="meta.media.0.stream.frame_rate">25</property>
  <property name="meta.media.0.stream.sample_aspect_ratio">0</property>
  <property name="meta.media.0.codec.width">1920</property>
  <property name="meta.media.0.codec.height">1080</property>
  <property name="meta.media.0.codec.rotate">0</property>
  <property name="meta.media.0.codec.frame_rate">25</property>
  <property name="meta.media.0.codec.pix_fmt">yuv420p</property>
  <property name="meta.media.0.codec.sample_aspect_ratio">1</property>
  <property name="meta.media.0.codec.colorspace">709</property>
  <property name="meta.media.0.codec.name">h264</property>
  <property name="meta.media.0.codec.long_name">H.264 / AVC / MPEG-4 AVC / MPEG-4 part 10</property>
  <property name="meta.media.0.codec.bit_rate">0</property>
  <property name="meta.media.1.stream.type">audio</property>
  <property name="meta.media.1.codec.sample_fmt">fltp</property>
  <property name="meta.media.1.codec.sample_rate">48000</property>
  <property name="meta.media.1.codec.channels">6</property>
  <property name="meta.media.1.codec.name">ac3</property>
  <property name="meta.media.1.codec.long_name">ATSC A/52A (AC-3)</property>
  <property name="meta.media.1.codec.bit_rate">448000</property>
  <property name="meta.media.2.codec.name">pgssub</property>
  <property name="meta.media.2.codec.long_name">HDMV Presentation Graphic Stream subtitles</property>
  <property name="meta.media.2.codec.bit_rate">0</property>
  <property name="meta.media.sample_aspect_num">1</property>
  <property name="meta.media.sample_aspect_den">1</property>
  <property name="meta.media.frame_rate_num">25</property>
  <property name="meta.media.frame_rate_den">1</property>
  <property name="meta.media.colorspace">709</property>
  <property name="meta.media.color_trc">2</property>
  <property name="meta.media.width">1920</property>
  <property name="meta.media.height">1080</property>
  <property name="meta.media.color_range">mpeg</property>
 </producer>
 <producer id="producer13" in="00:00:00.000" out="00:00:43.120">
  <property name="length">1079</property>
  <property name="eof">pause</property>
  <property name="resource">/home/nicolas/Documents/Projets Musique/Barons Freaks/Créa 2020/LesNouvellesAventuresDesBaronsFreaks/Film/Rushes/Acte3/bureau_jack_caesar/00095.MTS</property>
  <property name="audio_index">1</property>
  <property name="video_index">0</property>
  <property name="mute_on_pause">0</property>
  <property name="mlt_service">avformat-novalidate</property>
  <property name="seekable">1</property>
  <property name="aspect_ratio">1</property>
  <property name="kdenlive:clipname">00095.MTS</property>
  <property name="kdenlive:folderid">-1</property>
  <property name="kdenlive:id">6</property>
  <property name="kdenlive:file_size">88670208</property>
  <property name="kdenlive:file_hash">254a68ac16fe38c3767ee17eda5dc003</property>
  <property name="kdenlive:proxy">-</property>
  <property name="kdenlive:originalurl">/home/nicolas/Documents/Projets Musique/Barons Freaks/Créa 2020/LesNouvellesAventuresDesBaronsFreaks/Film/Rushes/Acte3/bureau_jack_caesar/00095.MTS</property>
  <property name="kdenlive:audio_max">8</property>
  <property name="global_feed">1</property>
  <property name="meta.media.nb_streams">3</property>
  <property name="meta.media.0.stream.type">video</property>
  <property name="meta.media.0.stream.frame_rate">25</property>
  <property name="meta.media.0.stream.sample_aspect_ratio">0</property>
  <property name="meta.media.0.codec.width">1920</property>
  <property name="meta.media.0.codec.height">1080</property>
  <property name="meta.media.0.codec.rotate">0</property>
  <property name="meta.media.0.codec.frame_rate">25</property>
  <property name="meta.media.0.codec.pix_fmt">yuv420p</property>
  <property name="meta.media.0.codec.sample_aspect_ratio">1</property>
  <property name="meta.media.0.codec.colorspace">709</property>
  <property name="meta.media.0.codec.name">h264</property>
  <property name="meta.media.0.codec.long_name">H.264 / AVC / MPEG-4 AVC / MPEG-4 part 10</property>
  <property name="meta.media.0.codec.bit_rate">0</property>
  <property name="meta.media.1.stream.type">audio</property>
  <property name="meta.media.1.codec.sample_fmt">fltp</property>
  <property name="meta.media.1.codec.sample_rate">48000</property>
  <property name="meta.media.1.codec.channels">6</property>
  <property name="meta.media.1.codec.name">ac3</property>
  <property name="meta.media.1.codec.long_name">ATSC A/52A (AC-3)</property>
  <property name="meta.media.1.codec.bit_rate">448000</property>
  <property name="meta.media.2.codec.name">pgssub</property>
  <property name="meta.media.2.codec.long_name">HDMV Presentation Graphic Stream subtitles</property>
  <property name="meta.media.2.codec.bit_rate">0</property>
  <property name="meta.media.sample_aspect_num">1</property>
  <property name="meta.media.sample_aspect_den">1</property>
  <property name="meta.media.frame_rate_num">25</property>
  <property name="meta.media.frame_rate_den">1</property>
  <property name="meta.media.colorspace">709</property>
  <property name="meta.media.color_trc">2</property>
  <property name="meta.media.width">1920</property>
  <property name="meta.media.height">1080</property>
  <property name="meta.media.color_range">mpeg</property>
 </producer>
 <producer id="producer11" in="00:00:00.000" out="00:00:44.200">
  <property name="length">1106</property>
  <property name="eof">pause</property>
  <property name="resource">/home/nicolas/Documents/Projets Musique/Barons Freaks/Créa 2020/LesNouvellesAventuresDesBaronsFreaks/Film/Rushes/Acte3/bureau_jack_caesar/00096.MTS</property>
  <property name="audio_index">1</property>
  <property name="video_index">0</property>
  <property name="mute_on_pause">0</property>
  <property name="mlt_service">avformat-novalidate</property>
  <property name="seekable">1</property>
  <property name="aspect_ratio">1</property>
  <property name="kdenlive:clipname">00096.MTS</property>
  <property name="kdenlive:folderid">-1</property>
  <property name="kdenlive:id">7</property>
  <property name="kdenlive:file_size">90931200</property>
  <property name="kdenlive:file_hash">9bb92b78db9666719be71bbb2a21a9b0</property>
  <property name="kdenlive:proxy">-</property>
  <property name="kdenlive:originalurl">/home/nicolas/Documents/Projets Musique/Barons Freaks/Créa 2020/LesNouvellesAventuresDesBaronsFreaks/Film/Rushes/Acte3/bureau_jack_caesar/00096.MTS</property>
  <property name="kdenlive:audio_max">10</property>
  <property name="global_feed">1</property>
  <property name="meta.media.nb_streams">3</property>
  <property name="meta.media.0.stream.type">video</property>
  <property name="meta.media.0.stream.frame_rate">25</property>
  <property name="meta.media.0.stream.sample_aspect_ratio">0</property>
  <property name="meta.media.0.codec.width">1920</property>
  <property name="meta.media.0.codec.height">1080</property>
  <property name="meta.media.0.codec.rotate">0</property>
  <property name="meta.media.0.codec.frame_rate">25</property>
  <property name="meta.media.0.codec.pix_fmt">yuv420p</property>
  <property name="meta.media.0.codec.sample_aspect_ratio">1</property>
  <property name="meta.media.0.codec.colorspace">709</property>
  <property name="meta.media.0.codec.name">h264</property>
  <property name="meta.media.0.codec.long_name">H.264 / AVC / MPEG-4 AVC / MPEG-4 part 10</property>
  <property name="meta.media.0.codec.bit_rate">0</property>
  <property name="meta.media.1.stream.type">audio</property>
  <property name="meta.media.1.codec.sample_fmt">fltp</property>
  <property name="meta.media.1.codec.sample_rate">48000</property>
  <property name="meta.media.1.codec.channels">6</property>
  <property name="meta.media.1.codec.name">ac3</property>
  <property name="meta.media.1.codec.long_name">ATSC A/52A (AC-3)</property>
  <property name="meta.media.1.codec.bit_rate">448000</property>
  <property name="meta.media.2.codec.name">pgssub</property>
  <property name="meta.media.2.codec.long_name">HDMV Presentation Graphic Stream subtitles</property>
  <property name="meta.media.2.codec.bit_rate">0</property>
  <property name="meta.media.sample_aspect_num">1</property>
  <property name="meta.media.sample_aspect_den">1</property>
  <property name="meta.media.frame_rate_num">25</property>
  <property name="meta.media.frame_rate_den">1</property>
  <property name="meta.media.colorspace">709</property>
  <property name="meta.media.color_trc">2</property>
  <property name="meta.media.width">1920</property>
  <property name="meta.media.height">1080</property>
  <property name="meta.media.color_range">mpeg</property>
 </producer>
 <producer id="producer12" in="00:00:00.000" out="00:00:26.480">
  <property name="length">663</property>
  <property name="eof">pause</property>
  <property name="resource">/home/nicolas/Documents/Projets Musique/Barons Freaks/Créa 2020/LesNouvellesAventuresDesBaronsFreaks/Film/Rushes/Acte3/bureau_jack_caesar/00098.MTS</property>
  <property name="audio_index">1</property>
  <property name="video_index">0</property>
  <property name="mute_on_pause">0</property>
  <property name="mlt_service">avformat-novalidate</property>
  <property name="seekable">1</property>
  <property name="aspect_ratio">1</property>
  <property name="kdenlive:clipname">00098.MTS</property>
  <property name="kdenlive:folderid">-1</property>
  <property name="kdenlive:id">8</property>
  <property name="kdenlive:file_size">54165504</property>
  <property name="kdenlive:file_hash">04d76ed87a4aa6ca4857871e6d9ac5a8</property>
  <property name="kdenlive:proxy">-</property>
  <property name="kdenlive:originalurl">/home/nicolas/Documents/Projets Musique/Barons Freaks/Créa 2020/LesNouvellesAventuresDesBaronsFreaks/Film/Rushes/Acte3/bureau_jack_caesar/00098.MTS</property>
  <property name="kdenlive:audio_max">8</property>
  <property name="global_feed">1</property>
  <property name="meta.media.nb_streams">3</property>
  <property name="meta.media.0.stream.type">video</property>
  <property name="meta.media.0.stream.frame_rate">25</property>
  <property name="meta.media.0.stream.sample_aspect_ratio">0</property>
  <property name="meta.media.0.codec.width">1920</property>
  <property name="meta.media.0.codec.height">1080</property>
  <property name="meta.media.0.codec.rotate">0</property>
  <property name="meta.media.0.codec.frame_rate">25</property>
  <property name="meta.media.0.codec.pix_fmt">yuv420p</property>
  <property name="meta.media.0.codec.sample_aspect_ratio">1</property>
  <property name="meta.media.0.codec.colorspace">709</property>
  <property name="meta.media.0.codec.name">h264</property>
  <property name="meta.media.0.codec.long_name">H.264 / AVC / MPEG-4 AVC / MPEG-4 part 10</property>
  <property name="meta.media.0.codec.bit_rate">0</property>
  <property name="meta.media.1.stream.type">audio</property>
  <property name="meta.media.1.codec.sample_fmt">fltp</property>
  <property name="meta.media.1.codec.sample_rate">48000</property>
  <property name="meta.media.1.codec.channels">6</property>
  <property name="meta.media.1.codec.name">ac3</property>
  <property name="meta.media.1.codec.long_name">ATSC A/52A (AC-3)</property>
  <property name="meta.media.1.codec.bit_rate">448000</property>
  <property name="meta.media.2.codec.name">pgssub</property>
  <property name="meta.media.2.codec.long_name">HDMV Presentation Graphic Stream subtitles</property>
  <property name="meta.media.2.codec.bit_rate">0</property>
  <property name="meta.media.sample_aspect_num">1</property>
  <property name="meta.media.sample_aspect_den">1</property>
  <property name="meta.media.frame_rate_num">25</property>
  <property name="meta.media.frame_rate_den">1</property>
  <property name="meta.media.colorspace">709</property>
  <property name="meta.media.color_trc">2</property>
  <property name="meta.media.width">1920</property>
  <property name="meta.media.height">1080</property>
  <property name="meta.media.color_range">mpeg</property>
 </producer>
 <producer id="producer14" in="00:00:00.000" out="00:00:20.240">
  <property name="length">507</property>
  <property name="eof">pause</property>
  <property name="resource">/home/nicolas/Documents/Projets Musique/Barons Freaks/Créa 2020/LesNouvellesAventuresDesBaronsFreaks/Film/Rushes/Acte3/bureau_jack_caesar/00099.MTS</property>
  <property name="audio_index">1</property>
  <property name="video_index">0</property>
  <property name="mute_on_pause">0</property>
  <property name="mlt_service">avformat-novalidate</property>
  <property name="seekable">1</property>
  <property name="aspect_ratio">1</property>
  <property name="kdenlive:clipname">00099.MTS</property>
  <property name="kdenlive:folderid">-1</property>
  <property name="kdenlive:id">9</property>
  <property name="kdenlive:file_size">41189376</property>
  <property name="kdenlive:file_hash">062c14eff5ec6836c7b2dee2efe63d44</property>
  <property name="kdenlive:proxy">-</property>
  <property name="kdenlive:originalurl">/home/nicolas/Documents/Projets Musique/Barons Freaks/Créa 2020/LesNouvellesAventuresDesBaronsFreaks/Film/Rushes/Acte3/bureau_jack_caesar/00099.MTS</property>
  <property name="kdenlive:audio_max">8</property>
  <property name="global_feed">1</property>
  <property name="meta.media.nb_streams">3</property>
  <property name="meta.media.0.stream.type">video</property>
  <property name="meta.media.0.stream.frame_rate">25</property>
  <property name="meta.media.0.stream.sample_aspect_ratio">0</property>
  <property name="meta.media.0.codec.width">1920</property>
  <property name="meta.media.0.codec.height">1080</property>
  <property name="meta.media.0.codec.rotate">0</property>
  <property name="meta.media.0.codec.frame_rate">25</property>
  <property name="meta.media.0.codec.pix_fmt">yuv420p</property>
  <property name="meta.media.0.codec.sample_aspect_ratio">1</property>
  <property name="meta.media.0.codec.colorspace">709</property>
  <property name="meta.media.0.codec.name">h264</property>
  <property name="meta.media.0.codec.long_name">H.264 / AVC / MPEG-4 AVC / MPEG-4 part 10</property>
  <property name="meta.media.0.codec.bit_rate">0</property>
  <property name="meta.media.1.stream.type">audio</property>
  <property name="meta.media.1.codec.sample_fmt">fltp</property>
  <property name="meta.media.1.codec.sample_rate">48000</property>
  <property name="meta.media.1.codec.channels">6</property>
  <property name="meta.media.1.codec.name">ac3</property>
  <property name="meta.media.1.codec.long_name">ATSC A/52A (AC-3)</property>
  <property name="meta.media.1.codec.bit_rate">448000</property>
  <property name="meta.media.2.codec.name">pgssub</property>
  <property name="meta.media.2.codec.long_name">HDMV Presentation Graphic Stream subtitles</property>
  <property name="meta.media.2.codec.bit_rate">0</property>
  <property name="meta.media.sample_aspect_num">1</property>
  <property name="meta.media.sample_aspect_den">1</property>
  <property name="meta.media.frame_rate_num">25</property>
  <property name="meta.media.frame_rate_den">1</property>
  <property name="meta.media.colorspace">709</property>
  <property name="meta.media.color_trc">2</property>
  <property name="meta.media.width">1920</property>
  <property name="meta.media.height">1080</property>
  <property name="meta.media.color_range">mpeg</property>
 </producer>
 <producer id="producer15" in="00:00:00.000" out="00:00:13.000">
  <property name="length">326</property>
  <property name="eof">pause</property>
  <property name="resource">/home/nicolas/Documents/Projets Musique/Barons Freaks/Créa 2020/LesNouvellesAventuresDesBaronsFreaks/Film/Rushes/Acte3/bureau_jack_caesar/00100.MTS</property>
  <property name="audio_index">1</property>
  <property name="video_index">0</property>
  <property name="mute_on_pause">0</property>
  <property name="mlt_service">avformat-novalidate</property>
  <property name="seekable">1</property>
  <property name="aspect_ratio">1</property>
  <property name="kdenlive:clipname">00100.MTS</property>
  <property name="kdenlive:folderid">-1</property>
  <property name="kdenlive:id">10</property>
  <property name="kdenlive:file_size">26148864</property>
  <property name="kdenlive:file_hash">b8c891d047b4431fbcb5654e46ba6640</property>
  <property name="kdenlive:proxy">-</property>
  <property name="kdenlive:originalurl">/home/nicolas/Documents/Projets Musique/Barons Freaks/Créa 2020/LesNouvellesAventuresDesBaronsFreaks/Film/Rushes/Acte3/bureau_jack_caesar/00100.MTS</property>
  <property name="kdenlive:audio_max">9</property>
  <property name="global_feed">1</property>
  <property name="meta.media.nb_streams">3</property>
  <property name="meta.media.0.stream.type">video</property>
  <property name="meta.media.0.stream.frame_rate">25</property>
  <property name="meta.media.0.stream.sample_aspect_ratio">0</property>
  <property name="meta.media.0.codec.width">1920</property>
  <property name="meta.media.0.codec.height">1080</property>
  <property name="meta.media.0.codec.rotate">0</property>
  <property name="meta.media.0.codec.frame_rate">25</property>
  <property name="meta.media.0.codec.pix_fmt">yuv420p</property>
  <property name="meta.media.0.codec.sample_aspect_ratio">1</property>
  <property name="meta.media.0.codec.colorspace">709</property>
  <property name="meta.media.0.codec.name">h264</property>
  <property name="meta.media.0.codec.long_name">H.264 / AVC / MPEG-4 AVC / MPEG-4 part 10</property>
  <property name="meta.media.0.codec.bit_rate">0</property>
  <property name="meta.media.1.stream.type">audio</property>
  <property name="meta.media.1.codec.sample_fmt">fltp</property>
  <property name="meta.media.1.codec.sample_rate">48000</property>
  <property name="meta.media.1.codec.channels">6</property>
  <property name="meta.media.1.codec.name">ac3</property>
  <property name="meta.media.1.codec.long_name">ATSC A/52A (AC-3)</property>
  <property name="meta.media.1.codec.bit_rate">448000</property>
  <property name="meta.media.2.codec.name">pgssub</property>
  <property name="meta.media.2.codec.long_name">HDMV Presentation Graphic Stream subtitles</property>
  <property name="meta.media.2.codec.bit_rate">0</property>
  <property name="meta.media.sample_aspect_num">1</property>
  <property name="meta.media.sample_aspect_den">1</property>
  <property name="meta.media.frame_rate_num">25</property>
  <property name="meta.media.frame_rate_den">1</property>
  <property name="meta.media.colorspace">709</property>
  <property name="meta.media.color_trc">2</property>
  <property name="meta.media.width">1920</property>
  <property name="meta.media.height">1080</property>
  <property name="meta.media.color_range">mpeg</property>
 </producer>
 <producer id="producer16" in="00:00:00.000" out="00:00:37.960">
  <property name="length">950</property>
  <property name="eof">pause</property>
  <property name="resource">/home/nicolas/Documents/Projets Musique/Barons Freaks/Créa 2020/LesNouvellesAventuresDesBaronsFreaks/Film/Rushes/Acte3/bureau_jack_caesar/00101.MTS</property>
  <property name="audio_index">1</property>
  <property name="video_index">0</property>
  <property name="mute_on_pause">0</property>
  <property name="mlt_service">avformat-novalidate</property>
  <property name="seekable">1</property>
  <property name="aspect_ratio">1</property>
  <property name="kdenlive:clipname">00101.MTS</property>
  <property name="kdenlive:folderid">-1</property>
  <property name="kdenlive:id">11</property>
  <property name="kdenlive:file_size">77856768</property>
  <property name="kdenlive:file_hash">dc0d0612e0b594c961672bc1295df059</property>
  <property name="kdenlive:proxy">-</property>
  <property name="kdenlive:originalurl">/home/nicolas/Documents/Projets Musique/Barons Freaks/Créa 2020/LesNouvellesAventuresDesBaronsFreaks/Film/Rushes/Acte3/bureau_jack_caesar/00101.MTS</property>
  <property name="kdenlive:audio_max">9</property>
  <property name="global_feed">1</property>
  <property name="meta.media.nb_streams">3</property>
  <property name="meta.media.0.stream.type">video</property>
  <property name="meta.media.0.stream.frame_rate">25</property>
  <property name="meta.media.0.stream.sample_aspect_ratio">0</property>
  <property name="meta.media.0.codec.width">1920</property>
  <property name="meta.media.0.codec.height">1080</property>
  <property name="meta.media.0.codec.rotate">0</property>
  <property name="meta.media.0.codec.frame_rate">25</property>
  <property name="meta.media.0.codec.pix_fmt">yuv420p</property>
  <property name="meta.media.0.codec.sample_aspect_ratio">1</property>
  <property name="meta.media.0.codec.colorspace">709</property>
  <property name="meta.media.0.codec.name">h264</property>
  <property name="meta.media.0.codec.long_name">H.264 / AVC / MPEG-4 AVC / MPEG-4 part 10</property>
  <property name="meta.media.0.codec.bit_rate">0</property>
  <property name="meta.media.1.stream.type">audio</property>
  <property name="meta.media.1.codec.sample_fmt">fltp</property>
  <property name="meta.media.1.codec.sample_rate">48000</property>
  <property name="meta.media.1.codec.channels">6</property>
  <property name="meta.media.1.codec.name">ac3</property>
  <property name="meta.media.1.codec.long_name">ATSC A/52A (AC-3)</property>
  <property name="meta.media.1.codec.bit_rate">448000</property>
  <property name="meta.media.2.codec.name">pgssub</property>
  <property name="meta.media.2.codec.long_name">HDMV Presentation Graphic Stream subtitles</property>
  <property name="meta.media.2.codec.bit_rate">0</property>
  <property name="meta.media.sample_aspect_num">1</property>
  <property name="meta.media.sample_aspect_den">1</property>
  <property name="meta.media.frame_rate_num">25</property>
  <property name="meta.media.frame_rate_den">1</property>
  <property name="meta.media.colorspace">709</property>
  <property name="meta.media.color_trc">2</property>
  <property name="meta.media.width">1920</property>
  <property name="meta.media.height">1080</property>
  <property name="meta.media.color_range">mpeg</property>
 </producer>
 <producer id="producer17" in="00:00:00.000" out="00:00:49.880">
  <property name="length">1248</property>
  <property name="eof">pause</property>
  <property name="resource">/home/nicolas/Documents/Projets Musique/Barons Freaks/Créa 2020/LesNouvellesAventuresDesBaronsFreaks/Film/Rushes/Acte3/bureau_jack_caesar/00102.MTS</property>
  <property name="audio_index">1</property>
  <property name="video_index">0</property>
  <property name="mute_on_pause">0</property>
  <property name="mlt_service">avformat-novalidate</property>
  <property name="seekable">1</property>
  <property name="aspect_ratio">1</property>
  <property name="kdenlive:clipname">00102.MTS</property>
  <property name="kdenlive:folderid">-1</property>
  <property name="kdenlive:id">12</property>
  <property name="kdenlive:file_size">102629376</property>
  <property name="kdenlive:file_hash">3d0a05d3df759c673c018620be5a17f4</property>
  <property name="kdenlive:proxy">-</property>
  <property name="kdenlive:originalurl">/home/nicolas/Documents/Projets Musique/Barons Freaks/Créa 2020/LesNouvellesAventuresDesBaronsFreaks/Film/Rushes/Acte3/bureau_jack_caesar/00102.MTS</property>
  <property name="kdenlive:audio_max">6</property>
  <property name="global_feed">1</property>
  <property name="meta.media.nb_streams">3</property>
  <property name="meta.media.0.stream.type">video</property>
  <property name="meta.media.0.stream.frame_rate">25</property>
  <property name="meta.media.0.stream.sample_aspect_ratio">0</property>
  <property name="meta.media.0.codec.width">1920</property>
  <property name="meta.media.0.codec.height">1080</property>
  <property name="meta.media.0.codec.rotate">0</property>
  <property name="meta.media.0.codec.frame_rate">25</property>
  <property name="meta.media.0.codec.pix_fmt">yuv420p</property>
  <property name="meta.media.0.codec.sample_aspect_ratio">1</property>
  <property name="meta.media.0.codec.colorspace">709</property>
  <property name="meta.media.0.codec.name">h264</property>
  <property name="meta.media.0.codec.long_name">H.264 / AVC / MPEG-4 AVC / MPEG-4 part 10</property>
  <property name="meta.media.0.codec.bit_rate">0</property>
  <property name="meta.media.1.stream.type">audio</property>
  <property name="meta.media.1.codec.sample_fmt">fltp</property>
  <property name="meta.media.1.codec.sample_rate">48000</property>
  <property name="meta.media.1.codec.channels">6</property>
  <property name="meta.media.1.codec.name">ac3</property>
  <property name="meta.media.1.codec.long_name">ATSC A/52A (AC-3)</property>
  <property name="meta.media.1.codec.bit_rate">448000</property>
  <property name="meta.media.2.codec.name">pgssub</property>
  <property name="meta.media.2.codec.long_name">HDMV Presentation Graphic Stream subtitles</property>
  <property name="meta.media.2.codec.bit_rate">0</property>
  <property name="meta.media.sample_aspect_num">1</property>
  <property name="meta.media.sample_aspect_den">1</property>
  <property name="meta.media.frame_rate_num">25</property>
  <property name="meta.media.frame_rate_den">1</property>
  <property name="meta.media.colorspace">709</property>
  <property name="meta.media.color_trc">2</property>
  <property name="meta.media.width">1920</property>
  <property name="meta.media.height">1080</property>
  <property name="meta.media.color_range">mpeg</property>
 </producer>
 <producer id="producer1" in="00:00:00.000" out="00:00:06.320">
  <property name="length">159</property>
  <property name="eof">pause</property>
  <property name="resource">/home/nicolas/Documents/Projets Musique/Barons Freaks/Créa 2020/LesNouvellesAventuresDesBaronsFreaks/Film/Rushes/Common/panneau_vide.png</property>
  <property name="ttl">25</property>
  <property name="aspect_ratio">1</property>
  <property name="progressive">1</property>
  <property name="seekable">1</property>
  <property name="meta.media.width">1920</property>
  <property name="meta.media.height">1080</property>
  <property name="mlt_service">qimage</property>
  <property name="kdenlive:clipname"/>
  <property name="kdenlive:duration">00:00:03.000</property>
  <property name="kdenlive:folderid">-1</property>
  <property name="kdenlive:id">13</property>
  <property name="kdenlive:file_size">1000739</property>
  <property name="kdenlive:file_hash">179e848ecb5bfb9baf95aa3ffd59496f</property>
 </producer>
 <producer id="producer2" in="00:00:00.000" out="00:00:04.960">
  <property name="length">125</property>
  <property name="eof">pause</property>
  <property name="resource"/>
  <property name="progressive">1</property>
  <property name="aspect_ratio">1</property>
  <property name="seekable">1</property>
  <property name="mlt_service">kdenlivetitle</property>
  <property name="kdenlive:duration">125</property>
  <property name="kdenlive:clipname">Mitchell, je...</property>
  <property name="xmldata">&lt;kdenlivetitle duration="125" LC_NUMERIC="C" width="1920" height="1080" out="124">
 &lt;item type="QGraphicsTextItem" z-index="-1">
  &lt;position x="433" y="411">
   &lt;transform>1,0,0,0,1,0,0,0,1&lt;/transform>
  &lt;/position>
  &lt;content line-spacing="0" shadow="0;#64000000;3;3;3" font-underline="0" box-height="258" font-outline-color="0,0,0,255" font="Baskerville" letter-spacing="0" font-pixel-size="75" font-italic="0" alignment="4" font-weight="75" font-outline="0" box-width="1054.72" font-color="254,255,240,255">« Mitchell, je ne tolérerai pas 
plus longtemps l’échec de 
vos idées fumeuses ! »&lt;/content>
 &lt;/item>
 &lt;startviewport rect="0,0,1920,1080"/>
 &lt;endviewport rect="0,0,1920,1080"/>
 &lt;background color="0,0,0,0"/>
&lt;/kdenlivetitle>
</property>
  <property name="kdenlive:folderid">-1</property>
  <property name="kdenlive:id">14</property>
  <property name="kdenlive:file_hash">eb47d0133172ca181f5cced20b8b2011</property>
  <property name="force_reload">0</property>
  <property name="meta.media.width">1920</property>
  <property name="meta.media.height">1080</property>
 </producer>
 <producer id="producer3" in="00:00:00.000" out="00:00:06.400">
  <property name="length">161</property>
  <property name="eof">pause</property>
  <property name="resource"/>
  <property name="progressive">1</property>
  <property name="aspect_ratio">1</property>
  <property name="seekable">1</property>
  <property name="mlt_service">kdenlivetitle</property>
  <property name="kdenlive:duration">125</property>
  <property name="kdenlive:clipname">Toute la vil...</property>
  <property name="xmldata">&lt;kdenlivetitle duration="125" LC_NUMERIC="C" width="1920" height="1080" out="124">
 &lt;item type="QGraphicsTextItem" z-index="0">
  &lt;position x="440" y="378">
   &lt;transform>1,0,0,0,1,0,0,0,1&lt;/transform>
  &lt;/position>
  &lt;content line-spacing="0" shadow="0;#64000000;3;3;3" font-underline="0" box-height="324" font-outline-color="0,0,0,255" font="Baskerville" letter-spacing="0" font-pixel-size="70" font-italic="0" alignment="4" font-weight="75" font-outline="0" box-width="1039.08" font-color="254,255,240,255">« Toute la ville vit en pleine 
paix publicitaire, sauf ce 
quartier dissident qui refuse 
encore notre monde de rêve... »&lt;/content>
 &lt;/item>
 &lt;startviewport rect="0,0,1920,1080"/>
 &lt;endviewport rect="0,0,1920,1080"/>
 &lt;background color="0,0,0,0"/>
&lt;/kdenlivetitle>
</property>
  <property name="kdenlive:folderid">-1</property>
  <property name="kdenlive:id">15</property>
  <property name="kdenlive:file_hash">ddd2df5bc980c5fd0ff957650b62a708</property>
  <property name="force_reload">0</property>
  <property name="meta.media.width">1920</property>
  <property name="meta.media.height">1080</property>
 </producer>
 <producer id="producer9" in="00:00:00.000" out="00:01:14.320">
  <property name="length">1859</property>
  <property name="eof">pause</property>
  <property name="resource">/home/nicolas/Documents/Projets Musique/Barons Freaks/Créa 2020/LesNouvellesAventuresDesBaronsFreaks/Film/Rushes/Acte3/bureau_jack_caesar/00092.MTS</property>
  <property name="audio_index">1</property>
  <property name="video_index">0</property>
  <property name="mute_on_pause">0</property>
  <property name="mlt_service">avformat-novalidate</property>
  <property name="seekable">1</property>
  <property name="aspect_ratio">1</property>
  <property name="kdenlive:clipname">00092.MTS</property>
  <property name="kdenlive:folderid">-1</property>
  <property name="kdenlive:id">16</property>
  <property name="kdenlive:file_size">153550848</property>
  <property name="kdenlive:file_hash">1a9686ab35d57d32e1942c15d4d4a54e</property>
  <property name="kdenlive:proxy">-</property>
  <property name="kdenlive:originalurl">/home/nicolas/Documents/Projets Musique/Barons Freaks/Créa 2020/LesNouvellesAventuresDesBaronsFreaks/Film/Rushes/Acte3/bureau_jack_caesar/00092.MTS</property>
  <property name="global_feed">1</property>
  <property name="meta.media.nb_streams">3</property>
  <property name="meta.media.0.stream.type">video</property>
  <property name="meta.media.0.stream.frame_rate">25</property>
  <property name="meta.media.0.stream.sample_aspect_ratio">0</property>
  <property name="meta.media.0.codec.width">1920</property>
  <property name="meta.media.0.codec.height">1080</property>
  <property name="meta.media.0.codec.rotate">0</property>
  <property name="meta.media.0.codec.frame_rate">25</property>
  <property name="meta.media.0.codec.pix_fmt">yuv420p</property>
  <property name="meta.media.0.codec.sample_aspect_ratio">1</property>
  <property name="meta.media.0.codec.colorspace">709</property>
  <property name="meta.media.0.codec.name">h264</property>
  <property name="meta.media.0.codec.long_name">H.264 / AVC / MPEG-4 AVC / MPEG-4 part 10</property>
  <property name="meta.media.0.codec.bit_rate">0</property>
  <property name="meta.media.1.stream.type">audio</property>
  <property name="meta.media.1.codec.sample_fmt">fltp</property>
  <property name="meta.media.1.codec.sample_rate">48000</property>
  <property name="meta.media.1.codec.channels">6</property>
  <property name="meta.media.1.codec.name">ac3</property>
  <property name="meta.media.1.codec.long_name">ATSC A/52A (AC-3)</property>
  <property name="meta.media.1.codec.bit_rate">448000</property>
  <property name="meta.media.2.codec.name">pgssub</property>
  <property name="meta.media.2.codec.long_name">HDMV Presentation Graphic Stream subtitles</property>
  <property name="meta.media.2.codec.bit_rate">0</property>
  <property name="meta.media.sample_aspect_num">1</property>
  <property name="meta.media.sample_aspect_den">1</property>
  <property name="meta.media.frame_rate_num">25</property>
  <property name="meta.media.frame_rate_den">1</property>
  <property name="meta.media.colorspace">709</property>
  <property name="meta.media.color_trc">2</property>
  <property name="meta.media.width">1920</property>
  <property name="meta.media.height">1080</property>
  <property name="meta.media.color_range">mpeg</property>
 </producer>
 <producer id="producer4" in="00:00:00.000" out="00:00:04.960">
  <property name="length">125</property>
  <property name="eof">pause</property>
  <property name="resource"/>
  <property name="progressive">1</property>
  <property name="aspect_ratio">1</property>
  <property name="seekable">1</property>
  <property name="mlt_service">kdenlivetitle</property>
  <property name="kdenlive:duration">125</property>
  <property name="kdenlive:clipname">PAILLASSON</property>
  <property name="xmldata">&lt;kdenlivetitle duration="125" LC_NUMERIC="C" width="1920" height="1080" out="124">
 &lt;item type="QGraphicsTextItem" z-index="0">
  &lt;position x="581" y="448">
   &lt;transform>1,0,0,0,1,0,0,0,1&lt;/transform>
  &lt;/position>
  &lt;content line-spacing="0" shadow="0;#64000000;3;3;3" font-underline="0" box-height="184" font-outline-color="0,0,0,255" font="Baskerville" letter-spacing="0" font-pixel-size="80" font-italic="0" alignment="4" font-weight="75" font-outline="0" box-width="757.938" font-color="254,255,240,255">« LE PAILLASSON 
PUBLICITAIRE !!! »&lt;/content>
 &lt;/item>
 &lt;startviewport rect="0,0,1920,1080"/>
 &lt;endviewport rect="0,0,1920,1080"/>
 &lt;background color="0,0,0,0"/>
&lt;/kdenlivetitle>
</property>
  <property name="kdenlive:folderid">-1</property>
  <property name="kdenlive:id">17</property>
  <property name="kdenlive:file_hash">967cc138ad8c721f79ed499dd21b203d</property>
  <property name="force_reload">0</property>
  <property name="meta.media.width">1920</property>
  <property name="meta.media.height">1080</property>
 </producer>
 <producer id="producer5" in="00:00:00.000" out="00:00:04.960">
  <property name="length">125</property>
  <property name="eof">pause</property>
  <property name="resource"/>
  <property name="progressive">1</property>
  <property name="aspect_ratio">1</property>
  <property name="seekable">1</property>
  <property name="mlt_service">kdenlivetitle</property>
  <property name="kdenlive:duration">125</property>
  <property name="kdenlive:clipname">«Justement, ...</property>
  <property name="xmldata">&lt;kdenlivetitle duration="125" LC_NUMERIC="C" width="1920" height="1080" out="124">
 &lt;item type="QGraphicsTextItem" z-index="0">
  &lt;position x="410" y="448">
   &lt;transform>1,0,0,0,1,0,0,0,1&lt;/transform>
  &lt;/position>
  &lt;content line-spacing="0" shadow="0;#64000000;3;3;3" font-underline="0" box-height="184" font-outline-color="0,0,0,255" font="Baskerville" letter-spacing="0" font-pixel-size="80" font-italic="0" alignment="4" font-weight="75" font-outline="0" box-width="1099.31" font-color="254,255,240,255">« Justement, j’ai eu une idée
révolutionnaire à ce sujet... »&lt;/content>
 &lt;/item>
 &lt;startviewport rect="0,0,1920,1080"/>
 &lt;endviewport rect="0,0,1920,1080"/>
 &lt;background color="0,0,0,0"/>
&lt;/kdenlivetitle>
</property>
  <property name="kdenlive:folderid">-1</property>
  <property name="kdenlive:id">18</property>
  <property name="kdenlive:file_hash">129be1555e751130dbf96a7dd5ad61d9</property>
  <property name="force_reload">0</property>
  <property name="meta.media.width">1920</property>
  <property name="meta.media.height">1080</property>
 </producer>
 <producer id="producer20" in="00:00:00.000" out="00:00:19.040">
  <property name="length">00:00:19.080</property>
  <property name="eof">pause</property>
  <property name="resource">/home/nicolas/Documents/Projets Musique/Barons Freaks/Créa 2020/LesNouvellesAventuresDesBaronsFreaks/Film/Rushes/Common/Diaphragme2.png</property>
  <property name="ttl">25</property>
  <property name="aspect_ratio">1</property>
  <property name="progressive">1</property>
  <property name="seekable">1</property>
  <property name="meta.media.width">2560</property>
  <property name="meta.media.height">1440</property>
  <property name="mlt_service">qimage</property>
  <property name="kdenlive:clipname">Diaphragme2.png</property>
  <property name="kdenlive:duration">00:00:03.000</property>
  <property name="kdenlive:folderid">-1</property>
  <property name="kdenlive:id">19</property>
  <property name="kdenlive:file_size">46533</property>
  <property name="kdenlive:file_hash">5e07bfaf57fb3e14f66fa7ff01b073a9</property>
  <property name="kdenlive:proxy">-</property>
  <property name="kdenlive:originalurl">/home/nicolas/Documents/Projets Musique/Barons Freaks/Créa 2020/LesNouvellesAventuresDesBaronsFreaks/Film/Rushes/Common/Diaphragme2.png</property>
  <property name="global_feed">1</property>
 </producer>
 <producer id="producer18" in="00:00:00.000" out="00:01:10.880">
  <property name="length">1773</property>
  <property name="eof">pause</property>
  <property name="resource">/home/nicolas/Documents/Projets Musique/Barons Freaks/Créa 2020/LesNouvellesAventuresDesBaronsFreaks/Film/Rushes/Acte3/bureau_jack_caesar/flame.mp4</property>
  <property name="audio_index">1</property>
  <property name="video_index">0</property>
  <property name="mute_on_pause">0</property>
  <property name="mlt_service">avformat-novalidate</property>
  <property name="seekable">1</property>
  <property name="aspect_ratio">1</property>
  <property name="kdenlive:clipname">flame.mp4</property>
  <property name="kdenlive:folderid">-1</property>
  <property name="kdenlive:id">20</property>
  <property name="kdenlive:file_size">2545588</property>
  <property name="kdenlive:file_hash">fbf59357365d6a8ee65625f789c477e7</property>
  <property name="kdenlive:proxy">-</property>
  <property name="kdenlive:originalurl">/home/nicolas/Documents/Projets Musique/Barons Freaks/Créa 2020/LesNouvellesAventuresDesBaronsFreaks/Film/Rushes/Acte3/bureau_jack_caesar/flame.mp4</property>
  <property name="kdenlive:audio_max">91</property>
  <property name="global_feed">1</property>
  <property name="meta.media.nb_streams">2</property>
  <property name="meta.media.0.stream.type">video</property>
  <property name="meta.media.0.stream.frame_rate">30</property>
  <property name="meta.media.0.stream.sample_aspect_ratio">1</property>
  <property name="meta.media.0.codec.width">1914</property>
  <property name="meta.media.0.codec.height">1080</property>
  <property name="meta.media.0.codec.rotate">0</property>
  <property name="meta.media.0.codec.frame_rate">30</property>
  <property name="meta.media.0.codec.pix_fmt">yuv420p</property>
  <property name="meta.media.0.codec.sample_aspect_ratio">1</property>
  <property name="meta.media.0.codec.colorspace">709</property>
  <property name="meta.media.0.codec.color_trc">1</property>
  <property name="meta.media.0.codec.name">h264</property>
  <property name="meta.media.0.codec.long_name">H.264 / AVC / MPEG-4 AVC / MPEG-4 part 10</property>
  <property name="meta.media.0.codec.bit_rate">151031</property>
  <property name="meta.attr.0.stream.handler_name.markup">ISO Media file produced by Google Inc.</property>
  <property name="meta.media.1.stream.type">audio</property>
  <property name="meta.media.1.codec.sample_fmt">fltp</property>
  <property name="meta.media.1.codec.sample_rate">44100</property>
  <property name="meta.media.1.codec.channels">2</property>
  <property name="meta.media.1.codec.name">aac</property>
  <property name="meta.media.1.codec.long_name">AAC (Advanced Audio Coding)</property>
  <property name="meta.media.1.codec.bit_rate">127999</property>
  <property name="meta.attr.1.stream.language.markup">eng</property>
  <property name="meta.attr.1.stream.handler_name.markup">ISO Media file produced by Google Inc.</property>
  <property name="meta.attr.major_brand.markup">isom</property>
  <property name="meta.attr.minor_version.markup">512</property>
  <property name="meta.attr.compatible_brands.markup">isomiso2avc1mp41</property>
  <property name="meta.attr.encoder.markup">Lavf58.19.102</property>
  <property name="meta.media.sample_aspect_num">1</property>
  <property name="meta.media.sample_aspect_den">1</property>
  <property name="meta.media.frame_rate_num">30</property>
  <property name="meta.media.frame_rate_den">1</property>
  <property name="meta.media.colorspace">709</property>
  <property name="meta.media.color_trc">1</property>
  <property name="meta.media.width">1914</property>
  <property name="meta.media.height">1080</property>
  <property name="meta.media.color_range">mpeg</property>
 </producer>
 <producer id="producer6" in="00:00:00.000" out="00:00:09.600">
  <property name="length">00:00:09.640</property>
  <property name="eof">pause</property>
  <property name="resource">/home/nicolas/Documents/Projets Musique/Barons Freaks/Créa 2020/LesNouvellesAventuresDesBaronsFreaks/Artistique/Animation/Jingle Pub 1/.all.png</property>
  <property name="ttl">1</property>
  <property name="aspect_ratio">1</property>
  <property name="progressive">1</property>
  <property name="seekable">1</property>
  <property name="meta.media.width">800</property>
  <property name="meta.media.height">600</property>
  <property name="mlt_service">qimage</property>
  <property name="kdenlive:clipname">Séquence d'images</property>
  <property name="animation"/>
  <property name="luma_file"/>
  <property name="luma_duration">25</property>
  <property name="fade">0</property>
  <property name="crop">0</property>
  <property name="softness">0</property>
  <property name="loop">1</property>
  <property name="kdenlive:duration">00:00:09.640</property>
  <property name="kdenlive:folderid">-1</property>
  <property name="kdenlive:id">21</property>
  <property name="kdenlive:file_hash">ecca6b6bfb8a3bfe705bfd058fa924e6</property>
  <property name="global_feed">1</property>
 </producer>
 <producer id="producer21" in="00:00:00.000" out="00:00:02.960">
  <property name="length">00:00:03.000</property>
  <property name="eof">pause</property>
  <property name="resource">/home/nicolas/Documents/Projets Musique/Barons Freaks/Créa 2020/LesNouvellesAventuresDesBaronsFreaks/Film/Rushes/Acte7/ciel voyante.png</property>
  <property name="ttl">25</property>
  <property name="aspect_ratio">1</property>
  <property name="progressive">1</property>
  <property name="seekable">1</property>
  <property name="meta.media.width">1920</property>
  <property name="meta.media.height">1080</property>
  <property name="mlt_service">qimage</property>
  <property name="kdenlive:clipname"/>
  <property name="kdenlive:duration">00:00:03.000</property>
  <property name="kdenlive:folderid">23</property>
  <property name="kdenlive:id">22</property>
  <property name="kdenlive:file_size">2263190</property>
  <property name="kdenlive:file_hash">323924fe5f6b3915247958e80703fe1d</property>
 </producer>
 <producer id="producer22" in="00:00:00.000" out="00:00:02.960">
  <property name="length">00:00:03.000</property>
  <property name="eof">pause</property>
  <property name="resource">/home/nicolas/Documents/Projets Musique/Barons Freaks/Créa 2020/LesNouvellesAventuresDesBaronsFreaks/Film/Rushes/Acte7/fond voyante.png</property>
  <property name="ttl">25</property>
  <property name="aspect_ratio">1</property>
  <property name="progressive">1</property>
  <property name="seekable">1</property>
  <property name="meta.media.width">1920</property>
  <property name="meta.media.height">1080</property>
  <property name="mlt_service">qimage</property>
  <property name="kdenlive:clipname"/>
  <property name="kdenlive:duration">00:00:03.000</property>
  <property name="kdenlive:folderid">23</property>
  <property name="kdenlive:id">24</property>
  <property name="kdenlive:file_size">83253</property>
  <property name="kdenlive:file_hash">1a62305f240de7557108cd8fd5d14c09</property>
 </producer>
 <producer id="producer23" in="00:00:00.000" out="00:00:02.960">
  <property name="length">00:00:03.000</property>
  <property name="eof">pause</property>
  <property name="resource">/home/nicolas/.cache/kdenlive/proxy/aaa4929dab9591bba5eefb907134157c.png</property>
  <property name="ttl">25</property>
  <property name="aspect_ratio">1</property>
  <property name="progressive">1</property>
  <property name="seekable">1</property>
  <property name="meta.media.width">252</property>
  <property name="meta.media.height">800</property>
  <property name="mlt_service">qimage</property>
  <property name="kdenlive:clipname">tour.png</property>
  <property name="kdenlive:duration">00:00:03.000</property>
  <property name="kdenlive:folderid">23</property>
  <property name="kdenlive:id">25</property>
  <property name="kdenlive:file_size">5660363</property>
  <property name="kdenlive:file_hash">aaa4929dab9591bba5eefb907134157c</property>
  <property name="kdenlive:proxy">/home/nicolas/.cache/kdenlive/proxy/aaa4929dab9591bba5eefb907134157c.png</property>
  <property name="kdenlive:originalurl">/home/nicolas/Documents/Projets Musique/Barons Freaks/Créa 2020/LesNouvellesAventuresDesBaronsFreaks/Film/Rushes/Acte3/tour_jack_caesar/tour.png</property>
  <property name="kdenlive:original.mlt_type">producer</property>
  <property name="kdenlive:original.in">0</property>
  <property name="kdenlive:original.out">74</property>
  <property name="kdenlive:original.length">00:00:03.000</property>
  <property name="kdenlive:original.eof">pause</property>
  <property name="kdenlive:original.resource">/home/nicolas/Documents/Projets Musique/Barons Freaks/Créa 2020/LesNouvellesAventuresDesBaronsFreaks/Film/Rushes/Acte3/tour_jack_caesar/tour.png</property>
  <property name="kdenlive:original.ttl">25</property>
  <property name="kdenlive:original.aspect_ratio">1</property>
  <property name="kdenlive:original.progressive">1</property>
  <property name="kdenlive:original.seekable">1</property>
  <property name="kdenlive:original.meta.media.width">2140</property>
  <property name="kdenlive:original.meta.media.height">6795</property>
  <property name="kdenlive:original.mlt_service">qimage</property>
  <property name="kdenlive:original.kdenlive:duration">00:00:03.000</property>
  <property name="kdenlive:original.kdenlive:folderid">23</property>
  <property name="kdenlive:original.kdenlive:id">28</property>
  <property name="kdenlive:original.kdenlive:file_size">5660363</property>
  <property name="kdenlive:original.kdenlive:file_hash">aaa4929dab9591bba5eefb907134157c</property>
  <property name="kdenlive:original.backup">1</property>
  <property name="global_feed">1</property>
 </producer>
 <producer id="producer19" in="00:00:00.000" out="00:00:17.400">
  <property name="length">436</property>
  <property name="eof">pause</property>
  <property name="resource">/home/nicolas/.cache/kdenlive/proxy/814033f7e381cea60e417db01b7e6af6.mkv</property>
  <property name="audio_index">1</property>
  <property name="video_index">0</property>
  <property name="mute_on_pause">0</property>
  <property name="mlt_service">avformat-novalidate</property>
  <property name="seekable">1</property>
  <property name="aspect_ratio">1</property>
  <property name="kdenlive:clipname">fumee_3.mp4</property>
  <property name="kdenlive:folderid">-1</property>
  <property name="kdenlive:id">26</property>
  <property name="kdenlive:file_size">3018675</property>
  <property name="kdenlive:file_hash">814033f7e381cea60e417db01b7e6af6</property>
  <property name="kdenlive:proxy">/home/nicolas/.cache/kdenlive/proxy/814033f7e381cea60e417db01b7e6af6.mkv</property>
  <property name="kdenlive:originalurl">/home/nicolas/Documents/Projets Musique/Barons Freaks/Créa 2020/LesNouvellesAventuresDesBaronsFreaks/Film/Rushes/Acte3/bureau_jack_caesar/fumee_3.mp4</property>
  <property name="global_feed">1</property>
  <property name="kdenlive:original.mlt_type">producer</property>
  <property name="kdenlive:original.in">0</property>
  <property name="kdenlive:original.out">435</property>
  <property name="kdenlive:original.length">436</property>
  <property name="kdenlive:original.eof">pause</property>
  <property name="kdenlive:original.resource">/home/nicolas/.cache/kdenlive/proxy/814033f7e381cea60e417db01b7e6af6.mkv</property>
  <property name="kdenlive:original.audio_index">1</property>
  <property name="kdenlive:original.video_index">0</property>
  <property name="kdenlive:original.mute_on_pause">0</property>
  <property name="kdenlive:original.mlt_service">avformat-novalidate</property>
  <property name="kdenlive:original.seekable">1</property>
  <property name="kdenlive:original.aspect_ratio">1</property>
  <property name="kdenlive:original.kdenlive:folderid">-1</property>
  <property name="kdenlive:original.kdenlive:id">27</property>
  <property name="kdenlive:original.kdenlive:file_size">3018675</property>
  <property name="kdenlive:original.kdenlive:file_hash">814033f7e381cea60e417db01b7e6af6</property>
  <property name="kdenlive:original.global_feed">1</property>
  <property name="kdenlive:original.meta.media.nb_streams">2</property>
  <property name="kdenlive:original.meta.media.0.stream.type">video</property>
  <property name="kdenlive:original.meta.media.0.stream.frame_rate">30</property>
  <property name="kdenlive:original.meta.media.0.stream.sample_aspect_ratio">1</property>
  <property name="kdenlive:original.meta.media.0.codec.width">640</property>
  <property name="kdenlive:original.meta.media.0.codec.height">360</property>
  <property name="kdenlive:original.meta.media.0.codec.rotate">0</property>
  <property name="kdenlive:original.meta.media.0.codec.frame_rate">30</property>
  <property name="kdenlive:original.meta.media.0.codec.pix_fmt">yuv420p</property>
  <property name="kdenlive:original.meta.media.0.codec.sample_aspect_ratio">1</property>
  <property name="kdenlive:original.meta.media.0.codec.colorspace">601</property>
  <property name="kdenlive:original.meta.media.0.codec.name">mpeg2video</property>
  <property name="kdenlive:original.meta.media.0.codec.long_name">MPEG-2 video</property>
  <property name="kdenlive:original.meta.media.0.codec.bit_rate">0</property>
  <property name="kdenlive:original.meta.attr.0.stream.HANDLER_NAME.markup">ISO Media file produced by Google Inc. Created on: 04/16/2020.</property>
  <property name="kdenlive:original.meta.attr.0.stream.ENCODER.markup">Lavc58.91.100 mpeg2video</property>
  <property name="kdenlive:original.meta.attr.0.stream.DURATION.markup">00:00:17.411000000</property>
  <property name="kdenlive:original.meta.media.1.stream.type">audio</property>
  <property name="kdenlive:original.meta.media.1.codec.sample_fmt">s16p</property>
  <property name="kdenlive:original.meta.media.1.codec.sample_rate">44100</property>
  <property name="kdenlive:original.meta.media.1.codec.channels">2</property>
  <property name="kdenlive:original.meta.media.1.codec.name">mp2</property>
  <property name="kdenlive:original.meta.media.1.codec.long_name">MP2 (MPEG audio layer 2)</property>
  <property name="kdenlive:original.meta.media.1.codec.bit_rate">128000</property>
  <property name="kdenlive:original.meta.attr.1.stream.language.markup">eng</property>
  <property name="kdenlive:original.meta.attr.1.stream.HANDLER_NAME.markup">ISO Media file produced by Google Inc. Created on: 04/16/2020.</property>
  <property name="kdenlive:original.meta.attr.1.stream.ENCODER.markup">Lavc58.91.100 mp2</property>
  <property name="kdenlive:original.meta.attr.1.stream.DURATION.markup">00:00:17.424000000</property>
  <property name="kdenlive:original.meta.attr.COMPATIBLE_BRANDS.markup">isommp42</property>
  <property name="kdenlive:original.meta.attr.MAJOR_BRAND.markup">mp42</property>
  <property name="kdenlive:original.meta.attr.MINOR_VERSION.markup">0</property>
  <property name="kdenlive:original.meta.attr.ENCODER.markup">Lavf58.45.100</property>
  <property name="kdenlive:original.width">640</property>
  <property name="kdenlive:original.height">360</property>
  <property name="kdenlive:original.meta.media.sample_aspect_num">1</property>
  <property name="kdenlive:original.meta.media.sample_aspect_den">1</property>
  <property name="kdenlive:original.meta.media.frame_rate_num">30</property>
  <property name="kdenlive:original.meta.media.frame_rate_den">1</property>
  <property name="kdenlive:original.meta.media.colorspace">601</property>
  <property name="kdenlive:original.meta.media.color_trc">2</property>
  <property name="kdenlive:original.meta.media.width">640</property>
  <property name="kdenlive:original.meta.media.height">360</property>
  <property name="kdenlive:original.meta.media.color_range">mpeg</property>
  <property name="kdenlive:original.meta.media.top_field_first">0</property>
  <property name="kdenlive:original.meta.media.progressive">1</property>
  <property name="kdenlive:original.backup">1</property>
  <property name="meta.media.nb_streams">2</property>
  <property name="meta.media.0.stream.type">video</property>
  <property name="meta.media.0.stream.frame_rate">30</property>
  <property name="meta.media.0.stream.sample_aspect_ratio">1</property>
  <property name="meta.media.0.codec.width">640</property>
  <property name="meta.media.0.codec.height">360</property>
  <property name="meta.media.0.codec.rotate">0</property>
  <property name="meta.media.0.codec.frame_rate">30</property>
  <property name="meta.media.0.codec.pix_fmt">yuv420p</property>
  <property name="meta.media.0.codec.sample_aspect_ratio">1</property>
  <property name="meta.media.0.codec.colorspace">601</property>
  <property name="meta.media.0.codec.name">mpeg2video</property>
  <property name="meta.media.0.codec.long_name">MPEG-2 video</property>
  <property name="meta.media.0.codec.bit_rate">0</property>
  <property name="meta.attr.0.stream.HANDLER_NAME.markup">ISO Media file produced by Google Inc. Created on: 04/16/2020.</property>
  <property name="meta.attr.0.stream.ENCODER.markup">Lavc58.91.100 mpeg2video</property>
  <property name="meta.attr.0.stream.DURATION.markup">00:00:17.411000000</property>
  <property name="meta.media.1.stream.type">audio</property>
  <property name="meta.media.1.codec.sample_fmt">s16p</property>
  <property name="meta.media.1.codec.sample_rate">44100</property>
  <property name="meta.media.1.codec.channels">2</property>
  <property name="meta.media.1.codec.name">mp2</property>
  <property name="meta.media.1.codec.long_name">MP2 (MPEG audio layer 2)</property>
  <property name="meta.media.1.codec.bit_rate">128000</property>
  <property name="meta.attr.1.stream.language.markup">eng</property>
  <property name="meta.attr.1.stream.HANDLER_NAME.markup">ISO Media file produced by Google Inc. Created on: 04/16/2020.</property>
  <property name="meta.attr.1.stream.ENCODER.markup">Lavc58.91.100 mp2</property>
  <property name="meta.attr.1.stream.DURATION.markup">00:00:17.424000000</property>
  <property name="meta.attr.COMPATIBLE_BRANDS.markup">isommp42</property>
  <property name="meta.attr.MAJOR_BRAND.markup">mp42</property>
  <property name="meta.attr.MINOR_VERSION.markup">0</property>
  <property name="meta.attr.ENCODER.markup">Lavf58.45.100</property>
  <property name="meta.media.sample_aspect_num">1</property>
  <property name="meta.media.sample_aspect_den">1</property>
  <property name="meta.media.frame_rate_num">30</property>
  <property name="meta.media.frame_rate_den">1</property>
  <property name="meta.media.colorspace">601</property>
  <property name="meta.media.color_trc">2</property>
  <property name="meta.media.width">640</property>
  <property name="meta.media.height">360</property>
  <property name="meta.media.color_range">mpeg</property>
  <property name="meta.media.top_field_first">0</property>
  <property name="meta.media.progressive">1</property>
 </producer>
 <playlist id="main_bin">
  <property name="kdenlive:folder.-1.23">tour JC</property>
  <property name="kdenlive:docproperties.activeTrack">4</property>
  <property name="kdenlive:docproperties.audioChannels">2</property>
  <property name="kdenlive:docproperties.audioTarget">-1</property>
  <property name="kdenlive:docproperties.disablepreview">0</property>
  <property name="kdenlive:docproperties.documentid">1638280833667</property>
  <property name="kdenlive:docproperties.enableTimelineZone">0</property>
  <property name="kdenlive:docproperties.enableexternalproxy">0</property>
  <property name="kdenlive:docproperties.enableproxy">1</property>
  <property name="kdenlive:docproperties.externalproxyparams"/>
  <property name="kdenlive:docproperties.generateimageproxy">1</property>
  <property name="kdenlive:docproperties.generateproxy">1</property>
  <property name="kdenlive:docproperties.groups">[
    {
        "children": [
            {
                "data": "3:2364",
                "leaf": "clip",
                "type": "Leaf"
            },
            {
                "data": "0:2364",
                "leaf": "clip",
                "type": "Leaf"
            }
        ],
        "type": "AVSplit"
    },
    {
        "children": [
            {
                "data": "2:2152",
                "leaf": "clip",
                "type": "Leaf"
            },
            {
                "data": "1:2152",
                "leaf": "clip",
                "type": "Leaf"
            }
        ],
        "type": "AVSplit"
    },
    {
        "children": [
            {
                "data": "1:1965",
                "leaf": "clip",
                "type": "Leaf"
            },
            {
                "data": "3:1965",
                "leaf": "clip",
                "type": "Leaf"
            }
        ],
        "type": "AVSplit"
    },
    {
        "children": [
            {
                "data": "3:1675",
                "leaf": "clip",
                "type": "Leaf"
            },
            {
                "data": "1:1675",
                "leaf": "clip",
                "type": "Leaf"
            }
        ],
        "type": "AVSplit"
    },
    {
        "children": [
            {
                "data": "4:645",
                "leaf": "clip",
                "type": "Leaf"
            },
            {
                "data": "5:645",
                "leaf": "clip",
                "type": "Leaf"
            }
        ],
        "type": "Normal"
    },
    {
        "children": [
            {
                "data": "5:989",
                "leaf": "clip",
                "type": "Leaf"
            },
            {
                "data": "4:989",
                "leaf": "clip",
                "type": "Leaf"
            }
        ],
        "type": "Normal"
    },
    {
        "children": [
            {
                "data": "1:1516",
                "leaf": "clip",
                "type": "Leaf"
            },
            {
                "data": "3:1516",
                "leaf": "clip",
                "type": "Leaf"
            }
        ],
        "type": "AVSplit"
    },
    {
        "children": [
            {
                "data": "3:1064",
                "leaf": "clip",
                "type": "Leaf"
            },
            {
                "data": "1:1064",
                "leaf": "clip",
                "type": "Leaf"
            }
        ],
        "type": "AVSplit"
    },
    {
        "children": [
            {
                "data": "1:378",
                "leaf": "clip",
                "type": "Leaf"
            },
            {
                "data": "3:378",
                "leaf": "clip",
                "type": "Leaf"
            }
        ],
        "type": "AVSplit"
    },
    {
        "children": [
            {
                "data": "5:489",
                "leaf": "clip",
                "type": "Leaf"
            },
            {
                "data": "4:489",
                "leaf": "clip",
                "type": "Leaf"
            }
        ],
        "type": "Normal"
    },
    {
        "children": [
            {
                "data": "1:744",
                "leaf": "clip",
                "type": "Leaf"
            },
            {
                "data": "3:744",
                "leaf": "clip",
                "type": "Leaf"
            }
        ],
        "type": "AVSplit"
    },
    {
        "children": [
            {
                "data": "1:564",
                "leaf": "clip",
                "type": "Leaf"
            },
            {
                "data": "3:564",
                "leaf": "clip",
                "type": "Leaf"
            }
        ],
        "type": "AVSplit"
    },
    {
        "children": [
            {
                "data": "3:0",
                "leaf": "clip",
                "type": "Leaf"
            },
            {
                "data": "1:0",
                "leaf": "clip",
                "type": "Leaf"
            }
        ],
        "type": "AVSplit"
    }
]
</property>
  <property name="kdenlive:docproperties.kdenliveversion">20.12.3</property>
  <property name="kdenlive:docproperties.position">2605</property>
  <property name="kdenlive:docproperties.previewextension"/>
  <property name="kdenlive:docproperties.previewparameters"/>
  <property name="kdenlive:docproperties.profile">/home/nicolas/.local/share/kdenlive/profiles/customprofile4</property>
  <property name="kdenlive:docproperties.proxyextension">mpg</property>
  <property name="kdenlive:docproperties.proxyimageminsize">2000</property>
  <property name="kdenlive:docproperties.proxyimagesize">800</property>
  <property name="kdenlive:docproperties.proxyminsize">1000</property>
  <property name="kdenlive:docproperties.proxyparams">-vf scale=640:-1 -g 5 -qscale 6 -ab 128k -vcodec mpeg2video -acodec mp2</property>
  <property name="kdenlive:docproperties.renderaudioquality">256</property>
  <property name="kdenlive:docproperties.rendercategory">Generic (HD for web, mobile devices...)</property>
  <property name="kdenlive:docproperties.renderendguide">-1</property>
  <property name="kdenlive:docproperties.renderexportaudio">1</property>
  <property name="kdenlive:docproperties.renderfield">0</property>
  <property name="kdenlive:docproperties.renderguide">0</property>
  <property name="kdenlive:docproperties.renderplay">0</property>
  <property name="kdenlive:docproperties.renderprofile">MP4 - the dominating format (H264/AAC)</property>
  <property name="kdenlive:docproperties.renderquality">15</property>
  <property name="kdenlive:docproperties.renderratio">1</property>
  <property name="kdenlive:docproperties.renderrescale">0</property>
  <property name="kdenlive:docproperties.renderrescaleheight">540</property>
  <property name="kdenlive:docproperties.renderrescalewidth">960</property>
  <property name="kdenlive:docproperties.renderscanning">0</property>
  <property name="kdenlive:docproperties.renderspeed">2</property>
  <property name="kdenlive:docproperties.renderstartguide">-1</property>
  <property name="kdenlive:docproperties.rendertcoverlay">0</property>
  <property name="kdenlive:docproperties.rendertctype">0</property>
  <property name="kdenlive:docproperties.rendertwopass">0</property>
  <property name="kdenlive:docproperties.renderurl">/home/nicolas/Documents/Projets Musique/Barons Freaks/Créa 2020/LesNouvellesAventuresDesBaronsFreaks/Film/Exports/Chapitre 2/ch2-3.mp4</property>
  <property name="kdenlive:docproperties.renderzone">1</property>
  <property name="kdenlive:docproperties.scrollPos">119428</property>
  <property name="kdenlive:docproperties.seekOffset">30000</property>
  <property name="kdenlive:docproperties.version">1</property>
  <property name="kdenlive:docproperties.verticalzoom">1</property>
  <property name="kdenlive:docproperties.videoTarget">2</property>
  <property name="kdenlive:docproperties.zonein">0</property>
  <property name="kdenlive:docproperties.zoneout">2626</property>
  <property name="kdenlive:docproperties.zoom">0</property>
  <property name="kdenlive:expandedFolders">23</property>
  <property name="kdenlive:documentnotes"/>
  <property name="xml_retain">1</property>
  <entry producer="producer0" in="00:00:00.000" out="00:01:55.280"/>
  <entry producer="producer7" in="00:00:00.000" out="00:01:03.920"/>
  <entry producer="producer8" in="00:00:00.000" out="00:01:14.320"/>
  <entry producer="producer10" in="00:00:00.000" out="00:00:42.120"/>
  <entry producer="producer13" in="00:00:00.000" out="00:00:43.120"/>
  <entry producer="producer11" in="00:00:00.000" out="00:00:44.200"/>
  <entry producer="producer12" in="00:00:00.000" out="00:00:26.480"/>
  <entry producer="producer14" in="00:00:00.000" out="00:00:20.240"/>
  <entry producer="producer15" in="00:00:00.000" out="00:00:13.000"/>
  <entry producer="producer16" in="00:00:00.000" out="00:00:37.960"/>
  <entry producer="producer17" in="00:00:00.000" out="00:00:49.880"/>
  <entry producer="producer1" in="00:00:00.000" out="00:00:06.320"/>
  <entry producer="producer2" in="00:00:00.000" out="00:00:04.960"/>
  <entry producer="producer3" in="00:00:00.000" out="00:00:06.400"/>
  <entry producer="producer9" in="00:00:00.000" out="00:01:14.320"/>
  <entry producer="producer4" in="00:00:00.000" out="00:00:04.960"/>
  <entry producer="producer5" in="00:00:00.000" out="00:00:04.960"/>
  <entry producer="producer20" in="00:00:00.000" out="00:00:19.040"/>
  <entry producer="producer18" in="00:00:00.000" out="00:01:10.880"/>
  <entry producer="producer6" in="00:00:00.000" out="00:00:09.600"/>
  <entry producer="producer21" in="00:00:00.000" out="00:00:02.960"/>
  <entry producer="producer22" in="00:00:00.000" out="00:00:02.960"/>
  <entry producer="producer23" in="00:00:00.000" out="00:00:02.960"/>
  <entry producer="producer19" in="00:00:00.000" out="00:00:17.400"/>
 </playlist>
 <producer id="black_track" in="00:00:00.000" out="00:21:48.800">
  <property name="length">2147483647</property>
  <property name="eof">continue</property>
  <property name="resource">black</property>
  <property name="aspect_ratio">1</property>
  <property name="mlt_service">color</property>
  <property name="mlt_image_format">rgb24a</property>
  <property name="set.test_audio">0</property>
 </producer>
 <playlist id="playlist0">
  <property name="kdenlive:audio_track">1</property>
  <blank length="00:01:34.560"/>
  <entry producer="producer19" in="00:00:10.080" out="00:00:17.360">
   <property name="kdenlive:id">26</property>
  </entry>
 </playlist>
 <playlist id="playlist1"/>
 <tractor id="tractor0" in="00:00:00.000" out="00:01:41.840">
  <property name="kdenlive:audio_track">1</property>
  <property name="kdenlive:trackheight">71</property>
  <property name="kdenlive:timeline_active">1</property>
  <property name="kdenlive:collapsed">28</property>
  <property name="kdenlive:thumbs_format"/>
  <property name="kdenlive:audio_rec"/>
  <track hide="video" producer="playlist0"/>
  <track hide="video" producer="playlist1"/>
  <filter id="filter0">
   <property name="window">75</property>
   <property name="max_gain">20dB</property>
   <property name="mlt_service">volume</property>
   <property name="internal_added">237</property>
   <property name="disable">1</property>
  </filter>
  <filter id="filter1">
   <property name="channel">-1</property>
   <property name="mlt_service">panner</property>
   <property name="internal_added">237</property>
   <property name="start">0.5</property>
   <property name="disable">1</property>
  </filter>
  <filter id="filter2">
   <property name="iec_scale">0</property>
   <property name="mlt_service">audiolevel</property>
   <property name="disable">1</property>
  </filter>
 </tractor>
 <producer id="producer24" in="00:00:00.000" out="00:01:03.920">
  <property name="length">1599</property>
  <property name="eof">pause</property>
  <property name="resource">/home/nicolas/Documents/Projets Musique/Barons Freaks/Créa 2020/LesNouvellesAventuresDesBaronsFreaks/Film/Rushes/Acte3/bureau_jack_caesar/00091.MTS</property>
  <property name="audio_index">1</property>
  <property name="video_index">0</property>
  <property name="mute_on_pause">0</property>
  <property name="mlt_service">avformat-novalidate</property>
  <property name="seekable">1</property>
  <property name="aspect_ratio">1</property>
  <property name="kdenlive:clipname">00091.MTS</property>
  <property name="kdenlive:folderid">-1</property>
  <property name="kdenlive:id">3</property>
  <property name="kdenlive:file_size">131923968</property>
  <property name="kdenlive:file_hash">398cb9b7ce2292065e8bd8123e25fc90</property>
  <property name="kdenlive:proxy">-</property>
  <property name="kdenlive:originalurl">00091.MTS</property>
  <property name="kdenlive:audio_max">6</property>
  <property name="global_feed">1</property>
  <property name="xml">was here</property>
  <property name="meta.media.nb_streams">3</property>
  <property name="meta.media.0.stream.type">video</property>
  <property name="meta.media.0.stream.frame_rate">25</property>
  <property name="meta.media.0.stream.sample_aspect_ratio">0</property>
  <property name="meta.media.0.codec.width">1920</property>
  <property name="meta.media.0.codec.height">1080</property>
  <property name="meta.media.0.codec.rotate">0</property>
  <property name="meta.media.0.codec.frame_rate">25</property>
  <property name="meta.media.0.codec.pix_fmt">yuv420p</property>
  <property name="meta.media.0.codec.sample_aspect_ratio">1</property>
  <property name="meta.media.0.codec.colorspace">709</property>
  <property name="meta.media.0.codec.name">h264</property>
  <property name="meta.media.0.codec.long_name">H.264 / AVC / MPEG-4 AVC / MPEG-4 part 10</property>
  <property name="meta.media.0.codec.bit_rate">0</property>
  <property name="meta.media.1.stream.type">audio</property>
  <property name="meta.media.1.codec.sample_fmt">fltp</property>
  <property name="meta.media.1.codec.sample_rate">48000</property>
  <property name="meta.media.1.codec.channels">6</property>
  <property name="meta.media.1.codec.name">ac3</property>
  <property name="meta.media.1.codec.long_name">ATSC A/52A (AC-3)</property>
  <property name="meta.media.1.codec.bit_rate">448000</property>
  <property name="meta.media.2.codec.name">pgssub</property>
  <property name="meta.media.2.codec.long_name">HDMV Presentation Graphic Stream subtitles</property>
  <property name="meta.media.2.codec.bit_rate">0</property>
  <property name="meta.media.sample_aspect_num">1</property>
  <property name="meta.media.sample_aspect_den">1</property>
  <property name="meta.media.frame_rate_num">25</property>
  <property name="meta.media.frame_rate_den">1</property>
  <property name="meta.media.colorspace">709</property>
  <property name="meta.media.color_trc">2</property>
  <property name="meta.media.width">1920</property>
  <property name="meta.media.height">1080</property>
  <property name="meta.media.color_range">mpeg</property>
  <property name="set.test_audio">0</property>
  <property name="set.test_image">1</property>
 </producer>
 <producer id="producer25" in="00:00:00.000" out="00:01:14.320">
  <property name="length">1859</property>
  <property name="eof">pause</property>
  <property name="resource">/home/nicolas/Documents/Projets Musique/Barons Freaks/Créa 2020/LesNouvellesAventuresDesBaronsFreaks/Film/Rushes/Acte3/bureau_jack_caesar/00092.MTS</property>
  <property name="audio_index">1</property>
  <property name="video_index">0</property>
  <property name="mute_on_pause">0</property>
  <property name="mlt_service">avformat-novalidate</property>
  <property name="seekable">1</property>
  <property name="aspect_ratio">1</property>
  <property name="kdenlive:clipname">00092.MTS</property>
  <property name="kdenlive:folderid">-1</property>
  <property name="kdenlive:id">4</property>
  <property name="kdenlive:file_size">153550848</property>
  <property name="kdenlive:file_hash">1a9686ab35d57d32e1942c15d4d4a54e</property>
  <property name="kdenlive:proxy">-</property>
  <property name="kdenlive:originalurl">00092.MTS</property>
  <property name="kdenlive:audio_max">5</property>
  <property name="global_feed">1</property>
  <property name="xml">was here</property>
  <property name="meta.media.nb_streams">3</property>
  <property name="meta.media.0.stream.type">video</property>
  <property name="meta.media.0.stream.frame_rate">25</property>
  <property name="meta.media.0.stream.sample_aspect_ratio">0</property>
  <property name="meta.media.0.codec.width">1920</property>
  <property name="meta.media.0.codec.height">1080</property>
  <property name="meta.media.0.codec.rotate">0</property>
  <property name="meta.media.0.codec.frame_rate">25</property>
  <property name="meta.media.0.codec.pix_fmt">yuv420p</property>
  <property name="meta.media.0.codec.sample_aspect_ratio">1</property>
  <property name="meta.media.0.codec.colorspace">709</property>
  <property name="meta.media.0.codec.name">h264</property>
  <property name="meta.media.0.codec.long_name">H.264 / AVC / MPEG-4 AVC / MPEG-4 part 10</property>
  <property name="meta.media.0.codec.bit_rate">0</property>
  <property name="meta.media.1.stream.type">audio</property>
  <property name="meta.media.1.codec.sample_fmt">fltp</property>
  <property name="meta.media.1.codec.sample_rate">48000</property>
  <property name="meta.media.1.codec.channels">6</property>
  <property name="meta.media.1.codec.name">ac3</property>
  <property name="meta.media.1.codec.long_name">ATSC A/52A (AC-3)</property>
  <property name="meta.media.1.codec.bit_rate">448000</property>
  <property name="meta.media.2.codec.name">pgssub</property>
  <property name="meta.media.2.codec.long_name">HDMV Presentation Graphic Stream subtitles</property>
  <property name="meta.media.2.codec.bit_rate">0</property>
  <property name="meta.media.sample_aspect_num">1</property>
  <property name="meta.media.sample_aspect_den">1</property>
  <property name="meta.media.frame_rate_num">25</property>
  <property name="meta.media.frame_rate_den">1</property>
  <property name="meta.media.colorspace">709</property>
  <property name="meta.media.color_trc">2</property>
  <property name="meta.media.width">1920</property>
  <property name="meta.media.height">1080</property>
  <property name="meta.media.color_range">mpeg</property>
  <property name="set.test_audio">0</property>
  <property name="set.test_image">1</property>
 </producer>
 <producer id="producer26" in="00:00:00.000" out="00:00:49.880">
  <property name="length">1248</property>
  <property name="eof">pause</property>
  <property name="resource">/home/nicolas/Documents/Projets Musique/Barons Freaks/Créa 2020/LesNouvellesAventuresDesBaronsFreaks/Film/Rushes/Acte3/bureau_jack_caesar/00102.MTS</property>
  <property name="audio_index">1</property>
  <property name="video_index">0</property>
  <property name="mute_on_pause">0</property>
  <property name="mlt_service">avformat-novalidate</property>
  <property name="seekable">1</property>
  <property name="aspect_ratio">1</property>
  <property name="kdenlive:clipname">00102.MTS</property>
  <property name="kdenlive:folderid">-1</property>
  <property name="kdenlive:id">12</property>
  <property name="kdenlive:file_size">102629376</property>
  <property name="kdenlive:file_hash">3d0a05d3df759c673c018620be5a17f4</property>
  <property name="kdenlive:proxy">-</property>
  <property name="kdenlive:originalurl">00102.MTS</property>
  <property name="kdenlive:audio_max">6</property>
  <property name="global_feed">1</property>
  <property name="xml">was here</property>
  <property name="meta.media.nb_streams">3</property>
  <property name="meta.media.0.stream.type">video</property>
  <property name="meta.media.0.stream.frame_rate">25</property>
  <property name="meta.media.0.stream.sample_aspect_ratio">0</property>
  <property name="meta.media.0.codec.width">1920</property>
  <property name="meta.media.0.codec.height">1080</property>
  <property name="meta.media.0.codec.rotate">0</property>
  <property name="meta.media.0.codec.frame_rate">25</property>
  <property name="meta.media.0.codec.pix_fmt">yuv420p</property>
  <property name="meta.media.0.codec.sample_aspect_ratio">1</property>
  <property name="meta.media.0.codec.colorspace">709</property>
  <property name="meta.media.0.codec.name">h264</property>
  <property name="meta.media.0.codec.long_name">H.264 / AVC / MPEG-4 AVC / MPEG-4 part 10</property>
  <property name="meta.media.0.codec.bit_rate">0</property>
  <property name="meta.media.1.stream.type">audio</property>
  <property name="meta.media.1.codec.sample_fmt">fltp</property>
  <property name="meta.media.1.codec.sample_rate">48000</property>
  <property name="meta.media.1.codec.channels">6</property>
  <property name="meta.media.1.codec.name">ac3</property>
  <property name="meta.media.1.codec.long_name">ATSC A/52A (AC-3)</property>
  <property name="meta.media.1.codec.bit_rate">448000</property>
  <property name="meta.media.2.codec.name">pgssub</property>
  <property name="meta.media.2.codec.long_name">HDMV Presentation Graphic Stream subtitles</property>
  <property name="meta.media.2.codec.bit_rate">0</property>
  <property name="meta.media.sample_aspect_num">1</property>
  <property name="meta.media.sample_aspect_den">1</property>
  <property name="meta.media.frame_rate_num">25</property>
  <property name="meta.media.frame_rate_den">1</property>
  <property name="meta.media.colorspace">709</property>
  <property name="meta.media.color_trc">2</property>
  <property name="meta.media.width">1920</property>
  <property name="meta.media.height">1080</property>
  <property name="meta.media.color_range">mpeg</property>
  <property name="set.test_audio">0</property>
  <property name="set.test_image">1</property>
 </producer>
 <producer id="producer27" in="00:00:00.000" out="00:00:26.480">
  <property name="length">663</property>
  <property name="eof">pause</property>
  <property name="resource">/home/nicolas/Documents/Projets Musique/Barons Freaks/Créa 2020/LesNouvellesAventuresDesBaronsFreaks/Film/Rushes/Acte3/bureau_jack_caesar/00098.MTS</property>
  <property name="audio_index">1</property>
  <property name="video_index">0</property>
  <property name="mute_on_pause">0</property>
  <property name="mlt_service">avformat-novalidate</property>
  <property name="seekable">1</property>
  <property name="aspect_ratio">1</property>
  <property name="kdenlive:clipname">00098.MTS</property>
  <property name="kdenlive:folderid">-1</property>
  <property name="kdenlive:id">8</property>
  <property name="kdenlive:file_size">54165504</property>
  <property name="kdenlive:file_hash">04d76ed87a4aa6ca4857871e6d9ac5a8</property>
  <property name="kdenlive:proxy">-</property>
  <property name="kdenlive:originalurl">00098.MTS</property>
  <property name="kdenlive:audio_max">8</property>
  <property name="global_feed">1</property>
  <property name="xml">was here</property>
  <property name="meta.media.nb_streams">3</property>
  <property name="meta.media.0.stream.type">video</property>
  <property name="meta.media.0.stream.frame_rate">25</property>
  <property name="meta.media.0.stream.sample_aspect_ratio">0</property>
  <property name="meta.media.0.codec.width">1920</property>
  <property name="meta.media.0.codec.height">1080</property>
  <property name="meta.media.0.codec.rotate">0</property>
  <property name="meta.media.0.codec.frame_rate">25</property>
  <property name="meta.media.0.codec.pix_fmt">yuv420p</property>
  <property name="meta.media.0.codec.sample_aspect_ratio">1</property>
  <property name="meta.media.0.codec.colorspace">709</property>
  <property name="meta.media.0.codec.name">h264</property>
  <property name="meta.media.0.codec.long_name">H.264 / AVC / MPEG-4 AVC / MPEG-4 part 10</property>
  <property name="meta.media.0.codec.bit_rate">0</property>
  <property name="meta.media.1.stream.type">audio</property>
  <property name="meta.media.1.codec.sample_fmt">fltp</property>
  <property name="meta.media.1.codec.sample_rate">48000</property>
  <property name="meta.media.1.codec.channels">6</property>
  <property name="meta.media.1.codec.name">ac3</property>
  <property name="meta.media.1.codec.long_name">ATSC A/52A (AC-3)</property>
  <property name="meta.media.1.codec.bit_rate">448000</property>
  <property name="meta.media.2.codec.name">pgssub</property>
  <property name="meta.media.2.codec.long_name">HDMV Presentation Graphic Stream subtitles</property>
  <property name="meta.media.2.codec.bit_rate">0</property>
  <property name="meta.media.sample_aspect_num">1</property>
  <property name="meta.media.sample_aspect_den">1</property>
  <property name="meta.media.frame_rate_num">25</property>
  <property name="meta.media.frame_rate_den">1</property>
  <property name="meta.media.colorspace">709</property>
  <property name="meta.media.color_trc">2</property>
  <property name="meta.media.width">1920</property>
  <property name="meta.media.height">1080</property>
  <property name="meta.media.color_range">mpeg</property>
  <property name="set.test_audio">0</property>
  <property name="set.test_image">1</property>
 </producer>
 <producer id="producer28" in="00:00:00.000" out="00:00:44.200">
  <property name="length">1106</property>
  <property name="eof">pause</property>
  <property name="resource">/home/nicolas/Documents/Projets Musique/Barons Freaks/Créa 2020/LesNouvellesAventuresDesBaronsFreaks/Film/Rushes/Acte3/bureau_jack_caesar/00096.MTS</property>
  <property name="audio_index">1</property>
  <property name="video_index">0</property>
  <property name="mute_on_pause">0</property>
  <property name="mlt_service">avformat-novalidate</property>
  <property name="seekable">1</property>
  <property name="aspect_ratio">1</property>
  <property name="kdenlive:clipname">00096.MTS</property>
  <property name="kdenlive:folderid">-1</property>
  <property name="kdenlive:id">7</property>
  <property name="kdenlive:file_size">90931200</property>
  <property name="kdenlive:file_hash">9bb92b78db9666719be71bbb2a21a9b0</property>
  <property name="kdenlive:proxy">-</property>
  <property name="kdenlive:originalurl">00096.MTS</property>
  <property name="kdenlive:audio_max">10</property>
  <property name="global_feed">1</property>
  <property name="xml">was here</property>
  <property name="meta.media.nb_streams">3</property>
  <property name="meta.media.0.stream.type">video</property>
  <property name="meta.media.0.stream.frame_rate">25</property>
  <property name="meta.media.0.stream.sample_aspect_ratio">0</property>
  <property name="meta.media.0.codec.width">1920</property>
  <property name="meta.media.0.codec.height">1080</property>
  <property name="meta.media.0.codec.rotate">0</property>
  <property name="meta.media.0.codec.frame_rate">25</property>
  <property name="meta.media.0.codec.pix_fmt">yuv420p</property>
  <property name="meta.media.0.codec.sample_aspect_ratio">1</property>
  <property name="meta.media.0.codec.colorspace">709</property>
  <property name="meta.media.0.codec.name">h264</property>
  <property name="meta.media.0.codec.long_name">H.264 / AVC / MPEG-4 AVC / MPEG-4 part 10</property>
  <property name="meta.media.0.codec.bit_rate">0</property>
  <property name="meta.media.1.stream.type">audio</property>
  <property name="meta.media.1.codec.sample_fmt">fltp</property>
  <property name="meta.media.1.codec.sample_rate">48000</property>
  <property name="meta.media.1.codec.channels">6</property>
  <property name="meta.media.1.codec.name">ac3</property>
  <property name="meta.media.1.codec.long_name">ATSC A/52A (AC-3)</property>
  <property name="meta.media.1.codec.bit_rate">448000</property>
  <property name="meta.media.2.codec.name">pgssub</property>
  <property name="meta.media.2.codec.long_name">HDMV Presentation Graphic Stream subtitles</property>
  <property name="meta.media.2.codec.bit_rate">0</property>
  <property name="meta.media.sample_aspect_num">1</property>
  <property name="meta.media.sample_aspect_den">1</property>
  <property name="meta.media.frame_rate_num">25</property>
  <property name="meta.media.frame_rate_den">1</property>
  <property name="meta.media.colorspace">709</property>
  <property name="meta.media.color_trc">2</property>
  <property name="meta.media.width">1920</property>
  <property name="meta.media.height">1080</property>
  <property name="meta.media.color_range">mpeg</property>
  <property name="set.test_audio">0</property>
  <property name="set.test_image">1</property>
 </producer>
 <playlist id="playlist2">
  <property name="kdenlive:audio_track">1</property>
  <entry producer="producer24" in="00:00:02.960" out="00:00:12.440">
   <property name="kdenlive:id">3</property>
  </entry>
  <blank length="00:00:05.600"/>
  <entry producer="producer25" in="00:00:05.280" out="00:00:09.760">
   <property name="kdenlive:id">4</property>
  </entry>
  <blank length="00:00:02.920"/>
  <entry producer="producer26" in="00:00:03.040" out="00:00:06.560">
   <property name="kdenlive:id">12</property>
  </entry>
  <blank length="00:00:03.640"/>
  <entry producer="producer26" in="00:00:06.280" out="00:00:16.040">
   <property name="kdenlive:id">12</property>
  </entry>
  <blank length="00:00:03.000"/>
  <entry producer="producer26" in="00:00:17.080" out="00:00:35.120">
   <property name="kdenlive:id">12</property>
  </entry>
  <entry producer="producer27" in="00:00:00.160" out="00:00:01.720">
   <property name="kdenlive:id">8</property>
  </entry>
  <blank length="00:00:04.760"/>
  <entry producer="producer27" in="00:00:02.400" out="00:00:04.080">
   <property name="kdenlive:id">8</property>
  </entry>
  <blank length="00:00:09.880"/>
  <entry producer="producer27" in="00:00:03.480" out="00:00:10.920">
   <property name="kdenlive:id">8</property>
  </entry>
  <entry producer="producer28" in="00:00:24.080" out="00:00:43.000">
   <property name="kdenlive:id">7</property>
  </entry>
 </playlist>
 <playlist id="playlist3"/>
 <tractor id="tractor1" in="00:00:00.000" out="00:01:45.000">
  <property name="kdenlive:audio_track">1</property>
  <property name="kdenlive:trackheight">71</property>
  <property name="kdenlive:timeline_active">1</property>
  <property name="kdenlive:collapsed">28</property>
  <property name="kdenlive:thumbs_format"/>
  <property name="kdenlive:audio_rec"/>
  <track hide="both" producer="playlist2"/>
  <track hide="video" producer="playlist3"/>
  <filter id="filter3">
   <property name="window">75</property>
   <property name="max_gain">20dB</property>
   <property name="mlt_service">volume</property>
   <property name="internal_added">237</property>
   <property name="disable">1</property>
  </filter>
  <filter id="filter4">
   <property name="channel">-1</property>
   <property name="mlt_service">panner</property>
   <property name="internal_added">237</property>
   <property name="start">0.5</property>
   <property name="disable">1</property>
  </filter>
  <filter id="filter5">
   <property name="iec_scale">0</property>
   <property name="mlt_service">audiolevel</property>
   <property name="disable">1</property>
  </filter>
 </tractor>
 <producer id="producer29" in="00:00:00.000" out="00:00:37.960">
  <property name="length">950</property>
  <property name="eof">pause</property>
  <property name="resource">/home/nicolas/Documents/Projets Musique/Barons Freaks/Créa 2020/LesNouvellesAventuresDesBaronsFreaks/Film/Rushes/Acte3/bureau_jack_caesar/00101.MTS</property>
  <property name="audio_index">1</property>
  <property name="video_index">0</property>
  <property name="mute_on_pause">0</property>
  <property name="mlt_service">avformat-novalidate</property>
  <property name="seekable">1</property>
  <property name="aspect_ratio">1</property>
  <property name="kdenlive:clipname">00101.MTS</property>
  <property name="kdenlive:folderid">-1</property>
  <property name="kdenlive:id">11</property>
  <property name="kdenlive:file_size">77856768</property>
  <property name="kdenlive:file_hash">dc0d0612e0b594c961672bc1295df059</property>
  <property name="kdenlive:proxy">-</property>
  <property name="kdenlive:originalurl">00101.MTS</property>
  <property name="kdenlive:audio_max">9</property>
  <property name="global_feed">1</property>
  <property name="xml">was here</property>
  <property name="meta.media.nb_streams">3</property>
  <property name="meta.media.0.stream.type">video</property>
  <property name="meta.media.0.stream.frame_rate">25</property>
  <property name="meta.media.0.stream.sample_aspect_ratio">0</property>
  <property name="meta.media.0.codec.width">1920</property>
  <property name="meta.media.0.codec.height">1080</property>
  <property name="meta.media.0.codec.rotate">0</property>
  <property name="meta.media.0.codec.frame_rate">25</property>
  <property name="meta.media.0.codec.pix_fmt">yuv420p</property>
  <property name="meta.media.0.codec.sample_aspect_ratio">1</property>
  <property name="meta.media.0.codec.colorspace">709</property>
  <property name="meta.media.0.codec.name">h264</property>
  <property name="meta.media.0.codec.long_name">H.264 / AVC / MPEG-4 AVC / MPEG-4 part 10</property>
  <property name="meta.media.0.codec.bit_rate">0</property>
  <property name="meta.media.1.stream.type">audio</property>
  <property name="meta.media.1.codec.sample_fmt">fltp</property>
  <property name="meta.media.1.codec.sample_rate">48000</property>
  <property name="meta.media.1.codec.channels">6</property>
  <property name="meta.media.1.codec.name">ac3</property>
  <property name="meta.media.1.codec.long_name">ATSC A/52A (AC-3)</property>
  <property name="meta.media.1.codec.bit_rate">448000</property>
  <property name="meta.media.2.codec.name">pgssub</property>
  <property name="meta.media.2.codec.long_name">HDMV Presentation Graphic Stream subtitles</property>
  <property name="meta.media.2.codec.bit_rate">0</property>
  <property name="meta.media.sample_aspect_num">1</property>
  <property name="meta.media.sample_aspect_den">1</property>
  <property name="meta.media.frame_rate_num">25</property>
  <property name="meta.media.frame_rate_den">1</property>
  <property name="meta.media.colorspace">709</property>
  <property name="meta.media.color_trc">2</property>
  <property name="meta.media.width">1920</property>
  <property name="meta.media.height">1080</property>
  <property name="meta.media.color_range">mpeg</property>
  <property name="set.test_audio">1</property>
  <property name="set.test_image">0</property>
  <property name="meta.media.top_field_first">1</property>
  <property name="meta.media.progressive">0</property>
 </producer>
 <producer id="producer30" in="00:00:00.000" out="00:00:44.200">
  <property name="length">1106</property>
  <property name="eof">pause</property>
  <property name="resource">/home/nicolas/Documents/Projets Musique/Barons Freaks/Créa 2020/LesNouvellesAventuresDesBaronsFreaks/Film/Rushes/Acte3/bureau_jack_caesar/00096.MTS</property>
  <property name="audio_index">1</property>
  <property name="video_index">0</property>
  <property name="mute_on_pause">0</property>
  <property name="mlt_service">avformat-novalidate</property>
  <property name="seekable">1</property>
  <property name="aspect_ratio">1</property>
  <property name="kdenlive:clipname">00096.MTS</property>
  <property name="kdenlive:folderid">-1</property>
  <property name="kdenlive:id">7</property>
  <property name="kdenlive:file_size">90931200</property>
  <property name="kdenlive:file_hash">9bb92b78db9666719be71bbb2a21a9b0</property>
  <property name="kdenlive:proxy">-</property>
  <property name="kdenlive:originalurl">00096.MTS</property>
  <property name="kdenlive:audio_max">10</property>
  <property name="global_feed">1</property>
  <property name="xml">was here</property>
  <property name="meta.media.nb_streams">3</property>
  <property name="meta.media.0.stream.type">video</property>
  <property name="meta.media.0.stream.frame_rate">25</property>
  <property name="meta.media.0.stream.sample_aspect_ratio">0</property>
  <property name="meta.media.0.codec.width">1920</property>
  <property name="meta.media.0.codec.height">1080</property>
  <property name="meta.media.0.codec.rotate">0</property>
  <property name="meta.media.0.codec.frame_rate">25</property>
  <property name="meta.media.0.codec.pix_fmt">yuv420p</property>
  <property name="meta.media.0.codec.sample_aspect_ratio">1</property>
  <property name="meta.media.0.codec.colorspace">709</property>
  <property name="meta.media.0.codec.name">h264</property>
  <property name="meta.media.0.codec.long_name">H.264 / AVC / MPEG-4 AVC / MPEG-4 part 10</property>
  <property name="meta.media.0.codec.bit_rate">0</property>
  <property name="meta.media.1.stream.type">audio</property>
  <property name="meta.media.1.codec.sample_fmt">fltp</property>
  <property name="meta.media.1.codec.sample_rate">48000</property>
  <property name="meta.media.1.codec.channels">6</property>
  <property name="meta.media.1.codec.name">ac3</property>
  <property name="meta.media.1.codec.long_name">ATSC A/52A (AC-3)</property>
  <property name="meta.media.1.codec.bit_rate">448000</property>
  <property name="meta.media.2.codec.name">pgssub</property>
  <property name="meta.media.2.codec.long_name">HDMV Presentation Graphic Stream subtitles</property>
  <property name="meta.media.2.codec.bit_rate">0</property>
  <property name="meta.media.sample_aspect_num">1</property>
  <property name="meta.media.sample_aspect_den">1</property>
  <property name="meta.media.frame_rate_num">25</property>
  <property name="meta.media.frame_rate_den">1</property>
  <property name="meta.media.colorspace">709</property>
  <property name="meta.media.color_trc">2</property>
  <property name="meta.media.width">1920</property>
  <property name="meta.media.height">1080</property>
  <property name="meta.media.color_range">mpeg</property>
  <property name="set.test_audio">1</property>
  <property name="set.test_image">0</property>
  <property name="meta.media.top_field_first">1</property>
  <property name="meta.media.progressive">0</property>
 </producer>
 <playlist id="playlist4">
  <blank length="00:01:02.240"/>
  <entry producer="producer29" in="00:00:06.960" out="00:00:12.840">
   <property name="kdenlive:id">11</property>
  </entry>
  <blank length="00:00:00.560"/>
  <entry producer="producer29" in="00:00:25.080" out="00:00:34.920">
   <property name="kdenlive:id">11</property>
  </entry>
  <blank length="00:00:07.480"/>
  <entry producer="producer30" in="00:00:24.080" out="00:00:43.000">
   <property name="kdenlive:id">7</property>
   <filter id="filter6" in="00:00:41.120" out="00:00:43.000">
    <property name="start">1</property>
    <property name="mlt_service">brightness</property>
    <property name="kdenlive_id">fade_to_black</property>
    <property name="end">0</property>
    <property name="alpha">-1</property>
   </filter>
  </entry>
 </playlist>
 <playlist id="playlist5"/>
 <tractor id="tractor2" in="00:00:00.000" out="00:01:45.000">
  <property name="kdenlive:trackheight">29</property>
  <property name="kdenlive:timeline_active">1</property>
  <property name="kdenlive:collapsed">28</property>
  <property name="kdenlive:thumbs_format"/>
  <property name="kdenlive:audio_rec"/>
  <track hide="audio" producer="playlist4"/>
  <track producer="playlist5"/>
 </tractor>
 <producer id="producer31" in="00:00:00.000" out="00:01:03.920">
  <property name="length">1599</property>
  <property name="eof">pause</property>
  <property name="resource">/home/nicolas/Documents/Projets Musique/Barons Freaks/Créa 2020/LesNouvellesAventuresDesBaronsFreaks/Film/Rushes/Acte3/bureau_jack_caesar/00091.MTS</property>
  <property name="audio_index">1</property>
  <property name="video_index">0</property>
  <property name="mute_on_pause">0</property>
  <property name="mlt_service">avformat-novalidate</property>
  <property name="seekable">1</property>
  <property name="aspect_ratio">1</property>
  <property name="kdenlive:clipname">00091.MTS</property>
  <property name="kdenlive:folderid">-1</property>
  <property name="kdenlive:id">3</property>
  <property name="kdenlive:file_size">131923968</property>
  <property name="kdenlive:file_hash">398cb9b7ce2292065e8bd8123e25fc90</property>
  <property name="kdenlive:proxy">-</property>
  <property name="kdenlive:originalurl">00091.MTS</property>
  <property name="kdenlive:audio_max">6</property>
  <property name="global_feed">1</property>
  <property name="xml">was here</property>
  <property name="meta.media.nb_streams">3</property>
  <property name="meta.media.0.stream.type">video</property>
  <property name="meta.media.0.stream.frame_rate">25</property>
  <property name="meta.media.0.stream.sample_aspect_ratio">0</property>
  <property name="meta.media.0.codec.width">1920</property>
  <property name="meta.media.0.codec.height">1080</property>
  <property name="meta.media.0.codec.rotate">0</property>
  <property name="meta.media.0.codec.frame_rate">25</property>
  <property name="meta.media.0.codec.pix_fmt">yuv420p</property>
  <property name="meta.media.0.codec.sample_aspect_ratio">1</property>
  <property name="meta.media.0.codec.colorspace">709</property>
  <property name="meta.media.0.codec.name">h264</property>
  <property name="meta.media.0.codec.long_name">H.264 / AVC / MPEG-4 AVC / MPEG-4 part 10</property>
  <property name="meta.media.0.codec.bit_rate">0</property>
  <property name="meta.media.1.stream.type">audio</property>
  <property name="meta.media.1.codec.sample_fmt">fltp</property>
  <property name="meta.media.1.codec.sample_rate">48000</property>
  <property name="meta.media.1.codec.channels">6</property>
  <property name="meta.media.1.codec.name">ac3</property>
  <property name="meta.media.1.codec.long_name">ATSC A/52A (AC-3)</property>
  <property name="meta.media.1.codec.bit_rate">448000</property>
  <property name="meta.media.2.codec.name">pgssub</property>
  <property name="meta.media.2.codec.long_name">HDMV Presentation Graphic Stream subtitles</property>
  <property name="meta.media.2.codec.bit_rate">0</property>
  <property name="meta.media.sample_aspect_num">1</property>
  <property name="meta.media.sample_aspect_den">1</property>
  <property name="meta.media.frame_rate_num">25</property>
  <property name="meta.media.frame_rate_den">1</property>
  <property name="meta.media.colorspace">709</property>
  <property name="meta.media.color_trc">2</property>
  <property name="meta.media.width">1920</property>
  <property name="meta.media.height">1080</property>
  <property name="meta.media.color_range">mpeg</property>
  <property name="set.test_audio">1</property>
  <property name="set.test_image">0</property>
  <property name="meta.media.top_field_first">1</property>
  <property name="meta.media.progressive">0</property>
 </producer>
 <producer id="producer32" in="00:00:00.000" out="00:01:14.320">
  <property name="length">1859</property>
  <property name="eof">pause</property>
  <property name="resource">/home/nicolas/Documents/Projets Musique/Barons Freaks/Créa 2020/LesNouvellesAventuresDesBaronsFreaks/Film/Rushes/Acte3/bureau_jack_caesar/00092.MTS</property>
  <property name="audio_index">1</property>
  <property name="video_index">0</property>
  <property name="mute_on_pause">0</property>
  <property name="mlt_service">avformat-novalidate</property>
  <property name="seekable">1</property>
  <property name="aspect_ratio">1</property>
  <property name="kdenlive:clipname">00092.MTS</property>
  <property name="kdenlive:folderid">-1</property>
  <property name="kdenlive:id">4</property>
  <property name="kdenlive:file_size">153550848</property>
  <property name="kdenlive:file_hash">1a9686ab35d57d32e1942c15d4d4a54e</property>
  <property name="kdenlive:proxy">-</property>
  <property name="kdenlive:originalurl">00092.MTS</property>
  <property name="kdenlive:audio_max">5</property>
  <property name="global_feed">1</property>
  <property name="xml">was here</property>
  <property name="meta.media.nb_streams">3</property>
  <property name="meta.media.0.stream.type">video</property>
  <property name="meta.media.0.stream.frame_rate">25</property>
  <property name="meta.media.0.stream.sample_aspect_ratio">0</property>
  <property name="meta.media.0.codec.width">1920</property>
  <property name="meta.media.0.codec.height">1080</property>
  <property name="meta.media.0.codec.rotate">0</property>
  <property name="meta.media.0.codec.frame_rate">25</property>
  <property name="meta.media.0.codec.pix_fmt">yuv420p</property>
  <property name="meta.media.0.codec.sample_aspect_ratio">1</property>
  <property name="meta.media.0.codec.colorspace">709</property>
  <property name="meta.media.0.codec.name">h264</property>
  <property name="meta.media.0.codec.long_name">H.264 / AVC / MPEG-4 AVC / MPEG-4 part 10</property>
  <property name="meta.media.0.codec.bit_rate">0</property>
  <property name="meta.media.1.stream.type">audio</property>
  <property name="meta.media.1.codec.sample_fmt">fltp</property>
  <property name="meta.media.1.codec.sample_rate">48000</property>
  <property name="meta.media.1.codec.channels">6</property>
  <property name="meta.media.1.codec.name">ac3</property>
  <property name="meta.media.1.codec.long_name">ATSC A/52A (AC-3)</property>
  <property name="meta.media.1.codec.bit_rate">448000</property>
  <property name="meta.media.2.codec.name">pgssub</property>
  <property name="meta.media.2.codec.long_name">HDMV Presentation Graphic Stream subtitles</property>
  <property name="meta.media.2.codec.bit_rate">0</property>
  <property name="meta.media.sample_aspect_num">1</property>
  <property name="meta.media.sample_aspect_den">1</property>
  <property name="meta.media.frame_rate_num">25</property>
  <property name="meta.media.frame_rate_den">1</property>
  <property name="meta.media.colorspace">709</property>
  <property name="meta.media.color_trc">2</property>
  <property name="meta.media.width">1920</property>
  <property name="meta.media.height">1080</property>
  <property name="meta.media.color_range">mpeg</property>
  <property name="set.test_audio">1</property>
  <property name="set.test_image">0</property>
  <property name="meta.media.top_field_first">1</property>
  <property name="meta.media.progressive">0</property>
 </producer>
 <producer id="producer33" in="00:00:00.000" out="00:00:49.880">
  <property name="length">1248</property>
  <property name="eof">pause</property>
  <property name="resource">/home/nicolas/Documents/Projets Musique/Barons Freaks/Créa 2020/LesNouvellesAventuresDesBaronsFreaks/Film/Rushes/Acte3/bureau_jack_caesar/00102.MTS</property>
  <property name="audio_index">1</property>
  <property name="video_index">0</property>
  <property name="mute_on_pause">0</property>
  <property name="mlt_service">avformat-novalidate</property>
  <property name="seekable">1</property>
  <property name="aspect_ratio">1</property>
  <property name="kdenlive:clipname">00102.MTS</property>
  <property name="kdenlive:folderid">-1</property>
  <property name="kdenlive:id">12</property>
  <property name="kdenlive:file_size">102629376</property>
  <property name="kdenlive:file_hash">3d0a05d3df759c673c018620be5a17f4</property>
  <property name="kdenlive:proxy">-</property>
  <property name="kdenlive:originalurl">00102.MTS</property>
  <property name="kdenlive:audio_max">6</property>
  <property name="global_feed">1</property>
  <property name="xml">was here</property>
  <property name="meta.media.nb_streams">3</property>
  <property name="meta.media.0.stream.type">video</property>
  <property name="meta.media.0.stream.frame_rate">25</property>
  <property name="meta.media.0.stream.sample_aspect_ratio">0</property>
  <property name="meta.media.0.codec.width">1920</property>
  <property name="meta.media.0.codec.height">1080</property>
  <property name="meta.media.0.codec.rotate">0</property>
  <property name="meta.media.0.codec.frame_rate">25</property>
  <property name="meta.media.0.codec.pix_fmt">yuv420p</property>
  <property name="meta.media.0.codec.sample_aspect_ratio">1</property>
  <property name="meta.media.0.codec.colorspace">709</property>
  <property name="meta.media.0.codec.name">h264</property>
  <property name="meta.media.0.codec.long_name">H.264 / AVC / MPEG-4 AVC / MPEG-4 part 10</property>
  <property name="meta.media.0.codec.bit_rate">0</property>
  <property name="meta.media.1.stream.type">audio</property>
  <property name="meta.media.1.codec.sample_fmt">fltp</property>
  <property name="meta.media.1.codec.sample_rate">48000</property>
  <property name="meta.media.1.codec.channels">6</property>
  <property name="meta.media.1.codec.name">ac3</property>
  <property name="meta.media.1.codec.long_name">ATSC A/52A (AC-3)</property>
  <property name="meta.media.1.codec.bit_rate">448000</property>
  <property name="meta.media.2.codec.name">pgssub</property>
  <property name="meta.media.2.codec.long_name">HDMV Presentation Graphic Stream subtitles</property>
  <property name="meta.media.2.codec.bit_rate">0</property>
  <property name="meta.media.sample_aspect_num">1</property>
  <property name="meta.media.sample_aspect_den">1</property>
  <property name="meta.media.frame_rate_num">25</property>
  <property name="meta.media.frame_rate_den">1</property>
  <property name="meta.media.colorspace">709</property>
  <property name="meta.media.color_trc">2</property>
  <property name="meta.media.width">1920</property>
  <property name="meta.media.height">1080</property>
  <property name="meta.media.color_range">mpeg</property>
  <property name="set.test_audio">1</property>
  <property name="set.test_image">0</property>
  <property name="meta.media.top_field_first">1</property>
  <property name="meta.media.progressive">0</property>
 </producer>
 <producer id="producer34" in="00:00:00.000" out="00:00:26.480">
  <property name="length">663</property>
  <property name="eof">pause</property>
  <property name="resource">/home/nicolas/Documents/Projets Musique/Barons Freaks/Créa 2020/LesNouvellesAventuresDesBaronsFreaks/Film/Rushes/Acte3/bureau_jack_caesar/00098.MTS</property>
  <property name="audio_index">1</property>
  <property name="video_index">0</property>
  <property name="mute_on_pause">0</property>
  <property name="mlt_service">avformat-novalidate</property>
  <property name="seekable">1</property>
  <property name="aspect_ratio">1</property>
  <property name="kdenlive:clipname">00098.MTS</property>
  <property name="kdenlive:folderid">-1</property>
  <property name="kdenlive:id">8</property>
  <property name="kdenlive:file_size">54165504</property>
  <property name="kdenlive:file_hash">04d76ed87a4aa6ca4857871e6d9ac5a8</property>
  <property name="kdenlive:proxy">-</property>
  <property name="kdenlive:originalurl">00098.MTS</property>
  <property name="kdenlive:audio_max">8</property>
  <property name="global_feed">1</property>
  <property name="xml">was here</property>
  <property name="meta.media.nb_streams">3</property>
  <property name="meta.media.0.stream.type">video</property>
  <property name="meta.media.0.stream.frame_rate">25</property>
  <property name="meta.media.0.stream.sample_aspect_ratio">0</property>
  <property name="meta.media.0.codec.width">1920</property>
  <property name="meta.media.0.codec.height">1080</property>
  <property name="meta.media.0.codec.rotate">0</property>
  <property name="meta.media.0.codec.frame_rate">25</property>
  <property name="meta.media.0.codec.pix_fmt">yuv420p</property>
  <property name="meta.media.0.codec.sample_aspect_ratio">1</property>
  <property name="meta.media.0.codec.colorspace">709</property>
  <property name="meta.media.0.codec.name">h264</property>
  <property name="meta.media.0.codec.long_name">H.264 / AVC / MPEG-4 AVC / MPEG-4 part 10</property>
  <property name="meta.media.0.codec.bit_rate">0</property>
  <property name="meta.media.1.stream.type">audio</property>
  <property name="meta.media.1.codec.sample_fmt">fltp</property>
  <property name="meta.media.1.codec.sample_rate">48000</property>
  <property name="meta.media.1.codec.channels">6</property>
  <property name="meta.media.1.codec.name">ac3</property>
  <property name="meta.media.1.codec.long_name">ATSC A/52A (AC-3)</property>
  <property name="meta.media.1.codec.bit_rate">448000</property>
  <property name="meta.media.2.codec.name">pgssub</property>
  <property name="meta.media.2.codec.long_name">HDMV Presentation Graphic Stream subtitles</property>
  <property name="meta.media.2.codec.bit_rate">0</property>
  <property name="meta.media.sample_aspect_num">1</property>
  <property name="meta.media.sample_aspect_den">1</property>
  <property name="meta.media.frame_rate_num">25</property>
  <property name="meta.media.frame_rate_den">1</property>
  <property name="meta.media.colorspace">709</property>
  <property name="meta.media.color_trc">2</property>
  <property name="meta.media.width">1920</property>
  <property name="meta.media.height">1080</property>
  <property name="meta.media.color_range">mpeg</property>
  <property name="set.test_audio">1</property>
  <property name="set.test_image">0</property>
  <property name="meta.media.top_field_first">1</property>
  <property name="meta.media.progressive">0</property>
 </producer>
 <producer id="producer35" in="00:00:00.000" out="00:01:10.880">
  <property name="length">1773</property>
  <property name="eof">pause</property>
  <property name="resource">/home/nicolas/Documents/Projets Musique/Barons Freaks/Créa 2020/LesNouvellesAventuresDesBaronsFreaks/Film/Rushes/Acte3/bureau_jack_caesar/flame.mp4</property>
  <property name="audio_index">1</property>
  <property name="video_index">0</property>
  <property name="mute_on_pause">0</property>
  <property name="mlt_service">avformat-novalidate</property>
  <property name="seekable">1</property>
  <property name="aspect_ratio">1</property>
  <property name="kdenlive:clipname">flame.mp4</property>
  <property name="kdenlive:folderid">-1</property>
  <property name="kdenlive:id">20</property>
  <property name="kdenlive:file_size">2545588</property>
  <property name="kdenlive:file_hash">fbf59357365d6a8ee65625f789c477e7</property>
  <property name="kdenlive:proxy">-</property>
  <property name="kdenlive:originalurl">flame.mp4</property>
  <property name="kdenlive:audio_max">91</property>
  <property name="global_feed">1</property>
  <property name="xml">was here</property>
  <property name="meta.media.nb_streams">2</property>
  <property name="meta.media.0.stream.type">video</property>
  <property name="meta.media.0.stream.frame_rate">30</property>
  <property name="meta.media.0.stream.sample_aspect_ratio">1</property>
  <property name="meta.media.0.codec.width">1914</property>
  <property name="meta.media.0.codec.height">1080</property>
  <property name="meta.media.0.codec.rotate">0</property>
  <property name="meta.media.0.codec.frame_rate">30</property>
  <property name="meta.media.0.codec.pix_fmt">yuv420p</property>
  <property name="meta.media.0.codec.sample_aspect_ratio">1</property>
  <property name="meta.media.0.codec.colorspace">709</property>
  <property name="meta.media.0.codec.color_trc">1</property>
  <property name="meta.media.0.codec.name">h264</property>
  <property name="meta.media.0.codec.long_name">H.264 / AVC / MPEG-4 AVC / MPEG-4 part 10</property>
  <property name="meta.media.0.codec.bit_rate">151031</property>
  <property name="meta.attr.0.stream.handler_name.markup">ISO Media file produced by Google Inc.</property>
  <property name="meta.media.1.stream.type">audio</property>
  <property name="meta.media.1.codec.sample_fmt">fltp</property>
  <property name="meta.media.1.codec.sample_rate">44100</property>
  <property name="meta.media.1.codec.channels">2</property>
  <property name="meta.media.1.codec.name">aac</property>
  <property name="meta.media.1.codec.long_name">AAC (Advanced Audio Coding)</property>
  <property name="meta.media.1.codec.bit_rate">127999</property>
  <property name="meta.attr.1.stream.language.markup">eng</property>
  <property name="meta.attr.1.stream.handler_name.markup">ISO Media file produced by Google Inc.</property>
  <property name="meta.attr.major_brand.markup">isom</property>
  <property name="meta.attr.minor_version.markup">512</property>
  <property name="meta.attr.compatible_brands.markup">isomiso2avc1mp41</property>
  <property name="meta.attr.encoder.markup">Lavf58.19.102</property>
  <property name="meta.media.sample_aspect_num">1</property>
  <property name="meta.media.sample_aspect_den">1</property>
  <property name="meta.media.frame_rate_num">30</property>
  <property name="meta.media.frame_rate_den">1</property>
  <property name="meta.media.colorspace">709</property>
  <property name="meta.media.color_trc">1</property>
  <property name="meta.media.width">1914</property>
  <property name="meta.media.height">1080</property>
  <property name="meta.media.color_range">mpeg</property>
  <property name="set.test_audio">1</property>
  <property name="set.test_image">0</property>
  <property name="meta.media.top_field_first">0</property>
  <property name="meta.media.progressive">1</property>
 </producer>
 <producer id="producer36" in="00:00:00.000" out="00:00:17.400">
  <property name="length">436</property>
  <property name="eof">pause</property>
  <property name="resource">/home/nicolas/.cache/kdenlive/proxy/814033f7e381cea60e417db01b7e6af6.mkv</property>
  <property name="audio_index">1</property>
  <property name="video_index">0</property>
  <property name="mute_on_pause">0</property>
  <property name="mlt_service">avformat-novalidate</property>
  <property name="seekable">1</property>
  <property name="aspect_ratio">1</property>
  <property name="kdenlive:clipname">fumee_3.mp4</property>
  <property name="kdenlive:folderid">-1</property>
  <property name="kdenlive:id">26</property>
  <property name="kdenlive:file_size">3018675</property>
  <property name="kdenlive:file_hash">814033f7e381cea60e417db01b7e6af6</property>
  <property name="kdenlive:proxy">/home/nicolas/.cache/kdenlive/proxy/814033f7e381cea60e417db01b7e6af6.mkv</property>
  <property name="kdenlive:originalurl">/home/nicolas/Documents/Projets Musique/Barons Freaks/Créa 2020/LesNouvellesAventuresDesBaronsFreaks/Film/Rushes/Acte3/bureau_jack_caesar/fumee_3.mp4</property>
  <property name="global_feed">1</property>
  <property name="kdenlive:original.mlt_type">producer</property>
  <property name="kdenlive:original.in">0</property>
  <property name="kdenlive:original.out">435</property>
  <property name="kdenlive:original.length">436</property>
  <property name="kdenlive:original.eof">pause</property>
  <property name="kdenlive:original.resource">/home/nicolas/.cache/kdenlive/proxy/814033f7e381cea60e417db01b7e6af6.mkv</property>
  <property name="kdenlive:original.audio_index">1</property>
  <property name="kdenlive:original.video_index">0</property>
  <property name="kdenlive:original.mute_on_pause">0</property>
  <property name="kdenlive:original.mlt_service">avformat-novalidate</property>
  <property name="kdenlive:original.seekable">1</property>
  <property name="kdenlive:original.aspect_ratio">1</property>
  <property name="kdenlive:original.kdenlive:folderid">-1</property>
  <property name="kdenlive:original.kdenlive:id">27</property>
  <property name="kdenlive:original.kdenlive:file_size">3018675</property>
  <property name="kdenlive:original.kdenlive:file_hash">814033f7e381cea60e417db01b7e6af6</property>
  <property name="kdenlive:original.global_feed">1</property>
  <property name="kdenlive:original.meta.media.nb_streams">2</property>
  <property name="kdenlive:original.meta.media.0.stream.type">video</property>
  <property name="kdenlive:original.meta.media.0.stream.frame_rate">30</property>
  <property name="kdenlive:original.meta.media.0.stream.sample_aspect_ratio">1</property>
  <property name="kdenlive:original.meta.media.0.codec.width">640</property>
  <property name="kdenlive:original.meta.media.0.codec.height">360</property>
  <property name="kdenlive:original.meta.media.0.codec.rotate">0</property>
  <property name="kdenlive:original.meta.media.0.codec.frame_rate">30</property>
  <property name="kdenlive:original.meta.media.0.codec.pix_fmt">yuv420p</property>
  <property name="kdenlive:original.meta.media.0.codec.sample_aspect_ratio">1</property>
  <property name="kdenlive:original.meta.media.0.codec.colorspace">601</property>
  <property name="kdenlive:original.meta.media.0.codec.name">mpeg2video</property>
  <property name="kdenlive:original.meta.media.0.codec.long_name">MPEG-2 video</property>
  <property name="kdenlive:original.meta.media.0.codec.bit_rate">0</property>
  <property name="kdenlive:original.meta.attr.0.stream.HANDLER_NAME.markup">ISO Media file produced by Google Inc. Created on: 04/16/2020.</property>
  <property name="kdenlive:original.meta.attr.0.stream.ENCODER.markup">Lavc58.91.100 mpeg2video</property>
  <property name="kdenlive:original.meta.attr.0.stream.DURATION.markup">00:00:17.411000000</property>
  <property name="kdenlive:original.meta.media.1.stream.type">audio</property>
  <property name="kdenlive:original.meta.media.1.codec.sample_fmt">s16p</property>
  <property name="kdenlive:original.meta.media.1.codec.sample_rate">44100</property>
  <property name="kdenlive:original.meta.media.1.codec.channels">2</property>
  <property name="kdenlive:original.meta.media.1.codec.name">mp2</property>
  <property name="kdenlive:original.meta.media.1.codec.long_name">MP2 (MPEG audio layer 2)</property>
  <property name="kdenlive:original.meta.media.1.codec.bit_rate">128000</property>
  <property name="kdenlive:original.meta.attr.1.stream.language.markup">eng</property>
  <property name="kdenlive:original.meta.attr.1.stream.HANDLER_NAME.markup">ISO Media file produced by Google Inc. Created on: 04/16/2020.</property>
  <property name="kdenlive:original.meta.attr.1.stream.ENCODER.markup">Lavc58.91.100 mp2</property>
  <property name="kdenlive:original.meta.attr.1.stream.DURATION.markup">00:00:17.424000000</property>
  <property name="kdenlive:original.meta.attr.COMPATIBLE_BRANDS.markup">isommp42</property>
  <property name="kdenlive:original.meta.attr.MAJOR_BRAND.markup">mp42</property>
  <property name="kdenlive:original.meta.attr.MINOR_VERSION.markup">0</property>
  <property name="kdenlive:original.meta.attr.ENCODER.markup">Lavf58.45.100</property>
  <property name="kdenlive:original.width">640</property>
  <property name="kdenlive:original.height">360</property>
  <property name="kdenlive:original.meta.media.sample_aspect_num">1</property>
  <property name="kdenlive:original.meta.media.sample_aspect_den">1</property>
  <property name="kdenlive:original.meta.media.frame_rate_num">30</property>
  <property name="kdenlive:original.meta.media.frame_rate_den">1</property>
  <property name="kdenlive:original.meta.media.colorspace">601</property>
  <property name="kdenlive:original.meta.media.color_trc">2</property>
  <property name="kdenlive:original.meta.media.width">640</property>
  <property name="kdenlive:original.meta.media.height">360</property>
  <property name="kdenlive:original.meta.media.color_range">mpeg</property>
  <property name="kdenlive:original.meta.media.top_field_first">0</property>
  <property name="kdenlive:original.meta.media.progressive">1</property>
  <property name="kdenlive:original.backup">1</property>
  <property name="xml">was here</property>
  <property name="meta.media.nb_streams">2</property>
  <property name="meta.media.0.stream.type">video</property>
  <property name="meta.media.0.stream.frame_rate">30</property>
  <property name="meta.media.0.stream.sample_aspect_ratio">1</property>
  <property name="meta.media.0.codec.width">640</property>
  <property name="meta.media.0.codec.height">360</property>
  <property name="meta.media.0.codec.rotate">0</property>
  <property name="meta.media.0.codec.frame_rate">30</property>
  <property name="meta.media.0.codec.pix_fmt">yuv420p</property>
  <property name="meta.media.0.codec.sample_aspect_ratio">1</property>
  <property name="meta.media.0.codec.colorspace">601</property>
  <property name="meta.media.0.codec.name">mpeg2video</property>
  <property name="meta.media.0.codec.long_name">MPEG-2 video</property>
  <property name="meta.media.0.codec.bit_rate">0</property>
  <property name="meta.attr.0.stream.HANDLER_NAME.markup">ISO Media file produced by Google Inc. Created on: 04/16/2020.</property>
  <property name="meta.attr.0.stream.ENCODER.markup">Lavc58.91.100 mpeg2video</property>
  <property name="meta.attr.0.stream.DURATION.markup">00:00:17.411000000</property>
  <property name="meta.media.1.stream.type">audio</property>
  <property name="meta.media.1.codec.sample_fmt">s16p</property>
  <property name="meta.media.1.codec.sample_rate">44100</property>
  <property name="meta.media.1.codec.channels">2</property>
  <property name="meta.media.1.codec.name">mp2</property>
  <property name="meta.media.1.codec.long_name">MP2 (MPEG audio layer 2)</property>
  <property name="meta.media.1.codec.bit_rate">128000</property>
  <property name="meta.attr.1.stream.language.markup">eng</property>
  <property name="meta.attr.1.stream.HANDLER_NAME.markup">ISO Media file produced by Google Inc. Created on: 04/16/2020.</property>
  <property name="meta.attr.1.stream.ENCODER.markup">Lavc58.91.100 mp2</property>
  <property name="meta.attr.1.stream.DURATION.markup">00:00:17.424000000</property>
  <property name="meta.attr.COMPATIBLE_BRANDS.markup">isommp42</property>
  <property name="meta.attr.MAJOR_BRAND.markup">mp42</property>
  <property name="meta.attr.MINOR_VERSION.markup">0</property>
  <property name="meta.attr.ENCODER.markup">Lavf58.45.100</property>
  <property name="meta.media.sample_aspect_num">1</property>
  <property name="meta.media.sample_aspect_den">1</property>
  <property name="meta.media.frame_rate_num">30</property>
  <property name="meta.media.frame_rate_den">1</property>
  <property name="meta.media.colorspace">601</property>
  <property name="meta.media.color_trc">2</property>
  <property name="meta.media.width">640</property>
  <property name="meta.media.height">360</property>
  <property name="meta.media.color_range">mpeg</property>
  <property name="meta.media.top_field_first">0</property>
  <property name="meta.media.progressive">1</property>
  <property name="set.test_audio">1</property>
  <property name="set.test_image">0</property>
 </producer>
 <playlist id="playlist6">
  <entry producer="producer31" in="00:00:02.960" out="00:00:12.440">
   <property name="kdenlive:id">3</property>
  </entry>
  <blank length="00:00:05.600"/>
  <entry producer="producer32" in="00:00:05.280" out="00:00:09.760">
   <property name="kdenlive:id">4</property>
  </entry>
  <blank length="00:00:02.920"/>
  <entry producer="producer33" in="00:00:03.040" out="00:00:06.560">
   <property name="kdenlive:id">12</property>
  </entry>
  <blank length="00:00:03.640"/>
  <entry producer="producer33" in="00:00:06.280" out="00:00:16.040">
   <property name="kdenlive:id">12</property>
  </entry>
  <blank length="00:00:03.000"/>
  <entry producer="producer33" in="00:00:17.080" out="00:00:35.120">
   <property name="kdenlive:id">12</property>
   <filter id="filter7">
    <property name="rotate_center">1</property>
    <property name="mlt_service">qtblend</property>
    <property name="kdenlive_id">qtblend</property>
    <property name="rect">00:00:17.080=0 0 1920 1080 1.000000</property>
    <property name="rotation">00:00:17.080=0</property>
    <property name="compositing">0</property>
    <property name="distort">0</property>
    <property name="kdenlive:collapsed">0</property>
   </filter>
   <filter id="filter8">
    <property name="rotate_center">1</property>
    <property name="mlt_service">qtblend</property>
    <property name="kdenlive_id">qtblend</property>
    <property name="rect">00:00:17.080=-46 -55 1152 648 1.000000</property>
    <property name="rotation">00:00:17.080=0</property>
    <property name="compositing">0</property>
    <property name="distort">0</property>
    <property name="kdenlive:collapsed">0</property>
   </filter>
  </entry>
  <entry producer="producer34" in="00:00:00.160" out="00:00:01.720">
   <property name="kdenlive:id">8</property>
  </entry>
  <blank length="00:00:04.760"/>
  <entry producer="producer34" in="00:00:02.400" out="00:00:04.080">
   <property name="kdenlive:id">8</property>
  </entry>
  <blank length="00:00:09.880"/>
  <entry producer="producer34" in="00:00:03.480" out="00:00:10.920">
   <property name="kdenlive:id">8</property>
  </entry>
  <blank length="00:00:05.800"/>
  <entry producer="producer35" in="00:00:01.280" out="00:00:01.360">
   <property name="kdenlive:id">20</property>
   <filter id="filter9">
    <property name="key">0x00ff00ff</property>
    <property name="variance">0.377</property>
    <property name="mlt_service">chroma</property>
    <property name="kdenlive_id">chroma</property>
    <property name="kdenlive:collapsed">0</property>
   </filter>
   <filter id="filter10">
    <property name="rotate_center">1</property>
    <property name="mlt_service">qtblend</property>
    <property name="kdenlive_id">qtblend</property>
    <property name="rect">00:00:01.280=891 486 134 75 1.000000</property>
    <property name="rotation">00:00:01.280=0</property>
    <property name="compositing">0</property>
    <property name="distort">0</property>
    <property name="kdenlive:collapsed">0</property>
   </filter>
  </entry>
  <blank length="00:00:02.560"/>
  <entry producer="producer36" in="00:00:10.080" out="00:00:17.360">
   <property name="kdenlive:id">26</property>
   <filter id="filter11">
    <property name="version">0.6</property>
    <property name="mlt_service">frei0r.select0r</property>
    <property name="kdenlive_id">frei0r.select0r</property>
    <property name="Color to select">0x00ff00ff</property>
    <property name="Invert selection">1</property>
    <property name="Selection subspace">0</property>
    <property name="Subspace shape">0.5</property>
    <property name="Edge mode">0.9</property>
    <property name="Delta R / A / Hue">00:00:10.080=0.2</property>
    <property name="Delta G / B / Chroma">00:00:10.080=0.584</property>
    <property name="Delta B / I / I">00:00:10.080=0.302</property>
    <property name="Slope">00:00:10.080=0.853</property>
    <property name="Operation">0.5</property>
    <property name="kdenlive:collapsed">1</property>
   </filter>
   <filter id="filter12">
    <property name="rotate_center">1</property>
    <property name="mlt_service">qtblend</property>
    <property name="kdenlive_id">qtblend</property>
    <property name="rect">00:00:10.080=0 0 1920 1080 1.000000;00:00:10.120=234 -74 1248 702 1.000000;00:00:12.320=106 -263 1248 702 1.000000</property>
    <property name="rotation">00:00:10.080=0;00:00:10.120=-61;00:00:12.320=-61</property>
    <property name="compositing">0</property>
    <property name="distort">0</property>
    <property name="kdenlive:collapsed">0</property>
   </filter>
   <filter id="filter13" in="00:00:16.480" out="00:00:17.360">
    <property name="start">1</property>
    <property name="mlt_service">brightness</property>
    <property name="kdenlive_id">fade_to_black</property>
    <property name="end">0</property>
    <property name="alpha">-1</property>
   </filter>
  </entry>
 </playlist>
 <playlist id="playlist7"/>
 <tractor id="tractor3" in="00:00:00.000" out="00:01:41.840">
  <property name="kdenlive:trackheight">71</property>
  <property name="kdenlive:timeline_active">1</property>
  <property name="kdenlive:collapsed">28</property>
  <property name="kdenlive:thumbs_format"/>
  <property name="kdenlive:audio_rec"/>
  <track hide="audio" producer="playlist6"/>
  <track producer="playlist7"/>
 </tractor>
 <producer id="producer37" in="00:00:00.000" out="00:00:09.600">
  <property name="length">00:00:09.640</property>
  <property name="eof">pause</property>
  <property name="resource">/home/nicolas/Documents/Projets Musique/Barons Freaks/Créa 2020/LesNouvellesAventuresDesBaronsFreaks/Artistique/Animation/Jingle Pub 1/.all.png</property>
  <property name="ttl">1</property>
  <property name="aspect_ratio">1</property>
  <property name="progressive">1</property>
  <property name="seekable">1</property>
  <property name="meta.media.width">1440</property>
  <property name="meta.media.height">1080</property>
  <property name="mlt_service">qimage</property>
  <property name="kdenlive:clipname">Séquence d'images</property>
  <property name="animation"/>
  <property name="luma_file"/>
  <property name="luma_duration">25</property>
  <property name="fade">0</property>
  <property name="crop">0</property>
  <property name="softness">0</property>
  <property name="loop">1</property>
  <property name="kdenlive:duration">00:00:09.640</property>
  <property name="kdenlive:folderid">-1</property>
  <property name="kdenlive:id">21</property>
  <property name="kdenlive:file_hash">d20f7d90ad2af04be24cbf20c433bff3</property>
  <property name="global_feed">1</property>
  <property name="xml">was here</property>
  <property name="set.test_audio">1</property>
  <property name="set.test_image">0</property>
 </producer>
 <playlist id="playlist8">
  <blank length="00:00:09.520"/>
  <entry producer="producer1" in="00:00:00.000" out="00:00:05.560">
   <property name="kdenlive:id">13</property>
  </entry>
  <blank length="00:00:04.440"/>
  <entry producer="producer1" in="00:00:00.000" out="00:00:02.960">
   <property name="kdenlive:id">13</property>
  </entry>
  <blank length="00:00:03.240"/>
  <entry producer="producer1" in="00:00:00.000" out="00:00:03.920">
   <property name="kdenlive:id">13</property>
  </entry>
  <blank length="00:00:09.800"/>
  <entry producer="producer1" in="00:00:00.000" out="00:00:02.960">
   <property name="kdenlive:id">13</property>
  </entry>
  <blank length="00:00:53.800"/>
  <entry producer="producer37" in="00:00:00.000" out="00:00:05.480">
   <property name="kdenlive:id">21</property>
   <filter id="filter14">
    <property name="rotate_center">1</property>
    <property name="mlt_service">qtblend</property>
    <property name="kdenlive_id">qtblend</property>
    <property name="rect">00:00:00.000=623 145 384 216 1.000000;00:00:00.400=635 150 384 216 1.000000;00:00:04.920=503 92 535 300 1.000000</property>
    <property name="rotation">00:00:00.000=0;00:00:00.400=0;00:00:04.920=0</property>
    <property name="compositing">0</property>
    <property name="distort">0</property>
    <property name="kdenlive:collapsed">0</property>
   </filter>
   <filter id="filter15" in="00:00:03.960" out="00:00:05.480">
    <property name="start">1</property>
    <property name="mlt_service">brightness</property>
    <property name="kdenlive_id">fade_to_black</property>
    <property name="end">0</property>
    <property name="alpha">-1</property>
    <property name="kdenlive:collapsed">0</property>
   </filter>
   <filter id="filter16" out="00:00:00.800">
    <property name="start">0</property>
    <property name="mlt_service">brightness</property>
    <property name="kdenlive_id">fade_from_black</property>
    <property name="end">1</property>
    <property name="alpha">-1</property>
    <property name="kdenlive:collapsed">0</property>
   </filter>
  </entry>
 </playlist>
 <playlist id="playlist9"/>
 <tractor id="tractor4" in="00:00:00.000" out="00:01:41.840">
  <property name="kdenlive:trackheight">33</property>
  <property name="kdenlive:timeline_active">1</property>
  <property name="kdenlive:collapsed">28</property>
  <property name="kdenlive:thumbs_format"/>
  <property name="kdenlive:audio_rec"/>
  <track hide="audio" producer="playlist8"/>
  <track producer="playlist9"/>
 </tractor>
 <playlist id="playlist10">
  <blank length="00:00:09.520"/>
  <entry producer="producer3" in="00:00:00.000" out="00:00:05.560">
   <property name="kdenlive:id">15</property>
  </entry>
  <blank length="00:00:04.440"/>
  <entry producer="producer2" in="00:00:00.000" out="00:00:02.960">
   <property name="kdenlive:id">14</property>
  </entry>
  <blank length="00:00:03.240"/>
  <entry producer="producer5" in="00:00:00.000" out="00:00:03.920">
   <property name="kdenlive:id">18</property>
  </entry>
  <blank length="00:00:09.800"/>
  <entry producer="producer4" in="00:00:00.000" out="00:00:02.960">
   <property name="kdenlive:id">17</property>
  </entry>
  <entry producer="producer20" in="00:00:00.000" out="00:00:18.040">
   <property name="kdenlive:id">19</property>
   <filter id="filter17">
    <property name="rotate_center">1</property>
    <property name="mlt_service">qtblend</property>
    <property name="kdenlive_id">qtblend</property>
    <property name="rect">00:00:00.000=-130 -135 1344 756 1.000000</property>
    <property name="rotation">00:00:00.000=0</property>
    <property name="compositing">0</property>
    <property name="distort">0</property>
    <property name="kdenlive:collapsed">0</property>
   </filter>
  </entry>
 </playlist>
 <playlist id="playlist11"/>
 <tractor id="tractor5" in="00:00:00.000" out="00:01:00.600">
  <property name="kdenlive:trackheight">37</property>
  <property name="kdenlive:timeline_active">1</property>
  <property name="kdenlive:collapsed">28</property>
  <property name="kdenlive:thumbs_format"/>
  <property name="kdenlive:audio_rec"/>
  <track hide="audio" producer="playlist10"/>
  <track producer="playlist11"/>
 </tractor>
 <playlist id="playlist12"/>
 <playlist id="playlist13"/>
 <tractor id="tractor6" in="00:00:00.000">
  <property name="kdenlive:trackheight">71</property>
  <property name="kdenlive:timeline_active">1</property>
  <property name="kdenlive:collapsed">28</property>
  <property name="kdenlive:thumbs_format"/>
  <property name="kdenlive:audio_rec"/>
  <track hide="audio" producer="playlist12"/>
  <track producer="playlist13"/>
 </tractor>
 <playlist id="playlist14"/>
 <playlist id="playlist15"/>
 <tractor id="tractor7" in="00:00:00.000">
  <property name="kdenlive:trackheight">71</property>
  <property name="kdenlive:timeline_active">1</property>
  <property name="kdenlive:collapsed">28</property>
  <property name="kdenlive:thumbs_format"/>
  <property name="kdenlive:audio_rec"/>
  <track hide="audio" producer="playlist14"/>
  <track producer="playlist15"/>
 </tractor>
 <playlist id="playlist16">
  <entry producer="producer0" in="00:00:00.000" out="00:00:06.800">
   <property name="kdenlive:id">2</property>
  </entry>
  <entry producer="producer0" in="00:00:00.000" out="00:01:41.920">
   <property name="kdenlive:id">2</property>
  </entry>
 </playlist>
 <playlist id="playlist17"/>
 <tractor id="tractor8" in="00:00:00.000" out="00:01:48.760">
  <property name="kdenlive:trackheight">29</property>
  <property name="kdenlive:timeline_active">1</property>
  <property name="kdenlive:collapsed">28</property>
  <property name="kdenlive:thumbs_format"/>
  <property name="kdenlive:audio_rec"/>
  <property name="kdenlive:locked_track">1</property>
  <track hide="audio" producer="playlist16"/>
  <track producer="playlist17"/>
 </tractor>
 <tractor id="tractor9" global_feed="1" in="00:00:00.000" out="00:21:48.800">
  <property name="kdenlive:activeeffect">1</property>
  <track producer="black_track"/>
  <track producer="tractor0"/>
  <track producer="tractor1"/>
  <track producer="tractor2"/>
  <track producer="tractor3"/>
  <track producer="tractor4"/>
  <track producer="tractor5"/>
  <track producer="tractor6"/>
  <track producer="tractor7"/>
  <track producer="tractor8"/>
  <transition id="transition0" in="00:01:36.360" out="00:01:41.840">
   <property name="a_track">4</property>
   <property name="b_track">5</property>
   <property name="version">0.2</property>
   <property name="mlt_service">frei0r.burn</property>
   <property name="kdenlive_id">frei0r.burn</property>
   <property name="force_track">1</property>
  </transition>
  <transition id="transition1" in="00:00:42.560" out="00:01:00.600">
   <property name="a_track">4</property>
   <property name="b_track">6</property>
   <property name="version">0.2</property>
   <property name="mlt_service">frei0r.alphain</property>
   <property name="kdenlive_id">frei0r.alphain</property>
   <property name="force_track">1</property>
  </transition>
  <transition id="transition2" in="00:01:34.560" out="00:01:41.840">
   <property name="a_track">3</property>
   <property name="b_track">4</property>
   <property name="version">0.2</property>
   <property name="mlt_service">frei0r.addition_alpha</property>
   <property name="kdenlive_id">frei0r.addition_alpha</property>
   <property name="force_track">1</property>
  </transition>
  <transition id="transition3">
   <property name="a_track">0</property>
   <property name="b_track">1</property>
   <property name="mlt_service">mix</property>
   <property name="kdenlive_id">mix</property>
   <property name="internal_added">237</property>
   <property name="always_active">1</property>
   <property name="accepts_blanks">1</property>
   <property name="sum">1</property>
  </transition>
  <transition id="transition4">
   <property name="a_track">0</property>
   <property name="b_track">2</property>
   <property name="mlt_service">mix</property>
   <property name="kdenlive_id">mix</property>
   <property name="internal_added">237</property>
   <property name="always_active">1</property>
   <property name="accepts_blanks">1</property>
   <property name="sum">1</property>
  </transition>
  <transition id="transition5">
   <property name="a_track">0</property>
   <property name="b_track">3</property>
   <property name="compositing">0</property>
   <property name="distort">0</property>
   <property name="rotate_center">0</property>
   <property name="mlt_service">qtblend</property>
   <property name="kdenlive_id">qtblend</property>
   <property name="internal_added">237</property>
   <property name="always_active">1</property>
  </transition>
  <transition id="transition6">
   <property name="a_track">0</property>
   <property name="b_track">4</property>
   <property name="compositing">0</property>
   <property name="distort">0</property>
   <property name="rotate_center">0</property>
   <property name="mlt_service">qtblend</property>
   <property name="kdenlive_id">qtblend</property>
   <property name="internal_added">237</property>
   <property name="always_active">1</property>
  </transition>
  <transition id="transition7">
   <property name="a_track">0</property>
   <property name="b_track">5</property>
   <property name="compositing">0</property>
   <property name="distort">0</property>
   <property name="rotate_center">0</property>
   <property name="mlt_service">qtblend</property>
   <property name="kdenlive_id">qtblend</property>
   <property name="internal_added">237</property>
   <property name="always_active">1</property>
  </transition>
  <transition id="transition8">
   <property name="a_track">0</property>
   <property name="b_track">6</property>
   <property name="compositing">0</property>
   <property name="distort">0</property>
   <property name="rotate_center">0</property>
   <property name="mlt_service">qtblend</property>
   <property name="kdenlive_id">qtblend</property>
   <property name="internal_added">237</property>
   <property name="always_active">1</property>
  </transition>
  <transition id="transition9">
   <property name="a_track">0</property>
   <property name="b_track">7</property>
   <property name="compositing">0</property>
   <property name="distort">0</property>
   <property name="rotate_center">0</property>
   <property name="mlt_service">qtblend</property>
   <property name="kdenlive_id">qtblend</property>
   <property name="internal_added">237</property>
   <property name="always_active">1</property>
  </transition>
  <transition id="transition10">
   <property name="a_track">0</property>
   <property name="b_track">8</property>
   <property name="compositing">0</property>
   <property name="distort">0</property>
   <property name="rotate_center">0</property>
   <property name="mlt_service">qtblend</property>
   <property name="kdenlive_id">qtblend</property>
   <property name="internal_added">237</property>
   <property name="always_active">1</property>
  </transition>
  <transition id="transition11">
   <property name="a_track">0</property>
   <property name="b_track">9</property>
   <property name="compositing">0</property>
   <property name="distort">0</property>
   <property name="rotate_center">0</property>
   <property name="mlt_service">qtblend</property>
   <property name="kdenlive_id">qtblend</property>
   <property name="internal_added">237</property>
   <property name="always_active">1</property>
  </transition>
  <filter id="filter18">
   <property name="window">75</property>
   <property name="max_gain">20dB</property>
   <property name="mlt_service">volume</property>
   <property name="internal_added">237</property>
   <property name="disable">1</property>
  </filter>
  <filter id="filter19">
   <property name="channel">-1</property>
   <property name="mlt_service">panner</property>
   <property name="internal_added">237</property>
   <property name="start">0.5</property>
   <property name="disable">1</property>
  </filter>
  <filter id="filter20">
   <property name="iec_scale">0</property>
   <property name="mlt_service">audiolevel</property>
   <property name="disable">1</property>
  </filter>
  <filter id="filter21">
   <property name="mlt_service">greyscale</property>
   <property name="kdenlive_id">greyscale</property>
   <property name="kdenlive:collapsed">0</property>
  </filter>
  <filter id="filter22">
   <property name="delta">5</property>
   <property name="every">5</property>
   <property name="brightnessdelta_up">10</property>
   <property name="brightnessdelta_down">20</property>
   <property name="brightnessdelta_every">10</property>
   <property name="unevendevelop_up">0</property>
   <property name="unevendevelop_down">0</property>
   <property name="unevendevelop_duration">20</property>
   <property name="mlt_service">oldfilm</property>
   <property name="kdenlive_id">oldfilm</property>
   <property name="kdenlive:collapsed">0</property>
  </filter>
 </tractor>
</mlt>
